<?xml version="1.0" standalone="no"?>
<!DOCTYPE svg PUBLIC "-//W3C//DTD SVG 1.1//EN" "http://www.w3.org/Graphics/SVG/1.1/DTD/svg11.dtd" >
<svg xmlns="http://www.w3.org/2000/svg" xmlns:xlink="http://www.w3.org/1999/xlink" version="1.1">
<metadata>
Created by FontForge 20190801 at Thu Oct 15 19:34:56 2020
 By www-data
Copyright (c) 2017 by Grilli Type. All rights reserved.
</metadata>
<defs>
<font id="GTSuperDisplayLightItalic" horiz-adv-x="580" >
  <font-face 
    font-family="GTSuperDisplayLightItalic"
    font-weight="300"
    font-style="italic"
    font-stretch="normal"
    units-per-em="1000"
    panose-1="0 0 4 0 0 0 0 0 0 0"
    ascent="763"
    descent="-237"
    x-height="490"
    cap-height="700"
    bbox="-440 -215 1020 880"
    underline-thickness="50"
    underline-position="-100"
    slope="-15"
    unicode-range="U+000D-FEFF"
  />
<missing-glyph horiz-adv-x="671" 
d="M309 558l163 -79q182 -89 182 -256q0 -132 -93 -215.5t-241 -83.5q-128 0 -208 58t-80 150q0 70 46 111t126 41q89 0 152.5 -50t63.5 -120q0 -45 -27.5 -72.5t-72.5 -27.5q-43 0 -70.5 27.5t-27.5 69.5q0 38 28 64.5t68 26.5q22 0 40 -6q-39 52 -114 52q-51 0 -81 -31.5
t-30 -86.5q0 -77 58 -127t147 -50q82 0 132.5 41t50.5 106q0 93 -129 156l-152 74q-153 75 -153 211q0 99 75.5 161t196.5 62q68 0 142.5 -17.5t121.5 -44.5l-72 -194h-5q-22 93 -93 156t-154 63q-43 0 -67 -18t-24 -49q0 -28 23.5 -52t77.5 -50z" />
    <glyph glyph-name="f_f" unicode="ff" horiz-adv-x="515" 
d="M615 718q34 0 51 -23l-31 -55h-13q-28 46 -89 46q-25 -13 -38 -40.5t-24 -78.5l-17 -77h106l-4 -15h-106l-96 -432q-25 -108 -92.5 -183t-123.5 -75q-34 0 -55 23l21 60h13q37 -31 105 -31q28 20 53 129l114 509h-63l4 15h63l2 10q19 82 60 133q-42 67 -129 61
q-43 -13 -67 -43t-43 -84l-17 -77h96l-4 -15h-96l-96 -432q-25 -108 -92.5 -183t-123.5 -75q-34 0 -55 23l21 60h13q37 -31 105 -31q28 20 53 129l114 509h-83l4 15h83l2 10q20 77 66 129t91 70.5t87 18.5q65 0 116 -40q54 40 115 40z" />
    <glyph glyph-name="f_f_i" unicode="ffi" horiz-adv-x="801" 
d="M633 718q59 0 112 -23.5t53 -58.5q0 -15 -10.5 -27.5t-30.5 -12.5q-22 0 -38 16t-25 35t-32 35t-59 16q-47 0 -79 -29.5t-43 -80.5l-21 -95h88l-4 -15h-88l-97 -435q-24 -107 -92 -182.5t-124 -75.5q-34 0 -55 23l21 60h13q37 -31 105 -31q28 20 53 129l115 512h-84l4 15
h83l2 7q17 78 56 130q-41 70 -130 64q-43 -13 -67 -43t-43 -84l-17 -77h73l-4 -15h-73l-96 -432q-25 -108 -92.5 -183t-123.5 -75q-34 0 -55 23l21 60h13q37 -31 105 -31q28 20 53 129l114 509h-83l4 15h83l2 10q20 77 66 129t91 70.5t87 18.5q67 0 118 -42q57 42 131 42z
M649 46q35 0 110 92l7 -6q-109 -144 -174 -144q-35 0 -35 38q0 13 4 25l102 363q8 29 -3.5 41t-43.5 7l-14 -2l2 10l144 35l-118 -423q-11 -36 19 -36z" />
    <glyph glyph-name="f_f_l" unicode="ffl" horiz-adv-x="799" 
d="M642 43q34 0 109 92l7 -6q-49 -66 -95 -105t-77 -39q-36 0 -36 39q0 11 5 33l158 585q-50 54 -137 51q-77 -23 -98 -119l-19 -84h106l-4 -15h-105l-97 -432q-24 -107 -92 -182.5t-124 -75.5q-34 0 -55 23l21 60h13q37 -31 105 -31q28 20 53 129l114 509h-83l4 15h83l2 10
q17 76 58 127q-40 73 -132 67q-43 -13 -67 -43t-43 -84l-17 -77h73l-4 -15h-73l-96 -432q-25 -108 -92.5 -183t-123.5 -75q-34 0 -55 23l21 60h13q37 -31 105 -31q28 20 53 129l114 509h-83l4 15h83l2 10q20 77 66 129t91 70.5t87 18.5q69 0 122 -45q64 45 142 45
q34 0 74 -10.5t62 -24.5l-162 -604q-9 -36 20 -36z" />
    <glyph glyph-name="f_i" unicode="fi" horiz-adv-x="541" 
d="M373 718q59 0 112 -23.5t53 -58.5q0 -15 -10.5 -27.5t-30.5 -12.5q-22 0 -38 16t-25 35t-32 35t-59 16q-47 0 -79 -29.5t-43 -80.5l-21 -95h88l-4 -15h-88l-97 -435q-24 -107 -92 -182.5t-124 -75.5q-34 0 -55 23l21 60h13q37 -31 105 -31q28 20 53 129l115 512h-84l4 15
h83l2 7q26 115 90.5 166.5t142.5 51.5zM389 46q35 0 110 92l7 -6q-109 -144 -174 -144q-35 0 -35 38q0 13 4 25l102 363q8 29 -3.5 41t-43.5 7l-14 -2l2 10l144 35l-118 -423q-11 -36 19 -36z" />
    <glyph glyph-name="f_l" unicode="fl" horiz-adv-x="539" 
d="M382 43q34 0 109 92l7 -6q-49 -66 -95 -105t-77 -39q-36 0 -36 39q0 11 5 33l158 585q-50 54 -137 51q-77 -23 -98 -119l-19 -84h106l-4 -15h-105l-97 -432q-24 -107 -92 -182.5t-124 -75.5q-34 0 -55 23l21 60h13q37 -31 105 -31q28 20 53 129l114 509h-83l4 15h83l2 10
q14 62 43 107t66 68t71 33t68 10t74 -10.5t62 -24.5l-162 -604q-9 -36 20 -36z" />
    <glyph glyph-name="f_b.liga" unicode="fb" horiz-adv-x="750" 
d="M658 509q34 0 54.5 -24t20.5 -75q0 -86 -49.5 -184.5t-129 -167.5t-156.5 -69q-31 0 -63.5 13.5t-45.5 30.5l163 609q-48 54 -136 51q-77 -23 -98 -119l-19 -84h106l-4 -15h-105l-97 -432q-24 -107 -92 -182.5t-124 -75.5q-34 0 -55 23l21 60h13q37 -31 105 -31
q28 20 53 129l114 509h-83l4 15h83l2 10q14 62 43 107t66 68t71 33t68 10t74 -10.5t62 -24.5l-122 -456q160 282 256 282zM474 24q75 31 132.5 139t57.5 219q0 69 -38 69q-72 0 -235 -263l-34 -124q51 -40 117 -40z" />
    <glyph glyph-name="f_f_b.liga" unicode="ffb" horiz-adv-x="1010" 
d="M918 509q34 0 54.5 -24t20.5 -75q0 -86 -49.5 -184.5t-129 -167.5t-156.5 -69q-31 0 -63.5 13.5t-45.5 30.5l163 609q-48 54 -136 51q-77 -23 -98 -119l-19 -84h106l-4 -15h-105l-97 -432q-24 -107 -92 -182.5t-124 -75.5q-34 0 -55 23l21 60h13q37 -31 105 -31
q28 20 53 129l114 509h-83l4 15h83l2 10q17 76 58 127q-40 73 -132 67q-43 -13 -67 -43t-43 -84l-17 -77h73l-4 -15h-73l-96 -432q-25 -108 -92.5 -183t-123.5 -75q-34 0 -55 23l21 60h13q37 -31 105 -31q28 20 53 129l114 509h-83l4 15h83l2 10q20 77 66 129t91 70.5
t87 18.5q69 0 122 -45q64 45 142 45q34 0 74 -10.5t62 -24.5l-122 -456q160 282 256 282zM734 24q75 31 132.5 139t57.5 219q0 69 -38 69q-72 0 -235 -263l-34 -124q51 -40 117 -40z" />
    <glyph glyph-name="f_f_h.liga" unicode="ffh" horiz-adv-x="1051" 
d="M1008 135l7 -6q-108 -144 -167 -144q-17 0 -29.5 11.5t-12.5 35.5q0 26 61 214q6 18 15.5 47.5t15 45.5t11.5 35.5t8.5 32t2.5 19.5q0 28 -25 28q-62 0 -240 -254l-54 -200h-61l172 643q-49 53 -136 50q-77 -22 -98 -119l-19 -84h106l-4 -15h-105l-97 -432
q-24 -107 -92 -182.5t-124 -75.5q-34 0 -55 23l21 60h13q37 -31 105 -31q28 20 53 129l114 509h-83l4 15h83l2 10q17 76 58 127q-40 73 -132 67q-43 -13 -67 -43t-43 -84l-17 -77h73l-4 -15h-73l-96 -432q-25 -108 -92.5 -183t-123.5 -75q-34 0 -55 23l21 60h13
q37 -31 105 -31q28 20 53 129l114 509h-83l4 15h83l2 10q20 77 66 129t91 70.5t87 18.5q69 0 122 -45q64 45 142 45q34 0 74 -10.5t62 -24.5l-121 -451q92 140 155 206.5t113 66.5q25 0 40.5 -13.5t15.5 -41.5q0 -37 -58 -213q-51 -157 -51 -172q0 -22 21 -22q34 0 109 92z
" />
    <glyph glyph-name="f_f_j.liga" unicode="ffj" horiz-adv-x="781" 
d="M647 718q60 0 113.5 -23.5t53.5 -58.5q0 -15 -10.5 -27.5t-30.5 -12.5q-19 0 -32 10.5t-22 25.5t-20 30t-31.5 25.5t-50.5 10.5q-52 0 -87.5 -29.5t-48.5 -80.5l-22 -98h89l-4 -15h-88l-97 -432q-24 -107 -92 -182.5t-124 -75.5q-34 0 -55 23l21 60h13q37 -31 105 -31
q28 20 53 129l114 509h-83l4 15h83l2 10q19 78 58 128q-41 72 -132 66q-43 -13 -67 -43t-43 -84l-17 -77h73l-4 -15h-73l-96 -432q-25 -108 -92.5 -183t-123.5 -75q-34 0 -55 23l21 60h13q37 -31 105 -31q28 20 53 129l114 509h-83l4 15h83l2 10q20 77 66 129t91 70.5
t87 18.5q69 0 121 -44q61 44 142 44zM625 461l-20 -3l2 10l153 37l-145 -543q-46 -177 -169 -177q-45 0 -61 11l2 5q15 -7 40 -7q41 0 69 29t48 102l131 489q8 29 -4 40.5t-46 6.5z" />
    <glyph glyph-name="f_f_k.liga" unicode="ffk" horiz-adv-x="1019" 
d="M857 46q10 0 24 5.5t40.5 28t54.5 58.5l8 -5q-45 -60 -94.5 -104t-74.5 -44q-23 0 -35 29l-87 209l58 21q111 40 151 82.5t40 89.5q0 23 -11 39t-29 16q-77 -24 -248 -274l-53 -197h-61l172 642q-48 54 -136 51q-77 -22 -98 -119l-19 -84h106l-4 -15h-105l-97 -432
q-24 -107 -92 -182.5t-124 -75.5q-34 0 -55 23l21 60h13q37 -31 105 -31q28 20 53 129l114 509h-83l4 15h83l2 10q17 76 58 127q-40 73 -132 67q-43 -13 -67 -43t-43 -84l-17 -77h73l-4 -15h-73l-96 -432q-25 -108 -92.5 -183t-123.5 -75q-34 0 -55 23l21 60h13
q37 -31 105 -31q28 20 53 129l114 509h-83l4 15h83l2 10q20 77 66 129t91 70.5t87 18.5q69 0 122 -45q64 45 142 45q34 0 74 -10.5t62 -24.5l-122 -456q180 277 291 277q24 0 41.5 -15t17.5 -45q0 -63 -69.5 -118.5t-184.5 -88.5l69 -168q10 -23 30 -23z" />
    <glyph glyph-name="f_h.liga" unicode="fh" horiz-adv-x="791" 
d="M748 135l7 -6q-108 -144 -167 -144q-17 0 -29.5 11.5t-12.5 35.5q0 26 61 214q6 18 15.5 47.5t15 45.5t11.5 35.5t8.5 32t2.5 19.5q0 28 -25 28q-62 0 -240 -254l-54 -200h-61l172 643q-49 53 -136 50q-77 -22 -98 -119l-19 -84h106l-4 -15h-105l-97 -432
q-24 -107 -92 -182.5t-124 -75.5q-34 0 -55 23l21 60h13q37 -31 105 -31q28 20 53 129l114 509h-83l4 15h83l2 10q14 62 43 107t66 68t71 33t68 10t74 -10.5t62 -24.5l-121 -451q92 140 155 206.5t113 66.5q25 0 40.5 -13.5t15.5 -41.5q0 -37 -58 -213q-51 -157 -51 -172
q0 -22 21 -22q34 0 109 92z" />
    <glyph glyph-name="f_j.liga" unicode="fj" horiz-adv-x="521" 
d="M387 718q60 0 113.5 -23.5t53.5 -58.5q0 -15 -10.5 -27.5t-30.5 -12.5q-19 0 -32 10.5t-22 25.5t-20 30t-31.5 25.5t-50.5 10.5q-52 0 -87.5 -29.5t-48.5 -80.5l-22 -98h89l-4 -15h-88l-97 -432q-24 -107 -92 -182.5t-124 -75.5q-34 0 -55 23l21 60h13q37 -31 105 -31
q28 20 53 129l114 509h-83l4 15h83l2 10q18 78 60 129t88.5 70t98.5 19zM365 461l-20 -3l2 10l153 37l-145 -543q-46 -177 -169 -177q-44 0 -61 11l2 5q15 -7 40 -7q41 0 69 29t48 102l131 489q8 29 -4 40.5t-46 6.5z" />
    <glyph glyph-name="f_k.liga" unicode="fk" horiz-adv-x="759" 
d="M597 46q10 0 24 5.5t40.5 28t54.5 58.5l8 -5q-45 -60 -94.5 -104t-74.5 -44q-23 0 -35 29l-87 209l58 21q111 40 151 82.5t40 89.5q0 23 -11 39t-29 16q-77 -24 -248 -274l-53 -197h-61l172 642q-48 54 -136 51q-77 -22 -98 -119l-19 -84h106l-4 -15h-105l-97 -432
q-24 -107 -92 -182.5t-124 -75.5q-34 0 -55 23l21 60h13q37 -31 105 -31q28 20 53 129l114 509h-83l4 15h83l2 10q14 62 43 107t66 68t71 33t68 10t74 -10.5t62 -24.5l-122 -456q180 277 291 277q24 0 41.5 -15t17.5 -45q0 -63 -69.5 -118.5t-184.5 -88.5l69 -168
q10 -23 30 -23z" />
    <glyph glyph-name="f_lcaron.liga" unicode="f&#x13e;" horiz-adv-x="538" 
d="M636 753q41 0 41 -43q0 -33 -27.5 -82.5t-70.5 -85.5h-11q59 64 59 101q0 17 -16 34t-16 32q0 18 11 31t30 13zM524 683l-162 -604q-9 -36 20 -36q34 0 109 92l7 -6q-49 -66 -95 -105t-77 -39q-36 0 -36 39q0 11 5 33l157 584l1 1q-50 54 -137 51q-77 -23 -98 -119
l-19 -84h106l-4 -15h-105l-97 -432q-24 -107 -92 -182.5t-124 -75.5q-34 0 -55 23l21 60h13q37 -31 105 -31q28 20 53 129l114 509h-83l4 15h83l2 10q14 62 43 107t66 68t71 33t68 10t74 -10.5t62 -24.5z" />
    <glyph glyph-name="g_f.liga" unicode="gf" horiz-adv-x="720" 
d="M820 718q34 0 51 -23l-31 -55h-13q-28 46 -89 46q-24 -13 -37 -40t-25 -79l-17 -77h106l-4 -15h-106l-96 -432q-29 -123 -68.5 -175.5t-137.5 -82.5l-5 14q53 17 83.5 54t48.5 113l114 509h-83l4 15h83l2 10q17 78 57.5 129.5t81 70t81.5 18.5zM134 88l154 -58
q89 -33 89 -97q0 -62 -69 -105t-179 -43q-85 0 -137 28t-52 82q0 45 40 77t120 56q-37 12 -56 29.5t-19 46.5q0 62 97 91q-52 28 -52 97q0 47 22 94t70 81.5t112 34.5q37 0 64 -12h114l-4 -15h-85q37 -31 37 -87q0 -47 -22 -94t-70 -81.5t-112 -34.5q-35 0 -58 10
q-66 -17 -66 -52q0 -16 13 -25.5t49 -22.5zM265 490q-59 0 -94.5 -63t-35.5 -139q0 -98 70 -98q59 0 94.5 63t35.5 139q0 98 -70 98zM168 -191q69 0 112.5 24t43.5 68q0 52 -65 73l-142 48q-54 -16 -84 -39.5t-30 -66.5q0 -51 45 -79t120 -28z" />
    <glyph glyph-name="g_g.liga" unicode="gg" horiz-adv-x="868" 
d="M134 88l125 -47q88 -33 88 -108q0 -62 -60.5 -105t-160.5 -43q-81 0 -133.5 28.5t-52.5 81.5q0 45 40 77t120 56q-37 12 -56 29.5t-19 46.5q0 62 97 91q-52 28 -52 97q0 47 22 94t70 81.5t112 34.5q37 0 64 -12h114l-4 -15h-85q37 -31 37 -87q0 -47 -22 -94t-70 -81.5
t-112 -34.5q-35 0 -58 10q-66 -17 -66 -52q0 -16 13 -25.5t49 -22.5zM767 490h114l-4 -15h-85q37 -31 37 -87q0 -47 -22 -94t-70 -81.5t-112 -34.5q-35 0 -58 10q-66 -17 -66 -52q0 -16 13 -25.5t49 -22.5l154 -58q89 -33 89 -97q0 -62 -69 -105t-179 -43q-75 0 -123.5 28.5
t-48.5 81.5q0 79 161 126l-11 4q-40 13 -61 31t-21 48q0 62 97 91q-52 28 -52 97q0 47 22 94t70 81.5t112 34.5q37 0 64 -12zM265 490q-59 0 -94.5 -63t-35.5 -139q0 -98 70 -98q59 0 94.5 63t35.5 139q0 98 -70 98zM634 190q59 0 94.5 63t35.5 139q0 98 -70 98
q-59 0 -94.5 -63t-35.5 -139q0 -98 70 -98zM165 -191q59 0 94 23.5t35 68.5q0 62 -65 83l-112 38q-54 -16 -84 -39.5t-30 -66.5q0 -51 45.5 -79t116.5 -28zM753 -99q0 52 -65 73l-123 41q-34 -9 -56 -18.5t-41 -30.5t-19 -50q0 -51 42 -79t106 -28q69 0 112.5 24t43.5 68z
" />
    <glyph glyph-name="g_j.liga" unicode="gj" horiz-adv-x="712" 
d="M696 684q21 0 35 -14t14 -34t-13.5 -34t-35.5 -14q-21 0 -34.5 14t-13.5 35q0 20 13.5 33.5t34.5 13.5zM556 461l-20 -3l2 10l153 37l-154 -575q-10 -36 -26 -62.5t-27.5 -39.5t-34.5 -23.5t-29.5 -12t-31.5 -7.5l-2 12q31 10 48 26t26 47l146 544q8 29 -4.5 40.5
t-45.5 6.5zM134 88l154 -58q89 -33 89 -97q0 -62 -69 -105t-179 -43q-85 0 -137 28t-52 82q0 45 40 77t120 56q-37 12 -56 29.5t-19 46.5q0 62 97 91q-52 28 -52 97q0 47 22 94t70 81.5t112 34.5q37 0 64 -12h114l-4 -15h-85q37 -31 37 -87q0 -47 -22 -94t-70 -81.5
t-112 -34.5q-35 0 -58 10q-66 -17 -66 -52q0 -16 13 -25.5t49 -22.5zM265 490q-59 0 -94.5 -63t-35.5 -139q0 -98 70 -98q59 0 94.5 63t35.5 139q0 98 -70 98zM168 -191q69 0 112.5 24t43.5 68q0 52 -65 73l-142 48q-54 -16 -84 -39.5t-30 -66.5q0 -51 45 -79t120 -28z" />
    <glyph glyph-name="g_y.liga" unicode="gy" horiz-adv-x="941" 
d="M798 473l81 36q45 -54 45 -125q0 -172 -246 -420q-10 -10 -36 -36.5t-33.5 -34t-28 -27t-28.5 -25.5t-25 -19t-27 -17t-25.5 -10.5t-29 -8t-29.5 -1.5q-35 0 -46 14l31 84h5q23 -26 67 -26q75 0 183 105l4 4l-87 419q-11 49 -21 60q-17 18 -53 5l1 8l126 51l94 -480
q143 162 143 295q0 51 -18 89.5t-47 54.5v5zM134 88l124 -48q43 -18 67 -40.5t24 -61.5q0 -63 -68.5 -108t-171.5 -45q-78 0 -123.5 28t-45.5 82q0 45 40 77t120 56q-37 12 -56 29.5t-19 46.5q0 62 97 91q-52 28 -52 97q0 47 22 94t70 81.5t112 34.5q37 0 64 -12h114l-4 -15
h-85q37 -31 37 -87q0 -47 -22 -94t-70 -81.5t-112 -34.5q-35 0 -58 10q-66 -17 -66 -52q0 -16 13 -25.5t49 -22.5zM265 490q-59 0 -94.5 -63t-35.5 -139q0 -98 70 -98q59 0 94.5 63t35.5 139q0 98 -70 98zM138 -191q156 0 156 95q0 58 -65 80l-112 38q-54 -16 -84 -39.5
t-30 -66.5q0 -51 37 -79t98 -28z" />
    <glyph glyph-name=".notdef" horiz-adv-x="671" 
d="M309 558l163 -79q182 -89 182 -256q0 -132 -93 -215.5t-241 -83.5q-128 0 -208 58t-80 150q0 70 46 111t126 41q89 0 152.5 -50t63.5 -120q0 -45 -27.5 -72.5t-72.5 -27.5q-43 0 -70.5 27.5t-27.5 69.5q0 38 28 64.5t68 26.5q22 0 40 -6q-39 52 -114 52q-51 0 -81 -31.5
t-30 -86.5q0 -77 58 -127t147 -50q82 0 132.5 41t50.5 106q0 93 -129 156l-152 74q-153 75 -153 211q0 99 75.5 161t196.5 62q68 0 142.5 -17.5t121.5 -44.5l-72 -194h-5q-22 93 -93 156t-154 63q-43 0 -67 -18t-24 -49q0 -28 23.5 -52t77.5 -50z" />
    <glyph glyph-name=".null" horiz-adv-x="0" 
 />
    <glyph glyph-name="nonmarkingreturn" horiz-adv-x="333" 
 />
    <glyph glyph-name="CR" unicode="&#xd;" horiz-adv-x="220" 
 />
    <glyph glyph-name="space" unicode=" " horiz-adv-x="220" 
 />
    <glyph glyph-name="exclam" unicode="!" horiz-adv-x="239" 
d="M103 178h-6l91 489q9 53 51 53q34 0 34 -32q0 -12 -8 -35zM64 -12q-22 0 -36.5 14.5t-14.5 35.5t14.5 35.5t36.5 14.5t36.5 -14.5t14.5 -35.5t-14.5 -35.5t-36.5 -14.5z" />
    <glyph glyph-name="quotedbl" unicode="&#x22;" horiz-adv-x="348" 
d="M175 502h-9l-4 135q-1 20 4 40q7 24 25.5 38.5t39.5 14.5q18 0 28.5 -11t10.5 -29q0 -19 -19 -53zM320 502h-9l-4 135q-1 20 4 40q7 24 25.5 38.5t39.5 14.5q18 0 28.5 -11t10.5 -29q0 -19 -19 -53z" />
    <glyph glyph-name="numbersign" unicode="#" horiz-adv-x="568" 
d="M599 398l-5 -19h-163l-71 -141h196l-5 -19h-200l-118 -234h-20l118 234h-165l-118 -234h-20l118 234h-143l5 19h147l71 141h-180l5 19h185l120 239h20l-120 -239h165l120 239h20l-120 -239h158zM175 238h165l71 141h-165z" />
    <glyph glyph-name="dollar" unicode="$" horiz-adv-x="512" 
d="M405 750l-18 -67q101 -12 156 -53l-57 -183h-6q36 182 -99 213l-76 -288l50 -37q93 -67 93 -158q0 -78 -61 -135t-170 -57h-14l-22 -85h-20l23 86q-102 8 -185 54l56 187h7q-15 -95 16.5 -152.5t110.5 -68.5l78 297l-48 35q-45 33 -72 70t-27 91q0 33 12 64.5t36.5 59.5
t69 45t102.5 17q18 0 28 -1l17 66h20zM266 401l23 -17l73 279q-20 2 -31 2q-78 0 -117.5 -36.5t-39.5 -90.5q0 -39 23 -71t69 -66zM305 275l-21 15l-75 -286h17q84 0 121 38t37 95q0 81 -79 138z" />
    <glyph glyph-name="percent" unicode="%" horiz-adv-x="726" 
d="M696 682h22l-648 -722h-22zM208 315q-48 0 -79 30t-31 87q0 47 19.5 98.5t63 91.5t99.5 40q48 0 79 -30.5t31 -87.5q0 -47 -19.5 -98t-63 -91t-99.5 -40zM207 328q38 0 69 44t45.5 97t14.5 96q0 83 -55 83q-38 0 -69.5 -44t-46 -97t-14.5 -96q0 -83 56 -83zM486 -21
q-48 0 -79 30t-31 87q0 47 19.5 98.5t63 91.5t99.5 40q48 0 79 -30.5t31 -87.5q0 -47 -19.5 -98t-63 -91t-99.5 -40zM485 -8q38 0 69 44t45.5 97t14.5 96q0 83 -55 83q-38 0 -69.5 -44t-46 -97t-14.5 -96q0 -83 56 -83z" />
    <glyph glyph-name="ampersand" unicode="&#x26;" horiz-adv-x="671" 
d="M614 89l5 -2q-13 -53 -42.5 -78.5t-65.5 -25.5q-32 0 -53 18t-39 52l-35 65q-29 -70 -82 -102.5t-114 -32.5q-77 0 -124.5 48t-47.5 131q0 82 55 145.5t161 91.5l-7 13q-43 79 -43 145q0 68 43.5 115.5t137.5 47.5q103 0 152 -59l-49 -156h-7q6 35 6 63q0 138 -117 138
q-62 0 -88.5 -37t-26.5 -87q0 -46 40 -119l207 -383q28 -52 71 -52q29 0 41.5 15t21.5 46zM238 17q88 0 139 114l-140 258q-76 -22 -114 -76t-38 -127q0 -72 39 -120.5t114 -48.5z" />
    <glyph glyph-name="quotesingle" unicode="'" horiz-adv-x="203" 
d="M175 502h-9l-4 135q-1 20 4 40q7 24 25.5 38.5t39.5 14.5q18 0 28.5 -11t10.5 -29q0 -19 -19 -53z" />
    <glyph glyph-name="parenleft" unicode="(" horiz-adv-x="299" 
d="M185 -144l-4 -3q-54 45 -89.5 146t-35.5 221q0 371 363 533l3 -3q-98 -61 -164 -132.5t-98 -146t-44.5 -140.5t-12.5 -142q0 -227 82 -333z" />
    <glyph glyph-name="parenright" unicode=")" horiz-adv-x="299" 
d="M145 750l4 3q54 -45 89.5 -146t35.5 -221q0 -371 -363 -533l-3 3q98 61 164 132.5t98 146t44.5 140.5t12.5 142q0 227 -82 333z" />
    <glyph glyph-name="asterisk" unicode="*" horiz-adv-x="427" 
d="M401 637q1 -28 -36 -43q-10 -4 -37 -4l-50 2l35 -28q13 -10 21 -25q14 -28 -19 -49q-29 -18 -45 10q-6 11 -6 34v53l-28 -53q-13 -25 -24 -34q-32 -27 -50 -10q-20 19 7 49q9 10 35 25l50 28l-53 -2q-26 0 -35 4q-31 13 -14 43q18 31 51 20q11 -3 26 -19l33 -34l-6 51
q-1 5 -1 18q0 25 13 39.5t33 14.5q25 0 25 -27q0 -14 -19 -45l-32 -50l50 33q23 15 37 19q37 10 39 -20z" />
    <glyph glyph-name="plus" unicode="+" 
d="M316 316h191v-15h-191v-191h-17v191h-192v15h192v191h17v-191z" />
    <glyph glyph-name="comma" unicode="," horiz-adv-x="230" 
d="M-31 -117l-1 9q45 4 67.5 24t22.5 41t-31 35q-30 13 -30 47q0 21 15 35t38 14t38.5 -17.5t15.5 -54.5q0 -47 -35 -87t-100 -46z" />
    <glyph glyph-name="hyphen" unicode="-" horiz-adv-x="378" 
d="M345 293h-287l8 25h287z" />
    <glyph glyph-name="period" unicode="." horiz-adv-x="205" 
d="M47 -12q-22 0 -36.5 14.5t-14.5 35.5t14.5 35.5t36.5 14.5t36.5 -14.5t14.5 -35.5t-14.5 -35.5t-36.5 -14.5z" />
    <glyph glyph-name="slash" unicode="/" horiz-adv-x="359" 
d="M-38 -60h-19l511 822h19z" />
    <glyph glyph-name="zero" unicode="0" horiz-adv-x="587" 
d="M251 -15q-86 0 -146 50.5t-60 158.5q0 60 20.5 121t57 113t95.5 84.5t129 32.5q86 0 146 -50.5t60 -158.5q0 -60 -20.5 -121t-57 -113t-95.5 -84.5t-129 -32.5zM248 2q54 0 98 25.5t70 63.5t43 85.5t23.5 88.5t6.5 76q0 189 -139 189q-46 0 -84 -17.5t-63.5 -47.5
t-44.5 -65.5t-29 -75t-15 -73t-5 -62.5q0 -187 139 -187z" />
    <glyph glyph-name="one" unicode="1" horiz-adv-x="388" 
d="M292 0h-318l3 10q82 4 110 17.5t39 56.5l90 337q8 31 1.5 44t-30.5 13q-27 0 -85 -21l1 8l201 80h6l-124 -461q-11 -42 9 -56t100 -18z" />
    <glyph glyph-name="two" unicode="2" horiz-adv-x="451" 
d="M342 0h-377l1 5l183 118q147 95 194 153t47 138q0 50 -29 79.5t-83 29.5q-57 0 -104 -35.5t-62 -108.5l-11 1q17 85 75.5 125t135.5 40q67 0 107 -35t40 -91q0 -75 -65 -139.5t-251 -177.5l-67 -41h301z" />
    <glyph glyph-name="three" unicode="3" horiz-adv-x="480" 
d="M145 -155q-142 0 -180 107l12 4q32 -90 146 -90q92 0 140.5 55.5t48.5 131.5q0 81 -41 117t-106 36h-25l3 10h19q119 0 172.5 54t53.5 131q0 124 -133 124q-75 0 -117 -37.5t-53 -97.5l-10 2q11 68 62 110.5t139 42.5q46 0 84.5 -11t68.5 -44.5t30 -85.5q0 -81 -66 -135
t-186 -57v-3q24 0 46 -3.5t46 -14t41.5 -28t29 -47.5t11.5 -69q0 -33 -12.5 -66t-38.5 -64.5t-74 -51.5t-111 -20z" />
    <glyph glyph-name="four" unicode="4" horiz-adv-x="509" 
d="M266 -140h-62l59 219h-297l2 8l450 443h28l-114 -424h125l-7 -27h-125zM366 463l-360 -357h264z" />
    <glyph glyph-name="five" unicode="5" horiz-adv-x="466" 
d="M119 -155q-153 0 -179 112l12 4q10 -49 51 -75t103 -26q103 0 153.5 62t50.5 158q0 85 -39 125t-96 40q-55 0 -110 -37l-10 5l159 317h308l-35 -60h-285l-122 -237q46 33 122 33q28 0 55 -8t56 -27t46.5 -57.5t17.5 -92.5q0 -34 -14 -72t-42 -76t-81 -63t-121 -25z" />
    <glyph glyph-name="six" unicode="6" horiz-adv-x="534" 
d="M505 685q84 0 126 -22l-9 -12q-32 18 -107 18q-94 0 -170 -38t-123 -100t-75 -132t-36 -144q67 154 207 154q75 0 126.5 -43.5t51.5 -128.5q0 -61 -25.5 -116.5t-82.5 -95t-135 -39.5q-94 0 -150.5 57t-56.5 165q0 57 16 119.5t52 126.5t87.5 115t130.5 83.5t173 32.5z
M301 392q-67 0 -116.5 -47t-75.5 -121q-1 -9 -1 -26q0 -200 147 -200q53 0 90.5 23.5t55 62t24.5 73t7 69.5q0 81 -35.5 123.5t-95.5 42.5z" />
    <glyph glyph-name="seven" unicode="7" horiz-adv-x="443" 
d="M-13 -140h-55l516 610h-351l35 60h380l2 -3z" />
    <glyph glyph-name="eight" unicode="8" horiz-adv-x="550" 
d="M562 532q0 -25 -9 -48.5t-30.5 -49t-67 -47t-109.5 -34.5l42 -34q95 -77 95 -154q0 -29 -11.5 -58t-37 -57.5t-76 -46.5t-118.5 -18q-40 0 -75 6.5t-69.5 23t-55 50t-20.5 81.5q0 75 55.5 124t180.5 75l-29 23q-80 64 -80 148q0 74 56 121.5t157 47.5q82 0 142 -36
t60 -117zM271 413l68 -55q159 34 159 178q0 72 -41.5 105t-101.5 33q-71 0 -110.5 -41.5t-39.5 -98.5q0 -69 66 -121zM421 147q0 40 -17.5 67.5t-57.5 58.5l-79 63q-180 -35 -180 -192q0 -73 41 -111t118 -38q86 0 130.5 43.5t44.5 108.5z" />
    <glyph glyph-name="nine" unicode="9" horiz-adv-x="525" 
d="M278 545q95 0 153 -57t58 -174q0 -54 -16 -115.5t-51 -124.5t-85 -114t-125 -83t-163 -32q-78 0 -114 22l9 12q26 -18 103 -18q81 0 148.5 34.5t112.5 92.5t73 127.5t39 146.5q-32 -70 -86 -105t-110 -35q-83 0 -134 45.5t-51 130.5q0 98 63.5 172.5t175.5 74.5zM227 139
q71 0 121.5 45t75.5 120q2 32 2 48q0 86 -40 133.5t-111 47.5q-79 0 -125.5 -67.5t-46.5 -155.5q0 -85 36.5 -128t87.5 -43z" />
    <glyph glyph-name="colon" unicode=":" horiz-adv-x="207" 
d="M159 403q-22 0 -36.5 14.5t-14.5 35.5t14.5 35.5t36.5 14.5t36.5 -14.5t14.5 -35.5t-14.5 -35.5t-36.5 -14.5zM49 -12q-22 0 -36.5 14.5t-14.5 35.5t14.5 35.5t36.5 14.5t36.5 -14.5t14.5 -35.5t-14.5 -35.5t-36.5 -14.5z" />
    <glyph glyph-name="semicolon" unicode=";" horiz-adv-x="231" 
d="M159 403q-22 0 -36.5 14.5t-14.5 35.5t14.5 35.5t36.5 14.5t36.5 -14.5t14.5 -35.5t-14.5 -35.5t-36.5 -14.5zM-30 -117l-1 9q45 4 67.5 24t22.5 41t-31 35q-30 13 -30 47q0 21 15 35t38 14t38.5 -17.5t15.5 -54.5q0 -47 -35 -87t-100 -46z" />
    <glyph glyph-name="less" unicode="&#x3c;" 
d="M471 82v-18l-400 208v10l400 208v-18l-376 -195z" />
    <glyph glyph-name="equal" unicode="=" 
d="M506 380h-398v15h398v-15zM506 221h-398v15h398v-15z" />
    <glyph glyph-name="greater" unicode="&#x3e;" 
d="M526 272l-400 -208v18l376 195l-376 195v18l400 -208v-10z" />
    <glyph glyph-name="question" unicode="?" horiz-adv-x="405" 
d="M170 174h-10l11 39q17 62 33.5 86.5t50.5 51.5q87 67 118 109.5t31 106.5q0 66 -32.5 96t-85.5 30q-65 0 -110.5 -40.5t-61.5 -111.5l-3 1q14 78 71 128t134 50q168 0 168 -151q0 -40 -15.5 -73.5t-44 -58t-52 -39t-55.5 -29.5q-69 -39 -94 -65.5t-42 -89.5zM133 -12
q-22 0 -36.5 14.5t-14.5 35.5t14.5 35.5t36.5 14.5t36.5 -14.5t14.5 -35.5t-14.5 -35.5t-36.5 -14.5z" />
    <glyph glyph-name="at" unicode="@" horiz-adv-x="765" 
d="M525 92q-53 0 -73 22t-15 69q-38 -88 -123 -88q-39 0 -64 21t-25 60q0 50 40.5 92.5t125.5 54.5l79 12l4 17q15 59 -1 94.5t-69 35.5q-70 0 -101 -82h-4q17 54 57 85t90 31q53 0 76.5 -41t5.5 -110l-46 -174q-10 -38 3.5 -62.5t51.5 -24.5q80 0 142.5 85.5t62.5 205.5
q0 122 -78.5 201.5t-210.5 79.5q-156 0 -270.5 -127t-114.5 -315q0 -142 72.5 -226.5t202.5 -84.5q74 0 140 29t104 91l5 -3q-39 -65 -106.5 -95.5t-144.5 -30.5q-134 0 -209.5 87.5t-75.5 232.5q0 192 116.5 321.5t282.5 129.5q135 0 215.5 -80.5t80.5 -211.5
q0 -124 -66.5 -212.5t-159.5 -88.5zM333 108q35 0 65.5 31t42.5 80l27 108l-67 -9q-62 -8 -92.5 -47.5t-30.5 -89.5q0 -33 14 -53t41 -20z" />
    <glyph glyph-name="A" unicode="A" horiz-adv-x="667" 
d="M488 700l38 -602q4 -56 16.5 -72.5t50.5 -17.5l-2 -8h-224l1 8q54 1 70.5 20.5t14.5 75.5l-8 159h-246l-87 -150q-25 -43 -25.5 -66.5t16.5 -30.5t56 -8l-2 -8h-213l2 8q48 1 76.5 23t63.5 81l343 588h59zM426 656l-218 -377h236z" />
    <glyph glyph-name="B" unicode="B" horiz-adv-x="560" 
d="M563 556q0 -81 -62 -136.5t-176 -62.5l-1 -2q183 -5 183 -150q0 -89 -66 -147t-192 -58h-282l2 8q53 3 71 18.5t30 61.5l138 524q13 43 2 60.5t-60 19.5l3 8h198q33 0 62.5 -4.5t67 -17.5t60 -44.5t22.5 -77.5zM210 363h64q217 0 217 183q0 139 -144 139h-51zM435 205
q0 36 -10.5 63t-26 42t-39.5 24.5t-46 12t-49 2.5h-57l-89 -334h128q95 0 142 54t47 136z" />
    <glyph glyph-name="C" unicode="C" horiz-adv-x="600" 
d="M272 -20q-101 0 -158 69.5t-57 173.5q0 132 49 245.5t137 182.5t194 69q117 0 196 -47l-63 -230h-9q22 127 -16 189.5t-138 62.5q-110 0 -195 -109t-85 -288q0 -116 51.5 -188.5t142.5 -72.5q37 0 72 12t77 53.5t68 109.5l8 -2q-86 -230 -274 -230z" />
    <glyph glyph-name="D" unicode="D" horiz-adv-x="645" 
d="M195 0h-229l2 8q50 2 69 17t32 62l140 525q13 42 1.5 60t-60.5 20l3 8h156q326 0 326 -285q0 -54 -13.5 -108.5t-46.5 -110.5t-81.5 -99t-126 -70t-172.5 -27zM296 685l-178 -670h60q76 0 137.5 18t102 50t69.5 71.5t44.5 89t22 95.5t6.5 96q0 137 -60.5 193.5
t-176.5 56.5h-27z" />
    <glyph glyph-name="E" unicode="E" horiz-adv-x="557" 
d="M423 0h-456l2 8q50 2 68.5 17t31.5 62l140 525q13 42 1.5 60t-60.5 20l3 8h428l-33 -215h-7q3 57 2 95t-15 61.5t-46 33.5t-90 10h-96l-85 -319h100q54 0 80 28t57 110h7l-77 -292h-7q12 82 -1 111t-73 29h-89l-90 -337h110q105 0 159.5 47.5t109.5 191.5h7z" />
    <glyph glyph-name="F" unicode="F" horiz-adv-x="506" 
d="M150 692l3 8h426l-29 -215h-7q3 63 -0.5 97.5t-19.5 60t-47.5 34t-86.5 8.5h-92l-87 -329h97q56 0 85.5 28.5t55.5 103.5h7l-77 -292h-7q15 79 1 112t-69 33h-97l-64 -244q-14 -53 2.5 -70t83.5 -19l-2 -8h-259l2 8q49 2 69 16t31 56l141 532q13 42 1 60t-61 20z" />
    <glyph glyph-name="G" unicode="G" horiz-adv-x="667" 
d="M390 334h286l-3 -8q-43 0 -59.5 -11.5t-25.5 -45.5l-61 -233q-95 -56 -193 -56q-34 0 -67.5 7.5t-71 28.5t-65 53.5t-46 87t-18.5 124.5q0 71 24 144.5t70.5 141t127.5 110.5t182 43q117 0 202 -42l-60 -212h-8q22 117 -12.5 175.5t-137.5 58.5q-81 0 -144 -40
t-98 -103.5t-52.5 -132t-17.5 -134.5q0 -139 52 -215t140 -76q42 0 77.5 15t53.5 36l46 172q17 63 -8 83.5t-116 20.5z" />
    <glyph glyph-name="H" unicode="H" horiz-adv-x="657" 
d="M533 692l2 8h207l-3 -8q-38 -2 -55.5 -13.5t-26.5 -44.5l-142 -537q-14 -53 -5 -70t53 -19l-2 -8h-212l2 8q45 2 62.5 17t30.5 62l68 255h-314l-65 -245q-14 -54 -5 -70.5t53 -18.5l-2 -8h-212l2 8q44 2 62 17t31 62l139 525q13 42 2.5 60t-53.5 20l3 8h207l-3 -8
q-39 -2 -56 -13.5t-26 -44.5l-72 -274h314l67 252q12 42 1.5 60t-52.5 20z" />
    <glyph glyph-name="I" unicode="I" horiz-adv-x="288" 
d="M153 700h226l-3 -8q-50 -2 -68.5 -16.5t-31.5 -62.5l-137 -516q-14 -54 -4 -70.5t59 -18.5l-2 -8h-226l2 8q49 2 68 16.5t32 61.5l143 537q10 37 -3 52t-58 17z" />
    <glyph glyph-name="J" unicode="J" horiz-adv-x="286" 
d="M174 700h224l-3 -8q-48 -2 -67.5 -15t-29.5 -53l-143 -539q-24 -85 -57 -124.5t-98 -39.5q-51 0 -77 16l1 5q17 -10 42 -10q46 0 72.5 32.5t42.5 91.5l150 564q10 38 -2 54t-58 18z" />
    <glyph glyph-name="K" unicode="K" horiz-adv-x="610" 
d="M192 0h-226l2 8q49 2 68 16.5t32 61.5l143 537q10 37 -3 52t-58 17l3 8h226l-3 -8q-50 -2 -68.5 -17t-31.5 -62l-137 -516q-15 -54 -4.5 -70.5t59.5 -18.5zM534 0h-143l-181 364l277 226q45 36 58 51t13 29q0 21 -54 22l2 8h185l-2 -8q-41 -5 -73.5 -23t-95.5 -70
l-249 -207l170 -330q17 -32 36 -42t59 -12z" />
    <glyph glyph-name="L" unicode="L" horiz-adv-x="487" 
d="M464 255h6l-86 -255h-418l2 8q49 2 68 17t32 62l139 525q13 42 1.5 60t-58.5 20l2 8h210l-3 -8q-37 -2 -53.5 -13.5t-25.5 -44.5l-164 -619h71q116 0 168.5 49t108.5 191z" />
    <glyph glyph-name="M" unicode="M" horiz-adv-x="843" 
d="M344 -10h-7l-67 650l-160 -517q-18 -47 -12 -72t24.5 -33t62.5 -10l-2 -8h-224l2 8q52 2 79.5 25t48.5 89l147 463q20 72 12.5 88t-54.5 19l3 8h136l56 -611l384 611h136l-3 -8q-48 -2 -65.5 -19.5t-31.5 -85.5l-104 -480q-12 -57 -2.5 -77t51.5 -22l-2 -8h-220l2 8
q45 2 65.5 22.5t33.5 78.5l123 534z" />
    <glyph glyph-name="N" unicode="N" horiz-adv-x="675" 
d="M570 692l3 8h209l-3 -8q-49 -2 -75.5 -27t-42.5 -84l-157 -591h-4l-262 622l-126 -482q-17 -70 -3 -94.5t68 -27.5l-2 -8h-208l2 8q50 2 77 28.5t45 93.5l135 509q-24 51 -76 53l3 8h133l236 -562l117 443q16 62 0.5 85.5t-69.5 25.5z" />
    <glyph glyph-name="O" unicode="O" horiz-adv-x="730" 
d="M330 -20q-52 0 -97.5 14.5t-85.5 45.5t-63.5 86.5t-23.5 129.5q0 63 16.5 127.5t50 125t79.5 107.5t111 75.5t139 28.5q52 0 97.5 -14.5t85.5 -45.5t63.5 -86.5t23.5 -129.5q0 -63 -16.5 -127.5t-50 -125t-79.5 -107.5t-111 -75.5t-139 -28.5zM326 0q71 0 128 34t91 84
t57 113.5t31.5 118t8.5 100.5q0 250 -182 250q-71 0 -128 -34t-91 -84t-57 -113.5t-31.5 -118t-8.5 -100.5q0 -250 182 -250z" />
    <glyph glyph-name="P" unicode="P" horiz-adv-x="514" 
d="M224 0h-258l2 9q50 2 69.5 18.5t34.5 71.5l137 513q13 41 1 59.5t-60 20.5l3 8h156q50 0 88.5 -5.5t78 -21.5t61.5 -50.5t22 -86.5q0 -96 -73.5 -159.5t-208.5 -63.5h-80l-59 -225q-12 -46 5.5 -61.5t82.5 -17.5zM296 685l-95 -357h63q62 0 107 17.5t69 48t34.5 65.5
t10.5 76q0 48 -13.5 79.5t-38.5 46t-49.5 19.5t-58.5 5h-29z" />
    <glyph glyph-name="Q" unicode="Q" horiz-adv-x="730" 
d="M623 -174q-138 0 -251 50t-216 152q-96 94 -96 228q0 63 16.5 127.5t50 125t79.5 107.5t111 75.5t139 28.5q52 0 97.5 -14.5t85.5 -45.5t63.5 -86.5t23.5 -129.5q0 -123 -50 -228t-147 -170t-220 -65q149 -126 385 -126q117 0 205 38l3 -8q-112 -59 -279 -59zM326 0
q71 0 128 34t91 84t57 113.5t31.5 118t8.5 100.5q0 250 -182 250q-71 0 -128 -34t-91 -84t-57 -113.5t-31.5 -118t-8.5 -100.5q0 -250 182 -250z" />
    <glyph glyph-name="R" unicode="R" horiz-adv-x="623" 
d="M455 200l18 -87q12 -53 28 -77.5t53 -27.5l-2 -8h-127q-9 23 -25 112l-22 124q-12 67 -40.5 90.5t-116.5 23.5h-24l-67 -252q-14 -53 -5.5 -70.5t51.5 -19.5l-2 -8h-207l2 8q43 3 60 17t29 62l141 525q12 41 2 59.5t-51 20.5l3 8h184q28 0 59.5 -7t65.5 -22.5t56 -48
t22 -77.5q0 -83 -66 -134.5t-188 -51.5l-1 -4q137 0 170 -155zM201 365h45q220 0 220 176q0 81 -37.5 112.5t-100.5 31.5h-42z" />
    <glyph glyph-name="S" unicode="S" horiz-adv-x="514" 
d="M223 -20q-118 0 -215 63l55 196h7q-16 -113 24 -176t138 -63q82 0 119 41.5t37 103.5q0 49 -20 82t-58 63l-85 66q-98 76 -98 169q0 35 12 68t36.5 62t68 47t101.5 18q127 0 200 -57l-56 -192h-6q20 106 -16 167.5t-131 61.5q-76 0 -115.5 -38.5t-39.5 -95.5
q0 -72 90 -144l88 -69q92 -71 92 -166q0 -84 -60 -145.5t-168 -61.5z" />
    <glyph glyph-name="T" unicode="T" horiz-adv-x="531" 
d="M633 719h5l-66 -247h-7q10 58 12 96.5t-3.5 62t-22 35t-35.5 15t-52 3.5h-47l-154 -582q-15 -57 -1.5 -74.5t75.5 -19.5l-2 -8h-268l2 8q63 2 87 19.5t38 71.5l155 585h-48q-42 0 -66.5 -6t-51 -27t-48.5 -64t-47 -115h-6l65 247h5q11 -19 60 -19h351q48 0 70 19z" />
    <glyph glyph-name="U" unicode="U" horiz-adv-x="615" 
d="M524 700h203l-3 -8q-43 -2 -67.5 -26t-39.5 -81l-81 -311q-10 -38 -15.5 -57t-18.5 -56t-25 -57t-33.5 -47.5t-45 -41.5t-58 -24.5t-75.5 -10.5q-92 0 -143.5 43.5t-51.5 126.5q0 50 18 116l93 350q6 24 6 36q0 20 -13 29.5t-44 10.5l3 8h214l-3 -8q-45 -3 -62 -17.5
t-30 -61.5l-89 -335q-18 -69 -18 -117q0 -70 37 -106t106 -36q49 0 87 19.5t64.5 58t43.5 80.5t33 102l81 304q7 28 7 45q0 61 -83 64z" />
    <glyph glyph-name="V" unicode="V" horiz-adv-x="635" 
d="M255 -10h-5l-58 604q-5 57 -18 77t-49 21l3 8h225l-2 -8q-51 -2 -72.5 -21.5t-17.5 -69.5l43 -502l288 473q32 53 32 81q0 20 -14 28.5t-45 10.5l3 8h184l-2 -8q-40 -2 -66.5 -25t-69.5 -93z" />
    <glyph glyph-name="W" unicode="W" horiz-adv-x="876" 
d="M808 692l3 8h182l-3 -8q-34 -1 -60.5 -26t-60.5 -84l-340 -592h-4l-28 485l-279 -485h-2l-35 598q-4 61 -14.5 82t-41.5 22l2 8h203l-3 -8q-48 -2 -64 -18.5t-13 -70.5l23 -477l222 384l-5 89q-3 52 -18.5 72t-53.5 21l3 8h218l-3 -8q-45 -2 -62 -17t-15 -60l25 -488
l260 452q29 52 29 73q0 38 -65 40z" />
    <glyph glyph-name="X" unicode="X" horiz-adv-x="652" 
d="M528 692l3 8h202l-3 -8q-37 -2 -68.5 -23t-86.5 -80l-192 -206l94 -263q23 -65 43 -87.5t58 -24.5l-2 -8h-236l2 8q81 4 81 51q0 16 -14 54l-78 217l-176 -192q-41 -45 -53 -62.5t-12 -30.5q0 -34 58 -37l-2 -8h-202l2 8q40 3 74.5 26t92.5 87l211 228l-90 249
q-20 58 -38 75t-60 19l3 8h232l-3 -8q-40 -1 -57 -10t-17 -29q0 -22 11 -52l71 -199l150 160q68 72 68 95q0 32 -66 35z" />
    <glyph glyph-name="Y" unicode="Y" horiz-adv-x="561" 
d="M494 692l3 8h176l-3 -8q-35 -2 -61.5 -21t-60.5 -65l-217 -291l-60 -224q-11 -50 6.5 -65.5t85.5 -17.5l-2 -8h-294l2 8q72 2 98 19.5t41 74.5l56 210l-63 288q-12 54 -26 72t-45 20l3 8h197l-3 -8q-37 -1 -52 -12t-15 -34q0 -19 6 -43l61 -268l188 252q41 55 41 75
q0 31 -62 30z" />
    <glyph glyph-name="Z" unicode="Z" horiz-adv-x="537" 
d="M413 0h-443l1 5l565 679h-137q-112 0 -163.5 -45.5t-109.5 -177.5h-7l89 239h413l-2 -5l-562 -679h156q61 0 101.5 11t72.5 40t54.5 67.5t52.5 105.5h7z" />
    <glyph glyph-name="bracketleft" unicode="[" horiz-adv-x="233" 
d="M349 730l-1 -5q-47 -2 -66 -11t-26 -38l-201 -761q-1 -19 14 -25.5t56 -8.5l-1 -5h-139l225 854h139z" />
    <glyph glyph-name="backslash" unicode="\" horiz-adv-x="433" 
d="M298 -60h-19l-75 822h19z" />
    <glyph glyph-name="bracketright" unicode="]" horiz-adv-x="233" 
d="M279 730l-225 -854h-139l1 5q47 2 66 11t26 38l201 761q1 19 -14 25.5t-56 8.5l1 5h139z" />
    <glyph glyph-name="asciicircum" unicode="^" horiz-adv-x="328" 
d="M98 460h-20l202 245h14l72 -245h-18l-65 226z" />
    <glyph glyph-name="underscore" unicode="_" horiz-adv-x="516" 
d="M442 -32h-516l4 15h516z" />
    <glyph glyph-name="grave" unicode="`" horiz-adv-x="600" 
d="M422 535h-10l-136 160l2 5h79z" />
    <glyph glyph-name="a" unicode="a" horiz-adv-x="523" 
d="M369 43q38 0 111 95l8 -5q-103 -148 -167 -148q-38 0 -38 43q0 22 15 65l57 175q-75 -121 -149 -202t-121 -81q-31 0 -51 22.5t-20 67.5q0 86 61.5 198t163.5 183q28 19 67.5 34t68.5 15q32 0 52 -17l5 15l70 23l-147 -454q-9 -29 14 -29zM117 43q71 0 249 259l44 134
q-35 34 -114 34q-79 -26 -145.5 -140t-66.5 -234q0 -53 33 -53z" />
    <glyph glyph-name="b" unicode="b" horiz-adv-x="490" 
d="M398 509q34 0 54.5 -24t20.5 -75q0 -86 -49.5 -184.5t-129 -167.5t-156.5 -69q-31 0 -63.5 13.5t-45.5 30.5l162 606q8 29 -4 41.5t-45 5.5l-20 -4l3 11l151 37l-134 -503q160 282 256 282zM214 24q75 31 132.5 139t57.5 219q0 69 -38 69q-72 0 -235 -263l-34 -124
q51 -40 117 -40z" />
    <glyph glyph-name="c" unicode="c" horiz-adv-x="400" 
d="M142 -15q-58 0 -87 38t-29 107q0 92 48.5 180.5t119 141.5t136.5 53q50 0 87 -34l-42 -54l-9 1q-45 48 -116 50q-77 -46 -123 -121t-46 -169q0 -133 100 -133q89 0 163 114l7 -4q-53 -84 -100 -127t-109 -43z" />
    <glyph glyph-name="d" unicode="d" horiz-adv-x="525" 
d="M376 43q38 0 105 95l9 -5q-94 -148 -159 -148q-40 0 -40 47q0 19 11 61l46 170q-69 -119 -139 -198.5t-116 -79.5q-34 0 -54.5 24t-20.5 75q0 85 48.5 184t126.5 168t152 69q35 0 61 -21l42 155q8 29 -7 39.5t-49 4.5l-33 -6l3 11l171 42l-173 -658q-4 -14 1 -21.5
t15 -7.5zM124 43q74 0 236 269l31 113q-45 44 -114 45q-75 -31 -132.5 -139t-57.5 -219q0 -69 37 -69z" />
    <glyph glyph-name="e" unicode="e" horiz-adv-x="417" 
d="M404 450q0 -67 -90 -125.5t-227 -73.5q-8 -35 -8 -70q0 -69 25 -102.5t79 -33.5q94 0 162 114l8 -4q-39 -73 -98 -121.5t-123 -48.5q-48 0 -77.5 33t-29.5 102q0 95 46 184.5t120.5 145t153.5 55.5q25 0 42 -13.5t17 -41.5zM283 480q-56 -15 -114.5 -74t-79.5 -144
q41 7 79.5 19t77.5 31.5t63 50.5t24 69q0 20 -12 34t-38 14z" />
    <glyph glyph-name="f" unicode="f" horiz-adv-x="260" 
d="M360 718q34 0 51 -23l-31 -55h-13q-28 46 -89 46q-25 -13 -38 -40.5t-24 -78.5l-17 -77h106l-4 -15h-106l-96 -432q-25 -108 -92.5 -183t-123.5 -75q-34 0 -55 23l21 60h13q37 -31 105 -31q28 20 53 129l114 509h-83l4 15h83l2 10q17 78 57.5 129.5t81 70t81.5 18.5z" />
    <glyph glyph-name="g" unicode="g" horiz-adv-x="439" 
d="M338 490h114l-4 -15h-85q37 -31 37 -87q0 -47 -22 -94t-70 -81.5t-112 -34.5q-35 0 -58 10q-66 -17 -66 -52q0 -16 13 -25.5t49 -22.5l154 -58q89 -33 89 -97q0 -62 -69 -105t-179 -43q-85 0 -137 28t-52 82q0 45 40 77t120 56q-37 12 -56 29.5t-19 46.5q0 62 97 91
q-52 28 -52 97q0 47 22 94t70 81.5t112 34.5q37 0 64 -12zM205 190q59 0 94.5 63t35.5 139q0 98 -70 98q-59 0 -94.5 -63t-35.5 -139q0 -98 70 -98zM324 -99q0 52 -65 73l-142 48q-54 -16 -84 -39.5t-30 -66.5q0 -51 45 -79t120 -28q69 0 112.5 24t43.5 68z" />
    <glyph glyph-name="h" unicode="h" horiz-adv-x="531" 
d="M488 135l7 -6q-108 -144 -167 -144q-17 0 -29.5 11.5t-12.5 35.5q0 39 61 214q53 152 53 180t-25 28q-62 0 -241 -254l-53 -200h-61l171 639q8 30 -4 42t-45 5l-20 -4l3 11l151 37l-133 -499q93 140 155.5 207t112.5 67q25 0 40.5 -13.5t15.5 -41.5q0 -43 -58 -213
q-51 -148 -51 -172q0 -22 21 -22q34 0 109 92z" />
    <glyph glyph-name="i" unicode="i" horiz-adv-x="281" 
d="M229 588q-21 0 -34.5 14t-13.5 35q0 20 13.5 33.5t34.5 13.5t35 -14t14 -34t-14 -34t-35 -14zM72 -12q-35 0 -35 38q0 13 4 25l102 363q8 29 -4 40.5t-46 6.5l-20 -3l2 10l153 37l-118 -423q-11 -36 19 -36q35 0 110 92l7 -6q-109 -144 -174 -144z" />
    <glyph glyph-name="j" unicode="j" horiz-adv-x="261" 
d="M245 588q-21 0 -34.5 14t-13.5 35q0 20 13.5 33.5t34.5 13.5t35 -14t14 -34t-14 -34t-35 -14zM85 458l2 10l153 37l-145 -543q-46 -177 -169 -177q-44 0 -61 11l2 5q15 -7 40 -7q41 0 69 29t48 102l131 489q8 29 -4 40.5t-46 6.5z" />
    <glyph glyph-name="k" unicode="k" horiz-adv-x="499" 
d="M337 46q10 0 24 5.5t40.5 28t54.5 58.5l8 -5q-45 -60 -94.5 -104t-74.5 -44q-23 0 -35 29l-87 209l58 21q111 40 151 82.5t40 89.5q0 23 -11 39t-29 16q-77 -24 -249 -275l-52 -196h-61l171 639q8 29 -4 41.5t-45 5.5l-20 -4l3 11l151 37l-135 -504q75 116 152.5 197
t139.5 81q24 0 41.5 -15t17.5 -45q0 -63 -69.5 -118.5t-184.5 -88.5l69 -168q10 -23 30 -23z" />
    <glyph glyph-name="l" unicode="l" horiz-adv-x="279" 
d="M276 730l-174 -651q-9 -36 20 -36q34 0 109 92l7 -6q-49 -66 -95 -105t-77 -39q-36 0 -36 39q0 11 5 33l156 582q8 29 -4 41.5t-45 5.5l-20 -4l3 11z" />
    <glyph glyph-name="m" unicode="m" horiz-adv-x="774" 
d="M731 135l7 -6q-108 -144 -168 -144q-41 0 -41 48q0 36 61 213q53 154 53 180q0 28 -25 28q-64 0 -217 -244l-57 -210h-61l107 404q6 25 0.5 37.5t-21.5 12.5q-63 0 -221 -249l-55 -205h-61l111 414q8 29 -4 40.5t-46 6.5l-20 -3l2 10l153 37l-71 -267q85 140 141.5 203.5
t110.5 63.5q10 0 18.5 -2.5t20.5 -12t12.5 -28t-5.5 -50.5l-46 -171q86 139 142 201.5t107 62.5q23 0 37.5 -13.5t14.5 -41.5q0 -45 -58 -213q-51 -148 -51 -172q0 -22 21 -22q34 0 109 92z" />
    <glyph glyph-name="n" unicode="n" horiz-adv-x="543" 
d="M500 135l7 -6q-108 -144 -167 -144q-17 0 -29.5 11.5t-12.5 35.5q0 46 61 214q53 147 53 180q0 28 -25 28q-62 0 -241 -254l-53 -200h-61l111 414q8 29 -4 40.5t-46 6.5l-20 -3l2 10l153 37l-75 -281q95 146 158 213.5t117 67.5q21 0 36 -14t15 -41q0 -53 -58 -213
q-51 -140 -51 -172q0 -22 21 -22q34 0 109 92z" />
    <glyph glyph-name="o" unicode="o" horiz-adv-x="476" 
d="M163 -15q-59 0 -101 35t-42 111q0 72 35 157t105 151t153 66q59 0 101 -35t42 -111q0 -72 -35 -157t-105 -151t-153 -66zM169 0q58 0 108 58t77 142.5t27 167.5q0 122 -74 122q-58 0 -108 -58t-77 -142.5t-27 -167.5q0 -122 74 -122z" />
    <glyph glyph-name="p" unicode="p" horiz-adv-x="501" 
d="M117 -200h-218l3 8q49 3 66.5 11.5t24.5 36.5l150 558q8 29 -4 40.5t-46 6.5l-20 -3l2 10l153 37l-74 -278q160 282 256 282q34 0 54.5 -24t20.5 -75q0 -84 -51.5 -184t-129 -168.5t-145.5 -68.5q-31 0 -65 16l-41 -149q-7 -28 6 -36.5t61 -11.5zM226 24q75 31 132.5 139
t57.5 219q0 69 -39 69q-71 0 -234 -263l-33 -124q44 -40 116 -40z" />
    <glyph glyph-name="q" unicode="q" horiz-adv-x="484" 
d="M460 453l-160 -597q-7 -28 6 -36.5t61 -11.5l-3 -8h-218l3 8q50 3 66.5 10.5t23.5 35.5l110 411q-162 -280 -256 -280q-34 0 -54.5 24t-20.5 75q0 86 50 184.5t130 167.5t157 69q59 0 105 -52zM124 43q73 0 238 271l31 117q-23 20 -48 29.5t-68 9.5q-75 -31 -132.5 -139
t-57.5 -219q0 -69 37 -69z" />
    <glyph glyph-name="r" unicode="r" horiz-adv-x="365" 
d="M381 505q18 0 32 -7l-30 -88h-9q-13 13 -35 13q-28 0 -48 -18t-55.5 -79t-108.5 -208l-31 -118h-63l110 414q8 29 -4 40.5t-46 6.5l-20 -3l2 10l153 37l-89 -342q96 207 146.5 274.5t95.5 67.5z" />
    <glyph glyph-name="s" unicode="s" horiz-adv-x="379" 
d="M138 -15q-47 0 -87 32t-59 69l46 49h5q53 -117 171 -117q14 8 24.5 26t10.5 40q0 26 -32 79l-84 139q-22 35 -22 66q0 46 46.5 91.5t111.5 45.5q81 0 126 -69l-43 -55h-5q-19 37 -56.5 67.5t-78.5 30.5q-52 -14 -52 -66q0 -27 24 -66l94 -154q18 -29 18 -65
q0 -52 -49 -97.5t-109 -45.5z" />
    <glyph glyph-name="t" unicode="t" horiz-adv-x="299" 
d="M327 475h-108l-112 -368q-4 -14 -6 -23t-2 -19.5t6 -16t18 -5.5q42 0 114 92l6 -6q-40 -61 -89 -102.5t-85 -41.5q-39 0 -39 45q0 25 10 58l118 387h-66l5 15h65l23 74l74 41l-35 -115h108z" />
    <glyph glyph-name="u" unicode="u" horiz-adv-x="542" 
d="M500 138l7 -6q-49 -66 -95 -105t-77 -39q-24 0 -32 20t0 43l55 208q-96 -142 -158.5 -208t-116.5 -66q-21 0 -35.5 12.5t-14.5 37.5q0 26 28 115l84 264q11 35 -2 48.5t-48 8.5l-20 -3l2 10l155 27q-129 -426 -129 -447q0 -22 23 -22q69 0 241 253l53 201h61l-110 -408
q-9 -36 20 -36q34 0 109 92z" />
    <glyph glyph-name="v" unicode="v" horiz-adv-x="455" 
d="M130 -17l-12 8l-13 394q-2 48 -16.5 64t-57.5 1l1 8l131 51l17 -476q103 71 153 153.5t50 142.5q0 41 -15 80.5t-44 54.5v5l70 40q46 -50 46 -114q0 -38 -11.5 -78t-42 -94.5t-96 -116.5t-160.5 -123z" />
    <glyph glyph-name="w" unicode="w" horiz-adv-x="657" 
d="M519 466l75 43q46 -51 46 -123q0 -189 -280 -403l-12 8v250q-35 -81 -82.5 -136.5t-135.5 -121.5l-12 8l-13 394q-2 91 -74 65l1 8l135 51l15 -469q88 80 124.5 158t36.5 139q0 40 -16 75t-44 49v5l75 43q47 -47 49 -152l5 -317q90 78 128 152.5t38 133.5q0 44 -15.5 82
t-43.5 53v5z" />
    <glyph glyph-name="x" unicode="x" horiz-adv-x="524" 
d="M484 505q19 0 44 -14l-21 -70h-6q-36 21 -56 21q-9 0 -17 -2.5t-13 -5.5t-13 -11.5t-11.5 -12.5t-13.5 -17.5t-14 -18.5l-78 -103l52 -203q7 -30 21 -30q40 0 107 95l8 -5q-45 -71 -84 -107t-65 -36q-17 0 -26 15t-19 52l-40 151l-65 -93q-53 -76 -84 -100.5t-61 -24.5
q-23 0 -43 11l24 71h7q27 -16 51 -16q46 0 90 63l76 108l-52 199q-15 55 -64 41l-44 -12l-1 10l151 45l57 -219l68 92q60 80 84 103.5t51 23.5z" />
    <glyph glyph-name="y" unicode="y" horiz-adv-x="452" 
d="M310 473l81 36q45 -54 45 -125q0 -168 -250 -420q-84 -92 -151.5 -135.5t-138.5 -43.5q-37 0 -59 14l22 89h5q31 -35 97 -35q98 0 179 87l-55 445q-2 15 -4 24.5t-7 22.5t-12.5 16.5t-20.5 7t-30 -5.5l1 8l126 51l62 -510q175 166 175 325q0 51 -18 89.5t-47 54.5v5z" />
    <glyph glyph-name="z" unicode="z" horiz-adv-x="437" 
d="M218 -20q-40 0 -90 25t-82 25q-36 0 -69 -37l-13 5l402 437h-177q-47 0 -68 -20t-39 -71h-10l44 146h327l-383 -413q24 6 40 6q33 0 82.5 -27t86.5 -27q43 0 70 28.5t43 97.5l9 -3q-9 -52 -29.5 -88t-46.5 -53t-49.5 -24t-47.5 -7z" />
    <glyph glyph-name="braceleft" unicode="{" horiz-adv-x="274" 
d="M158 -132l-1 -5q-76 3 -103.5 52.5t-5.5 130.5l43 164q4 15 4.5 28t-3 23t-6.5 16t-10.5 13.5t-9.5 9t-9 6.5l1 6q13 7 21 12t23 17.5t26 32.5t18 46l37 140q22 81 75.5 130.5t131.5 52.5l-1 -5q-59 -8 -90.5 -48.5t-51.5 -114.5l-35 -133q-4 -15 -10 -28.5t-13 -23.5
t-13.5 -17.5t-15.5 -14.5t-13.5 -10t-13 -8t-10.5 -6l8 -7q8 -7 11 -10.5t9 -13t8 -19t1.5 -25t-5.5 -33.5l-51 -195q-21 -67 -10.5 -111t64.5 -52z" />
    <glyph glyph-name="bar" unicode="|" horiz-adv-x="184" 
d="M210 730h20l-225 -854h-20z" />
    <glyph glyph-name="braceright" unicode="}" horiz-adv-x="274" 
d="M147 738l1 5q76 -3 103.5 -52.5t5.5 -130.5l-43 -164q-4 -15 -4.5 -28t3 -23t6.5 -16t10.5 -13.5t9.5 -9t9 -6.5l-1 -6q-13 -7 -21 -12t-23 -17.5t-26 -32.5t-18 -46l-37 -140q-22 -81 -75.5 -130.5t-131.5 -52.5l1 5q59 8 90.5 48.5t51.5 114.5l35 133q4 15 10 28.5
t13 23.5t13.5 17.5t15.5 14.5t13.5 10t13 8t10.5 6l-8 7q-8 7 -11 10.5t-9 13t-8 19t-1.5 25t5.5 33.5l51 195q21 67 10.5 111t-64.5 52z" />
    <glyph glyph-name="asciitilde" unicode="~" horiz-adv-x="622" 
d="M417 223q-61 0 -128.5 30.5t-111.5 30.5q-71 0 -116 -55l-5 1q50 82 160 82q44 0 111.5 -30.5t128.5 -30.5q72 0 117 55l5 -1q-50 -82 -161 -82z" />
    <glyph glyph-name="uni00A0" unicode="&#xa0;" horiz-adv-x="220" 
 />
    <glyph glyph-name="exclamdown" unicode="&#xa1;" horiz-adv-x="239" 
d="M179 517q22 0 36.5 -14.5t14.5 -35.5t-14.5 -35.5t-36.5 -14.5t-36.5 14.5t-14.5 35.5t14.5 35.5t36.5 14.5zM140 327h6l-91 -489q-9 -53 -51 -53q-34 0 -34 32q0 12 8 35z" />
    <glyph glyph-name="cent" unicode="&#xa2;" horiz-adv-x="496" 
d="M386 630l-23 -85q90 -3 148 -36l-48 -174h-7q28 170 -98 189l-130 -491q16 -4 38 -4q50 0 98.5 29t77.5 103l6 -2q-66 -174 -222 -174h-10l-23 -85h-20l23 87q-72 10 -112.5 63t-40.5 128q0 148 86 256.5t215 110.5l22 85h20zM210 38l128 488h-14q-89 0 -156 -79.5
t-67 -211.5q0 -73 28.5 -125.5t80.5 -71.5z" />
    <glyph glyph-name="sterling" unicode="&#xa3;" horiz-adv-x="538" 
d="M363 685q66 0 109 -13.5t81 -43.5l-39 -159h-6q12 98 -31 151t-126 53q-161 0 -161 -206q0 -31 7 -78t7 -64h216l-4 -15h-212q-1 -83 -35 -138.5t-118 -127.5l3 -3q47 36 97 36q30 0 86.5 -18t98.5 -18q114 0 124 133h9q-10 -93 -51.5 -142t-107.5 -49q-29 0 -85.5 18
t-102.5 18q-84 0 -143 -35l-7 6q63 48 95 82.5t51 84t19 117.5q0 12 -2 36h-71l4 15h65q-11 88 -11 112q0 105 68.5 176.5t172.5 71.5z" />
    <glyph glyph-name="currency" unicode="&#xa4;" horiz-adv-x="593" 
d="M530 392q0 -53 -23.5 -103.5t-66.5 -85.5l41 -54l-14 -12l-41 55q-59 -43 -137 -43q-87 0 -132 51l-73 -57l-10 14l72 57q-26 39 -26 94q0 50 21.5 98.5t59.5 83.5l-42 57l14 11l42 -56q64 49 146 49q94 0 140 -61l74 58l10 -14l-75 -58q20 -35 20 -84zM148 308
q0 -58 38 -95.5t103 -37.5q91 0 152 67.5t61 149.5q0 58 -38 95.5t-103 37.5q-91 0 -152 -67.5t-61 -149.5z" />
    <glyph glyph-name="yen" unicode="&#xa5;" horiz-adv-x="598" 
d="M510 662l1 8h190l-1 -8q-41 -2 -70.5 -20t-65.5 -65l-214 -275h156l-4 -15h-159l-20 -76h159l-4 -15h-159l-32 -119q-10 -39 10.5 -53t84.5 -16l-2 -8h-295l2 8q71 2 97 19t41 71l26 98h-158l4 15h158l20 76h-158l4 15h152l-67 268q-14 54 -30.5 72t-52.5 20l1 8h223
l-1 -8q-83 -3 -83 -49q0 -13 6 -38l64 -267l194 250q24 31 32 44t8 26q0 31 -57 34z" />
    <glyph glyph-name="brokenbar" unicode="&#xa6;" horiz-adv-x="184" 
d="M210 730h20l-95 -362h-20zM5 -124h-20l103 392h20z" />
    <glyph glyph-name="section" unicode="&#xa7;" horiz-adv-x="493" 
d="M350 720q122 0 191 -49l-53 -167h-6q18 92 -16 145.5t-124 53.5q-73 0 -111 -33.5t-38 -82.5q0 -63 86 -125l84 -60q88 -62 88 -144q0 -59 -38.5 -107t-109.5 -65q60 -51 60 -122q0 -73 -57 -126t-160 -53q-112 0 -206 55l53 170h7q-15 -99 23 -153t132 -54
q78 0 113 35.5t35 89.5q0 73 -74 126l-81 57q-43 30 -68.5 63.5t-25.5 82.5q0 58 39 105.5t119 59.5q-70 56 -70 129q0 67 51 118t157 51zM317 348l-81 57l-5 3q-62 -6 -94 -38.5t-32 -76.5q0 -63 86 -125l84 -60l11 -8q105 19 105 122q0 73 -74 126z" />
    <glyph glyph-name="dieresis" unicode="&#xa8;" horiz-adv-x="600" 
d="M176 588q-20 0 -34.5 14t-14.5 33q0 20 14.5 34.5t34.5 14.5q19 0 33.5 -14.5t14.5 -33.5q0 -20 -14 -34t-34 -14zM342 588q-20 0 -34 14t-14 33q0 20 14.5 34.5t33.5 14.5q20 0 34.5 -14.5t14.5 -33.5q0 -20 -14.5 -34t-34.5 -14z" />
    <glyph glyph-name="copyright" unicode="&#xa9;" horiz-adv-x="808" 
d="M376 -40q-43 0 -84 9t-83 32t-73.5 57.5t-51 89t-19.5 123.5q0 63 15.5 127t49.5 126t82 109.5t119.5 77t156.5 29.5q43 0 84 -9t83 -32t73.5 -57.5t51 -89t19.5 -123.5q0 -63 -15.5 -127t-49.5 -126t-82 -109.5t-119.5 -77t-156.5 -29.5zM377 -28q99 0 180 43t129.5 111
t74 146.5t25.5 156.5q0 66 -19.5 119.5t-50 86t-71 54.5t-80 30.5t-78.5 8.5q-99 0 -180 -43t-129.5 -111t-74 -146.5t-25.5 -156.5q0 -66 19.5 -119.5t50 -86t71 -54.5t80 -30.5t78.5 -8.5zM395 145q-71 0 -109 44.5t-38 116.5q0 103 64 179t164 76q74 0 126 -26l-35 -130
h-5q15 68 -12.5 103.5t-89.5 35.5q-77 0 -125 -62.5t-48 -151.5q0 -71 34.5 -112t94.5 -41q91 0 133 98l4 -1q-49 -129 -158 -129z" />
    <glyph glyph-name="ordfeminine" unicode="&#xaa;" horiz-adv-x="449" 
d="M365 367q28 0 77 64l6 -4q-76 -109 -128 -109q-29 0 -29 32q0 16 11 49l37 113q-54 -85 -106.5 -139.5t-86.5 -54.5q-24 0 -39 16t-15 49q0 61 44.5 139t117.5 126q54 36 105 36q21 0 34 -8l1 3l63 20l-101 -310q-8 -22 9 -22zM178 367q49 0 170 171l32 97q-27 24 -81 24
q-56 -20 -100 -97t-44 -155q0 -40 23 -40z" />
    <glyph glyph-name="guillemotleft" unicode="&#xab;" horiz-adv-x="505" 
d="M213 68l-5 -3l-143 200l2 6l249 200l3 -3l-186 -205zM388 68l-5 -3l-143 200l2 6l249 200l3 -3l-186 -205z" />
    <glyph glyph-name="logicalnot" unicode="&#xac;" 
d="M97 363h398v-190h-17v175h-381v15z" />
    <glyph glyph-name="uni00AD" unicode="&#xad;" horiz-adv-x="378" 
d="M345 293h-287l8 25h287z" />
    <glyph glyph-name="registered" unicode="&#xae;" horiz-adv-x="567" 
d="M376 685q88 0 144 -48t56 -137q0 -107 -75.5 -194t-198.5 -87q-88 0 -144 48t-56 137q0 107 75.5 194t198.5 87zM304 234q113 0 183 83.5t70 182.5q0 82 -52 126t-131 44q-113 0 -183 -83.5t-70 -182.5q0 -82 52 -126t131 -44zM401 408l9 -46q7 -38 28 -39l-1 -3h-58
q-1 4 -9 44l-7 48q-4 26 -16.5 34t-39.5 8h-8l-25 -95q-5 -20 -1.5 -27t18.5 -9l-1 -3h-90l1 3q15 2 22 8t12 25l54 199q5 17 1.5 24.5t-18.5 8.5v3h67q96 0 96 -62q0 -32 -26 -51t-76 -19v-2q59 0 68 -49zM332 581l-31 -118h15q80 0 80 69q0 49 -53 49h-11z" />
    <glyph glyph-name="macron" unicode="&#xaf;" horiz-adv-x="600" 
d="M512 608h-268l7 25h268z" />
    <glyph glyph-name="degree" unicode="&#xb0;" horiz-adv-x="318" 
d="M248 514q-42 0 -70 21t-28 68t31.5 84t88.5 37q42 0 70 -21t28 -68t-31.5 -84t-88.5 -37zM252 529q46 0 71.5 31.5t25.5 68.5q0 80 -83 80q-46 0 -71.5 -31.5t-25.5 -68.5q0 -80 83 -80z" />
    <glyph glyph-name="plusminus" unicode="&#xb1;" 
d="M275 507v-191h191v-15h-191v-191h-17v191h-192v15h192v191h17zM466 0h-400v15h400v-15z" />
    <glyph glyph-name="uni00B2" unicode="&#xb2;" horiz-adv-x="423" 
d="M391 328h-318l1 6l95 64q141 95 193.5 153t52.5 128q0 101 -98 101q-46 0 -83 -31.5t-43 -86.5h-10q7 63 47 104.5t116 41.5q59 0 98.5 -28t39.5 -83q0 -57 -49 -112.5t-176 -140.5l-98 -65h184q39 0 63 13t45 42h4z" />
    <glyph glyph-name="uni00B3" unicode="&#xb3;" horiz-adv-x="416" 
d="M227 318q-108 0 -137 77l9 3q24 -62 105 -62q66 0 100 38.5t34 90.5q0 56 -29 80.5t-75 24.5h-18l3 8h14q83 0 120.5 36.5t37.5 89.5q0 86 -96 86q-51 0 -81 -25.5t-39 -65.5l-7 2q9 47 47 77t103 30q55 0 95.5 -24t40.5 -76q0 -56 -47.5 -94t-135.5 -40v-2q32 0 58 -7.5
t48.5 -34t22.5 -70.5q0 -53 -43 -97.5t-130 -44.5z" />
    <glyph glyph-name="acute" unicode="&#xb4;" horiz-adv-x="600" 
d="M465 695l-222 -160h-10l155 165h79z" />
    <glyph glyph-name="uni00B5" unicode="&#xb5;" horiz-adv-x="542" 
d="M100 -150h-131l176 564q11 35 -2 48.5t-48 8.5l-20 -3l2 10l155 27q-129 -426 -129 -447q0 -22 23 -22q69 0 241 253l53 201h61l-110 -408q-9 -36 20 -36q34 0 109 92l7 -6q-49 -66 -95 -105t-77 -39q-24 0 -32 20t0 43l55 208q-96 -142 -158.5 -208t-116.5 -66
q-38 0 -48 34q-29 -101 -17 -132.5t83 -31.5z" />
    <glyph glyph-name="paragraph" unicode="&#xb6;" horiz-adv-x="523" 
d="M346 700h289l-2 -8q-51 -3 -69 -17t-31 -62l-196 -743h-15l215 817h-140l-215 -817h-15l124 470q-87 0 -140 40.5t-53 113.5q0 91 73 148.5t175 57.5z" />
    <glyph glyph-name="periodcentered" unicode="&#xb7;" horiz-adv-x="206" 
d="M138 326q-22 0 -36.5 14.5t-14.5 35.5t14.5 35.5t36.5 14.5t36.5 -14.5t14.5 -35.5t-14.5 -35.5t-36.5 -14.5z" />
    <glyph glyph-name="cedilla" unicode="&#xb8;" horiz-adv-x="600" 
d="M221 -127q0 -40 -26.5 -64t-60.5 -24q-33 0 -51 16t-20 43l7 3q14 -36 51 -36q24 0 41.5 15.5t17.5 44.5q0 45 -39 45q-19 0 -33 -13l-5 4l80 93h14l-61 -69q12 9 31 9q24 0 39 -18t15 -49z" />
    <glyph glyph-name="uni00B9" unicode="&#xb9;" horiz-adv-x="350" 
d="M320 328h-239l2 7q58 4 78.5 14.5t28.5 40.5l87 324q4 16 4 21q0 20 -27 20q-19 0 -58 -13v6l156 60h5l-113 -419q-3 -12 -3 -19q0 -18 17.5 -25t63.5 -10z" />
    <glyph glyph-name="ordmasculine" unicode="&#xba;" horiz-adv-x="412" 
d="M222 318q-45 0 -78 25t-33 81q0 51 25.5 110t77.5 104.5t113 45.5q45 0 77.5 -25t32.5 -81q0 -51 -25.5 -110t-77 -104.5t-112.5 -45.5zM226 329q59 0 103 86.5t44 174.5q0 83 -51 83q-39 0 -74 -43t-54 -103t-19 -115q0 -83 51 -83z" />
    <glyph glyph-name="guillemotright" unicode="&#xbb;" horiz-adv-x="506" 
d="M130 468l5 3l143 -200l-2 -6l-249 -200l-3 3l186 205zM305 468l5 3l143 -200l-2 -6l-249 -200l-3 3l186 205z" />
    <glyph glyph-name="onequarter" unicode="&#xbc;" horiz-adv-x="714" 
d="M264 298h-198l2 6q47 3 64 12t24 36l74 276q3 10 3 18q0 18 -21 18q-15 0 -48 -12v5l131 52h5l-97 -358q-3 -11 -3 -17q0 -15 13.5 -21t51.5 -9zM654 682h22l-648 -722h-22zM582 0h-160l2 5q38 2 54.5 11t23.5 35l20 77h-174l2 8l273 266h20l-69 -256h75l-4 -18h-76
l-20 -76q-7 -26 0.5 -35.5t33.5 -11.5zM583 353l-209 -207h152z" />
    <glyph glyph-name="onehalf" unicode="&#xbd;" horiz-adv-x="702" 
d="M264 298h-198l2 6q47 3 64 12t24 36l74 276q3 10 3 18q0 18 -21 18q-15 0 -48 -12v5l131 52h5l-97 -358q-3 -11 -3 -17q0 -15 13.5 -21t51.5 -9zM654 682h22l-648 -722h-22zM593 0h-268l1 4l80 57q116 82 159 131t43 109q0 85 -79 85q-38 0 -68 -27t-36 -73h-8
q6 54 40 89.5t96 35.5q48 0 80.5 -23.5t32.5 -70.5q0 -49 -41 -97t-147 -120l-80 -55h157q56 0 89 47h3z" />
    <glyph glyph-name="threequarters" unicode="&#xbe;" horiz-adv-x="770" 
d="M188 289q-90 0 -113 66l7 3q20 -52 85 -52q55 0 83.5 33t28.5 78q0 47 -23.5 68t-60.5 21h-14l1 6h12q69 0 100 32t31 77q0 72 -78 72q-81 0 -99 -77l-6 1q9 41 40.5 66.5t85.5 25.5q46 0 78.5 -20t32.5 -65q0 -47 -39.5 -80.5t-112.5 -34.5v-2q19 0 35 -4t33 -13.5
t27 -29.5t10 -48q0 -46 -36 -84.5t-108 -38.5zM710 682h22l-648 -722h-22zM638 0h-160l2 5q38 2 54.5 11t23.5 35l20 77h-174l2 8l273 266h20l-69 -256h75l-4 -18h-76l-20 -76q-7 -26 0.5 -35.5t33.5 -11.5zM639 353l-209 -207h152z" />
    <glyph glyph-name="questiondown" unicode="&#xbf;" horiz-adv-x="340" 
d="M276 517q22 0 36.5 -14.5t14.5 -35.5t-14.5 -35.5t-36.5 -14.5t-36.5 14.5t-14.5 35.5t14.5 35.5t36.5 14.5zM239 331h10l-11 -39q-18 -64 -34 -89.5t-50 -48.5q-83 -57 -116 -103.5t-33 -112.5q0 -126 128 -126q51 0 89.5 27.5t52.5 74.5l3 -1q-13 -59 -57.5 -93.5
t-117.5 -34.5q-24 0 -46.5 3.5t-47 14t-42.5 27t-30 44t-12 62.5q0 40 15.5 73.5t44 58t52 39t55.5 29.5q69 39 94 65.5t42 89.5z" />
    <glyph glyph-name="Agrave" unicode="&#xc0;" horiz-adv-x="667" 
d="M428 860l44 -120h-4l-123 115l1 5h82zM488 700l38 -602q4 -56 16.5 -72.5t50.5 -17.5l-2 -8h-224l1 8q54 1 70.5 20.5t14.5 75.5l-8 159h-246l-87 -150q-25 -43 -25.5 -66.5t16.5 -30.5t56 -8l-2 -8h-213l2 8q48 1 76.5 23t63.5 81l343 588h59zM426 656l-218 -377h236z
" />
    <glyph glyph-name="Aacute" unicode="&#xc1;" horiz-adv-x="667" 
d="M468 740l108 128h82l-1 -5l-185 -123h-4zM488 700l38 -602q4 -56 16.5 -72.5t50.5 -17.5l-2 -8h-224l1 8q54 1 70.5 20.5t14.5 75.5l-8 159h-246l-87 -150q-25 -43 -25.5 -66.5t16.5 -30.5t56 -8l-2 -8h-213l2 8q48 1 76.5 23t63.5 81l343 588h59zM426 656l-218 -377h236
z" />
    <glyph glyph-name="Acircumflex" unicode="&#xc2;" horiz-adv-x="667" 
d="M588 730l-97 85l-145 -85h-3l155 130h6l87 -130h-3zM488 700l38 -602q4 -56 16.5 -72.5t50.5 -17.5l-2 -8h-224l1 8q54 1 70.5 20.5t14.5 75.5l-8 159h-246l-87 -150q-25 -43 -25.5 -66.5t16.5 -30.5t56 -8l-2 -8h-213l2 8q48 1 76.5 23t63.5 81l343 588h59zM426 656
l-218 -377h236z" />
    <glyph glyph-name="Atilde" unicode="&#xc3;" horiz-adv-x="667" 
d="M633 860h4q-12 -49 -35.5 -71.5t-51.5 -22.5q-31 0 -69 21.5t-70 21.5q-47 0 -68 -52h-4q12 49 35.5 71.5t51.5 22.5q31 0 69 -21.5t70 -21.5q47 0 68 52zM488 700l38 -602q4 -56 16.5 -72.5t50.5 -17.5l-2 -8h-224l1 8q54 1 70.5 20.5t14.5 75.5l-8 159h-246l-87 -150
q-25 -43 -25.5 -66.5t16.5 -30.5t56 -8l-2 -8h-213l2 8q48 1 76.5 23t63.5 81l343 588h59zM426 656l-218 -377h236z" />
    <glyph glyph-name="Adieresis" unicode="&#xc4;" horiz-adv-x="667" 
d="M371 762q-21 0 -35.5 14t-14.5 34t14.5 35t35.5 15q20 0 34.5 -14.5t14.5 -34.5t-14.5 -34.5t-34.5 -14.5zM588 860q21 0 35.5 -14.5t14.5 -34.5t-14.5 -34.5t-35.5 -14.5q-20 0 -34.5 14t-14.5 34t14.5 35t34.5 15zM488 700l38 -602q4 -56 16.5 -72.5t50.5 -17.5l-2 -8
h-224l1 8q54 1 70.5 20.5t14.5 75.5l-8 159h-246l-87 -150q-25 -43 -25.5 -66.5t16.5 -30.5t56 -8l-2 -8h-213l2 8q48 1 76.5 23t63.5 81l343 588h59zM426 656l-218 -377h236z" />
    <glyph glyph-name="Aring" unicode="&#xc5;" horiz-adv-x="667" 
d="M478 731q-66 0 -66 58q0 32 21 56.5t60 24.5q66 0 66 -58q0 -32 -21 -56.5t-60 -24.5zM490 858q-30 0 -47.5 -20.5t-17.5 -43.5q0 -51 56 -51q31 0 48 20t17 44q0 51 -56 51zM488 700l38 -602q4 -56 16.5 -72.5t50.5 -17.5l-2 -8h-224l1 8q54 1 70.5 20.5t14.5 75.5
l-8 159h-246l-87 -150q-25 -43 -25.5 -66.5t16.5 -30.5t56 -8l-2 -8h-213l2 8q48 1 76.5 23t63.5 81l343 588h59zM426 656l-218 -377h236z" />
    <glyph glyph-name="AE" unicode="&#xc6;" horiz-adv-x="892" 
d="M84 104l490 596h344l-36 -214h-7q12 113 -29 158.5t-147 45.5h-61l-89 -336h79q73 0 108.5 25t61.5 93h7l-65 -248h-7q10 68 -12 92.5t-95 24.5h-80l-88 -331h58q129 0 199 55t117 188h7l-92 -253h-430l2 8q48 2 67.5 15.5t30.5 55.5l49 184h-223l-151 -187
q-29 -37 -29 -50q0 -9 12.5 -12.5t45.5 -5.5l-2 -8h-175l2 8q39 1 67.5 22.5t70.5 73.5zM255 278h215l106 399z" />
    <glyph glyph-name="Ccedilla" unicode="&#xc7;" horiz-adv-x="600" 
d="M437 720q117 0 196 -47l-63 -230h-9q22 127 -16 189.5t-138 62.5q-110 0 -195 -109t-85 -288q0 -116 51.5 -188.5t142.5 -72.5q37 0 72 12t77 53.5t68 109.5l8 -2q-86 -230 -274 -230h-8l-43 -49q12 9 31 9q24 0 39 -18t15 -49q0 -40 -26.5 -64t-60.5 -24q-33 0 -51 16
t-20 43l7 3q14 -36 51 -36q24 0 41.5 15.5t17.5 44.5q0 45 -39 45q-19 0 -33 -13l-5 4l64 74q-92 7 -143.5 75.5t-51.5 166.5q0 132 49 245.5t137 182.5t194 69z" />
    <glyph glyph-name="Egrave" unicode="&#xc8;" horiz-adv-x="557" 
d="M420 740h-4l-123 115l1 5h82zM423 0h-456l2 8q50 2 68.5 17t31.5 62l140 525q13 42 1.5 60t-60.5 20l3 8h428l-33 -215h-7q3 57 2 95t-15 61.5t-46 33.5t-90 10h-96l-85 -319h100q54 0 80 28t57 110h7l-77 -292h-7q12 82 -1 111t-73 29h-89l-90 -337h110
q105 0 159.5 47.5t109.5 191.5h7z" />
    <glyph glyph-name="Eacute" unicode="&#xc9;" horiz-adv-x="557" 
d="M605 863l-185 -123h-4l108 128h82zM423 0h-456l2 8q50 2 68.5 17t31.5 62l140 525q13 42 1.5 60t-60.5 20l3 8h428l-33 -215h-7q3 57 2 95t-15 61.5t-46 33.5t-90 10h-96l-85 -319h100q54 0 80 28t57 110h7l-77 -292h-7q12 82 -1 111t-73 29h-89l-90 -337h110
q105 0 159.5 47.5t109.5 191.5h7z" />
    <glyph glyph-name="Ecircumflex" unicode="&#xca;" horiz-adv-x="557" 
d="M439 815l-145 -85h-3l155 130h6l87 -130h-3zM423 0h-456l2 8q50 2 68.5 17t31.5 62l140 525q13 42 1.5 60t-60.5 20l3 8h428l-33 -215h-7q3 57 2 95t-15 61.5t-46 33.5t-90 10h-96l-85 -319h100q54 0 80 28t57 110h7l-77 -292h-7q12 82 -1 111t-73 29h-89l-90 -337h110
q105 0 159.5 47.5t109.5 191.5h7z" />
    <glyph glyph-name="Edieresis" unicode="&#xcb;" horiz-adv-x="557" 
d="M319 762q-21 0 -35.5 14t-14.5 34t14.5 35t35.5 15q20 0 34.5 -14.5t14.5 -34.5t-14.5 -34.5t-34.5 -14.5zM536 762q-20 0 -34.5 14t-14.5 34t14.5 35t34.5 15q21 0 35.5 -14.5t14.5 -34.5t-14.5 -34.5t-35.5 -14.5zM423 0h-456l2 8q50 2 68.5 17t31.5 62l140 525
q13 42 1.5 60t-60.5 20l3 8h428l-33 -215h-7q3 57 2 95t-15 61.5t-46 33.5t-90 10h-96l-85 -319h100q54 0 80 28t57 110h7l-77 -292h-7q12 82 -1 111t-73 29h-89l-90 -337h110q105 0 159.5 47.5t109.5 191.5h7z" />
    <glyph glyph-name="Igrave" unicode="&#xcc;" horiz-adv-x="288" 
d="M279 740h-4l-123 115l1 5h82zM153 700h226l-3 -8q-50 -2 -68.5 -16.5t-31.5 -62.5l-137 -516q-14 -54 -4 -70.5t59 -18.5l-2 -8h-226l2 8q49 2 68 16.5t32 61.5l143 537q10 37 -3 52t-58 17z" />
    <glyph glyph-name="Iacute" unicode="&#xcd;" horiz-adv-x="288" 
d="M464 863l-185 -123h-4l108 128h82zM153 700h226l-3 -8q-50 -2 -68.5 -16.5t-31.5 -62.5l-137 -516q-14 -54 -4 -70.5t59 -18.5l-2 -8h-226l2 8q49 2 68 16.5t32 61.5l143 537q10 37 -3 52t-58 17z" />
    <glyph glyph-name="Icircumflex" unicode="&#xce;" horiz-adv-x="288" 
d="M298 815l-145 -85h-3l155 130h6l87 -130h-3zM153 700h226l-3 -8q-50 -2 -68.5 -16.5t-31.5 -62.5l-137 -516q-14 -54 -4 -70.5t59 -18.5l-2 -8h-226l2 8q49 2 68 16.5t32 61.5l143 537q10 37 -3 52t-58 17z" />
    <glyph glyph-name="Idieresis" unicode="&#xcf;" horiz-adv-x="288" 
d="M178 762q-21 0 -35.5 14t-14.5 34t14.5 35t35.5 15q20 0 34.5 -14.5t14.5 -34.5t-14.5 -34.5t-34.5 -14.5zM395 762q-20 0 -34.5 14t-14.5 34t14.5 35t34.5 15q21 0 35.5 -14.5t14.5 -34.5t-14.5 -34.5t-35.5 -14.5zM153 700h226l-3 -8q-50 -2 -68.5 -16.5t-31.5 -62.5
l-137 -516q-14 -54 -4 -70.5t59 -18.5l-2 -8h-226l2 8q49 2 68 16.5t32 61.5l143 537q10 37 -3 52t-58 17z" />
    <glyph glyph-name="Eth" unicode="&#xd0;" horiz-adv-x="645" 
d="M153 700h156q326 0 326 -285q0 -54 -13.5 -108.5t-46.5 -110.5t-81.5 -99t-126 -70t-172.5 -27h-229l2 8q50 2 69 17t32 62l69 258h-72l3 10h71l69 257q13 42 1.5 60t-60.5 20zM118 15h60q76 0 137.5 18t102 50t69.5 71.5t44.5 89t22 95.5t6.5 96q0 137 -60.5 193.5
t-176.5 56.5h-27l-88 -330h185l-3 -10h-184z" />
    <glyph glyph-name="Ntilde" unicode="&#xd1;" horiz-adv-x="675" 
d="M412 809q-47 0 -68 -52h-4q12 49 35.5 71.5t51.5 22.5q31 0 69 -21.5t70 -21.5q47 0 68 52h4q-12 -49 -35.5 -71.5t-51.5 -22.5q-31 0 -69 21.5t-70 21.5zM570 692l3 8h209l-3 -8q-49 -2 -75.5 -27t-42.5 -84l-157 -591h-4l-262 622l-126 -482q-17 -70 -3 -94.5t68 -27.5
l-2 -8h-208l2 8q50 2 77 28.5t45 93.5l135 509q-24 51 -76 53l3 8h133l236 -562l117 443q16 62 0.5 85.5t-69.5 25.5z" />
    <glyph glyph-name="Ograve" unicode="&#xd2;" horiz-adv-x="730" 
d="M473 740h-4l-123 115l1 5h82zM330 -20q-52 0 -97.5 14.5t-85.5 45.5t-63.5 86.5t-23.5 129.5q0 63 16.5 127.5t50 125t79.5 107.5t111 75.5t139 28.5q52 0 97.5 -14.5t85.5 -45.5t63.5 -86.5t23.5 -129.5q0 -63 -16.5 -127.5t-50 -125t-79.5 -107.5t-111 -75.5
t-139 -28.5zM326 0q71 0 128 34t91 84t57 113.5t31.5 118t8.5 100.5q0 250 -182 250q-71 0 -128 -34t-91 -84t-57 -113.5t-31.5 -118t-8.5 -100.5q0 -250 182 -250z" />
    <glyph glyph-name="Oacute" unicode="&#xd3;" horiz-adv-x="730" 
d="M658 863l-185 -123h-4l108 128h82zM330 -20q-52 0 -97.5 14.5t-85.5 45.5t-63.5 86.5t-23.5 129.5q0 63 16.5 127.5t50 125t79.5 107.5t111 75.5t139 28.5q52 0 97.5 -14.5t85.5 -45.5t63.5 -86.5t23.5 -129.5q0 -63 -16.5 -127.5t-50 -125t-79.5 -107.5t-111 -75.5
t-139 -28.5zM326 0q71 0 128 34t91 84t57 113.5t31.5 118t8.5 100.5q0 250 -182 250q-71 0 -128 -34t-91 -84t-57 -113.5t-31.5 -118t-8.5 -100.5q0 -250 182 -250z" />
    <glyph glyph-name="Ocircumflex" unicode="&#xd4;" horiz-adv-x="730" 
d="M492 815l-145 -85h-3l155 130h6l87 -130h-3zM330 -20q-52 0 -97.5 14.5t-85.5 45.5t-63.5 86.5t-23.5 129.5q0 63 16.5 127.5t50 125t79.5 107.5t111 75.5t139 28.5q52 0 97.5 -14.5t85.5 -45.5t63.5 -86.5t23.5 -129.5q0 -63 -16.5 -127.5t-50 -125t-79.5 -107.5
t-111 -75.5t-139 -28.5zM326 0q71 0 128 34t91 84t57 113.5t31.5 118t8.5 100.5q0 250 -182 250q-71 0 -128 -34t-91 -84t-57 -113.5t-31.5 -118t-8.5 -100.5q0 -250 182 -250z" />
    <glyph glyph-name="Otilde" unicode="&#xd5;" horiz-adv-x="730" 
d="M551 766q-31 0 -69 21.5t-70 21.5q-47 0 -68 -52h-4q12 49 35.5 71.5t51.5 22.5q31 0 69 -21.5t70 -21.5q47 0 68 52h4q-12 -49 -35.5 -71.5t-51.5 -22.5zM330 -20q-52 0 -97.5 14.5t-85.5 45.5t-63.5 86.5t-23.5 129.5q0 63 16.5 127.5t50 125t79.5 107.5t111 75.5
t139 28.5q52 0 97.5 -14.5t85.5 -45.5t63.5 -86.5t23.5 -129.5q0 -63 -16.5 -127.5t-50 -125t-79.5 -107.5t-111 -75.5t-139 -28.5zM326 0q71 0 128 34t91 84t57 113.5t31.5 118t8.5 100.5q0 250 -182 250q-71 0 -128 -34t-91 -84t-57 -113.5t-31.5 -118t-8.5 -100.5
q0 -250 182 -250z" />
    <glyph glyph-name="Odieresis" unicode="&#xd6;" horiz-adv-x="730" 
d="M372 762q-21 0 -35.5 14t-14.5 34t14.5 35t35.5 15q20 0 34.5 -14.5t14.5 -34.5t-14.5 -34.5t-34.5 -14.5zM589 762q-20 0 -34.5 14t-14.5 34t14.5 35t34.5 15q21 0 35.5 -14.5t14.5 -34.5t-14.5 -34.5t-35.5 -14.5zM330 -20q-52 0 -97.5 14.5t-85.5 45.5t-63.5 86.5
t-23.5 129.5q0 63 16.5 127.5t50 125t79.5 107.5t111 75.5t139 28.5q52 0 97.5 -14.5t85.5 -45.5t63.5 -86.5t23.5 -129.5q0 -63 -16.5 -127.5t-50 -125t-79.5 -107.5t-111 -75.5t-139 -28.5zM326 0q71 0 128 34t91 84t57 113.5t31.5 118t8.5 100.5q0 250 -182 250
q-71 0 -128 -34t-91 -84t-57 -113.5t-31.5 -118t-8.5 -100.5q0 -250 182 -250z" />
    <glyph glyph-name="multiply" unicode="&#xd7;" 
d="M469 483l12 -12l-163 -163l163 -163l-12 -12l-162 163l-163 -163l-12 12l163 163l-163 163l12 12l163 -163z" />
    <glyph glyph-name="Oslash" unicode="&#xd8;" horiz-adv-x="730" 
d="M787 730h24l-128 -120q43 -67 43 -166q0 -63 -16.5 -127.5t-50 -125t-79.5 -107.5t-111 -75.5t-139 -28.5q-141 0 -215 93l-99 -93h-24l113 107q-45 66 -45 169q0 63 16.5 127.5t50 125t79.5 107.5t111 75.5t139 28.5q145 0 218 -97zM144 250q0 -69 13 -115l469 443
q-40 122 -166 122q-71 0 -128 -34t-91 -84t-57 -113.5t-31.5 -118t-8.5 -100.5zM642 450q0 61 -11 110l-469 -442q40 -118 164 -118q71 0 128 34t91 84t57 113.5t31.5 118t8.5 100.5z" />
    <glyph glyph-name="Ugrave" unicode="&#xd9;" horiz-adv-x="615" 
d="M449 740h-4l-123 115l1 5h82zM524 700h203l-3 -8q-43 -2 -67.5 -26t-39.5 -81l-81 -311q-10 -38 -15.5 -57t-18.5 -56t-25 -57t-33.5 -47.5t-45 -41.5t-58 -24.5t-75.5 -10.5q-92 0 -143.5 43.5t-51.5 126.5q0 50 18 116l93 350q6 24 6 36q0 20 -13 29.5t-44 10.5l3 8
h214l-3 -8q-45 -3 -62 -17.5t-30 -61.5l-89 -335q-18 -69 -18 -117q0 -70 37 -106t106 -36q49 0 87 19.5t64.5 58t43.5 80.5t33 102l81 304q7 28 7 45q0 61 -83 64z" />
    <glyph glyph-name="Uacute" unicode="&#xda;" horiz-adv-x="615" 
d="M634 863l-185 -123h-4l108 128h82zM524 700h203l-3 -8q-43 -2 -67.5 -26t-39.5 -81l-81 -311q-10 -38 -15.5 -57t-18.5 -56t-25 -57t-33.5 -47.5t-45 -41.5t-58 -24.5t-75.5 -10.5q-92 0 -143.5 43.5t-51.5 126.5q0 50 18 116l93 350q6 24 6 36q0 20 -13 29.5t-44 10.5
l3 8h214l-3 -8q-45 -3 -62 -17.5t-30 -61.5l-89 -335q-18 -69 -18 -117q0 -70 37 -106t106 -36q49 0 87 19.5t64.5 58t43.5 80.5t33 102l81 304q7 28 7 45q0 61 -83 64z" />
    <glyph glyph-name="Ucircumflex" unicode="&#xdb;" horiz-adv-x="615" 
d="M468 815l-145 -85h-3l155 130h6l87 -130h-3zM524 700h203l-3 -8q-43 -2 -67.5 -26t-39.5 -81l-81 -311q-10 -38 -15.5 -57t-18.5 -56t-25 -57t-33.5 -47.5t-45 -41.5t-58 -24.5t-75.5 -10.5q-92 0 -143.5 43.5t-51.5 126.5q0 50 18 116l93 350q6 24 6 36q0 20 -13 29.5
t-44 10.5l3 8h214l-3 -8q-45 -3 -62 -17.5t-30 -61.5l-89 -335q-18 -69 -18 -117q0 -70 37 -106t106 -36q49 0 87 19.5t64.5 58t43.5 80.5t33 102l81 304q7 28 7 45q0 61 -83 64z" />
    <glyph glyph-name="Udieresis" unicode="&#xdc;" horiz-adv-x="615" 
d="M348 762q-21 0 -35.5 14t-14.5 34t14.5 35t35.5 15q20 0 34.5 -14.5t14.5 -34.5t-14.5 -34.5t-34.5 -14.5zM565 762q-20 0 -34.5 14t-14.5 34t14.5 35t34.5 15q21 0 35.5 -14.5t14.5 -34.5t-14.5 -34.5t-35.5 -14.5zM524 700h203l-3 -8q-43 -2 -67.5 -26t-39.5 -81
l-81 -311q-10 -38 -15.5 -57t-18.5 -56t-25 -57t-33.5 -47.5t-45 -41.5t-58 -24.5t-75.5 -10.5q-92 0 -143.5 43.5t-51.5 126.5q0 50 18 116l93 350q6 24 6 36q0 20 -13 29.5t-44 10.5l3 8h214l-3 -8q-45 -3 -62 -17.5t-30 -61.5l-89 -335q-18 -69 -18 -117q0 -70 37 -106
t106 -36q49 0 87 19.5t64.5 58t43.5 80.5t33 102l81 304q7 28 7 45q0 61 -83 64z" />
    <glyph glyph-name="Yacute" unicode="&#xdd;" horiz-adv-x="561" 
d="M612 863l-185 -123h-4l108 128h82zM494 692l3 8h176l-3 -8q-35 -2 -61.5 -21t-60.5 -65l-217 -291l-60 -224q-11 -50 6.5 -65.5t85.5 -17.5l-2 -8h-294l2 8q72 2 98 19.5t41 74.5l56 210l-63 288q-12 54 -26 72t-45 20l3 8h197l-3 -8q-37 -1 -52 -12t-15 -34q0 -19 6 -43
l61 -268l188 252q41 55 41 75q0 31 -62 30z" />
    <glyph glyph-name="Thorn" unicode="&#xde;" horiz-adv-x="481" 
d="M160 172h-1l-20 -75q-14 -54 -4 -70.5t59 -18.5l-2 -8h-226l2 8q49 2 68 16.5t32 61.5l143 537q10 37 -3 52t-58 17l3 8h226l-3 -8q-50 -2 -68.5 -16.5t-31.5 -62.5l-15 -55q228 0 228 -161q0 -45 -17 -83.5t-53.5 -71.5t-102.5 -51.5t-156 -18.5zM417 393
q0 142 -159 150l-95 -357q254 7 254 207z" />
    <glyph glyph-name="germandbls" unicode="&#xdf;" horiz-adv-x="495" 
d="M291 379h-13l-1 -3h6q71 0 113.5 -37.5t42.5 -117.5q0 -94 -56.5 -165t-156.5 -71q-64 0 -97 30l7 8q29 -27 80 -27q55 0 92 33t51.5 80.5t14.5 104.5q0 158 -121 158h-14l4 14h29q41 0 73 14.5t50.5 35.5t30.5 49.5t16 53t4 48.5q0 61 -24.5 90.5t-66.5 29.5
q-32 0 -57.5 -16.5t-42.5 -47.5t-27 -58.5t-20 -64.5l-138 -520h-131l2 8q41 3 57.5 11t22.5 32l117 439q13 47 26.5 81t38 71.5t62.5 57.5t88 20q70 0 114 -33.5t44 -103.5q0 -86 -62 -145t-158 -59z" />
    <glyph glyph-name="agrave" unicode="&#xe0;" horiz-adv-x="523" 
d="M277 700l65 -165h-10l-136 160l2 5h79zM369 43q38 0 111 95l8 -5q-103 -148 -167 -148q-38 0 -38 43q0 22 15 65l57 175q-75 -121 -149 -202t-121 -81q-31 0 -51 22.5t-20 67.5q0 86 61.5 198t163.5 183q28 19 67.5 34t68.5 15q32 0 52 -17l5 15l70 23l-147 -454
q-9 -29 14 -29zM117 43q71 0 249 259l44 134q-35 34 -114 34q-79 -26 -145.5 -140t-66.5 -234q0 -53 33 -53z" />
    <glyph glyph-name="aacute" unicode="&#xe1;" horiz-adv-x="523" 
d="M332 535l155 165h79l-2 -5l-222 -160h-10zM432 503l70 23l-147 -454q-9 -29 14 -29q38 0 111 95l8 -5q-103 -148 -167 -148q-38 0 -38 43q0 22 15 65l57 175q-75 -121 -149 -202t-121 -81q-31 0 -51 22.5t-20 67.5q0 86 61.5 198t163.5 183q28 19 67.5 34t68.5 15
q32 0 52 -17zM117 43q71 0 249 259l44 134q-35 34 -114 34q-79 -26 -145.5 -140t-66.5 -234q0 -53 33 -53z" />
    <glyph glyph-name="acircumflex" unicode="&#xe2;" horiz-adv-x="523" 
d="M450 536l-83 109l-141 -109h-7l154 164h16l66 -164h-5zM369 43q38 0 111 95l8 -5q-103 -148 -167 -148q-38 0 -38 43q0 22 15 65l57 175q-75 -121 -149 -202t-121 -81q-31 0 -51 22.5t-20 67.5q0 86 61.5 198t163.5 183q28 19 67.5 34t68.5 15q32 0 52 -17l5 15l70 23
l-147 -454q-9 -29 14 -29zM117 43q71 0 249 259l44 134q-35 34 -114 34q-79 -26 -145.5 -140t-66.5 -234q0 -53 33 -53z" />
    <glyph glyph-name="atilde" unicode="&#xe3;" horiz-adv-x="523" 
d="M284 625q-47 0 -68 -52h-4q12 49 35.5 71.5t51.5 22.5q31 0 69 -21.5t70 -21.5q47 0 68 52h4q-12 -49 -35.5 -71.5t-51.5 -22.5q-31 0 -69 21.5t-70 21.5zM432 503l70 23l-147 -454q-9 -29 14 -29q38 0 111 95l8 -5q-103 -148 -167 -148q-38 0 -38 43q0 22 15 65l57 175
q-75 -121 -149 -202t-121 -81q-31 0 -51 22.5t-20 67.5q0 86 61.5 198t163.5 183q28 19 67.5 34t68.5 15q32 0 52 -17zM117 43q71 0 249 259l44 134q-35 34 -114 34q-79 -26 -145.5 -140t-66.5 -234q0 -53 33 -53z" />
    <glyph glyph-name="adieresis" unicode="&#xe4;" horiz-adv-x="523" 
d="M281 588q-20 0 -34.5 14t-14.5 33q0 20 14.5 34.5t34.5 14.5q19 0 33.5 -14.5t14.5 -33.5q0 -20 -14.5 -34t-33.5 -14zM447 588q-20 0 -34 14t-14 33q0 20 14.5 34.5t33.5 14.5q20 0 34.5 -14.5t14.5 -33.5q0 -20 -14.5 -34t-34.5 -14zM369 43q38 0 111 95l8 -5
q-103 -148 -167 -148q-38 0 -38 43q0 22 15 65l57 175q-75 -121 -149 -202t-121 -81q-31 0 -51 22.5t-20 67.5q0 86 61.5 198t163.5 183q28 19 67.5 34t68.5 15q32 0 52 -17l5 15l70 23l-147 -454q-9 -29 14 -29zM117 43q71 0 249 259l44 134q-35 34 -114 34
q-79 -26 -145.5 -140t-66.5 -234q0 -53 33 -53z" />
    <glyph glyph-name="aring" unicode="&#xe5;" horiz-adv-x="523" 
d="M355 544q-38 0 -63.5 18.5t-25.5 60.5q0 41 28.5 74t79.5 33q39 0 64 -19t25 -60t-28 -74t-80 -33zM370 711q-39 0 -60.5 -26.5t-21.5 -56.5q0 -65 71 -65q39 0 60.5 26t21.5 56q0 66 -71 66zM369 43q38 0 111 95l8 -5q-103 -148 -167 -148q-38 0 -38 43q0 22 15 65
l57 175q-75 -121 -149 -202t-121 -81q-31 0 -51 22.5t-20 67.5q0 86 61.5 198t163.5 183q28 19 67.5 34t68.5 15q32 0 52 -17l5 15l70 23l-147 -454q-9 -29 14 -29zM117 43q71 0 249 259l44 134q-35 34 -114 34q-79 -26 -145.5 -140t-66.5 -234q0 -53 33 -53z" />
    <glyph glyph-name="ae" unicode="&#xe6;" horiz-adv-x="688" 
d="M128 -15q-52 0 -83.5 27t-31.5 74q0 60 56.5 102.5t147.5 55.5l99 14l2 11q22 118 -5 162t-89 44q-49 0 -85.5 -33.5t-51.5 -91.5l-8 1q16 70 63.5 112t111.5 42q25 0 47.5 -6.5t44 -21.5t33 -44.5t9.5 -71.5q102 144 228 144q25 0 42 -13.5t17 -41.5q0 -67 -90 -125.5
t-227 -73.5q-8 -35 -8 -70q0 -69 25 -102.5t79 -33.5q94 0 162 114l8 -4q-39 -73 -98 -121.5t-123 -48.5q-47 0 -76.5 31.5t-30.5 97.5q-21 -64 -61 -96.5t-107 -32.5zM360 262q61 7 114 25.5t91.5 56.5t38.5 88q0 20 -12 34t-38 14q-56 -15 -114.5 -74t-79.5 -144zM156 5
q109 0 142 152q2 15 7.5 44.5t8.5 44.5l-46 -5q-187 -22 -187 -150q0 -39 21 -62.5t54 -23.5z" />
    <glyph glyph-name="ccedilla" unicode="&#xe7;" horiz-adv-x="400" 
d="M330 505q50 0 87 -34l-42 -54l-9 1q-45 48 -116 50q-77 -46 -123 -121t-46 -169q0 -133 100 -133q89 0 163 114l7 -4q-52 -82 -97.5 -125t-105.5 -45l-48 -54q12 9 31 9q24 0 39 -18t15 -49q0 -40 -26.5 -64t-60.5 -24q-33 0 -51 16t-20 43l7 3q14 -36 51 -36
q24 0 41.5 15.5t17.5 44.5q0 45 -39 45q-19 0 -33 -13l-5 4l67 78q-54 3 -81 41t-27 104q0 92 48.5 180.5t119 141.5t136.5 53z" />
    <glyph glyph-name="egrave" unicode="&#xe8;" horiz-adv-x="417" 
d="M259 700l65 -165h-10l-136 160l2 5h79zM404 450q0 -67 -90 -125.5t-227 -73.5q-8 -35 -8 -70q0 -69 25 -102.5t79 -33.5q94 0 162 114l8 -4q-39 -73 -98 -121.5t-123 -48.5q-48 0 -77.5 33t-29.5 102q0 95 46 184.5t120.5 145t153.5 55.5q25 0 42 -13.5t17 -41.5z
M283 480q-56 -15 -114.5 -74t-79.5 -144q41 7 79.5 19t77.5 31.5t63 50.5t24 69q0 20 -12 34t-38 14z" />
    <glyph glyph-name="eacute" unicode="&#xe9;" horiz-adv-x="417" 
d="M314 535l155 165h79l-2 -5l-222 -160h-10zM345 505q25 0 42 -13.5t17 -41.5q0 -67 -90 -125.5t-227 -73.5q-8 -35 -8 -70q0 -69 25 -102.5t79 -33.5q94 0 162 114l8 -4q-39 -73 -98 -121.5t-123 -48.5q-48 0 -77.5 33t-29.5 102q0 95 46 184.5t120.5 145t153.5 55.5z
M89 262q41 7 79.5 19t77.5 31.5t63 50.5t24 69q0 20 -12 34t-38 14q-56 -15 -114.5 -74t-79.5 -144z" />
    <glyph glyph-name="ecircumflex" unicode="&#xea;" horiz-adv-x="417" 
d="M355 700h16l66 -164h-5l-83 109l-141 -109h-7zM345 505q25 0 42 -13.5t17 -41.5q0 -67 -90 -125.5t-227 -73.5q-8 -35 -8 -70q0 -69 25 -102.5t79 -33.5q94 0 162 114l8 -4q-39 -73 -98 -121.5t-123 -48.5q-48 0 -77.5 33t-29.5 102q0 95 46 184.5t120.5 145t153.5 55.5z
M89 262q41 7 79.5 19t77.5 31.5t63 50.5t24 69q0 20 -12 34t-38 14q-56 -15 -114.5 -74t-79.5 -144z" />
    <glyph glyph-name="edieresis" unicode="&#xeb;" horiz-adv-x="417" 
d="M263 588q-20 0 -34.5 14t-14.5 33q0 20 14.5 34.5t34.5 14.5q19 0 33.5 -14.5t14.5 -33.5q0 -20 -14.5 -34t-33.5 -14zM429 684q20 0 34.5 -14.5t14.5 -33.5q0 -20 -14.5 -34t-34.5 -14t-34 14t-14 33q0 20 14.5 34.5t33.5 14.5zM345 505q25 0 42 -13.5t17 -41.5
q0 -67 -90 -125.5t-227 -73.5q-8 -35 -8 -70q0 -69 25 -102.5t79 -33.5q94 0 162 114l8 -4q-39 -73 -98 -121.5t-123 -48.5q-48 0 -77.5 33t-29.5 102q0 95 46 184.5t120.5 145t153.5 55.5zM89 262q41 7 79.5 19t77.5 31.5t63 50.5t24 69q0 20 -12 34t-38 14
q-56 -15 -114.5 -74t-79.5 -144z" />
    <glyph glyph-name="igrave" unicode="&#xec;" horiz-adv-x="281" 
d="M207 535h-10l-136 160l2 5h79zM72 -12q-35 0 -35 38q0 13 4 25l102 363q8 29 -4 40.5t-46 6.5l-20 -3l2 10l153 37l-118 -423q-11 -36 19 -36q35 0 110 92l7 -6q-109 -144 -174 -144z" />
    <glyph glyph-name="iacute" unicode="&#xed;" horiz-adv-x="281" 
d="M429 695l-222 -160h-10l155 165h79zM72 -12q-35 0 -35 38q0 13 4 25l102 363q8 29 -4 40.5t-46 6.5l-20 -3l2 10l153 37l-118 -423q-11 -36 19 -36q35 0 110 92l7 -6q-109 -144 -174 -144z" />
    <glyph glyph-name="icircumflex" unicode="&#xee;" horiz-adv-x="281" 
d="M91 536h-7l154 164h16l66 -164h-5l-83 109zM72 -12q-35 0 -35 38q0 13 4 25l102 363q8 29 -4 40.5t-46 6.5l-20 -3l2 10l153 37l-118 -423q-11 -36 19 -36q35 0 110 92l7 -6q-109 -144 -174 -144z" />
    <glyph glyph-name="idieresis" unicode="&#xef;" horiz-adv-x="281" 
d="M146 588q-20 0 -34.5 14t-14.5 33q0 20 14.5 34.5t34.5 14.5q19 0 33.5 -14.5t14.5 -33.5q0 -20 -14 -34t-34 -14zM312 588q-20 0 -34 14t-14 33q0 20 14.5 34.5t33.5 14.5q20 0 34.5 -14.5t14.5 -33.5q0 -20 -14.5 -34t-34.5 -14zM72 -12q-35 0 -35 38q0 13 4 25
l102 363q8 29 -4 40.5t-46 6.5l-20 -3l2 10l153 37l-118 -423q-11 -36 19 -36q35 0 110 92l7 -6q-109 -144 -174 -144z" />
    <glyph glyph-name="eth" unicode="&#xf0;" horiz-adv-x="488" 
d="M360 642l122 58l-3 -15l-108 -52q100 -83 100 -245q0 -64 -20.5 -133.5t-56 -130t-91.5 -100t-120 -39.5q-59 0 -100.5 34.5t-41.5 112.5q0 53 20.5 116t57 121t95 97t125.5 39q31 0 59 -18q-14 79 -63 129l-136 -65l3 16l124 59q-62 57 -165 64l1 10q120 0 198 -58z
M189 0q91 0 153.5 120.5t62.5 295.5q0 26 -3 52q-28 22 -69 22q-63 0 -114 -58.5t-77 -141.5t-26 -166q0 -71 20 -97.5t53 -26.5z" />
    <glyph glyph-name="ntilde" unicode="&#xf1;" horiz-adv-x="543" 
d="M300 625q-47 0 -68 -52h-4q12 49 35.5 71.5t51.5 22.5q31 0 69 -21.5t70 -21.5q47 0 68 52h4q-12 -49 -35.5 -71.5t-51.5 -22.5q-31 0 -69 21.5t-70 21.5zM391 43q34 0 109 92l7 -6q-108 -144 -167 -144q-17 0 -29.5 11.5t-12.5 35.5q0 46 61 214q53 147 53 180
q0 28 -25 28q-62 0 -241 -254l-53 -200h-61l111 414q8 29 -4 40.5t-46 6.5l-20 -3l2 10l153 37l-75 -281q95 146 158 213.5t117 67.5q21 0 36 -14t15 -41q0 -53 -58 -213q-51 -140 -51 -172q0 -22 21 -22z" />
    <glyph glyph-name="ograve" unicode="&#xf2;" horiz-adv-x="476" 
d="M332 535h-10l-136 160l2 5h79zM163 -15q-59 0 -101 35t-42 111q0 72 35 157t105 151t153 66q59 0 101 -35t42 -111q0 -72 -35 -157t-105 -151t-153 -66zM169 0q58 0 108 58t77 142.5t27 167.5q0 122 -74 122q-58 0 -108 -58t-77 -142.5t-27 -167.5q0 -122 74 -122z" />
    <glyph glyph-name="oacute" unicode="&#xf3;" horiz-adv-x="476" 
d="M554 695l-222 -160h-10l155 165h79zM163 -15q-59 0 -101 35t-42 111q0 72 35 157t105 151t153 66q59 0 101 -35t42 -111q0 -72 -35 -157t-105 -151t-153 -66zM169 0q58 0 108 58t77 142.5t27 167.5q0 122 -74 122q-58 0 -108 -58t-77 -142.5t-27 -167.5q0 -122 74 -122z
" />
    <glyph glyph-name="ocircumflex" unicode="&#xf4;" horiz-adv-x="476" 
d="M216 536h-7l154 164h16l66 -164h-5l-83 109zM163 -15q-59 0 -101 35t-42 111q0 72 35 157t105 151t153 66q59 0 101 -35t42 -111q0 -72 -35 -157t-105 -151t-153 -66zM169 0q58 0 108 58t77 142.5t27 167.5q0 122 -74 122q-58 0 -108 -58t-77 -142.5t-27 -167.5
q0 -122 74 -122z" />
    <glyph glyph-name="otilde" unicode="&#xf5;" horiz-adv-x="476" 
d="M413 582q-31 0 -69 21.5t-70 21.5q-47 0 -68 -52h-4q12 49 35.5 71.5t51.5 22.5q31 0 69 -21.5t70 -21.5q47 0 68 52h4q-12 -49 -35.5 -71.5t-51.5 -22.5zM163 -15q-59 0 -101 35t-42 111q0 72 35 157t105 151t153 66q59 0 101 -35t42 -111q0 -72 -35 -157t-105 -151
t-153 -66zM169 0q58 0 108 58t77 142.5t27 167.5q0 122 -74 122q-58 0 -108 -58t-77 -142.5t-27 -167.5q0 -122 74 -122z" />
    <glyph glyph-name="odieresis" unicode="&#xf6;" horiz-adv-x="476" 
d="M271 588q-20 0 -34.5 14t-14.5 33q0 20 14.5 34.5t34.5 14.5q19 0 33.5 -14.5t14.5 -33.5q0 -20 -14.5 -34t-33.5 -14zM437 588q-20 0 -34 14t-14 33q0 20 14.5 34.5t33.5 14.5q20 0 34.5 -14.5t14.5 -33.5q0 -20 -14.5 -34t-34.5 -14zM163 -15q-59 0 -101 35t-42 111
q0 72 35 157t105 151t153 66q59 0 101 -35t42 -111q0 -72 -35 -157t-105 -151t-153 -66zM169 0q58 0 108 58t77 142.5t27 167.5q0 122 -74 122q-58 0 -108 -58t-77 -142.5t-27 -167.5q0 -122 74 -122z" />
    <glyph glyph-name="divide" unicode="&#xf7;" 
d="M307 402q-20 0 -34 14t-14 34t14 34t34 14t34 -14t14 -34t-14 -34t-34 -14zM506 301h-398v15h398v-15zM307 102q-20 0 -34 14t-14 34t14 34t34 14t34 -14t14 -34t-14 -34t-34 -14z" />
    <glyph glyph-name="oslash" unicode="&#xf8;" horiz-adv-x="476" 
d="M485 510h20l-68 -70q19 -32 19 -81q0 -72 -35 -157t-105 -151t-153 -66q-79 0 -117 52l-55 -57h-19l67 69q-19 33 -19 82q0 72 35 157t105 151t153 66q79 0 117 -52zM95 122v-15l285 294q-9 89 -73 89q-58 0 -108 -58t-77 -142.5t-27 -167.5zM381 368v14l-285 -293
q10 -89 73 -89q58 0 108 58t77 142.5t27 167.5z" />
    <glyph glyph-name="ugrave" unicode="&#xf9;" horiz-adv-x="542" 
d="M265 700l65 -165h-10l-136 160l2 5h79zM500 138l7 -6q-49 -66 -95 -105t-77 -39q-24 0 -32 20t0 43l55 208q-96 -142 -158.5 -208t-116.5 -66q-21 0 -35.5 12.5t-14.5 37.5q0 26 28 115l84 264q11 35 -2 48.5t-48 8.5l-20 -3l2 10l155 27q-129 -426 -129 -447
q0 -22 23 -22q69 0 241 253l53 201h61l-110 -408q-9 -36 20 -36q34 0 109 92z" />
    <glyph glyph-name="uacute" unicode="&#xfa;" horiz-adv-x="542" 
d="M320 535l155 165h79l-2 -5l-222 -160h-10zM391 46q34 0 109 92l7 -6q-49 -66 -95 -105t-77 -39q-24 0 -32 20t0 43l55 208q-96 -142 -158.5 -208t-116.5 -66q-21 0 -35.5 12.5t-14.5 37.5q0 26 28 115l84 264q11 35 -2 48.5t-48 8.5l-20 -3l2 10l155 27
q-129 -426 -129 -447q0 -22 23 -22q69 0 241 253l53 201h61l-110 -408q-9 -36 20 -36z" />
    <glyph glyph-name="ucircumflex" unicode="&#xfb;" horiz-adv-x="542" 
d="M438 536l-83 109l-141 -109h-7l154 164h16l66 -164h-5zM500 138l7 -6q-49 -66 -95 -105t-77 -39q-24 0 -32 20t0 43l55 208q-96 -142 -158.5 -208t-116.5 -66q-21 0 -35.5 12.5t-14.5 37.5q0 26 28 115l84 264q11 35 -2 48.5t-48 8.5l-20 -3l2 10l155 27
q-129 -426 -129 -447q0 -22 23 -22q69 0 241 253l53 201h61l-110 -408q-9 -36 20 -36q34 0 109 92z" />
    <glyph glyph-name="udieresis" unicode="&#xfc;" horiz-adv-x="542" 
d="M269 588q-20 0 -34.5 14t-14.5 33q0 20 14.5 34.5t34.5 14.5q19 0 33.5 -14.5t14.5 -33.5q0 -20 -14.5 -34t-33.5 -14zM435 588q-20 0 -34 14t-14 33q0 20 14.5 34.5t33.5 14.5q20 0 34.5 -14.5t14.5 -33.5q0 -20 -14.5 -34t-34.5 -14zM500 138l7 -6q-49 -66 -95 -105
t-77 -39q-24 0 -32 20t0 43l55 208q-96 -142 -158.5 -208t-116.5 -66q-21 0 -35.5 12.5t-14.5 37.5q0 26 28 115l84 264q11 35 -2 48.5t-48 8.5l-20 -3l2 10l155 27q-129 -426 -129 -447q0 -22 23 -22q69 0 241 253l53 201h61l-110 -408q-9 -36 20 -36q34 0 109 92z" />
    <glyph glyph-name="yacute" unicode="&#xfd;" horiz-adv-x="452" 
d="M229 535l155 165h79l-2 -5l-222 -160h-10zM310 468v5l81 36q45 -54 45 -125q0 -168 -250 -420q-84 -92 -151.5 -135.5t-138.5 -43.5q-37 0 -59 14l22 89h5q31 -35 97 -35q98 0 179 87l-55 445q-2 15 -4 24.5t-7 22.5t-12.5 16.5t-20.5 7t-30 -5.5l1 8l126 51l62 -510
q175 166 175 325q0 51 -18 89.5t-47 54.5z" />
    <glyph glyph-name="thorn" unicode="&#xfe;" horiz-adv-x="492" 
d="M104 -200h-218l3 8q50 3 68.5 11.5t25.5 36.5l210 783q8 30 -4 42t-45 5l-20 -4l3 11l151 37l-134 -503q160 282 256 282q34 0 54.5 -24t20.5 -75q0 -86 -49.5 -184.5t-129 -167.5t-156.5 -69q-32 0 -60 11l-40 -144q-8 -28 5.5 -36.5t61.5 -11.5zM216 24
q75 31 132.5 139t57.5 219q0 69 -38 69q-72 0 -235 -263l-33 -125q49 -39 116 -39z" />
    <glyph glyph-name="ydieresis" unicode="&#xff;" horiz-adv-x="452" 
d="M178 588q-20 0 -34.5 14t-14.5 33q0 20 14.5 34.5t34.5 14.5q19 0 33.5 -14.5t14.5 -33.5q0 -20 -14 -34t-34 -14zM344 588q-20 0 -34 14t-14 33q0 20 14.5 34.5t33.5 14.5q20 0 34.5 -14.5t14.5 -33.5q0 -20 -14.5 -34t-34.5 -14zM310 473l81 36q45 -54 45 -125
q0 -168 -250 -420q-84 -92 -151.5 -135.5t-138.5 -43.5q-37 0 -59 14l22 89h5q31 -35 97 -35q98 0 179 87l-55 445q-2 15 -4 24.5t-7 22.5t-12.5 16.5t-20.5 7t-30 -5.5l1 8l126 51l62 -510q175 166 175 325q0 51 -18 89.5t-47 54.5v5z" />
    <glyph glyph-name="Amacron" unicode="&#x100;" horiz-adv-x="667" 
d="M344 790l7 25h268l-7 -25h-268zM488 700l38 -602q4 -56 16.5 -72.5t50.5 -17.5l-2 -8h-224l1 8q54 1 70.5 20.5t14.5 75.5l-8 159h-246l-87 -150q-25 -43 -25.5 -66.5t16.5 -30.5t56 -8l-2 -8h-213l2 8q48 1 76.5 23t63.5 81l343 588h59zM426 656l-218 -377h236z" />
    <glyph glyph-name="amacron" unicode="&#x101;" horiz-adv-x="523" 
d="M229 633h268l-7 -25h-268zM369 43q38 0 111 95l8 -5q-103 -148 -167 -148q-38 0 -38 43q0 22 15 65l57 175q-75 -121 -149 -202t-121 -81q-31 0 -51 22.5t-20 67.5q0 86 61.5 198t163.5 183q28 19 67.5 34t68.5 15q32 0 52 -17l5 15l70 23l-147 -454q-9 -29 14 -29z
M117 43q71 0 249 259l44 134q-35 34 -114 34q-79 -26 -145.5 -140t-66.5 -234q0 -53 33 -53z" />
    <glyph glyph-name="Abreve" unicode="&#x102;" horiz-adv-x="667" 
d="M468 742q-57 0 -88.5 29.5t-20.5 88.5h10q-1 -33 33.5 -50t82.5 -17q97 0 122 67h11q-18 -65 -54.5 -91.5t-95.5 -26.5zM488 700l38 -602q4 -56 16.5 -72.5t50.5 -17.5l-2 -8h-224l1 8q54 1 70.5 20.5t14.5 75.5l-8 159h-246l-87 -150q-25 -43 -25.5 -66.5t16.5 -30.5
t56 -8l-2 -8h-213l2 8q48 1 76.5 23t63.5 81l343 588h59zM426 656l-218 -377h236z" />
    <glyph glyph-name="abreve" unicode="&#x103;" horiz-adv-x="523" 
d="M344 547q-55 0 -80.5 38.5t-7.5 114.5h9q-6 -51 20 -76.5t72 -25.5q41 0 72 23.5t37 78.5h10q-20 -153 -132 -153zM369 43q38 0 111 95l8 -5q-103 -148 -167 -148q-38 0 -38 43q0 22 15 65l57 175q-75 -121 -149 -202t-121 -81q-31 0 -51 22.5t-20 67.5q0 86 61.5 198
t163.5 183q28 19 67.5 34t68.5 15q32 0 52 -17l5 15l70 23l-147 -454q-9 -29 14 -29zM117 43q71 0 249 259l44 134q-35 34 -114 34q-79 -26 -145.5 -140t-66.5 -234q0 -53 33 -53z" />
    <glyph glyph-name="Aogonek" unicode="&#x104;" horiz-adv-x="667" 
d="M591 0h-224q-70 -13 -97 -43t-27 -63q0 -59 60 -59q40 0 64 39l4 -2q-43 -82 -113 -82q-31 0 -51 17t-20 48q0 45 49.5 92.5t131.5 60.5q54 1 70.5 20.5t14.5 75.5l-8 159h-246l-87 -150q-25 -43 -25.5 -66.5t16.5 -30.5t56 -8l-2 -8h-213l2 8q48 1 76.5 23t63.5 81
l343 588h59l38 -602q4 -56 16.5 -72.5t50.5 -17.5zM426 656l-218 -377h236z" />
    <glyph glyph-name="aogonek" unicode="&#x105;" horiz-adv-x="523" 
d="M369 43q38 0 111 95l8 -5q-103 -148 -167 -148q-6 0 -14 2q-77 -29 -77 -93q0 -59 60 -59q40 0 64 39l4 -2q-43 -82 -113 -82q-31 0 -51 17t-20 48q0 36 33 75.5t90 61.5q-14 12 -14 36q0 22 15 65l57 175q-75 -121 -149 -202t-121 -81q-31 0 -51 22.5t-20 67.5
q0 86 61.5 198t163.5 183q28 19 67.5 34t68.5 15q32 0 52 -17l5 15l70 23l-147 -454q-9 -29 14 -29zM117 43q71 0 249 259l44 134q-35 34 -114 34q-79 -26 -145.5 -140t-66.5 -234q0 -53 33 -53z" />
    <glyph glyph-name="Cacute" unicode="&#x106;" horiz-adv-x="600" 
d="M645 863l-185 -123h-4l108 128h82zM272 -20q-101 0 -158 69.5t-57 173.5q0 132 49 245.5t137 182.5t194 69q117 0 196 -47l-63 -230h-9q22 127 -16 189.5t-138 62.5q-110 0 -195 -109t-85 -288q0 -116 51.5 -188.5t142.5 -72.5q37 0 72 12t77 53.5t68 109.5l8 -2
q-86 -230 -274 -230z" />
    <glyph glyph-name="cacute" unicode="&#x107;" horiz-adv-x="400" 
d="M536 695l-222 -160h-10l155 165h79zM142 -15q-58 0 -87 38t-29 107q0 92 48.5 180.5t119 141.5t136.5 53q50 0 87 -34l-42 -54l-9 1q-45 48 -116 50q-77 -46 -123 -121t-46 -169q0 -133 100 -133q89 0 163 114l7 -4q-53 -84 -100 -127t-109 -43z" />
    <glyph glyph-name="Ccircumflex" unicode="&#x108;" horiz-adv-x="600" 
d="M479 815l-145 -85h-3l155 130h6l87 -130h-3zM272 -20q-101 0 -158 69.5t-57 173.5q0 132 49 245.5t137 182.5t194 69q117 0 196 -47l-63 -230h-9q22 127 -16 189.5t-138 62.5q-110 0 -195 -109t-85 -288q0 -116 51.5 -188.5t142.5 -72.5q37 0 72 12t77 53.5t68 109.5
l8 -2q-86 -230 -274 -230z" />
    <glyph glyph-name="ccircumflex" unicode="&#x109;" horiz-adv-x="400" 
d="M198 536h-7l154 164h16l66 -164h-5l-83 109zM142 -15q-58 0 -87 38t-29 107q0 92 48.5 180.5t119 141.5t136.5 53q50 0 87 -34l-42 -54l-9 1q-45 48 -116 50q-77 -46 -123 -121t-46 -169q0 -133 100 -133q89 0 163 114l7 -4q-53 -84 -100 -127t-109 -43z" />
    <glyph glyph-name="Cdotaccent" unicode="&#x10a;" horiz-adv-x="600" 
d="M475 755q-21 0 -36.5 15.5t-15.5 36.5q0 22 15.5 38t36.5 16q23 0 38.5 -15.5t15.5 -38.5q0 -21 -16 -36.5t-38 -15.5zM272 -20q-101 0 -158 69.5t-57 173.5q0 132 49 245.5t137 182.5t194 69q117 0 196 -47l-63 -230h-9q22 127 -16 189.5t-138 62.5q-110 0 -195 -109
t-85 -288q0 -116 51.5 -188.5t142.5 -72.5q37 0 72 12t77 53.5t68 109.5l8 -2q-86 -230 -274 -230z" />
    <glyph glyph-name="cdotaccent" unicode="&#x10b;" horiz-adv-x="400" 
d="M336 588q-21 0 -34.5 14t-13.5 35q0 20 13.5 33.5t34.5 13.5t35 -14t14 -34t-13.5 -34t-35.5 -14zM142 -15q-58 0 -87 38t-29 107q0 92 48.5 180.5t119 141.5t136.5 53q50 0 87 -34l-42 -54l-9 1q-45 48 -116 50q-77 -46 -123 -121t-46 -169q0 -133 100 -133
q89 0 163 114l7 -4q-53 -84 -100 -127t-109 -43z" />
    <glyph glyph-name="Ccaron" unicode="&#x10c;" horiz-adv-x="600" 
d="M468 795l145 85h3l-155 -130h-6l-87 130h3zM272 -20q-101 0 -158 69.5t-57 173.5q0 132 49 245.5t137 182.5t194 69q117 0 196 -47l-63 -230h-9q22 127 -16 189.5t-138 62.5q-110 0 -195 -109t-85 -288q0 -116 51.5 -188.5t142.5 -72.5q37 0 72 12t77 53.5t68 109.5l8 -2
q-86 -230 -274 -230z" />
    <glyph glyph-name="ccaron" unicode="&#x10d;" horiz-adv-x="400" 
d="M464 700h7l-144 -154h-16l-76 154h5l93 -99zM142 -15q-58 0 -87 38t-29 107q0 92 48.5 180.5t119 141.5t136.5 53q50 0 87 -34l-42 -54l-9 1q-45 48 -116 50q-77 -46 -123 -121t-46 -169q0 -133 100 -133q89 0 163 114l7 -4q-53 -84 -100 -127t-109 -43z" />
    <glyph glyph-name="Dcaron" unicode="&#x10e;" horiz-adv-x="645" 
d="M450 795l145 85h3l-155 -130h-6l-87 130h3zM195 0h-229l2 8q50 2 69 17t32 62l140 525q13 42 1.5 60t-60.5 20l3 8h156q326 0 326 -285q0 -54 -13.5 -108.5t-46.5 -110.5t-81.5 -99t-126 -70t-172.5 -27zM296 685l-178 -670h60q76 0 137.5 18t102 50t69.5 71.5t44.5 89
t22 95.5t6.5 96q0 137 -60.5 193.5t-176.5 56.5h-27z" />
    <glyph glyph-name="dcaron" unicode="&#x10f;" horiz-adv-x="525" 
d="M610 753q41 0 41 -43q0 -33 -27.5 -82.5t-70.5 -85.5h-11q59 64 59 101q0 17 -16 34t-16 32q0 18 11 31t30 13zM362 688l171 42l-173 -658q-4 -14 1 -21.5t15 -7.5q38 0 105 95l9 -5q-94 -148 -159 -148q-40 0 -40 47q0 19 11 61l46 170q-69 -119 -139 -198.5t-116 -79.5
q-34 0 -54.5 24t-20.5 75q0 85 48.5 184t126.5 168t152 69q35 0 61 -21l42 155q8 29 -7 39.5t-49 4.5l-33 -6zM124 43q74 0 236 269l31 113q-45 44 -114 45q-75 -31 -132.5 -139t-57.5 -219q0 -69 37 -69z" />
    <glyph glyph-name="Dcroat" unicode="&#x110;" horiz-adv-x="645" 
d="M153 700h156q326 0 326 -285q0 -54 -13.5 -108.5t-46.5 -110.5t-81.5 -99t-126 -70t-172.5 -27h-229l2 8q50 2 69 17t32 62l69 258h-72l3 10h71l69 257q13 42 1.5 60t-60.5 20zM118 15h60q76 0 137.5 18t102 50t69.5 71.5t44.5 89t22 95.5t6.5 96q0 137 -60.5 193.5
t-176.5 56.5h-27l-88 -330h185l-3 -10h-184z" />
    <glyph glyph-name="dcroat" unicode="&#x111;" horiz-adv-x="525" 
d="M586 573h-94l-132 -501q-4 -14 1 -21.5t15 -7.5q38 0 105 95l9 -5q-94 -148 -159 -148q-40 0 -40 47q0 19 11 61l46 170q-69 -119 -139 -198.5t-116 -79.5q-34 0 -54.5 24t-20.5 75q0 85 48.5 184t126.5 168t152 69q35 0 61 -21l24 89h-168l3 10h168l15 56q8 29 -7 39.5
t-49 4.5l-33 -6l3 11l171 42l-39 -147h95zM124 43q74 0 236 269l31 113q-45 44 -114 45q-75 -31 -132.5 -139t-57.5 -219q0 -69 37 -69z" />
    <glyph glyph-name="Emacron" unicode="&#x112;" horiz-adv-x="557" 
d="M560 790h-268l7 25h268zM423 0h-456l2 8q50 2 68.5 17t31.5 62l140 525q13 42 1.5 60t-60.5 20l3 8h428l-33 -215h-7q3 57 2 95t-15 61.5t-46 33.5t-90 10h-96l-85 -319h100q54 0 80 28t57 110h7l-77 -292h-7q12 82 -1 111t-73 29h-89l-90 -337h110q105 0 159.5 47.5
t109.5 191.5h7z" />
    <glyph glyph-name="emacron" unicode="&#x113;" horiz-adv-x="417" 
d="M204 608l7 25h268l-7 -25h-268zM345 505q25 0 42 -13.5t17 -41.5q0 -67 -90 -125.5t-227 -73.5q-8 -35 -8 -70q0 -69 25 -102.5t79 -33.5q94 0 162 114l8 -4q-39 -73 -98 -121.5t-123 -48.5q-48 0 -77.5 33t-29.5 102q0 95 46 184.5t120.5 145t153.5 55.5zM89 262
q41 7 79.5 19t77.5 31.5t63 50.5t24 69q0 20 -12 34t-38 14q-56 -15 -114.5 -74t-79.5 -144z" />
    <glyph glyph-name="Ebreve" unicode="&#x114;" horiz-adv-x="557" 
d="M416 742q-57 0 -88.5 29.5t-20.5 88.5h10q-1 -33 33.5 -50t82.5 -17q97 0 122 67h11q-18 -65 -54.5 -91.5t-95.5 -26.5zM423 0h-456l2 8q50 2 68.5 17t31.5 62l140 525q13 42 1.5 60t-60.5 20l3 8h428l-33 -215h-7q3 57 2 95t-15 61.5t-46 33.5t-90 10h-96l-85 -319h100
q54 0 80 28t57 110h7l-77 -292h-7q12 82 -1 111t-73 29h-89l-90 -337h110q105 0 159.5 47.5t109.5 191.5h7z" />
    <glyph glyph-name="ebreve" unicode="&#x115;" horiz-adv-x="417" 
d="M448 700h10q-20 -153 -132 -153q-55 0 -80.5 38.5t-7.5 114.5h9q-6 -51 20 -76.5t72 -25.5q41 0 72 23.5t37 78.5zM345 505q25 0 42 -13.5t17 -41.5q0 -67 -90 -125.5t-227 -73.5q-8 -35 -8 -70q0 -69 25 -102.5t79 -33.5q94 0 162 114l8 -4q-39 -73 -98 -121.5
t-123 -48.5q-48 0 -77.5 33t-29.5 102q0 95 46 184.5t120.5 145t153.5 55.5zM89 262q41 7 79.5 19t77.5 31.5t63 50.5t24 69q0 20 -12 34t-38 14q-56 -15 -114.5 -74t-79.5 -144z" />
    <glyph glyph-name="Edotaccent" unicode="&#x116;" horiz-adv-x="557" 
d="M435 755q-21 0 -36.5 15.5t-15.5 36.5q0 22 15.5 38t36.5 16q23 0 38.5 -15.5t15.5 -38.5q0 -21 -16 -36.5t-38 -15.5zM423 0h-456l2 8q50 2 68.5 17t31.5 62l140 525q13 42 1.5 60t-60.5 20l3 8h428l-33 -215h-7q3 57 2 95t-15 61.5t-46 33.5t-90 10h-96l-85 -319h100
q54 0 80 28t57 110h7l-77 -292h-7q12 82 -1 111t-73 29h-89l-90 -337h110q105 0 159.5 47.5t109.5 191.5h7z" />
    <glyph glyph-name="edotaccent" unicode="&#x117;" horiz-adv-x="417" 
d="M346 588q-21 0 -34.5 14t-13.5 35q0 20 13.5 33.5t34.5 13.5t35 -14t14 -34t-13.5 -34t-35.5 -14zM404 450q0 -67 -90 -125.5t-227 -73.5q-8 -35 -8 -70q0 -69 25 -102.5t79 -33.5q94 0 162 114l8 -4q-39 -73 -98 -121.5t-123 -48.5q-48 0 -77.5 33t-29.5 102
q0 95 46 184.5t120.5 145t153.5 55.5q25 0 42 -13.5t17 -41.5zM283 480q-56 -15 -114.5 -74t-79.5 -144q41 7 79.5 19t77.5 31.5t63 50.5t24 69q0 20 -12 34t-38 14z" />
    <glyph glyph-name="Eogonek" unicode="&#x118;" horiz-adv-x="557" 
d="M150 692l3 8h428l-33 -215h-7q3 57 2 95t-15 61.5t-46 33.5t-90 10h-96l-85 -319h100q54 0 80 28t57 110h7l-77 -292h-7q12 82 -1 111t-73 29h-89l-90 -337h110q105 0 159.5 47.5t109.5 191.5h7l-81 -254h-35q-70 -13 -97 -43t-27 -63q0 -59 60 -59q40 0 64 39l4 -2
q-43 -82 -113 -82q-31 0 -51 17t-20 48q0 40 39.5 82.5t106.5 62.5h-387l2 8q50 2 68.5 17t31.5 62l140 525q13 42 1.5 60t-60.5 20z" />
    <glyph glyph-name="eogonek" unicode="&#x119;" horiz-adv-x="417" 
d="M404 450q0 -67 -90 -125.5t-227 -73.5q-8 -35 -8 -70q0 -69 25 -102.5t79 -33.5q94 0 162 114l8 -4q-36 -68 -91 -115.5t-115 -53.5q-74 -30 -74 -92q0 -59 60 -59q40 0 64 39l4 -2q-43 -82 -113 -82q-31 0 -51 17t-20 48q0 33 28.5 69.5t78.5 60.5q-45 3 -72 36t-27 99
q0 95 46 184.5t120.5 145t153.5 55.5q25 0 42 -13.5t17 -41.5zM283 480q-56 -15 -114.5 -74t-79.5 -144q41 7 79.5 19t77.5 31.5t63 50.5t24 69q0 20 -12 34t-38 14z" />
    <glyph glyph-name="Ecaron" unicode="&#x11a;" horiz-adv-x="557" 
d="M428 795l145 85h3l-155 -130h-6l-87 130h3zM423 0h-456l2 8q50 2 68.5 17t31.5 62l140 525q13 42 1.5 60t-60.5 20l3 8h428l-33 -215h-7q3 57 2 95t-15 61.5t-46 33.5t-90 10h-96l-85 -319h100q54 0 80 28t57 110h7l-77 -292h-7q12 82 -1 111t-73 29h-89l-90 -337h110
q105 0 159.5 47.5t109.5 191.5h7z" />
    <glyph glyph-name="ecaron" unicode="&#x11b;" horiz-adv-x="417" 
d="M481 700l-144 -154h-16l-76 154h5l93 -99l131 99h7zM345 505q25 0 42 -13.5t17 -41.5q0 -67 -90 -125.5t-227 -73.5q-8 -35 -8 -70q0 -69 25 -102.5t79 -33.5q94 0 162 114l8 -4q-39 -73 -98 -121.5t-123 -48.5q-48 0 -77.5 33t-29.5 102q0 95 46 184.5t120.5 145
t153.5 55.5zM89 262q41 7 79.5 19t77.5 31.5t63 50.5t24 69q0 20 -12 34t-38 14q-56 -15 -114.5 -74t-79.5 -144z" />
    <glyph glyph-name="Gcircumflex" unicode="&#x11c;" horiz-adv-x="667" 
d="M500 815l-145 -85h-3l155 130h6l87 -130h-3zM390 334h286l-3 -8q-43 0 -59.5 -11.5t-25.5 -45.5l-61 -233q-95 -56 -193 -56q-34 0 -67.5 7.5t-71 28.5t-65 53.5t-46 87t-18.5 124.5q0 71 24 144.5t70.5 141t127.5 110.5t182 43q117 0 202 -42l-60 -212h-8
q22 117 -12.5 175.5t-137.5 58.5q-81 0 -144 -40t-98 -103.5t-52.5 -132t-17.5 -134.5q0 -139 52 -215t140 -76q42 0 77.5 15t53.5 36l46 172q17 63 -8 83.5t-116 20.5z" />
    <glyph glyph-name="gcircumflex" unicode="&#x11d;" horiz-adv-x="439" 
d="M393 536l-83 109l-141 -109h-7l154 164h16l66 -164h-5zM338 490h114l-4 -15h-85q37 -31 37 -87q0 -47 -22 -94t-70 -81.5t-112 -34.5q-35 0 -58 10q-66 -17 -66 -52q0 -16 13 -25.5t49 -22.5l154 -58q89 -33 89 -97q0 -62 -69 -105t-179 -43q-85 0 -137 28t-52 82
q0 45 40 77t120 56q-37 12 -56 29.5t-19 46.5q0 62 97 91q-52 28 -52 97q0 47 22 94t70 81.5t112 34.5q37 0 64 -12zM205 190q59 0 94.5 63t35.5 139q0 98 -70 98q-59 0 -94.5 -63t-35.5 -139q0 -98 70 -98zM324 -99q0 52 -65 73l-142 48q-54 -16 -84 -39.5t-30 -66.5
q0 -51 45 -79t120 -28q69 0 112.5 24t43.5 68z" />
    <glyph glyph-name="Gbreve" unicode="&#x11e;" horiz-adv-x="667" 
d="M477 742q-57 0 -88.5 29.5t-20.5 88.5h10q-1 -33 33.5 -50t82.5 -17q97 0 122 67h11q-18 -65 -54.5 -91.5t-95.5 -26.5zM390 334h286l-3 -8q-43 0 -59.5 -11.5t-25.5 -45.5l-61 -233q-95 -56 -193 -56q-34 0 -67.5 7.5t-71 28.5t-65 53.5t-46 87t-18.5 124.5
q0 71 24 144.5t70.5 141t127.5 110.5t182 43q117 0 202 -42l-60 -212h-8q22 117 -12.5 175.5t-137.5 58.5q-81 0 -144 -40t-98 -103.5t-52.5 -132t-17.5 -134.5q0 -139 52 -215t140 -76q42 0 77.5 15t53.5 36l46 172q17 63 -8 83.5t-116 20.5z" />
    <glyph glyph-name="gbreve" unicode="&#x11f;" horiz-adv-x="439" 
d="M287 547q-55 0 -80.5 38.5t-7.5 114.5h9q-6 -51 20 -76.5t72 -25.5q40 0 71.5 23.5t37.5 78.5h10q-20 -153 -132 -153zM338 490h114l-4 -15h-85q37 -31 37 -87q0 -47 -22 -94t-70 -81.5t-112 -34.5q-35 0 -58 10q-66 -17 -66 -52q0 -16 13 -25.5t49 -22.5l154 -58
q89 -33 89 -97q0 -62 -69 -105t-179 -43q-85 0 -137 28t-52 82q0 45 40 77t120 56q-37 12 -56 29.5t-19 46.5q0 62 97 91q-52 28 -52 97q0 47 22 94t70 81.5t112 34.5q37 0 64 -12zM205 190q59 0 94.5 63t35.5 139q0 98 -70 98q-59 0 -94.5 -63t-35.5 -139q0 -98 70 -98z
M324 -99q0 52 -65 73l-142 48q-54 -16 -84 -39.5t-30 -66.5q0 -51 45 -79t120 -28q69 0 112.5 24t43.5 68z" />
    <glyph glyph-name="Gdotaccent" unicode="&#x120;" horiz-adv-x="667" 
d="M496 755q-21 0 -36.5 15.5t-15.5 36.5q0 22 15.5 38t36.5 16q22 0 38 -15.5t16 -38.5q0 -21 -16 -36.5t-38 -15.5zM390 334h286l-3 -8q-43 0 -59.5 -11.5t-25.5 -45.5l-61 -233q-95 -56 -193 -56q-34 0 -67.5 7.5t-71 28.5t-65 53.5t-46 87t-18.5 124.5q0 71 24 144.5
t70.5 141t127.5 110.5t182 43q117 0 202 -42l-60 -212h-8q22 117 -12.5 175.5t-137.5 58.5q-81 0 -144 -40t-98 -103.5t-52.5 -132t-17.5 -134.5q0 -139 52 -215t140 -76q42 0 77.5 15t53.5 36l46 172q17 63 -8 83.5t-116 20.5z" />
    <glyph glyph-name="gdotaccent" unicode="&#x121;" horiz-adv-x="439" 
d="M307 588q-21 0 -34.5 14t-13.5 35q0 20 13.5 33.5t34.5 13.5t35 -14t14 -34t-14 -34t-35 -14zM338 490h114l-4 -15h-85q37 -31 37 -87q0 -47 -22 -94t-70 -81.5t-112 -34.5q-35 0 -58 10q-66 -17 -66 -52q0 -16 13 -25.5t49 -22.5l154 -58q89 -33 89 -97q0 -62 -69 -105
t-179 -43q-85 0 -137 28t-52 82q0 45 40 77t120 56q-37 12 -56 29.5t-19 46.5q0 62 97 91q-52 28 -52 97q0 47 22 94t70 81.5t112 34.5q37 0 64 -12zM205 190q59 0 94.5 63t35.5 139q0 98 -70 98q-59 0 -94.5 -63t-35.5 -139q0 -98 70 -98zM324 -99q0 52 -65 73l-142 48
q-54 -16 -84 -39.5t-30 -66.5q0 -51 45 -79t120 -28q69 0 112.5 24t43.5 68z" />
    <glyph glyph-name="uni0122" unicode="&#x122;" horiz-adv-x="667" 
d="M390 334h286l-3 -8q-43 0 -59.5 -11.5t-25.5 -45.5l-61 -233q-95 -56 -193 -56q-34 0 -67.5 7.5t-71 28.5t-65 53.5t-46 87t-18.5 124.5q0 71 24 144.5t70.5 141t127.5 110.5t182 43q117 0 202 -42l-60 -212h-8q22 117 -12.5 175.5t-137.5 58.5q-81 0 -144 -40
t-98 -103.5t-52.5 -132t-17.5 -134.5q0 -139 52 -215t140 -76q42 0 77.5 15t53.5 36l46 172q17 63 -8 83.5t-116 20.5zM260 -209v11q35 3 53.5 19t18.5 33q0 12 -7 18t-25 14q-27 12 -27 38q0 19 14 31t35 12q50 0 50 -58q0 -43 -28.5 -78t-83.5 -40z" />
    <glyph glyph-name="uni0123" unicode="&#x123;" horiz-adv-x="439" 
d="M300 550q-43 0 -43 52q0 38 24.5 69.5t71.5 35.5v-12q-29 -3 -44.5 -17t-15.5 -29q0 -7 3.5 -12t7.5 -7.5t15 -7.5q23 -11 23 -33q0 -17 -12 -28t-30 -11zM338 490h114l-4 -15h-85q37 -31 37 -87q0 -47 -22 -94t-70 -81.5t-112 -34.5q-35 0 -58 10q-66 -17 -66 -52
q0 -16 13 -25.5t49 -22.5l154 -58q89 -33 89 -97q0 -62 -69 -105t-179 -43q-85 0 -137 28t-52 82q0 45 40 77t120 56q-37 12 -56 29.5t-19 46.5q0 62 97 91q-52 28 -52 97q0 47 22 94t70 81.5t112 34.5q37 0 64 -12zM205 190q59 0 94.5 63t35.5 139q0 98 -70 98
q-59 0 -94.5 -63t-35.5 -139q0 -98 70 -98zM324 -99q0 52 -65 73l-142 48q-54 -16 -84 -39.5t-30 -66.5q0 -51 45 -79t120 -28q69 0 112.5 24t43.5 68z" />
    <glyph glyph-name="Hcircumflex" unicode="&#x124;" horiz-adv-x="657" 
d="M580 730l-97 85l-145 -85h-3l155 130h6l87 -130h-3zM533 692l2 8h207l-3 -8q-38 -2 -55.5 -13.5t-26.5 -44.5l-142 -537q-14 -53 -5 -70t53 -19l-2 -8h-212l2 8q45 2 62.5 17t30.5 62l68 255h-314l-65 -245q-14 -54 -5 -70.5t53 -18.5l-2 -8h-212l2 8q44 2 62 17t31 62
l139 525q13 42 2.5 60t-53.5 20l3 8h207l-3 -8q-39 -2 -56 -13.5t-26 -44.5l-72 -274h314l67 252q12 42 1.5 60t-52.5 20z" />
    <glyph glyph-name="hcircumflex" unicode="&#x125;" horiz-adv-x="531" 
d="M353 740l-97 85l-145 -85h-3l155 130h6l87 -130h-3zM488 135l7 -6q-108 -144 -167 -144q-17 0 -29.5 11.5t-12.5 35.5q0 39 61 214q53 152 53 180t-25 28q-62 0 -241 -254l-53 -200h-61l171 639q8 30 -4 42t-45 5l-20 -4l3 11l151 37l-133 -499q93 140 155.5 207
t112.5 67q25 0 40.5 -13.5t15.5 -41.5q0 -43 -58 -213q-51 -148 -51 -172q0 -22 21 -22q34 0 109 92z" />
    <glyph glyph-name="Hbar" unicode="&#x126;" horiz-adv-x="657" 
d="M742 700l-3 -8q-38 -2 -55.5 -13.5t-26.5 -44.5l-35 -134h72l-3 -10h-72l-104 -393q-14 -53 -5 -70t53 -19l-2 -8h-212l2 8q45 2 62.5 17t30.5 62l68 255h-314l-65 -245q-14 -54 -5 -70.5t53 -18.5l-2 -8h-212l2 8q44 2 62 17t31 62l107 403h-64l3 10h63l30 112
q13 42 2.5 60t-53.5 20l3 8h207l-3 -8q-39 -2 -56 -13.5t-26 -44.5l-35 -134h314l30 112q12 42 1.5 60t-52.5 20l2 8h207zM203 360h314l34 130h-314z" />
    <glyph glyph-name="hbar" unicode="&#x127;" horiz-adv-x="531" 
d="M488 135l7 -6q-108 -144 -167 -144q-17 0 -29.5 11.5t-12.5 35.5q0 39 61 214q53 152 53 180t-25 28q-62 0 -241 -254l-53 -200h-61l149 555h-70l3 10h69l20 74q8 30 -4 42t-45 5l-20 -4l3 11l151 37l-44 -165h194l-3 -10h-194l-86 -324q93 140 155.5 207t112.5 67
q25 0 40.5 -13.5t15.5 -41.5q0 -43 -58 -213q-51 -148 -51 -172q0 -22 21 -22q34 0 109 92z" />
    <glyph glyph-name="Itilde" unicode="&#x128;" horiz-adv-x="288" 
d="M357 766q-31 0 -69 21.5t-70 21.5q-47 0 -68 -52h-4q12 49 35.5 71.5t51.5 22.5q31 0 69 -21.5t70 -21.5q47 0 68 52h4q-12 -49 -35.5 -71.5t-51.5 -22.5zM153 700h226l-3 -8q-50 -2 -68.5 -16.5t-31.5 -62.5l-137 -516q-14 -54 -4 -70.5t59 -18.5l-2 -8h-226l2 8
q49 2 68 16.5t32 61.5l143 537q10 37 -3 52t-58 17z" />
    <glyph glyph-name="itilde" unicode="&#x129;" horiz-adv-x="281" 
d="M288 582q-31 0 -69 21.5t-70 21.5q-47 0 -68 -52h-4q12 49 35.5 71.5t51.5 22.5q31 0 69 -21.5t70 -21.5q47 0 68 52h4q-12 -49 -35.5 -71.5t-51.5 -22.5zM72 -12q-35 0 -35 38q0 13 4 25l102 363q8 29 -4 40.5t-46 6.5l-20 -3l2 10l153 37l-118 -423q-11 -36 19 -36
q35 0 110 92l7 -6q-109 -144 -174 -144z" />
    <glyph glyph-name="Imacron" unicode="&#x12a;" horiz-adv-x="288" 
d="M419 790h-268l7 25h268zM153 700h226l-3 -8q-50 -2 -68.5 -16.5t-31.5 -62.5l-137 -516q-14 -54 -4 -70.5t59 -18.5l-2 -8h-226l2 8q49 2 68 16.5t32 61.5l143 537q10 37 -3 52t-58 17z" />
    <glyph glyph-name="imacron" unicode="&#x12b;" horiz-adv-x="281" 
d="M355 608h-268l7 25h268zM72 -12q-35 0 -35 38q0 13 4 25l102 363q8 29 -4 40.5t-46 6.5l-20 -3l2 10l153 37l-118 -423q-11 -36 19 -36q35 0 110 92l7 -6q-109 -144 -174 -144z" />
    <glyph glyph-name="Ibreve" unicode="&#x12c;" horiz-adv-x="288" 
d="M275 742q-57 0 -88.5 29.5t-20.5 88.5h10q-1 -33 33.5 -50t82.5 -17q97 0 122 67h11q-18 -65 -54.5 -91.5t-95.5 -26.5zM153 700h226l-3 -8q-50 -2 -68.5 -16.5t-31.5 -62.5l-137 -516q-14 -54 -4 -70.5t59 -18.5l-2 -8h-226l2 8q49 2 68 16.5t32 61.5l143 537
q10 37 -3 52t-58 17z" />
    <glyph glyph-name="ibreve" unicode="&#x12d;" horiz-adv-x="281" 
d="M209 547q-55 0 -80.5 38.5t-7.5 114.5h9q-6 -51 20 -76.5t72 -25.5q40 0 71.5 23.5t37.5 78.5h10q-20 -153 -132 -153zM72 -12q-35 0 -35 38q0 13 4 25l102 363q8 29 -4 40.5t-46 6.5l-20 -3l2 10l153 37l-118 -423q-11 -36 19 -36q35 0 110 92l7 -6q-109 -144 -174 -144
z" />
    <glyph glyph-name="Iogonek" unicode="&#x12e;" horiz-adv-x="288" 
d="M150 692l3 8h226l-3 -8q-50 -2 -68.5 -16.5t-31.5 -62.5l-137 -516q-14 -54 -4 -70.5t59 -18.5l-2 -8h-61q-70 -13 -97 -43t-27 -63q0 -59 60 -59q40 0 64 39l4 -2q-43 -82 -113 -82q-31 0 -51 17t-20 48q0 40 39.5 82.5t106.5 62.5h-131l2 8q49 2 68 16.5t32 61.5
l143 537q10 37 -3 52t-58 17z" />
    <glyph glyph-name="iogonek" unicode="&#x12f;" horiz-adv-x="281" 
d="M229 684q21 0 35 -14t14 -34t-14 -34t-35 -14t-34.5 14t-13.5 35q0 20 13.5 33.5t34.5 13.5zM129 46q35 0 110 92l7 -6q-109 -144 -174 -144q-6 0 -8 1q-82 -30 -82 -95q0 -59 60 -59q40 0 64 39l4 -2q-43 -82 -113 -82q-31 0 -51 17t-20 48q0 37 33.5 76.5t92.5 61.5
q-15 10 -15 33q0 13 4 25l102 363q8 29 -4 40.5t-46 6.5l-20 -3l2 10l153 37l-118 -423q-11 -36 19 -36z" />
    <glyph glyph-name="Idotaccent" unicode="&#x130;" horiz-adv-x="288" 
d="M294 755q-21 0 -36.5 15.5t-15.5 36.5q0 22 15.5 38t36.5 16q22 0 38 -15.5t16 -38.5q0 -21 -16 -36.5t-38 -15.5zM153 700h226l-3 -8q-50 -2 -68.5 -16.5t-31.5 -62.5l-137 -516q-14 -54 -4 -70.5t59 -18.5l-2 -8h-226l2 8q49 2 68 16.5t32 61.5l143 537q10 37 -3 52
t-58 17z" />
    <glyph glyph-name="dotlessi" unicode="&#x131;" horiz-adv-x="281" 
d="M72 -12q-35 0 -35 38q0 13 4 25l102 363q8 29 -4 40.5t-46 6.5l-20 -3l2 10l153 37l-118 -423q-11 -36 19 -36q35 0 110 92l7 -6q-109 -144 -174 -144z" />
    <glyph glyph-name="IJ" unicode="&#x132;" horiz-adv-x="574" 
d="M153 700h226l-3 -8q-50 -2 -68.5 -16.5t-31.5 -62.5l-137 -516q-14 -54 -4 -70.5t59 -18.5l-2 -8h-226l2 8q49 2 68 16.5t32 61.5l143 537q10 37 -3 52t-58 17zM462 700h224l-3 -8q-48 -2 -67.5 -15t-29.5 -53l-143 -539q-24 -85 -57 -124.5t-98 -39.5q-51 0 -77 16l1 5
q17 -10 42 -10q46 0 72.5 32.5t42.5 91.5l150 564q10 38 -2 54t-58 18z" />
    <glyph glyph-name="ij" unicode="&#x133;" horiz-adv-x="542" 
d="M229 588q-21 0 -34.5 14t-13.5 35q0 20 13.5 33.5t34.5 13.5t35 -14t14 -34t-14 -34t-35 -14zM526 588q-21 0 -34.5 14t-13.5 35q0 20 13.5 33.5t34.5 13.5t35 -14t14 -34t-13.5 -34t-35.5 -14zM72 -12q-35 0 -35 38q0 13 4 25l102 363q8 29 -4 40.5t-46 6.5l-20 -3l2 10
l153 37l-118 -423q-11 -36 19 -36q35 0 110 92l7 -6q-109 -144 -174 -144zM366 458l2 10l153 37l-145 -543q-46 -177 -169 -177q-45 0 -61 11l2 5q15 -7 40 -7q41 0 69 29t48 102l131 489q8 29 -4 40.5t-46 6.5z" />
    <glyph glyph-name="Jcircumflex" unicode="&#x134;" horiz-adv-x="286" 
d="M324 815l-145 -85h-3l155 130h6l87 -130h-3zM174 700h224l-3 -8q-48 -2 -67.5 -15t-29.5 -53l-143 -539q-24 -85 -57 -124.5t-98 -39.5q-51 0 -77 16l1 5q17 -10 42 -10q46 0 72.5 32.5t42.5 91.5l150 564q10 38 -2 54t-58 18z" />
    <glyph glyph-name="jcircumflex" unicode="&#x135;" horiz-adv-x="261" 
d="M107 536h-7l154 164h16l66 -164h-5l-83 109zM85 458l2 10l153 37l-145 -543q-46 -177 -169 -177q-44 0 -61 11l2 5q15 -7 40 -7q41 0 69 29t48 102l131 489q8 29 -4 40.5t-46 6.5z" />
    <glyph glyph-name="uni0136" unicode="&#x136;" horiz-adv-x="610" 
d="M192 0h-226l2 8q49 2 68 16.5t32 61.5l143 537q10 37 -3 52t-58 17l3 8h226l-3 -8q-50 -2 -68.5 -17t-31.5 -62l-137 -516q-15 -54 -4.5 -70.5t59.5 -18.5zM534 0h-143l-181 364l277 226q45 36 58 51t13 29q0 21 -54 22l2 8h185l-2 -8q-41 -5 -73.5 -23t-95.5 -70
l-249 -207l170 -330q17 -32 36 -42t59 -12zM212 -209v11q35 3 53.5 19t18.5 33q0 12 -7 18t-25 14q-27 12 -27 38q0 19 14 31t35 12q50 0 50 -58q0 -43 -28.5 -78t-83.5 -40z" />
    <glyph glyph-name="uni0137" unicode="&#x137;" horiz-adv-x="499" 
d="M337 46q10 0 24 5.5t40.5 28t54.5 58.5l8 -5q-45 -60 -94.5 -104t-74.5 -44q-23 0 -35 29l-87 209l58 21q111 40 151 82.5t40 89.5q0 23 -11 39t-29 16q-77 -24 -249 -275l-52 -196h-61l171 639q8 29 -4 41.5t-45 5.5l-20 -4l3 11l151 37l-135 -504q75 116 152.5 197
t139.5 81q24 0 41.5 -15t17.5 -45q0 -63 -69.5 -118.5t-184.5 -88.5l69 -168q10 -23 30 -23zM163 -33q50 0 50 -58q0 -43 -28.5 -78t-83.5 -40v11q35 3 53.5 19t18.5 33q0 12 -7 18t-25 14q-27 12 -27 38q0 19 14 31t35 12z" />
    <glyph glyph-name="kgreenlandic" unicode="&#x138;" horiz-adv-x="511" 
d="M307 -15q-23 0 -35 29l-87 209l58 21q111 40 151 82.5t40 89.5q0 23 -11 39t-29 16q-78 -24 -248 -275l-53 -196h-61l111 414q8 29 -4 40.5t-46 6.5l-20 -3l2 10l153 37l-74 -278q180 277 291 277q24 0 41.5 -15t17.5 -45q0 -63 -69.5 -118.5t-184.5 -88.5l69 -168
q10 -23 30 -23q10 0 24 5.5t40.5 28t54.5 58.5l8 -5q-45 -60 -94.5 -104t-74.5 -44z" />
    <glyph glyph-name="Lacute" unicode="&#x139;" horiz-adv-x="487" 
d="M463 863l-185 -123h-4l108 128h82zM464 255h6l-86 -255h-418l2 8q49 2 68 17t32 62l139 525q13 42 1.5 60t-58.5 20l2 8h210l-3 -8q-37 -2 -53.5 -13.5t-25.5 -44.5l-164 -619h71q116 0 168.5 49t108.5 191z" />
    <glyph glyph-name="lacute" unicode="&#x13a;" horiz-adv-x="279" 
d="M432 865l-175 -103h-4l108 108h72zM276 730l-174 -651q-9 -36 20 -36q34 0 109 92l7 -6q-49 -66 -95 -105t-77 -39q-36 0 -36 39q0 11 5 33l156 582q8 29 -4 41.5t-45 5.5l-20 -4l3 11z" />
    <glyph glyph-name="uni013B" unicode="&#x13b;" horiz-adv-x="487" 
d="M464 255h6l-86 -255h-418l2 8q49 2 68 17t32 62l139 525q13 42 1.5 60t-58.5 20l2 8h210l-3 -8q-37 -2 -53.5 -13.5t-25.5 -44.5l-164 -619h71q116 0 168.5 49t108.5 191zM138 -209v11q35 3 53.5 19t18.5 33q0 12 -7 18t-25 14q-27 12 -27 38q0 19 14 31t35 12
q50 0 50 -58q0 -43 -28.5 -78t-83.5 -40z" />
    <glyph glyph-name="uni013C" unicode="&#x13c;" horiz-adv-x="279" 
d="M276 730l-174 -651q-9 -36 20 -36q34 0 109 92l7 -6q-49 -66 -95 -105t-77 -39q-36 0 -36 39q0 11 5 33l156 582q8 29 -4 41.5t-45 5.5l-20 -4l3 11zM2 -209v11q35 3 53.5 19t18.5 33q0 12 -7 18t-25 14q-27 12 -27 38q0 19 14 31t35 12q50 0 50 -58q0 -43 -28.5 -78
t-83.5 -40z" />
    <glyph glyph-name="Lcaron" unicode="&#x13d;" horiz-adv-x="487" 
d="M356 542h-11q59 64 59 101q0 17 -16 34t-16 32q0 18 11 31t30 13q41 0 41 -43q0 -33 -27.5 -82.5t-70.5 -85.5zM464 255h6l-86 -255h-418l2 8q49 2 68 17t32 62l139 525q13 42 1.5 60t-58.5 20l2 8h210l-3 -8q-37 -2 -53.5 -13.5t-25.5 -44.5l-164 -619h71
q116 0 168.5 49t108.5 191z" />
    <glyph glyph-name="lcaron" unicode="&#x13e;" horiz-adv-x="279" 
d="M320 542h-11q59 64 59 101q0 17 -16 34t-16 32q0 18 11 31t30 13q41 0 41 -43q0 -33 -27.5 -82.5t-70.5 -85.5zM276 730l-174 -651q-9 -36 20 -36q34 0 109 92l7 -6q-49 -66 -95 -105t-77 -39q-36 0 -36 39q0 11 5 33l156 582q8 29 -4 41.5t-45 5.5l-20 -4l3 11z" />
    <glyph glyph-name="Ldot" unicode="&#x13f;" horiz-adv-x="487" 
d="M464 255h6l-86 -255h-418l2 8q49 2 68 17t32 62l139 525q13 42 1.5 60t-58.5 20l2 8h210l-3 -8q-37 -2 -53.5 -13.5t-25.5 -44.5l-164 -619h71q116 0 168.5 49t108.5 191zM367 309q-22 0 -36.5 14.5t-14.5 35.5t14.5 35.5t36.5 14.5t36.5 -14.5t14.5 -35.5t-14.5 -35.5
t-36.5 -14.5z" />
    <glyph glyph-name="ldot" unicode="&#x140;" horiz-adv-x="279" 
d="M276 730l-174 -651q-9 -36 20 -36q34 0 109 92l7 -6q-49 -66 -95 -105t-77 -39q-36 0 -36 39q0 11 5 33l156 582q8 29 -4 41.5t-45 5.5l-20 -4l3 11zM292 324q-22 0 -36.5 14.5t-14.5 35.5t14.5 35.5t36.5 14.5t36.5 -14.5t14.5 -35.5t-14.5 -35.5t-36.5 -14.5z" />
    <glyph glyph-name="Lslash" unicode="&#x141;" horiz-adv-x="487" 
d="M464 255h6l-86 -255h-418l2 8q49 2 68 17t32 62l58 218l-97 -50l4 15l97 50l77 292q13 42 1.5 60t-58.5 20l2 8h210l-3 -8q-37 -2 -53.5 -13.5t-25.5 -44.5l-72 -273l231 120l-4 -15l-231 -120l-88 -331h71q116 0 168.5 49t108.5 191z" />
    <glyph glyph-name="lslash" unicode="&#x142;" horiz-adv-x="279" 
d="M288 466l-98 -59l-88 -328q-9 -36 20 -36q34 0 109 92l7 -6q-49 -66 -95 -105t-77 -39q-36 0 -36 39q0 11 5 33l82 307l-81 -49l4 13l81 49l70 262q8 29 -4 41.5t-45 5.5l-20 -4l3 11l151 37l-83 -310l98 59z" />
    <glyph glyph-name="Nacute" unicode="&#x143;" horiz-adv-x="675" 
d="M659 868l-1 -5l-185 -123h-4l108 128h82zM570 692l3 8h209l-3 -8q-49 -2 -75.5 -27t-42.5 -84l-157 -591h-4l-262 622l-126 -482q-17 -70 -3 -94.5t68 -27.5l-2 -8h-208l2 8q50 2 77 28.5t45 93.5l135 509q-24 51 -76 53l3 8h133l236 -562l117 443q16 62 0.5 85.5
t-69.5 25.5z" />
    <glyph glyph-name="nacute" unicode="&#x144;" horiz-adv-x="543" 
d="M348 535l155 165h79l-2 -5l-222 -160h-10zM391 43q34 0 109 92l7 -6q-108 -144 -167 -144q-17 0 -29.5 11.5t-12.5 35.5q0 46 61 214q53 147 53 180q0 28 -25 28q-62 0 -241 -254l-53 -200h-61l111 414q8 29 -4 40.5t-46 6.5l-20 -3l2 10l153 37l-75 -281
q95 146 158 213.5t117 67.5q21 0 36 -14t15 -41q0 -53 -58 -213q-51 -140 -51 -172q0 -22 21 -22z" />
    <glyph glyph-name="uni0145" unicode="&#x145;" horiz-adv-x="675" 
d="M570 692l3 8h209l-3 -8q-49 -2 -75.5 -27t-42.5 -84l-157 -591h-4l-262 622l-126 -482q-17 -70 -3 -94.5t68 -27.5l-2 -8h-208l2 8q50 2 77 28.5t45 93.5l135 509q-24 51 -76 53l3 8h133l236 -562l117 443q16 62 0.5 85.5t-69.5 25.5zM309 -33q50 0 50 -58
q0 -43 -28.5 -78t-83.5 -40v11q35 3 53.5 19t18.5 33q0 12 -7 18t-25 14q-27 12 -27 38q0 19 14 31t35 12z" />
    <glyph glyph-name="uni0146" unicode="&#x146;" horiz-adv-x="543" 
d="M500 135l7 -6q-108 -144 -167 -144q-17 0 -29.5 11.5t-12.5 35.5q0 46 61 214q53 147 53 180q0 28 -25 28q-62 0 -241 -254l-53 -200h-61l111 414q8 29 -4 40.5t-46 6.5l-20 -3l2 10l153 37l-75 -281q95 146 158 213.5t117 67.5q21 0 36 -14t15 -41q0 -53 -58 -213
q-51 -140 -51 -172q0 -22 21 -22q34 0 109 92zM235 -33q50 0 50 -58q0 -43 -28.5 -78t-83.5 -40v11q35 3 53.5 19t18.5 33q0 12 -7 18t-25 14q-27 12 -27 38q0 19 14 31t35 12z" />
    <glyph glyph-name="Ncaron" unicode="&#x147;" horiz-adv-x="675" 
d="M629 880l-155 -130h-6l-87 130h3l97 -85l145 85h3zM570 692l3 8h209l-3 -8q-49 -2 -75.5 -27t-42.5 -84l-157 -591h-4l-262 622l-126 -482q-17 -70 -3 -94.5t68 -27.5l-2 -8h-208l2 8q50 2 77 28.5t45 93.5l135 509q-24 51 -76 53l3 8h133l236 -562l117 443
q16 62 0.5 85.5t-69.5 25.5z" />
    <glyph glyph-name="ncaron" unicode="&#x148;" horiz-adv-x="543" 
d="M515 700l-144 -154h-16l-76 154h5l93 -99l131 99h7zM391 43q34 0 109 92l7 -6q-108 -144 -167 -144q-17 0 -29.5 11.5t-12.5 35.5q0 46 61 214q53 147 53 180q0 28 -25 28q-62 0 -241 -254l-53 -200h-61l111 414q8 29 -4 40.5t-46 6.5l-20 -3l2 10l153 37l-75 -281
q95 146 158 213.5t117 67.5q21 0 36 -14t15 -41q0 -53 -58 -213q-51 -140 -51 -172q0 -22 21 -22z" />
    <glyph glyph-name="napostrophe" unicode="&#x149;" horiz-adv-x="780" 
d="M224 730q24 0 40.5 -18.5t16.5 -57.5q0 -54 -37 -99t-106 -51l-1 7q49 5 73.5 28.5t24.5 47.5q0 28 -34 43q-33 15 -33 48q0 22 16 37t40 15zM737 135l7 -6q-108 -144 -167 -144q-17 0 -29.5 11.5t-12.5 35.5q0 46 61 214q53 147 53 180q0 28 -25 28q-62 0 -241 -254
l-53 -200h-61l111 414q8 29 -4 40.5t-46 6.5l-20 -3l2 10l153 37l-75 -281q95 146 158 213.5t117 67.5q21 0 36 -14t15 -41q0 -53 -58 -213q-51 -140 -51 -172q0 -22 21 -22q34 0 109 92z" />
    <glyph glyph-name="Eng" unicode="&#x14a;" horiz-adv-x="675" 
d="M570 692l3 8h209l-3 -8q-49 -2 -75.5 -27t-42.5 -84l-170 -642q-19 -72 -60.5 -113t-100.5 -41q-51 0 -76 17l5 6q22 -14 60 -14q34 0 60 25t38 68l49 183l-228 542l-126 -482q-17 -70 -3 -94.5t68 -27.5l-2 -8h-208l2 8q50 2 77 28.5t45 93.5l135 509q-24 51 -76 53l3 8
h133l236 -564l117 445q16 62 0.5 85.5t-69.5 25.5z" />
    <glyph glyph-name="eng" unicode="&#x14b;" horiz-adv-x="518" 
d="M428 505q21 0 36 -14t15 -41q0 -45 -139 -488q-55 -177 -172 -177q-62 0 -85 43l10 6q22 -35 68 -35q33 0 56.5 26.5t46.5 99.5q148 470 148 501q0 28 -25 28q-62 0 -240 -254l-54 -200h-61l111 414q8 29 -4 40.5t-46 6.5l-20 -3l2 10l153 37l-75 -281q95 146 158 213.5
t117 67.5z" />
    <glyph glyph-name="Omacron" unicode="&#x14c;" horiz-adv-x="730" 
d="M613 790h-268l7 25h268zM330 -20q-52 0 -97.5 14.5t-85.5 45.5t-63.5 86.5t-23.5 129.5q0 63 16.5 127.5t50 125t79.5 107.5t111 75.5t139 28.5q52 0 97.5 -14.5t85.5 -45.5t63.5 -86.5t23.5 -129.5q0 -63 -16.5 -127.5t-50 -125t-79.5 -107.5t-111 -75.5t-139 -28.5z
M326 0q71 0 128 34t91 84t57 113.5t31.5 118t8.5 100.5q0 250 -182 250q-71 0 -128 -34t-91 -84t-57 -113.5t-31.5 -118t-8.5 -100.5q0 -250 182 -250z" />
    <glyph glyph-name="omacron" unicode="&#x14d;" horiz-adv-x="476" 
d="M480 608h-268l7 25h268zM163 -15q-59 0 -101 35t-42 111q0 72 35 157t105 151t153 66q59 0 101 -35t42 -111q0 -72 -35 -157t-105 -151t-153 -66zM169 0q58 0 108 58t77 142.5t27 167.5q0 122 -74 122q-58 0 -108 -58t-77 -142.5t-27 -167.5q0 -122 74 -122z" />
    <glyph glyph-name="Obreve" unicode="&#x14e;" horiz-adv-x="730" 
d="M469 742q-57 0 -88.5 29.5t-20.5 88.5h10q-1 -33 33.5 -50t82.5 -17q97 0 122 67h11q-18 -65 -54.5 -91.5t-95.5 -26.5zM330 -20q-52 0 -97.5 14.5t-85.5 45.5t-63.5 86.5t-23.5 129.5q0 63 16.5 127.5t50 125t79.5 107.5t111 75.5t139 28.5q52 0 97.5 -14.5t85.5 -45.5
t63.5 -86.5t23.5 -129.5q0 -63 -16.5 -127.5t-50 -125t-79.5 -107.5t-111 -75.5t-139 -28.5zM326 0q71 0 128 34t91 84t57 113.5t31.5 118t8.5 100.5q0 250 -182 250q-71 0 -128 -34t-91 -84t-57 -113.5t-31.5 -118t-8.5 -100.5q0 -250 182 -250z" />
    <glyph glyph-name="obreve" unicode="&#x14f;" horiz-adv-x="476" 
d="M334 547q-55 0 -80.5 38.5t-7.5 114.5h9q-6 -51 20 -76.5t72 -25.5q41 0 72 23.5t37 78.5h10q-20 -153 -132 -153zM163 -15q-59 0 -101 35t-42 111q0 72 35 157t105 151t153 66q59 0 101 -35t42 -111q0 -72 -35 -157t-105 -151t-153 -66zM169 0q58 0 108 58t77 142.5
t27 167.5q0 122 -74 122q-58 0 -108 -58t-77 -142.5t-27 -167.5q0 -122 74 -122z" />
    <glyph glyph-name="Ohungarumlaut" unicode="&#x150;" horiz-adv-x="730" 
d="M569 855l-155 -115h-4l98 120h62zM683 855l-155 -115h-4l98 120h62zM330 -20q-52 0 -97.5 14.5t-85.5 45.5t-63.5 86.5t-23.5 129.5q0 63 16.5 127.5t50 125t79.5 107.5t111 75.5t139 28.5q52 0 97.5 -14.5t85.5 -45.5t63.5 -86.5t23.5 -129.5q0 -63 -16.5 -127.5
t-50 -125t-79.5 -107.5t-111 -75.5t-139 -28.5zM326 0q71 0 128 34t91 84t57 113.5t31.5 118t8.5 100.5q0 250 -182 250q-71 0 -128 -34t-91 -84t-57 -113.5t-31.5 -118t-8.5 -100.5q0 -250 182 -250z" />
    <glyph glyph-name="ohungarumlaut" unicode="&#x151;" horiz-adv-x="476" 
d="M267 535h-8l167 165h62l-2 -5zM395 535h-8l174 165h67l-2 -5zM163 -15q-59 0 -101 35t-42 111q0 72 35 157t105 151t153 66q59 0 101 -35t42 -111q0 -72 -35 -157t-105 -151t-153 -66zM169 0q58 0 108 58t77 142.5t27 167.5q0 122 -74 122q-58 0 -108 -58t-77 -142.5
t-27 -167.5q0 -122 74 -122z" />
    <glyph glyph-name="OE" unicode="&#x152;" horiz-adv-x="898" 
d="M510 700h414l-36 -214h-2q5 119 -45 169q-35 35 -136 35h-84l-89 -337h72q75 0 116 30t75 109h2l-77 -288h-2q9 79 -16 109t-100 30h-73l-88 -333h81q131 0 197 54q69 56 124 189h2l-92 -253h-429q-123 0 -193.5 71.5t-70.5 190.5q0 184 132.5 311t317.5 127zM327 10h48
l180 680h-48q-163 0 -268.5 -130t-105.5 -324q0 -106 50.5 -166t143.5 -60z" />
    <glyph glyph-name="oe" unicode="&#x153;" horiz-adv-x="770" 
d="M757 452q0 -67 -90 -125.5t-227 -73.5q-8 -35 -8 -70q0 -69 25 -102.5t79 -33.5q94 0 162 114l8 -4q-39 -73 -98 -121.5t-123 -48.5q-48 0 -77.5 33t-29.5 102v2q-91 -139 -215 -139q-59 0 -101 35t-42 111q0 72 35 157t105 151t153 66q59 0 101 -35t42 -111
q47 67 111 107.5t131 40.5q25 0 42 -13.5t17 -41.5zM169 0q58 0 108 58t77 142.5t27 167.5q0 122 -74 122q-58 0 -108 -58t-77 -142.5t-27 -167.5q0 -122 74 -122zM636 482q-56 -15 -114.5 -74t-79.5 -144q41 7 79.5 19t77.5 31.5t63 50.5t24 69q0 20 -12 34t-38 14z" />
    <glyph glyph-name="Racute" unicode="&#x154;" horiz-adv-x="623" 
d="M554 863l-185 -123h-4l108 128h82zM455 200l18 -87q12 -53 28 -77.5t53 -27.5l-2 -8h-127q-9 23 -25 112l-22 124q-12 67 -40.5 90.5t-116.5 23.5h-24l-67 -252q-14 -53 -5.5 -70.5t51.5 -19.5l-2 -8h-207l2 8q43 3 60 17t29 62l141 525q12 41 2 59.5t-51 20.5l3 8h184
q28 0 59.5 -7t65.5 -22.5t56 -48t22 -77.5q0 -83 -66 -134.5t-188 -51.5l-1 -4q137 0 170 -155zM201 365h45q220 0 220 176q0 81 -37.5 112.5t-100.5 31.5h-42z" />
    <glyph glyph-name="racute" unicode="&#x155;" horiz-adv-x="365" 
d="M289 535l155 165h79l-2 -5l-222 -160h-10zM228 505l-89 -342q96 207 146.5 274.5t95.5 67.5q18 0 32 -7l-30 -88h-9q-13 13 -35 13q-28 0 -48 -18t-55.5 -79t-108.5 -208l-31 -118h-63l110 414q8 29 -4 40.5t-46 6.5l-20 -3l2 10z" />
    <glyph glyph-name="uni0156" unicode="&#x156;" horiz-adv-x="623" 
d="M455 200l18 -87q12 -53 28 -77.5t53 -27.5l-2 -8h-127q-9 23 -25 112l-22 124q-12 67 -40.5 90.5t-116.5 23.5h-24l-67 -252q-14 -53 -5.5 -70.5t51.5 -19.5l-2 -8h-207l2 8q43 3 60 17t29 62l141 525q12 41 2 59.5t-51 20.5l3 8h184q28 0 59.5 -7t65.5 -22.5t56 -48
t22 -77.5q0 -83 -66 -134.5t-188 -51.5l-1 -4q137 0 170 -155zM201 365h45q220 0 220 176q0 81 -37.5 112.5t-100.5 31.5h-42zM227 -209v11q35 3 53.5 19t18.5 33q0 12 -7 18t-25 14q-27 12 -27 38q0 19 14 31t35 12q50 0 50 -58q0 -43 -28.5 -78t-83.5 -40z" />
    <glyph glyph-name="uni0157" unicode="&#x157;" horiz-adv-x="365" 
d="M381 505q18 0 32 -7l-30 -88h-9q-13 13 -35 13q-28 0 -48 -18t-55.5 -79t-108.5 -208l-31 -118h-63l110 414q8 29 -4 40.5t-46 6.5l-20 -3l2 10l153 37l-89 -342q96 207 146.5 274.5t95.5 67.5zM50 -33q50 0 50 -58q0 -43 -28.5 -78t-83.5 -40v11q35 3 53.5 19t18.5 33
q0 12 -7 18t-25 14q-27 12 -27 38q0 19 14 31t35 12z" />
    <glyph glyph-name="Rcaron" unicode="&#x158;" horiz-adv-x="623" 
d="M377 795l145 85h3l-155 -130h-6l-87 130h3zM455 200l18 -87q12 -53 28 -77.5t53 -27.5l-2 -8h-127q-9 23 -25 112l-22 124q-12 67 -40.5 90.5t-116.5 23.5h-24l-67 -252q-14 -53 -5.5 -70.5t51.5 -19.5l-2 -8h-207l2 8q43 3 60 17t29 62l141 525q12 41 2 59.5t-51 20.5
l3 8h184q28 0 59.5 -7t65.5 -22.5t56 -48t22 -77.5q0 -83 -66 -134.5t-188 -51.5l-1 -4q137 0 170 -155zM201 365h45q220 0 220 176q0 81 -37.5 112.5t-100.5 31.5h-42z" />
    <glyph glyph-name="rcaron" unicode="&#x159;" horiz-adv-x="365" 
d="M456 700l-144 -154h-16l-76 154h5l93 -99l131 99h7zM228 505l-89 -342q96 207 146.5 274.5t95.5 67.5q18 0 32 -7l-30 -88h-9q-13 13 -35 13q-28 0 -48 -18t-55.5 -79t-108.5 -208l-31 -118h-63l110 414q8 29 -4 40.5t-46 6.5l-20 -3l2 10z" />
    <glyph glyph-name="Sacute" unicode="&#x15a;" horiz-adv-x="514" 
d="M578 863l-185 -123h-4l108 128h82zM223 -20q-118 0 -215 63l55 196h7q-16 -113 24 -176t138 -63q82 0 119 41.5t37 103.5q0 49 -20 82t-58 63l-85 66q-98 76 -98 169q0 35 12 68t36.5 62t68 47t101.5 18q127 0 200 -57l-56 -192h-6q20 106 -16 167.5t-131 61.5
q-76 0 -115.5 -38.5t-39.5 -95.5q0 -72 90 -144l88 -69q92 -71 92 -166q0 -84 -60 -145.5t-168 -61.5z" />
    <glyph glyph-name="sacute" unicode="&#x15b;" horiz-adv-x="379" 
d="M516 695l-222 -160h-10l155 165h79zM138 -15q-47 0 -87 32t-59 69l46 49h5q53 -117 171 -117q14 8 24.5 26t10.5 40q0 26 -32 79l-84 139q-22 35 -22 66q0 46 46.5 91.5t111.5 45.5q81 0 126 -69l-43 -55h-5q-19 37 -56.5 67.5t-78.5 30.5q-52 -14 -52 -66q0 -27 24 -66
l94 -154q18 -29 18 -65q0 -52 -49 -97.5t-109 -45.5z" />
    <glyph glyph-name="Scircumflex" unicode="&#x15c;" horiz-adv-x="514" 
d="M412 815l-145 -85h-3l155 130h6l87 -130h-3zM223 -20q-118 0 -215 63l55 196h7q-16 -113 24 -176t138 -63q82 0 119 41.5t37 103.5q0 49 -20 82t-58 63l-85 66q-98 76 -98 169q0 35 12 68t36.5 62t68 47t101.5 18q127 0 200 -57l-56 -192h-6q20 106 -16 167.5t-131 61.5
q-76 0 -115.5 -38.5t-39.5 -95.5q0 -72 90 -144l88 -69q92 -71 92 -166q0 -84 -60 -145.5t-168 -61.5z" />
    <glyph glyph-name="scircumflex" unicode="&#x15d;" horiz-adv-x="379" 
d="M178 536h-7l154 164h16l66 -164h-5l-83 109zM138 -15q-47 0 -87 32t-59 69l46 49h5q53 -117 171 -117q14 8 24.5 26t10.5 40q0 26 -32 79l-84 139q-22 35 -22 66q0 46 46.5 91.5t111.5 45.5q81 0 126 -69l-43 -55h-5q-19 37 -56.5 67.5t-78.5 30.5q-52 -14 -52 -66
q0 -27 24 -66l94 -154q18 -29 18 -65q0 -52 -49 -97.5t-109 -45.5z" />
    <glyph glyph-name="Scedilla" unicode="&#x15e;" horiz-adv-x="514" 
d="M345 720q127 0 200 -57l-56 -192h-6q20 106 -16 167.5t-131 61.5q-76 0 -115.5 -38.5t-39.5 -95.5q0 -72 90 -144l88 -69q92 -71 92 -166q0 -81 -55.5 -141t-155.5 -66l-44 -49q12 9 31 9q24 0 39 -18t15 -49q0 -40 -26.5 -64t-60.5 -24q-33 0 -51 16t-20 43l7 3
q14 -36 51 -36q24 0 41.5 15.5t17.5 44.5q0 45 -39 45q-19 0 -33 -13l-5 4l63 73h-3q-118 0 -215 63l55 196h7q-16 -113 24 -176t138 -63q82 0 119 41.5t37 103.5q0 49 -20 82t-58 63l-85 66q-98 76 -98 169q0 35 12 68t36.5 62t68 47t101.5 18z" />
    <glyph glyph-name="scedilla" unicode="&#x15f;" horiz-adv-x="379" 
d="M269 505q81 0 126 -69l-43 -55h-5q-19 37 -56.5 67.5t-78.5 30.5q-52 -14 -52 -66q0 -27 24 -66l94 -154q18 -29 18 -65q0 -52 -49 -97.5t-109 -45.5q-7 0 -19 2l-49 -56q12 9 31 9q24 0 39 -18t15 -49q0 -40 -26.5 -64t-60.5 -24q-33 0 -51 16t-20 43l7 3q14 -36 51 -36
q24 0 41.5 15.5t17.5 44.5q0 45 -39 45q-19 0 -33 -13l-5 4l70 82q-38 10 -69 38t-46 59l46 49h5q53 -117 171 -117q14 8 24.5 26t10.5 40q0 26 -32 79l-84 139q-22 35 -22 66q0 46 46.5 91.5t111.5 45.5z" />
    <glyph glyph-name="Scaron" unicode="&#x160;" horiz-adv-x="514" 
d="M401 795l145 85h3l-155 -130h-6l-87 130h3zM223 -20q-118 0 -215 63l55 196h7q-16 -113 24 -176t138 -63q82 0 119 41.5t37 103.5q0 49 -20 82t-58 63l-85 66q-98 76 -98 169q0 35 12 68t36.5 62t68 47t101.5 18q127 0 200 -57l-56 -192h-6q20 106 -16 167.5t-131 61.5
q-76 0 -115.5 -38.5t-39.5 -95.5q0 -72 90 -144l88 -69q92 -71 92 -166q0 -84 -60 -145.5t-168 -61.5z" />
    <glyph glyph-name="scaron" unicode="&#x161;" horiz-adv-x="379" 
d="M444 700h7l-144 -154h-16l-76 154h5l93 -99zM138 -15q-47 0 -87 32t-59 69l46 49h5q53 -117 171 -117q14 8 24.5 26t10.5 40q0 26 -32 79l-84 139q-22 35 -22 66q0 46 46.5 91.5t111.5 45.5q81 0 126 -69l-43 -55h-5q-19 37 -56.5 67.5t-78.5 30.5q-52 -14 -52 -66
q0 -27 24 -66l94 -154q18 -29 18 -65q0 -52 -49 -97.5t-109 -45.5z" />
    <glyph glyph-name="uni0162" unicode="&#x162;" horiz-adv-x="531" 
d="M633 719h5l-66 -247h-7q10 58 12 96.5t-3.5 62t-22 35t-35.5 15t-52 3.5h-47l-154 -582q-15 -57 -1.5 -74.5t75.5 -19.5l-2 -8h-119l-61 -69q12 9 31 9q24 0 39 -18t15 -49q0 -40 -26.5 -64t-60.5 -24q-33 0 -51 16t-20 43l7 3q14 -36 51 -36q24 0 41.5 15.5t17.5 44.5
q0 45 -39 45q-19 0 -33 -13l-5 4l80 93h-135l2 8q63 2 87 19.5t38 71.5l155 585h-48q-42 0 -66.5 -6t-51 -27t-48.5 -64t-47 -115h-6l65 247h5q11 -19 60 -19h351q48 0 70 19z" />
    <glyph glyph-name="uni0163" unicode="&#x163;" horiz-adv-x="299" 
d="M327 475h-108l-112 -368q-4 -14 -6 -23t-2 -19.5t6 -16t18 -5.5q42 0 114 92l6 -6q-40 -61 -89 -102.5t-85 -41.5l-48 -54q12 9 31 9q24 0 39 -18t15 -49q0 -40 -26.5 -64t-60.5 -24q-33 0 -51 16t-20 43l7 3q14 -36 51 -36q24 0 41.5 15.5t17.5 44.5q0 45 -39 45
q-19 0 -33 -13l-5 4l68 79q-26 8 -26 44q0 25 10 58l118 387h-66l5 15h65l23 74l74 41l-35 -115h108z" />
    <glyph glyph-name="Tcaron" unicode="&#x164;" horiz-adv-x="531" 
d="M412 795l145 85h3l-155 -130h-6l-87 130h3zM633 719h5l-66 -247h-7q10 58 12 96.5t-3.5 62t-22 35t-35.5 15t-52 3.5h-47l-154 -582q-15 -57 -1.5 -74.5t75.5 -19.5l-2 -8h-268l2 8q63 2 87 19.5t38 71.5l155 585h-48q-42 0 -66.5 -6t-51 -27t-48.5 -64t-47 -115h-6
l65 247h5q11 -19 60 -19h351q48 0 70 19z" />
    <glyph glyph-name="tcaron" unicode="&#x165;" horiz-adv-x="299" 
d="M304 542h-11q59 64 59 101q0 17 -16 34t-16 32q0 18 11 31t30 13q41 0 41 -43q0 -33 -27.5 -82.5t-70.5 -85.5zM185 564l74 41l-35 -115h108l-5 -15h-108l-112 -368q-4 -14 -6 -23t-2 -19.5t6 -16t18 -5.5q42 0 114 92l6 -6q-40 -61 -89 -102.5t-85 -41.5q-39 0 -39 45
q0 25 10 58l118 387h-66l5 15h65z" />
    <glyph glyph-name="Tbar" unicode="&#x166;" horiz-adv-x="531" 
d="M633 719h5l-66 -247h-7q10 58 12 96.5t-3.5 62t-22 35t-35.5 15t-52 3.5h-47l-87 -329h134l-3 -10h-134l-64 -243q-15 -57 -1.5 -74.5t75.5 -19.5l-2 -8h-268l2 8q63 2 87 19.5t38 71.5l65 246h-122l3 10h122l87 329h-48q-42 0 -66.5 -6t-51 -27t-48.5 -64t-47 -115h-6
l65 247h5q11 -19 60 -19h351q48 0 70 19z" />
    <glyph glyph-name="tbar" unicode="&#x167;" horiz-adv-x="299" 
d="M332 490l-5 -15h-108l-35 -115h114l-3 -8h-113l-75 -245q-4 -14 -6 -23t-2 -19.5t6 -16t18 -5.5q42 0 114 92l6 -6q-40 -61 -89 -102.5t-85 -41.5q-39 0 -39 45q0 25 10 58l80 264h-60l3 8h60l35 115h-66l5 15h65l23 74l74 41l-35 -115h108z" />
    <glyph glyph-name="Utilde" unicode="&#x168;" horiz-adv-x="615" 
d="M527 766q-31 0 -69 21.5t-70 21.5q-47 0 -68 -52h-4q12 49 35.5 71.5t51.5 22.5q31 0 69 -21.5t70 -21.5q47 0 68 52h4q-12 -49 -35.5 -71.5t-51.5 -22.5zM524 700h203l-3 -8q-43 -2 -67.5 -26t-39.5 -81l-81 -311q-10 -38 -15.5 -57t-18.5 -56t-25 -57t-33.5 -47.5
t-45 -41.5t-58 -24.5t-75.5 -10.5q-92 0 -143.5 43.5t-51.5 126.5q0 50 18 116l93 350q6 24 6 36q0 20 -13 29.5t-44 10.5l3 8h214l-3 -8q-45 -3 -62 -17.5t-30 -61.5l-89 -335q-18 -69 -18 -117q0 -70 37 -106t106 -36q49 0 87 19.5t64.5 58t43.5 80.5t33 102l81 304
q7 28 7 45q0 61 -83 64z" />
    <glyph glyph-name="utilde" unicode="&#x169;" horiz-adv-x="542" 
d="M272 625q-47 0 -68 -52h-4q12 49 35.5 71.5t51.5 22.5q31 0 69 -21.5t70 -21.5q47 0 68 52h4q-12 -49 -35.5 -71.5t-51.5 -22.5q-31 0 -69 21.5t-70 21.5zM500 138l7 -6q-49 -66 -95 -105t-77 -39q-24 0 -32 20t0 43l55 208q-96 -142 -158.5 -208t-116.5 -66
q-21 0 -35.5 12.5t-14.5 37.5q0 26 28 115l84 264q11 35 -2 48.5t-48 8.5l-20 -3l2 10l155 27q-129 -426 -129 -447q0 -22 23 -22q69 0 241 253l53 201h61l-110 -408q-9 -36 20 -36q34 0 109 92z" />
    <glyph glyph-name="Umacron" unicode="&#x16a;" horiz-adv-x="615" 
d="M589 790h-268l7 25h268zM524 700h203l-3 -8q-43 -2 -67.5 -26t-39.5 -81l-81 -311q-10 -38 -15.5 -57t-18.5 -56t-25 -57t-33.5 -47.5t-45 -41.5t-58 -24.5t-75.5 -10.5q-92 0 -143.5 43.5t-51.5 126.5q0 50 18 116l93 350q6 24 6 36q0 20 -13 29.5t-44 10.5l3 8h214
l-3 -8q-45 -3 -62 -17.5t-30 -61.5l-89 -335q-18 -69 -18 -117q0 -70 37 -106t106 -36q49 0 87 19.5t64.5 58t43.5 80.5t33 102l81 304q7 28 7 45q0 61 -83 64z" />
    <glyph glyph-name="umacron" unicode="&#x16b;" horiz-adv-x="542" 
d="M217 633h268l-7 -25h-268zM500 138l7 -6q-49 -66 -95 -105t-77 -39q-24 0 -32 20t0 43l55 208q-96 -142 -158.5 -208t-116.5 -66q-21 0 -35.5 12.5t-14.5 37.5q0 26 28 115l84 264q11 35 -2 48.5t-48 8.5l-20 -3l2 10l155 27q-129 -426 -129 -447q0 -22 23 -22
q69 0 241 253l53 201h61l-110 -408q-9 -36 20 -36q34 0 109 92z" />
    <glyph glyph-name="Ubreve" unicode="&#x16c;" horiz-adv-x="615" 
d="M445 742q-57 0 -88.5 29.5t-20.5 88.5h10q-1 -33 33.5 -50t82.5 -17q97 0 122 67h11q-18 -65 -54.5 -91.5t-95.5 -26.5zM524 700h203l-3 -8q-43 -2 -67.5 -26t-39.5 -81l-81 -311q-10 -38 -15.5 -57t-18.5 -56t-25 -57t-33.5 -47.5t-45 -41.5t-58 -24.5t-75.5 -10.5
q-92 0 -143.5 43.5t-51.5 126.5q0 50 18 116l93 350q6 24 6 36q0 20 -13 29.5t-44 10.5l3 8h214l-3 -8q-45 -3 -62 -17.5t-30 -61.5l-89 -335q-18 -69 -18 -117q0 -70 37 -106t106 -36q49 0 87 19.5t64.5 58t43.5 80.5t33 102l81 304q7 28 7 45q0 61 -83 64z" />
    <glyph glyph-name="ubreve" unicode="&#x16d;" horiz-adv-x="542" 
d="M332 547q-55 0 -80.5 38.5t-7.5 114.5h9q-6 -51 20 -76.5t72 -25.5q41 0 72 23.5t37 78.5h10q-20 -153 -132 -153zM500 138l7 -6q-49 -66 -95 -105t-77 -39q-24 0 -32 20t0 43l55 208q-96 -142 -158.5 -208t-116.5 -66q-21 0 -35.5 12.5t-14.5 37.5q0 26 28 115l84 264
q11 35 -2 48.5t-48 8.5l-20 -3l2 10l155 27q-129 -426 -129 -447q0 -22 23 -22q69 0 241 253l53 201h61l-110 -408q-9 -36 20 -36q34 0 109 92z" />
    <glyph glyph-name="Uring" unicode="&#x16e;" horiz-adv-x="615" 
d="M455 731q-66 0 -66 58q0 32 21 56.5t60 24.5q66 0 66 -58q0 -32 -21 -56.5t-60 -24.5zM458 743q31 0 48 20t17 44q0 51 -56 51q-30 0 -47.5 -20.5t-17.5 -43.5q0 -51 56 -51zM524 700h203l-3 -8q-43 -2 -67.5 -26t-39.5 -81l-81 -311q-10 -38 -15.5 -57t-18.5 -56
t-25 -57t-33.5 -47.5t-45 -41.5t-58 -24.5t-75.5 -10.5q-92 0 -143.5 43.5t-51.5 126.5q0 50 18 116l93 350q6 24 6 36q0 20 -13 29.5t-44 10.5l3 8h214l-3 -8q-45 -3 -62 -17.5t-30 -61.5l-89 -335q-18 -69 -18 -117q0 -70 37 -106t106 -36q49 0 87 19.5t64.5 58t43.5 80.5
t33 102l81 304q7 28 7 45q0 61 -83 64z" />
    <glyph glyph-name="uring" unicode="&#x16f;" horiz-adv-x="542" 
d="M343 544q-38 0 -63.5 18.5t-25.5 60.5q0 41 28.5 74t79.5 33q39 0 64 -19t25 -60t-28 -74t-80 -33zM358 711q-39 0 -60.5 -26.5t-21.5 -56.5q0 -65 71 -65q39 0 60.5 26t21.5 56q0 66 -71 66zM500 138l7 -6q-49 -66 -95 -105t-77 -39q-24 0 -32 20t0 43l55 208
q-96 -142 -158.5 -208t-116.5 -66q-21 0 -35.5 12.5t-14.5 37.5q0 26 28 115l84 264q11 35 -2 48.5t-48 8.5l-20 -3l2 10l155 27q-129 -426 -129 -447q0 -22 23 -22q69 0 241 253l53 201h61l-110 -408q-9 -36 20 -36q34 0 109 92z" />
    <glyph glyph-name="Uhungarumlaut" unicode="&#x170;" horiz-adv-x="615" 
d="M545 855l-155 -115h-4l98 120h62zM659 855l-155 -115h-4l98 120h62zM524 700h203l-3 -8q-43 -2 -67.5 -26t-39.5 -81l-81 -311q-10 -38 -15.5 -57t-18.5 -56t-25 -57t-33.5 -47.5t-45 -41.5t-58 -24.5t-75.5 -10.5q-92 0 -143.5 43.5t-51.5 126.5q0 50 18 116l93 350
q6 24 6 36q0 20 -13 29.5t-44 10.5l3 8h214l-3 -8q-45 -3 -62 -17.5t-30 -61.5l-89 -335q-18 -69 -18 -117q0 -70 37 -106t106 -36q49 0 87 19.5t64.5 58t43.5 80.5t33 102l81 304q7 28 7 45q0 61 -83 64z" />
    <glyph glyph-name="uhungarumlaut" unicode="&#x171;" horiz-adv-x="542" 
d="M486 700l-2 -5l-219 -160h-8l167 165h62zM385 535l174 165h67l-2 -5l-231 -160h-8zM391 46q34 0 109 92l7 -6q-49 -66 -95 -105t-77 -39q-24 0 -32 20t0 43l55 208q-96 -142 -158.5 -208t-116.5 -66q-21 0 -35.5 12.5t-14.5 37.5q0 26 28 115l84 264q11 35 -2 48.5
t-48 8.5l-20 -3l2 10l155 27q-129 -426 -129 -447q0 -22 23 -22q69 0 241 253l53 201h61l-110 -408q-9 -36 20 -36z" />
    <glyph glyph-name="Uogonek" unicode="&#x172;" horiz-adv-x="615" 
d="M521 692l3 8h203l-3 -8q-43 -2 -67.5 -26t-39.5 -81l-81 -311q-10 -39 -15 -57t-18 -55t-25 -56.5t-33 -47t-44 -42t-56.5 -25t-73.5 -11.5q-47 -30 -47 -78q0 -59 60 -59q40 0 64 39l4 -2q-43 -82 -113 -82q-31 0 -51 17t-20 48q0 29 22 61t61 56q-86 4 -133.5 47
t-47.5 123q0 50 18 116l93 350q6 24 6 36q0 20 -13 29.5t-44 10.5l3 8h214l-3 -8q-45 -3 -62 -17.5t-30 -61.5l-89 -335q-18 -69 -18 -117q0 -70 37 -106t106 -36q49 0 87 19.5t64.5 58t43.5 80.5t33 102l81 304q7 28 7 45q0 61 -83 64z" />
    <glyph glyph-name="uogonek" unicode="&#x173;" horiz-adv-x="542" 
d="M500 138l7 -6q-49 -66 -95 -105t-77 -39q-17 0 -25 9q-62 -15 -86 -43.5t-24 -59.5q0 -59 60 -59q40 0 64 39l4 -2q-43 -82 -113 -82q-31 0 -51 17t-20 48q0 42 43.5 86.5t117.5 62.5q-9 16 -2 47l55 208q-96 -142 -158.5 -208t-116.5 -66q-21 0 -35.5 12.5t-14.5 37.5
q0 26 28 115l84 264q11 35 -2 48.5t-48 8.5l-20 -3l2 10l155 27q-129 -426 -129 -447q0 -22 23 -22q69 0 241 253l53 201h61l-110 -408q-9 -36 20 -36q34 0 109 92z" />
    <glyph glyph-name="Wcircumflex" unicode="&#x174;" horiz-adv-x="876" 
d="M690 730l-97 85l-145 -85h-3l155 130h6l87 -130h-3zM808 692l3 8h182l-3 -8q-34 -1 -60.5 -26t-60.5 -84l-340 -592h-4l-28 485l-279 -485h-2l-35 598q-4 61 -14.5 82t-41.5 22l2 8h203l-3 -8q-48 -2 -64 -18.5t-13 -70.5l23 -477l222 384l-5 89q-3 52 -18.5 72t-53.5 21
l3 8h218l-3 -8q-45 -2 -62 -17t-15 -60l25 -488l260 452q29 52 29 73q0 38 -65 40z" />
    <glyph glyph-name="wcircumflex" unicode="&#x175;" horiz-adv-x="657" 
d="M267 536h-7l154 164h16l66 -164h-5l-83 109zM519 466l75 43q46 -51 46 -123q0 -189 -280 -403l-12 8v250q-35 -81 -82.5 -136.5t-135.5 -121.5l-12 8l-13 394q-2 91 -74 65l1 8l135 51l15 -469q88 80 124.5 158t36.5 139q0 40 -16 75t-44 49v5l75 43q47 -47 49 -152
l5 -317q90 78 128 152.5t38 133.5q0 44 -15.5 82t-43.5 53v5z" />
    <glyph glyph-name="Ycircumflex" unicode="&#x176;" horiz-adv-x="561" 
d="M446 815l-145 -85h-3l155 130h6l87 -130h-3zM494 692l3 8h176l-3 -8q-35 -2 -61.5 -21t-60.5 -65l-217 -291l-60 -224q-11 -50 6.5 -65.5t85.5 -17.5l-2 -8h-294l2 8q72 2 98 19.5t41 74.5l56 210l-63 288q-12 54 -26 72t-45 20l3 8h197l-3 -8q-37 -1 -52 -12t-15 -34
q0 -19 6 -43l61 -268l188 252q41 55 41 75q0 31 -62 30z" />
    <glyph glyph-name="ycircumflex" unicode="&#x177;" horiz-adv-x="452" 
d="M347 536l-83 109l-141 -109h-7l154 164h16l66 -164h-5zM310 473l81 36q45 -54 45 -125q0 -168 -250 -420q-84 -92 -151.5 -135.5t-138.5 -43.5q-37 0 -59 14l22 89h5q31 -35 97 -35q98 0 179 87l-55 445q-2 15 -4 24.5t-7 22.5t-12.5 16.5t-20.5 7t-30 -5.5l1 8l126 51
l62 -510q175 166 175 325q0 51 -18 89.5t-47 54.5v5z" />
    <glyph glyph-name="Ydieresis" unicode="&#x178;" horiz-adv-x="561" 
d="M326 762q-21 0 -35.5 14t-14.5 34t14.5 35t35.5 15q20 0 34.5 -14.5t14.5 -34.5t-14.5 -34.5t-34.5 -14.5zM543 762q-20 0 -34.5 14t-14.5 34t14.5 35t34.5 15q21 0 35.5 -14.5t14.5 -34.5t-14.5 -34.5t-35.5 -14.5zM494 692l3 8h176l-3 -8q-35 -2 -61.5 -21t-60.5 -65
l-217 -291l-60 -224q-11 -50 6.5 -65.5t85.5 -17.5l-2 -8h-294l2 8q72 2 98 19.5t41 74.5l56 210l-63 288q-12 54 -26 72t-45 20l3 8h197l-3 -8q-37 -1 -52 -12t-15 -34q0 -19 6 -43l61 -268l188 252q41 55 41 75q0 31 -62 30z" />
    <glyph glyph-name="Zacute" unicode="&#x179;" horiz-adv-x="537" 
d="M617 863l-185 -123h-4l108 128h82zM413 0h-443l1 5l565 679h-137q-112 0 -163.5 -45.5t-109.5 -177.5h-7l89 239h413l-2 -5l-562 -679h156q61 0 101.5 11t72.5 40t54.5 67.5t52.5 105.5h7z" />
    <glyph glyph-name="zacute" unicode="&#x17a;" horiz-adv-x="437" 
d="M502 695l-222 -160h-10l155 165h79zM218 -20q-40 0 -90 25t-82 25q-36 0 -69 -37l-13 5l402 437h-177q-47 0 -68 -20t-39 -71h-10l44 146h327l-383 -413q24 6 40 6q33 0 82.5 -27t86.5 -27q43 0 70 28.5t43 97.5l9 -3q-9 -52 -29.5 -88t-46.5 -53t-49.5 -24t-47.5 -7z
" />
    <glyph glyph-name="Zdotaccent" unicode="&#x17b;" horiz-adv-x="537" 
d="M447 755q-21 0 -36.5 15.5t-15.5 36.5q0 22 15.5 38t36.5 16q23 0 38.5 -15.5t15.5 -38.5q0 -21 -16 -36.5t-38 -15.5zM413 0h-443l1 5l565 679h-137q-112 0 -163.5 -45.5t-109.5 -177.5h-7l89 239h413l-2 -5l-562 -679h156q61 0 101.5 11t72.5 40t54.5 67.5t52.5 105.5
h7z" />
    <glyph glyph-name="zdotaccent" unicode="&#x17c;" horiz-adv-x="437" 
d="M302 588q-21 0 -34.5 14t-13.5 35q0 20 13.5 33.5t34.5 13.5t35 -14t14 -34t-13.5 -34t-35.5 -14zM218 -20q-40 0 -90 25t-82 25q-36 0 -69 -37l-13 5l402 437h-177q-47 0 -68 -20t-39 -71h-10l44 146h327l-383 -413q24 6 40 6q33 0 82.5 -27t86.5 -27q43 0 70 28.5
t43 97.5l9 -3q-9 -52 -29.5 -88t-46.5 -53t-49.5 -24t-47.5 -7z" />
    <glyph glyph-name="Zcaron" unicode="&#x17d;" horiz-adv-x="537" 
d="M440 795l145 85h3l-155 -130h-6l-87 130h3zM413 0h-443l1 5l565 679h-137q-112 0 -163.5 -45.5t-109.5 -177.5h-7l89 239h413l-2 -5l-562 -679h156q61 0 101.5 11t72.5 40t54.5 67.5t52.5 105.5h7z" />
    <glyph glyph-name="zcaron" unicode="&#x17e;" horiz-adv-x="437" 
d="M430 700h7l-144 -154h-16l-76 154h5l93 -99zM218 -20q-40 0 -90 25t-82 25q-36 0 -69 -37l-13 5l402 437h-177q-47 0 -68 -20t-39 -71h-10l44 146h327l-383 -413q24 6 40 6q33 0 82.5 -27t86.5 -27q43 0 70 28.5t43 97.5l9 -3q-9 -52 -29.5 -88t-46.5 -53t-49.5 -24
t-47.5 -7z" />
    <glyph glyph-name="uni018F" unicode="&#x18f;" horiz-adv-x="682" 
d="M413 720q117 0 190 -71t73 -212q0 -122 -53.5 -227.5t-143 -167.5t-191.5 -62q-107 0 -170 65t-63 182q0 40 7 81h523q16 67 16 133q0 122 -48.5 191t-130.5 69q-84 0 -165.5 -67.5t-120.5 -190.5h-10l58 206q104 71 229 71zM288 -1q92 0 175.5 83t118.5 212h-444
q-8 -50 -8 -89q0 -96 41.5 -151t116.5 -55z" />
    <glyph glyph-name="florin" unicode="&#x192;" horiz-adv-x="260" 
d="M360 718q34 0 51 -23l-31 -55h-13q-28 46 -89 46q-24 -13 -37 -40t-25 -79l-17 -74h106l-4 -15h-105l-97 -435q-24 -107 -92 -182.5t-124 -75.5q-34 0 -55 23l21 60h13q37 -31 105 -31q28 20 53 129l115 512h-84l4 15h83l2 7q17 78 57.5 129.5t81 70t81.5 18.5z" />
    <glyph glyph-name="uni019D" unicode="&#x19d;" horiz-adv-x="675" 
d="M570 692l3 8h209l-3 -8q-49 -2 -75.5 -27t-42.5 -84l-157 -591h-4l-262 622l-178 -680q-20 -74 -57 -110.5t-104 -36.5q-31 0 -53 9l1 3q12 -3 29 -3q73 0 108.5 30.5t54.5 101.5l187 713q-24 51 -76 53l3 8h133l236 -562l117 443q16 62 0.5 85.5t-69.5 25.5z" />
    <glyph glyph-name="Gcaron" unicode="&#x1e6;" horiz-adv-x="667" 
d="M489 795l145 85h3l-155 -130h-6l-87 130h3zM390 334h286l-3 -8q-43 0 -59.5 -11.5t-25.5 -45.5l-61 -233q-95 -56 -193 -56q-34 0 -67.5 7.5t-71 28.5t-65 53.5t-46 87t-18.5 124.5q0 71 24 144.5t70.5 141t127.5 110.5t182 43q117 0 202 -42l-60 -212h-8
q22 117 -12.5 175.5t-137.5 58.5q-81 0 -144 -40t-98 -103.5t-52.5 -132t-17.5 -134.5q0 -139 52 -215t140 -76q42 0 77.5 15t53.5 36l46 172q17 63 -8 83.5t-116 20.5z" />
    <glyph glyph-name="gcaron" unicode="&#x1e7;" horiz-adv-x="439" 
d="M442 700l-144 -154h-16l-76 154h5l93 -99l131 99h7zM338 490h114l-4 -15h-85q37 -31 37 -87q0 -47 -22 -94t-70 -81.5t-112 -34.5q-35 0 -58 10q-66 -17 -66 -52q0 -16 13 -25.5t49 -22.5l154 -58q89 -33 89 -97q0 -62 -69 -105t-179 -43q-85 0 -137 28t-52 82
q0 45 40 77t120 56q-37 12 -56 29.5t-19 46.5q0 62 97 91q-52 28 -52 97q0 47 22 94t70 81.5t112 34.5q37 0 64 -12zM205 190q59 0 94.5 63t35.5 139q0 98 -70 98q-59 0 -94.5 -63t-35.5 -139q0 -98 70 -98zM324 -99q0 52 -65 73l-142 48q-54 -16 -84 -39.5t-30 -66.5
q0 -51 45 -79t120 -28q69 0 112.5 24t43.5 68z" />
    <glyph glyph-name="uni01EA" unicode="&#x1ea;" horiz-adv-x="730" 
d="M428 -6q-60 -23 -82.5 -47.5t-22.5 -54.5q0 -57 60 -57q40 0 64 39l4 -2q-43 -82 -113 -82q-30 0 -50.5 18t-20.5 47q0 35 30 69t85 60q-23 -4 -52 -4q-52 0 -97.5 14.5t-85.5 45.5t-63.5 86.5t-23.5 129.5q0 63 16.5 127.5t50 125t79.5 107.5t111 75.5t139 28.5
q52 0 97.5 -14.5t85.5 -45.5t63.5 -86.5t23.5 -129.5q0 -92 -33 -183t-103 -165.5t-162 -101.5zM326 0q71 0 128 34t91 84t57 113.5t31.5 118t8.5 100.5q0 250 -182 250q-71 0 -128 -34t-91 -84t-57 -113.5t-31.5 -118t-8.5 -100.5q0 -250 182 -250z" />
    <glyph glyph-name="uni01EB" unicode="&#x1eb;" horiz-adv-x="476" 
d="M218 -7q-60 -23 -81.5 -47t-21.5 -54q0 -57 60 -57q40 0 64 39l4 -2q-43 -82 -113 -82q-30 0 -50.5 18t-20.5 47q0 35 31 69.5t88 61.5q-5 -1 -15 -1q-59 0 -101 35t-42 111q0 72 35 157t105 151t153 66q59 0 101 -35t42 -111q0 -64 -28 -139t-84.5 -141t-125.5 -86z
M95 122q0 -122 74 -122q58 0 108 58t77 142.5t27 167.5q0 122 -74 122q-58 0 -108 -58t-77 -142.5t-27 -167.5z" />
    <glyph glyph-name="AEacute" unicode="&#x1fc;" horiz-adv-x="892" 
d="M747 740l108 128h82l-1 -5l-185 -123h-4zM84 104l490 596h344l-36 -214h-7q12 113 -29 158.5t-147 45.5h-61l-89 -336h79q73 0 108.5 25t61.5 93h7l-65 -248h-7q10 68 -12 92.5t-95 24.5h-80l-88 -331h58q129 0 199 55t117 188h7l-92 -253h-430l2 8q48 2 67.5 15.5
t30.5 55.5l49 184h-223l-151 -187q-29 -37 -29 -50q0 -9 12.5 -12.5t45.5 -5.5l-2 -8h-175l2 8q39 1 67.5 22.5t70.5 73.5zM255 278h215l106 399z" />
    <glyph glyph-name="aeacute" unicode="&#x1fd;" horiz-adv-x="688" 
d="M666 695l-222 -160h-10l155 165h79zM128 -15q-52 0 -83.5 27t-31.5 74q0 60 56.5 102.5t147.5 55.5l99 14l2 11q22 118 -5 162t-89 44q-49 0 -85.5 -33.5t-51.5 -91.5l-8 1q16 70 63.5 112t111.5 42q25 0 47.5 -6.5t44 -21.5t33 -44.5t9.5 -71.5q102 144 228 144
q25 0 42 -13.5t17 -41.5q0 -67 -90 -125.5t-227 -73.5q-8 -35 -8 -70q0 -69 25 -102.5t79 -33.5q94 0 162 114l8 -4q-39 -73 -98 -121.5t-123 -48.5q-47 0 -76.5 31.5t-30.5 97.5q-21 -64 -61 -96.5t-107 -32.5zM360 262q61 7 114 25.5t91.5 56.5t38.5 88q0 20 -12 34
t-38 14q-56 -15 -114.5 -74t-79.5 -144zM156 5q109 0 142 152q2 15 7.5 44.5t8.5 44.5l-46 -5q-187 -22 -187 -150q0 -39 21 -62.5t54 -23.5z" />
    <glyph glyph-name="Oslashacute" unicode="&#x1fe;" horiz-adv-x="730" 
d="M686 868l-1 -5l-185 -123h-4l108 128h82zM787 730h24l-128 -120q43 -67 43 -166q0 -63 -16.5 -127.5t-50 -125t-79.5 -107.5t-111 -75.5t-139 -28.5q-141 0 -215 93l-99 -93h-24l113 107q-45 66 -45 169q0 63 16.5 127.5t50 125t79.5 107.5t111 75.5t139 28.5
q145 0 218 -97zM144 250q0 -69 13 -115l469 443q-40 122 -166 122q-71 0 -128 -34t-91 -84t-57 -113.5t-31.5 -118t-8.5 -100.5zM642 450q0 61 -11 110l-469 -442q40 -118 164 -118q71 0 128 34t91 84t57 113.5t31.5 118t8.5 100.5z" />
    <glyph glyph-name="oslashacute" unicode="&#x1ff;" horiz-adv-x="476" 
d="M311 535l155 165h79l-2 -5l-222 -160h-10zM430 453l55 57h20l-68 -70q19 -32 19 -81q0 -72 -35 -157t-105 -151t-153 -66q-79 0 -117 52l-55 -57h-19l67 69q-19 33 -19 82q0 72 35 157t105 151t153 66q79 0 117 -52zM95 122v-15l285 294q-9 89 -73 89q-58 0 -108 -58
t-77 -142.5t-27 -167.5zM381 368v14l-285 -293q10 -89 73 -89q58 0 108 58t77 142.5t27 167.5z" />
    <glyph glyph-name="uni0218" unicode="&#x218;" horiz-adv-x="514" 
d="M223 -20q-118 0 -215 63l55 196h7q-16 -113 24 -176t138 -63q82 0 119 41.5t37 103.5q0 49 -20 82t-58 63l-85 66q-98 76 -98 169q0 35 12 68t36.5 62t68 47t101.5 18q127 0 200 -57l-56 -192h-6q20 106 -16 167.5t-131 61.5q-76 0 -115.5 -38.5t-39.5 -95.5
q0 -72 90 -144l88 -69q92 -71 92 -166q0 -84 -60 -145.5t-168 -61.5zM154 -209v11q35 3 53.5 19t18.5 33q0 12 -7 18t-25 14q-27 12 -27 38q0 19 14 31t35 12q50 0 50 -58q0 -43 -28.5 -78t-83.5 -40z" />
    <glyph glyph-name="uni0219" unicode="&#x219;" horiz-adv-x="379" 
d="M138 -15q-47 0 -87 32t-59 69l46 49h5q53 -117 171 -117q14 8 24.5 26t10.5 40q0 26 -32 79l-84 139q-22 35 -22 66q0 46 46.5 91.5t111.5 45.5q81 0 126 -69l-43 -55h-5q-19 37 -56.5 67.5t-78.5 30.5q-52 -14 -52 -66q0 -27 24 -66l94 -154q18 -29 18 -65
q0 -52 -49 -97.5t-109 -45.5zM28 -209v11q35 3 53.5 19t18.5 33q0 12 -7 18t-25 14q-27 12 -27 38q0 19 14 31t35 12q50 0 50 -58q0 -43 -28.5 -78t-83.5 -40z" />
    <glyph glyph-name="uni021A" unicode="&#x21a;" horiz-adv-x="531" 
d="M633 719h5l-66 -247h-7q10 58 12 96.5t-3.5 62t-22 35t-35.5 15t-52 3.5h-47l-154 -582q-15 -57 -1.5 -74.5t75.5 -19.5l-2 -8h-268l2 8q63 2 87 19.5t38 71.5l155 585h-48q-42 0 -66.5 -6t-51 -27t-48.5 -64t-47 -115h-6l65 247h5q11 -19 60 -19h351q48 0 70 19z
M113 -209v11q35 3 53.5 19t18.5 33q0 12 -7 18t-25 14q-27 12 -27 38q0 19 14 31t35 12q50 0 50 -58q0 -43 -28.5 -78t-83.5 -40z" />
    <glyph glyph-name="uni021B" unicode="&#x21b;" horiz-adv-x="299" 
d="M327 475h-108l-112 -368q-4 -14 -6 -23t-2 -19.5t6 -16t18 -5.5q42 0 114 92l6 -6q-40 -61 -89 -102.5t-85 -41.5q-39 0 -39 45q0 25 10 58l118 387h-66l5 15h65l23 74l74 41l-35 -115h108zM41 -33q50 0 50 -58q0 -43 -28.5 -78t-83.5 -40v11q35 3 53.5 19t18.5 33
q0 12 -7 18t-25 14q-27 12 -27 38q0 19 14 31t35 12z" />
    <glyph glyph-name="uni0232" unicode="&#x232;" horiz-adv-x="561" 
d="M567 790h-268l7 25h268zM494 692l3 8h176l-3 -8q-35 -2 -61.5 -21t-60.5 -65l-217 -291l-60 -224q-11 -50 6.5 -65.5t85.5 -17.5l-2 -8h-294l2 8q72 2 98 19.5t41 74.5l56 210l-63 288q-12 54 -26 72t-45 20l3 8h197l-3 -8q-37 -1 -52 -12t-15 -34q0 -19 6 -43l61 -268
l188 252q41 55 41 75q0 31 -62 30z" />
    <glyph glyph-name="uni0233" unicode="&#x233;" horiz-adv-x="452" 
d="M126 633h268l-7 -25h-268zM310 473l81 36q45 -54 45 -125q0 -168 -250 -420q-84 -92 -151.5 -135.5t-138.5 -43.5q-37 0 -59 14l22 89h5q31 -35 97 -35q98 0 179 87l-55 445q-2 15 -4 24.5t-7 22.5t-12.5 16.5t-20.5 7t-30 -5.5l1 8l126 51l62 -510q175 166 175 325
q0 51 -18 89.5t-47 54.5v5z" />
    <glyph glyph-name="uni0237" unicode="&#x237;" horiz-adv-x="261" 
d="M85 458l2 10l153 37l-145 -543q-46 -177 -169 -177q-44 0 -61 11l2 5q15 -7 40 -7q41 0 69 29t48 102l131 489q8 29 -4 40.5t-46 6.5z" />
    <glyph glyph-name="uni0259" unicode="&#x259;" horiz-adv-x="403" 
d="M275 505q48 0 77.5 -33t29.5 -102q0 -94 -42.5 -184t-111.5 -145.5t-140 -55.5q-75 0 -75 60q0 67 86 123t222 71q7 31 7 70q0 69 -25 102.5t-79 33.5q-99 0 -152 -114l-8 4q30 71 88 120.5t123 49.5zM134 10q55 14 110 73.5t75 144.5q-40 -7 -77.5 -19t-75 -31
t-60 -48.5t-22.5 -65.5q0 -54 50 -54z" />
    <glyph glyph-name="uni0272" unicode="&#x272;" horiz-adv-x="543" 
d="M500 135l7 -6q-108 -144 -167 -144q-17 0 -29.5 11.5t-12.5 35.5q0 46 61 214q53 147 53 180q0 28 -25 28q-62 0 -240 -254l-64 -238q-48 -177 -169 -177q-44 0 -61 11l2 5q15 -7 40 -7q41 0 69 29t48 102l131 489q8 29 -4 40.5t-46 6.5l-20 -3l2 10l153 37l-75 -281
q95 146 158 213.5t117 67.5q21 0 36 -14t15 -41q0 -53 -58 -213q-51 -140 -51 -172q0 -22 21 -22q34 0 109 92z" />
    <glyph glyph-name="uni02BC" unicode="&#x2bc;" horiz-adv-x="237" 
d="M138 504l-1 7q49 5 73.5 28.5t24.5 47.5q0 28 -34 43q-33 15 -33 48q0 22 16 37t40 15t40.5 -18.5t16.5 -57.5q0 -54 -37 -99t-106 -51z" />
    <glyph glyph-name="circumflex" unicode="&#x2c6;" horiz-adv-x="600" 
d="M248 536h-7l154 164h16l66 -164h-5l-83 109z" />
    <glyph glyph-name="caron" unicode="&#x2c7;" horiz-adv-x="600" 
d="M514 700h7l-144 -154h-16l-76 154h5l93 -99z" />
    <glyph glyph-name="breve" unicode="&#x2d8;" horiz-adv-x="600" 
d="M350 547q-55 0 -80.5 38.5t-7.5 114.5h9q-6 -51 20 -76.5t72 -25.5q41 0 72 23.5t37 78.5h10q-20 -153 -132 -153z" />
    <glyph glyph-name="dotaccent" unicode="&#x2d9;" horiz-adv-x="600" 
d="M259 588q-21 0 -34.5 14t-13.5 35q0 20 13.5 33.5t34.5 13.5t35 -14t14 -34t-14 -34t-35 -14z" />
    <glyph glyph-name="ring" unicode="&#x2da;" horiz-adv-x="600" 
d="M345 544q-38 0 -63.5 18.5t-25.5 60.5q0 41 28.5 74t79.5 33q39 0 64 -19t25 -60t-28 -74t-80 -33zM349 563q39 0 60.5 26t21.5 56q0 66 -71 66q-39 0 -60.5 -26.5t-21.5 -56.5q0 -65 71 -65z" />
    <glyph glyph-name="ogonek" unicode="&#x2db;" horiz-adv-x="600" 
d="M122 -210q-31 0 -51 17t-20 48q0 46 49.5 93t132.5 60l-2 -8q-70 -13 -97 -43t-27 -63q0 -59 60 -59q40 0 64 39l4 -2q-43 -82 -113 -82z" />
    <glyph glyph-name="tilde" unicode="&#x2dc;" horiz-adv-x="600" 
d="M319 582q-31 0 -69 21.5t-70 21.5q-47 0 -68 -52h-4q12 49 35.5 71.5t51.5 22.5q31 0 69 -21.5t70 -21.5q47 0 68 52h4q-12 -49 -35.5 -71.5t-51.5 -22.5z" />
    <glyph glyph-name="hungarumlaut" unicode="&#x2dd;" horiz-adv-x="600" 
d="M173 535h-8l167 165h62l-2 -5zM301 535h-8l174 165h67l-2 -5z" />
    <glyph glyph-name="gravecomb" unicode="&#x300;" horiz-adv-x="0" 
d="M-78 535h-10l-136 160l2 5h79z" />
    <glyph glyph-name="acutecomb" unicode="&#x301;" horiz-adv-x="0" 
d="M-35 695l-222 -160h-10l155 165h79z" />
    <glyph glyph-name="uni0302" unicode="&#x302;" horiz-adv-x="0" 
d="M-315 536h-7l154 164h16l66 -164h-5l-83 109z" />
    <glyph glyph-name="tildecomb" unicode="&#x303;" horiz-adv-x="0" 
d="M8 582q-31 0 -69 21.5t-70 21.5q-47 0 -68 -52h-4q12 49 35.5 71.5t51.5 22.5q31 0 69 -21.5t70 -21.5q47 0 68 52h4q-12 -49 -35.5 -71.5t-51.5 -22.5z" />
    <glyph glyph-name="uni0304" unicode="&#x304;" horiz-adv-x="0" 
d="M-51 608h-268l7 25h268z" />
    <glyph glyph-name="uni0306" unicode="&#x306;" horiz-adv-x="0" 
d="M-150 547q-55 0 -80.5 38.5t-7.5 114.5h9q-6 -51 20 -76.5t72 -25.5q41 0 72 23.5t37 78.5h10q-20 -153 -132 -153z" />
    <glyph glyph-name="uni0307" unicode="&#x307;" horiz-adv-x="0" 
d="M-51 588q-21 0 -34.5 14t-13.5 35q0 20 13.5 33.5t34.5 13.5t35 -14t14 -34t-14 -34t-35 -14z" />
    <glyph glyph-name="uni0308" unicode="&#x308;" horiz-adv-x="0" 
d="M-134 588q-20 0 -34.5 14t-14.5 33q0 20 14.5 34.5t34.5 14.5q19 0 33.5 -14.5t14.5 -33.5q0 -20 -14 -34t-34 -14zM32 588q-20 0 -34 14t-14 33q0 20 14.5 34.5t33.5 14.5q20 0 34.5 -14.5t14.5 -33.5q0 -20 -14.5 -34t-34.5 -14z" />
    <glyph glyph-name="uni030A" unicode="&#x30a;" horiz-adv-x="0" 
d="M-155 544q-38 0 -63.5 18.5t-25.5 60.5q0 41 28.5 74t79.5 33q39 0 64 -19t25 -60t-28 -74t-80 -33zM-151 563q39 0 60.5 26t21.5 56q0 66 -71 66q-39 0 -60.5 -26.5t-21.5 -56.5q0 -65 71 -65z" />
    <glyph glyph-name="uni030B" unicode="&#x30b;" horiz-adv-x="0" 
d="M-327 535h-8l167 165h62l-2 -5zM-199 535h-8l174 165h67l-2 -5z" />
    <glyph glyph-name="uni030C" unicode="&#x30c;" horiz-adv-x="0" 
d="M-49 700h7l-144 -154h-16l-76 154h5l93 -99z" />
    <glyph glyph-name="uni0312" unicode="&#x312;" horiz-adv-x="0" 
d="M33 707v-12q-29 -3 -44.5 -17t-15.5 -29q0 -7 3.5 -12t7.5 -7.5t15 -7.5q23 -11 23 -33q0 -17 -12 -28t-30 -11q-43 0 -43 52q0 38 24.5 69.5t71.5 35.5z" />
    <glyph glyph-name="dotbelowcomb" unicode="&#x323;" horiz-adv-x="0" 
d="M-195 -139q-21 0 -36.5 15.5t-15.5 36.5q0 22 15.5 38t36.5 16q23 0 38.5 -15.5t15.5 -38.5q0 -21 -16 -36.5t-38 -15.5z" />
    <glyph glyph-name="uni0326" unicode="&#x326;" horiz-adv-x="0" 
d="M-258 -209v11q35 3 53.5 19t18.5 33q0 12 -7 18t-25 14q-27 12 -27 38q0 19 14 31t35 12q50 0 50 -58q0 -43 -28.5 -78t-83.5 -40z" />
    <glyph glyph-name="uni0327" unicode="&#x327;" horiz-adv-x="0" 
d="M-270 -127q0 -40 -26.5 -64t-60.5 -24q-33 0 -51 16t-20 43l7 3q14 -36 51 -36q24 0 41.5 15.5t17.5 44.5q0 45 -39 45q-19 0 -33 -13l-5 4l80 93h14l-61 -69q12 9 31 9q24 0 39 -18t15 -49z" />
    <glyph glyph-name="uni0328" unicode="&#x328;" horiz-adv-x="0" 
d="M-369 -210q-31 0 -51 17t-20 48q0 46 49.5 93t132.5 60l-2 -8q-70 -13 -97 -43t-27 -63q0 -59 60 -59q40 0 64 39l4 -2q-43 -82 -113 -82z" />
    <glyph glyph-name="uni0394" unicode="&#x394;" horiz-adv-x="735" 
d="M657 0h-711l-1 3l530 702h5l180 -702zM428 620l-456 -605h610z" />
    <glyph glyph-name="uni03A9" unicode="&#x3a9;" horiz-adv-x="664" 
d="M237 0h-223l37 138h5q-11 -46 -6 -62.5t34 -16.5h152l21 80q-77 16 -126 69.5t-49 149.5q0 62 24 125t67.5 116.5t113 87t151.5 33.5q46 0 87.5 -11.5t77.5 -35.5t57 -67.5t21 -101.5q0 -61 -22 -123t-62.5 -116t-104.5 -90t-141 -42l-19 -74h155q29 0 42.5 16t27.5 63h5
l-37 -138h-226l40 150q120 13 193 113.5t73 245.5q0 195 -163 195q-64 0 -115.5 -26.5t-82 -65.5t-51 -88.5t-28 -92t-7.5 -78.5q0 -177 120 -201l-25 -93z" />
    <glyph glyph-name="uni03BC" unicode="&#x3bc;" horiz-adv-x="542" 
d="M100 -150h-131l176 564q11 35 -2 48.5t-48 8.5l-20 -3l2 10l155 27q-129 -426 -129 -447q0 -22 23 -22q69 0 241 253l53 201h61l-110 -408q-9 -36 20 -36q34 0 109 92l7 -6q-49 -66 -95 -105t-77 -39q-24 0 -32 20t0 43l55 208q-96 -142 -158.5 -208t-116.5 -66
q-38 0 -48 34q-29 -101 -17 -132.5t83 -31.5z" />
    <glyph glyph-name="pi" unicode="&#x3c0;" horiz-adv-x="591" 
d="M420 -15q-36 0 -55.5 20.5t-7.5 67.5l108 402h-227l-127 -475h-60l127 475h-47q-29 0 -42.5 -16t-27.5 -63h-5l25 94h549l-4 -15h-102l-102 -380q-19 -70 34 -70q45 0 77 38l4 -2q-53 -76 -117 -76z" />
    <glyph glyph-name="uni0E3F" unicode="&#xe3f;" horiz-adv-x="572" 
d="M566 529q0 -76 -62.5 -128t-177.5 -60l-1 -1q191 -7 191 -148q0 -83 -66.5 -137.5t-194.5 -54.5h-25l-26 -100h-20l26 100h-243l2 8q56 3 74 17t30 58l132 504q11 41 -0.5 57t-62.5 19l3 7h199q29 0 43 -1l21 81h20l-22 -83q160 -17 160 -138zM342 657h-54l-82 -310h67
q20 0 29 1l81 307q-26 2 -41 2zM402 653l-80 -304q176 18 176 169q0 64 -23.5 95t-72.5 40zM203 335l-86 -322h97l84 321q-11 1 -34 1h-61zM448 192q0 68 -33.5 100.5t-96.5 39.5l-84 -319h22q96 0 144 50.5t48 128.5z" />
    <glyph glyph-name="Wgrave" unicode="&#x1e80;" horiz-adv-x="876" 
d="M530 860l44 -120h-4l-123 115l1 5h82zM808 692l3 8h182l-3 -8q-34 -1 -60.5 -26t-60.5 -84l-340 -592h-4l-28 485l-279 -485h-2l-35 598q-4 61 -14.5 82t-41.5 22l2 8h203l-3 -8q-48 -2 -64 -18.5t-13 -70.5l23 -477l222 384l-5 89q-3 52 -18.5 72t-53.5 21l3 8h218
l-3 -8q-45 -2 -62 -17t-15 -60l25 -488l260 452q29 52 29 73q0 38 -65 40z" />
    <glyph glyph-name="wgrave" unicode="&#x1e81;" horiz-adv-x="657" 
d="M383 535h-10l-136 160l2 5h79zM519 466l75 43q46 -51 46 -123q0 -189 -280 -403l-12 8v250q-35 -81 -82.5 -136.5t-135.5 -121.5l-12 8l-13 394q-2 91 -74 65l1 8l135 51l15 -469q88 80 124.5 158t36.5 139q0 40 -16 75t-44 49v5l75 43q47 -47 49 -152l5 -317
q90 78 128 152.5t38 133.5q0 44 -15.5 82t-43.5 53v5z" />
    <glyph glyph-name="Wacute" unicode="&#x1e82;" horiz-adv-x="876" 
d="M760 868l-1 -5l-185 -123h-4l108 128h82zM808 692l3 8h182l-3 -8q-34 -1 -60.5 -26t-60.5 -84l-340 -592h-4l-28 485l-279 -485h-2l-35 598q-4 61 -14.5 82t-41.5 22l2 8h203l-3 -8q-48 -2 -64 -18.5t-13 -70.5l23 -477l222 384l-5 89q-3 52 -18.5 72t-53.5 21l3 8h218
l-3 -8q-45 -2 -62 -17t-15 -60l25 -488l260 452q29 52 29 73q0 38 -65 40z" />
    <glyph glyph-name="wacute" unicode="&#x1e83;" horiz-adv-x="657" 
d="M605 695l-222 -160h-10l155 165h79zM519 466l75 43q46 -51 46 -123q0 -189 -280 -403l-12 8v250q-35 -81 -82.5 -136.5t-135.5 -121.5l-12 8l-13 394q-2 91 -74 65l1 8l135 51l15 -469q88 80 124.5 158t36.5 139q0 40 -16 75t-44 49v5l75 43q47 -47 49 -152l5 -317
q90 78 128 152.5t38 133.5q0 44 -15.5 82t-43.5 53v5z" />
    <glyph glyph-name="Wdieresis" unicode="&#x1e84;" horiz-adv-x="876" 
d="M473 762q-21 0 -35.5 14t-14.5 34t14.5 35t35.5 15q20 0 34.5 -14.5t14.5 -34.5t-14.5 -34.5t-34.5 -14.5zM690 762q-20 0 -34.5 14t-14.5 34t14.5 35t34.5 15q21 0 35.5 -14.5t14.5 -34.5t-14.5 -34.5t-35.5 -14.5zM808 692l3 8h182l-3 -8q-34 -1 -60.5 -26t-60.5 -84
l-340 -592h-4l-28 485l-279 -485h-2l-35 598q-4 61 -14.5 82t-41.5 22l2 8h203l-3 -8q-48 -2 -64 -18.5t-13 -70.5l23 -477l222 384l-5 89q-3 52 -18.5 72t-53.5 21l3 8h218l-3 -8q-45 -2 -62 -17t-15 -60l25 -488l260 452q29 52 29 73q0 38 -65 40z" />
    <glyph glyph-name="wdieresis" unicode="&#x1e85;" horiz-adv-x="657" 
d="M322 588q-20 0 -34.5 14t-14.5 33q0 20 14.5 34.5t34.5 14.5q19 0 33.5 -14.5t14.5 -33.5q0 -20 -14 -34t-34 -14zM488 588q-20 0 -34 14t-14 33q0 20 14.5 34.5t33.5 14.5q20 0 34.5 -14.5t14.5 -33.5q0 -20 -14.5 -34t-34.5 -14zM519 466l75 43q46 -51 46 -123
q0 -189 -280 -403l-12 8v250q-35 -81 -82.5 -136.5t-135.5 -121.5l-12 8l-13 394q-2 91 -74 65l1 8l135 51l15 -469q88 80 124.5 158t36.5 139q0 40 -16 75t-44 49v5l75 43q47 -47 49 -152l5 -317q90 78 128 152.5t38 133.5q0 44 -15.5 82t-43.5 53v5z" />
    <glyph glyph-name="uni1E9E" unicode="&#x1e9e;" horiz-adv-x="668" 
d="M402 371v-3q214 0 214 -158q0 -101 -77.5 -164t-186.5 -63q-90 0 -158 40l45 169h8q-9 -91 20.5 -142t91.5 -51q73 0 129 62t56 153q0 73 -42.5 106.5t-133.5 33.5l3 11l216 174q-1 71 -45 115t-111 44q-78 0 -132 -63t-84 -174l-124 -461h-147l2 8q51 3 69.5 18.5
t33.5 70.5l91 339q37 140 109.5 210.5t186.5 70.5q86 0 142 -38.5t70 -109.5z" />
    <glyph glyph-name="uni1EA0" unicode="&#x1ea0;" horiz-adv-x="667" 
d="M488 700l38 -602q4 -56 16.5 -72.5t50.5 -17.5l-2 -8h-224l1 8q54 1 70.5 20.5t14.5 75.5l-8 159h-246l-87 -150q-25 -43 -25.5 -66.5t16.5 -30.5t56 -8l-2 -8h-213l2 8q48 1 76.5 23t63.5 81l343 588h59zM426 656l-218 -377h236zM240 -33q22 0 38 -15.5t16 -38.5
q0 -21 -16 -36.5t-38 -15.5q-21 0 -36.5 15.5t-15.5 36.5q0 22 15.5 38t36.5 16z" />
    <glyph glyph-name="uni1EA1" unicode="&#x1ea1;" horiz-adv-x="523" 
d="M369 43q38 0 111 95l8 -5q-103 -148 -167 -148q-38 0 -38 43q0 22 15 65l57 175q-75 -121 -149 -202t-121 -81q-31 0 -51 22.5t-20 67.5q0 86 61.5 198t163.5 183q28 19 67.5 34t68.5 15q32 0 52 -17l5 15l70 23l-147 -454q-9 -29 14 -29zM117 43q71 0 249 259l44 134
q-35 34 -114 34q-79 -26 -145.5 -140t-66.5 -234q0 -53 33 -53zM185 -33q23 0 38.5 -15.5t15.5 -38.5q0 -21 -16 -36.5t-38 -15.5q-21 0 -36.5 15.5t-15.5 36.5q0 22 15.5 38t36.5 16z" />
    <glyph glyph-name="uni1EB8" unicode="&#x1eb8;" horiz-adv-x="557" 
d="M423 0h-456l2 8q50 2 68.5 17t31.5 62l140 525q13 42 1.5 60t-60.5 20l3 8h428l-33 -215h-7q3 57 2 95t-15 61.5t-46 33.5t-90 10h-96l-85 -319h100q54 0 80 28t57 110h7l-77 -292h-7q12 82 -1 111t-73 29h-89l-90 -337h110q105 0 159.5 47.5t109.5 191.5h7zM195 -139
q-21 0 -36.5 15.5t-15.5 36.5q0 22 15.5 38t36.5 16q23 0 38.5 -15.5t15.5 -38.5q0 -21 -16 -36.5t-38 -15.5z" />
    <glyph glyph-name="uni1EB9" unicode="&#x1eb9;" horiz-adv-x="417" 
d="M404 450q0 -67 -90 -125.5t-227 -73.5q-8 -35 -8 -70q0 -69 25 -102.5t79 -33.5q94 0 162 114l8 -4q-39 -73 -98 -121.5t-123 -48.5q-48 0 -77.5 33t-29.5 102q0 95 46 184.5t120.5 145t153.5 55.5q25 0 42 -13.5t17 -41.5zM283 480q-56 -15 -114.5 -74t-79.5 -144
q41 7 79.5 19t77.5 31.5t63 50.5t24 69q0 20 -12 34t-38 14zM129 -33q23 0 38.5 -15.5t15.5 -38.5q0 -21 -16 -36.5t-38 -15.5q-21 0 -36.5 15.5t-15.5 36.5q0 22 15.5 38t36.5 16z" />
    <glyph glyph-name="uni1EBC" unicode="&#x1ebc;" horiz-adv-x="557" 
d="M498 766q-31 0 -69 21.5t-70 21.5q-47 0 -68 -52h-4q12 49 35.5 71.5t51.5 22.5q31 0 69 -21.5t70 -21.5q47 0 68 52h4q-12 -49 -35.5 -71.5t-51.5 -22.5zM423 0h-456l2 8q50 2 68.5 17t31.5 62l140 525q13 42 1.5 60t-60.5 20l3 8h428l-33 -215h-7q3 57 2 95t-15 61.5
t-46 33.5t-90 10h-96l-85 -319h100q54 0 80 28t57 110h7l-77 -292h-7q12 82 -1 111t-73 29h-89l-90 -337h110q105 0 159.5 47.5t109.5 191.5h7z" />
    <glyph glyph-name="uni1EBD" unicode="&#x1ebd;" horiz-adv-x="417" 
d="M488 676h4q-12 -49 -35.5 -71.5t-51.5 -22.5q-31 0 -69 21.5t-70 21.5q-47 0 -68 -52h-4q12 49 35.5 71.5t51.5 22.5q31 0 69 -21.5t70 -21.5q47 0 68 52zM345 505q25 0 42 -13.5t17 -41.5q0 -67 -90 -125.5t-227 -73.5q-8 -35 -8 -70q0 -69 25 -102.5t79 -33.5
q94 0 162 114l8 -4q-39 -73 -98 -121.5t-123 -48.5q-48 0 -77.5 33t-29.5 102q0 95 46 184.5t120.5 145t153.5 55.5zM89 262q41 7 79.5 19t77.5 31.5t63 50.5t24 69q0 20 -12 34t-38 14q-56 -15 -114.5 -74t-79.5 -144z" />
    <glyph glyph-name="uni1ECA" unicode="&#x1eca;" horiz-adv-x="288" 
d="M153 700h226l-3 -8q-50 -2 -68.5 -16.5t-31.5 -62.5l-137 -516q-14 -54 -4 -70.5t59 -18.5l-2 -8h-226l2 8q49 2 68 16.5t32 61.5l143 537q10 37 -3 52t-58 17zM55 -139q-21 0 -36.5 15.5t-15.5 36.5q0 22 15.5 38t36.5 16q23 0 38.5 -15.5t15.5 -38.5q0 -21 -16 -36.5
t-38 -15.5z" />
    <glyph glyph-name="uni1ECB" unicode="&#x1ecb;" horiz-adv-x="281" 
d="M229 588q-21 0 -34.5 14t-13.5 35q0 20 13.5 33.5t34.5 13.5t35 -14t14 -34t-14 -34t-35 -14zM72 -12q-35 0 -35 38q0 13 4 25l102 363q8 29 -4 40.5t-46 6.5l-20 -3l2 10l153 37l-118 -423q-11 -36 19 -36q35 0 110 92l7 -6q-109 -144 -174 -144zM44 -139
q-21 0 -36.5 15.5t-15.5 36.5q0 22 15.5 38t36.5 16q22 0 38 -15.5t16 -38.5q0 -21 -16 -36.5t-38 -15.5z" />
    <glyph glyph-name="uni1ECC" unicode="&#x1ecc;" horiz-adv-x="730" 
d="M330 -20q-52 0 -97.5 14.5t-85.5 45.5t-63.5 86.5t-23.5 129.5q0 63 16.5 127.5t50 125t79.5 107.5t111 75.5t139 28.5q52 0 97.5 -14.5t85.5 -45.5t63.5 -86.5t23.5 -129.5q0 -63 -16.5 -127.5t-50 -125t-79.5 -107.5t-111 -75.5t-139 -28.5zM326 0q71 0 128 34t91 84
t57 113.5t31.5 118t8.5 100.5q0 250 -182 250q-71 0 -128 -34t-91 -84t-57 -113.5t-31.5 -118t-8.5 -100.5q0 -250 182 -250zM275 -139q-21 0 -36.5 15.5t-15.5 36.5q0 22 15.5 38t36.5 16q23 0 38.5 -15.5t15.5 -38.5q0 -21 -16 -36.5t-38 -15.5z" />
    <glyph glyph-name="uni1ECD" unicode="&#x1ecd;" horiz-adv-x="476" 
d="M163 -15q-59 0 -101 35t-42 111q0 72 35 157t105 151t153 66q59 0 101 -35t42 -111q0 -72 -35 -157t-105 -151t-153 -66zM169 0q58 0 108 58t77 142.5t27 167.5q0 122 -74 122q-58 0 -108 -58t-77 -142.5t-27 -167.5q0 -122 74 -122zM148 -139q-21 0 -36.5 15.5
t-15.5 36.5q0 22 15.5 38t36.5 16q22 0 38 -15.5t16 -38.5q0 -21 -16 -36.5t-38 -15.5z" />
    <glyph glyph-name="uni1EE4" unicode="&#x1ee4;" horiz-adv-x="615" 
d="M524 700h203l-3 -8q-43 -2 -67.5 -26t-39.5 -81l-81 -311q-10 -38 -15.5 -57t-18.5 -56t-25 -57t-33.5 -47.5t-45 -41.5t-58 -24.5t-75.5 -10.5q-92 0 -143.5 43.5t-51.5 126.5q0 50 18 116l93 350q6 24 6 36q0 20 -13 29.5t-44 10.5l3 8h214l-3 -8q-45 -3 -62 -17.5
t-30 -61.5l-89 -335q-18 -69 -18 -117q0 -70 37 -106t106 -36q49 0 87 19.5t64.5 58t43.5 80.5t33 102l81 304q7 28 7 45q0 61 -83 64zM224 -139q-21 0 -36.5 15.5t-15.5 36.5q0 22 15.5 38t36.5 16q22 0 38 -15.5t16 -38.5q0 -21 -16 -36.5t-38 -15.5z" />
    <glyph glyph-name="uni1EE5" unicode="&#x1ee5;" horiz-adv-x="542" 
d="M500 138l7 -6q-49 -66 -95 -105t-77 -39q-24 0 -32 20t0 43l55 208q-96 -142 -158.5 -208t-116.5 -66q-21 0 -35.5 12.5t-14.5 37.5q0 26 28 115l84 264q11 35 -2 48.5t-48 8.5l-20 -3l2 10l155 27q-129 -426 -129 -447q0 -22 23 -22q69 0 241 253l53 201h61l-110 -408
q-9 -36 20 -36q34 0 109 92zM169 -33q23 0 38.5 -15.5t15.5 -38.5q0 -21 -16 -36.5t-38 -15.5q-21 0 -36.5 15.5t-15.5 36.5q0 22 15.5 38t36.5 16z" />
    <glyph glyph-name="Ygrave" unicode="&#x1ef2;" horiz-adv-x="561" 
d="M427 740h-4l-123 115l1 5h82zM494 692l3 8h176l-3 -8q-35 -2 -61.5 -21t-60.5 -65l-217 -291l-60 -224q-11 -50 6.5 -65.5t85.5 -17.5l-2 -8h-294l2 8q72 2 98 19.5t41 74.5l56 210l-63 288q-12 54 -26 72t-45 20l3 8h197l-3 -8q-37 -1 -52 -12t-15 -34q0 -19 6 -43
l61 -268l188 252q41 55 41 75q0 31 -62 30z" />
    <glyph glyph-name="ygrave" unicode="&#x1ef3;" horiz-adv-x="452" 
d="M174 700l65 -165h-10l-136 160l2 5h79zM310 473l81 36q45 -54 45 -125q0 -168 -250 -420q-84 -92 -151.5 -135.5t-138.5 -43.5q-37 0 -59 14l22 89h5q31 -35 97 -35q98 0 179 87l-55 445q-2 15 -4 24.5t-7 22.5t-12.5 16.5t-20.5 7t-30 -5.5l1 8l126 51l62 -510
q175 166 175 325q0 51 -18 89.5t-47 54.5v5z" />
    <glyph glyph-name="uni1EF8" unicode="&#x1ef8;" horiz-adv-x="561" 
d="M505 766q-31 0 -69 21.5t-70 21.5q-47 0 -68 -52h-4q12 49 35.5 71.5t51.5 22.5q31 0 69 -21.5t70 -21.5q47 0 68 52h4q-12 -49 -35.5 -71.5t-51.5 -22.5zM494 692l3 8h176l-3 -8q-35 -2 -61.5 -21t-60.5 -65l-217 -291l-60 -224q-11 -50 6.5 -65.5t85.5 -17.5l-2 -8
h-294l2 8q72 2 98 19.5t41 74.5l56 210l-63 288q-12 54 -26 72t-45 20l3 8h197l-3 -8q-37 -1 -52 -12t-15 -34q0 -19 6 -43l61 -268l188 252q41 55 41 75q0 31 -62 30z" />
    <glyph glyph-name="uni1EF9" unicode="&#x1ef9;" horiz-adv-x="452" 
d="M181 625q-47 0 -68 -52h-4q12 49 35.5 71.5t51.5 22.5q31 0 69 -21.5t70 -21.5q47 0 68 52h4q-12 -49 -35.5 -71.5t-51.5 -22.5q-31 0 -69 21.5t-70 21.5zM310 473l81 36q45 -54 45 -125q0 -168 -250 -420q-84 -92 -151.5 -135.5t-138.5 -43.5q-37 0 -59 14l22 89h5
q31 -35 97 -35q98 0 179 87l-55 445q-2 15 -4 24.5t-7 22.5t-12.5 16.5t-20.5 7t-30 -5.5l1 8l126 51l62 -510q175 166 175 325q0 51 -18 89.5t-47 54.5v5z" />
    <glyph glyph-name="uni2002" unicode="&#x2002;" horiz-adv-x="500" 
 />
    <glyph glyph-name="uni2003" unicode="&#x2003;" horiz-adv-x="1000" 
 />
    <glyph glyph-name="uni2004" unicode="&#x2004;" horiz-adv-x="333" 
 />
    <glyph glyph-name="uni2005" unicode="&#x2005;" horiz-adv-x="250" 
 />
    <glyph glyph-name="uni2007" unicode="&#x2007;" 
 />
    <glyph glyph-name="uni2008" unicode="&#x2008;" horiz-adv-x="205" 
 />
    <glyph glyph-name="uni2009" unicode="&#x2009;" horiz-adv-x="125" 
 />
    <glyph glyph-name="uni200A" unicode="&#x200a;" horiz-adv-x="42" 
 />
    <glyph glyph-name="uni200B" unicode="&#x200b;" horiz-adv-x="0" 
 />
    <glyph glyph-name="endash" unicode="&#x2013;" horiz-adv-x="566" 
d="M535 298h-475l3 15h475z" />
    <glyph glyph-name="emdash" unicode="&#x2014;" horiz-adv-x="831" 
d="M800 298h-740l3 15h740z" />
    <glyph glyph-name="quoteleft" unicode="&#x2018;" horiz-adv-x="237" 
d="M298 730l1 -7q-49 -5 -73.5 -28.5t-24.5 -47.5q0 -28 34 -43q33 -15 33 -48q0 -22 -16 -37t-40 -15t-40.5 18.5t-16.5 57.5q0 54 37 99t106 51z" />
    <glyph glyph-name="quoteright" unicode="&#x2019;" horiz-adv-x="237" 
d="M138 504l-1 7q49 5 73.5 28.5t24.5 47.5q0 28 -34 43q-33 15 -33 48q0 22 16 37t40 15t40.5 -18.5t16.5 -57.5q0 -54 -37 -99t-106 -51z" />
    <glyph glyph-name="quotesinglbase" unicode="&#x201a;" horiz-adv-x="237" 
d="M-37 -149l-1 7q49 5 73.5 28.5t24.5 47.5q0 28 -34 43q-33 15 -33 48q0 22 16 37t40 15t40.5 -18.5t16.5 -57.5q0 -54 -37 -99t-106 -51z" />
    <glyph glyph-name="quotedblleft" unicode="&#x201c;" horiz-adv-x="387" 
d="M298 730l1 -7q-49 -5 -73.5 -28.5t-24.5 -47.5q0 -28 34 -43q33 -15 33 -48q0 -22 -16 -37t-40 -15t-40.5 18.5t-16.5 57.5q0 54 37 99t106 51zM448 730l1 -7q-49 -5 -73.5 -28.5t-24.5 -47.5q0 -28 34 -43q33 -15 33 -48q0 -22 -16 -37t-40 -15t-40.5 18.5t-16.5 57.5
q0 54 37 99t106 51z" />
    <glyph glyph-name="quotedblright" unicode="&#x201d;" horiz-adv-x="376" 
d="M138 504l-1 7q49 5 73.5 28.5t24.5 47.5q0 28 -34 43q-33 15 -33 48q0 22 16 37t40 15t40.5 -18.5t16.5 -57.5q0 -54 -37 -99t-106 -51zM277 504l-1 7q49 5 73.5 28.5t24.5 47.5q0 28 -34 43q-33 15 -33 48q0 22 16 37t40 15t40.5 -18.5t16.5 -57.5q0 -54 -37 -99
t-106 -51z" />
    <glyph glyph-name="quotedblbase" unicode="&#x201e;" horiz-adv-x="376" 
d="M-24 -138l-1 7q49 5 73.5 28.5t24.5 47.5q0 28 -34 43q-33 15 -33 48q0 22 16 37t40 15t40.5 -18.5t16.5 -57.5q0 -54 -37 -99t-106 -51zM115 -138l-1 7q49 5 73.5 28.5t24.5 47.5q0 28 -34 43q-33 15 -33 48q0 22 16 37t40 15t40.5 -18.5t16.5 -57.5q0 -54 -37 -99
t-106 -51z" />
    <glyph glyph-name="dagger" unicode="&#x2020;" horiz-adv-x="466" 
d="M150 -85h-6q28 112 37.5 162t8 98t-21.5 84l1 5q29 6 48 28.5t32 69.5l14 50q12 46 0.5 58.5t-59.5 12.5h-13q-47 0 -68.5 -17t-35.5 -64h-5l51 190h5q-10 -47 2.5 -64t58.5 -17h13q49 0 66 11t28 55l6 24q12 47 0.5 63.5t-57.5 18.5l1 5h190l-1 -5q-46 -2 -66.5 -19
t-33.5 -63l-7 -24q-12 -44 -0.5 -55t60.5 -11h13q46 0 67 17t36 64h5l-51 -190h-5q10 47 -2 64t-58 17h-13q-48 0 -66 -13t-30 -58l-13 -50q-12 -50 -5 -71t33 -27l-1 -5q-56 -51 -83.5 -115.5t-74.5 -228.5z" />
    <glyph glyph-name="daggerdbl" unicode="&#x2021;" horiz-adv-x="468" 
d="M248 -60h-190l1 5q47 2 67.5 19t33.5 63l7 24q12 44 0.5 55t-60.5 11h-13q-46 0 -67 -17t-36 -64h-5l50 190h5q-10 -47 2.5 -64t58.5 -17h13q48 0 65.5 13t29.5 58q16 60 -6.5 77.5t-85.5 17.5l2 6q63 0 94.5 17.5t48.5 77.5q11 46 0 58.5t-59 12.5h-13q-47 0 -68.5 -17
t-35.5 -64h-5l51 190h5q-10 -47 2.5 -64t58.5 -17h13q49 0 66 11t28 55l6 24q12 47 0.5 63.5t-57.5 18.5l1 5h190l-1 -5q-46 -2 -66.5 -19t-33.5 -63l-7 -24q-12 -44 -0.5 -55t60.5 -11h13q46 0 67 17t36 64h5l-51 -190h-5q10 47 -2 64t-58 17h-13q-56 0 -79 -19.5
t-23 -86.5q0 -37 23.5 -48.5t74.5 -11.5l-2 -6q-88 0 -118 -24t-30 -104q0 -23 14 -30.5t51 -7.5h13q46 0 67 17t36 64h5l-50 -190h-5q10 47 -2.5 64t-58.5 17h-13q-49 0 -65.5 -11t-28.5 -55l-7 -24q-13 -47 -1 -63.5t58 -18.5z" />
    <glyph glyph-name="bullet" unicode="&#x2022;" horiz-adv-x="600" 
d="M329 273q-34 0 -57.5 23.5t-23.5 57.5t23.5 57.5t57.5 23.5t57.5 -23.5t23.5 -57.5t-23.5 -57.5t-57.5 -23.5z" />
    <glyph glyph-name="ellipsis" unicode="&#x2026;" horiz-adv-x="565" 
d="M47 -12q-22 0 -36.5 14.5t-14.5 35.5t14.5 35.5t36.5 14.5t36.5 -14.5t14.5 -35.5t-14.5 -35.5t-36.5 -14.5zM227 -12q-22 0 -36.5 14.5t-14.5 35.5t14.5 35.5t36.5 14.5t36.5 -14.5t14.5 -35.5t-14.5 -35.5t-36.5 -14.5zM407 -12q-22 0 -36.5 14.5t-14.5 35.5t14.5 35.5
t36.5 14.5t36.5 -14.5t14.5 -35.5t-14.5 -35.5t-36.5 -14.5z" />
    <glyph glyph-name="perthousand" unicode="&#x2030;" horiz-adv-x="1053" 
d="M696 682h22l-648 -722h-22zM208 315q-48 0 -79 30t-31 87q0 47 19.5 98.5t63 91.5t99.5 40q48 0 79 -30.5t31 -87.5q0 -47 -19.5 -98t-63 -91t-99.5 -40zM207 328q38 0 69 44t45.5 97t14.5 96q0 83 -55 83q-38 0 -69.5 -44t-46 -97t-14.5 -96q0 -83 56 -83zM814 -19
q-48 0 -79 30t-31 87q0 47 19.5 98.5t63 91.5t99.5 40q48 0 79 -30.5t31 -87.5q0 -47 -19.5 -98t-63 -91t-99.5 -40zM486 -21q-48 0 -79 30t-31 87q0 47 19.5 98.5t63 91.5t99.5 40q48 0 79 -30.5t31 -87.5q0 -47 -19.5 -98t-63 -91t-99.5 -40zM813 -6q38 0 69 44t45.5 97
t14.5 96q0 83 -55 83q-38 0 -69.5 -44t-46 -97t-14.5 -96q0 -83 56 -83zM485 -8q38 0 69 44t45.5 97t14.5 96q0 83 -55 83q-38 0 -69.5 -44t-46 -97t-14.5 -96q0 -83 56 -83z" />
    <glyph glyph-name="guilsinglleft" unicode="&#x2039;" horiz-adv-x="330" 
d="M213 68l-5 -3l-143 200l2 6l249 200l3 -3l-186 -205z" />
    <glyph glyph-name="guilsinglright" unicode="&#x203a;" horiz-adv-x="331" 
d="M130 468l5 3l143 -200l-2 -6l-249 -200l-3 3l186 205z" />
    <glyph glyph-name="fraction" unicode="&#x2044;" horiz-adv-x="43" 
d="M355 682h22l-648 -722h-22z" />
    <glyph glyph-name="uni2070" unicode="&#x2070;" horiz-adv-x="520" 
d="M309 318q-69 0 -117 44.5t-48 141.5q0 70 25.5 138t81.5 117t129 49q69 0 117 -45t48 -142q0 -70 -25.5 -138t-81.5 -116.5t-129 -48.5zM307 327q41 0 74 22.5t53 56.5t33.5 77t18.5 80.5t5 69.5q0 165 -108 165q-51 0 -89 -33t-57.5 -84t-28.5 -99t-9 -90
q0 -165 108 -165z" />
    <glyph glyph-name="uni2074" unicode="&#x2074;" horiz-adv-x="439" 
d="M385 328h-192l1 5q48 2 68 13t27 41l24 91h-213l2 8l328 311h24l-82 -299h93l-6 -20h-91l-24 -89q-8 -31 1 -42.5t41 -13.5zM384 742l-253 -244h187z" />
    <glyph glyph-name="uni2075" unicode="&#x2075;" horiz-adv-x="415" 
d="M217 318q-112 0 -133 78l9 3q8 -33 36.5 -50.5t71.5 -17.5q71 0 106.5 41.5t35.5 107.5q0 60 -28 88t-72 28q-35 0 -73 -22l-4 4l113 219h177q48 0 63 21h5l-43 -71h-215l-86 -161q36 20 81 20q59 0 100.5 -28.5t41.5 -95.5q0 -23 -10.5 -49.5t-31.5 -53t-58.5 -44
t-85.5 -17.5z" />
    <glyph glyph-name="uni2076" unicode="&#x2076;" horiz-adv-x="447" 
d="M416 796q-55 0 -99.5 -24t-72.5 -65t-44.5 -89.5t-21.5 -102.5q43 100 140 100q56 0 96 -32.5t40 -94.5q0 -67 -44.5 -118.5t-127.5 -51.5q-71 0 -113.5 44t-42.5 128q0 42 10.5 85.5t33.5 85.5t55.5 74.5t80.5 52.5t105 20q58 0 88 -16l-7 -9q-20 13 -76 13zM300 599
q-44 0 -76 -29.5t-48 -76.5v-17q0 -149 105 -149q34 0 58.5 14t36 38t16.5 47t5 48q0 62 -26.5 93.5t-70.5 31.5z" />
    <glyph glyph-name="uni2077" unicode="&#x2077;" horiz-adv-x="414" 
d="M237 328h-70q27 138 98.5 235.5t191.5 183.5h-207q-46 0 -71 -34h-5l50 84h305l-2 -7q-129 -83 -204 -206t-86 -256z" />
    <glyph glyph-name="uni2078" unicode="&#x2078;" horiz-adv-x="465" 
d="M512 699q0 -93 -155 -120l32 -25q69 -52 69 -109q0 -21 -8.5 -41.5t-27.5 -40.5t-56 -32.5t-87 -12.5q-31 0 -58 5t-53 17t-41 36t-15 57q0 102 169 133l-21 16q-60 46 -60 107q0 51 41.5 85t116.5 34q63 0 108.5 -26t45.5 -83zM301 622l50 -39q106 22 106 120
q0 49 -29 72t-72 23q-49 0 -76 -27t-27 -65q0 -48 48 -84zM403 427q0 28 -13 46.5t-41 40.5l-61 47q-119 -26 -119 -129q0 -51 29.5 -78.5t84.5 -27.5q59 0 89.5 29t30.5 72z" />
    <glyph glyph-name="uni2079" unicode="&#x2079;" horiz-adv-x="448" 
d="M334 807q72 0 114.5 -44t42.5 -128q0 -43 -10.5 -85.5t-35 -85t-60 -75t-90 -52.5t-119.5 -20q-60 0 -88 16l7 9q18 -13 76 -13q65 0 116 24.5t82 66t48.5 90t21.5 102.5q-43 -102 -141 -102q-56 0 -95.5 32.5t-39.5 94.5q0 67 44.5 118.5t126.5 51.5zM317 526
q45 0 77 30t47 78v15q0 149 -106 149q-34 0 -58 -14t-35.5 -38t-16.5 -47t-5 -48q0 -62 26 -93.5t71 -31.5z" />
    <glyph glyph-name="uni207A" unicode="&#x207a;" horiz-adv-x="487" 
d="M327 542h139v-12h-138l1 -133h-13l-1 133h-139v12h138l-1 133h13z" />
    <glyph glyph-name="uni207B" unicode="&#x207b;" horiz-adv-x="487" 
d="M467 530h-291v12h291v-12z" />
    <glyph glyph-name="uni207C" unicode="&#x207c;" horiz-adv-x="518" 
d="M481 585h-291v12h291v-12zM482 474h-291v12h291v-12z" />
    <glyph glyph-name="uni207D" unicode="&#x207d;" horiz-adv-x="247" 
d="M249 227l-3 -2q-43 32 -72 103.5t-29 158.5q0 122 66 217.5t201 150.5l2 -2q-227 -135 -227 -389q0 -164 62 -237z" />
    <glyph glyph-name="uni207E" unicode="&#x207e;" horiz-adv-x="247" 
d="M156 853l3 2q43 -32 72 -103.5t29 -158.5q0 -122 -66 -217.5t-201 -150.5l-2 2q227 135 227 389q0 164 -62 237z" />
    <glyph glyph-name="uni2080" unicode="&#x2080;" horiz-adv-x="520" 
d="M194 -111q-69 0 -117 45t-48 142q0 70 25.5 138t81.5 116.5t129 48.5q69 0 117 -44.5t48 -141.5q0 -70 -25.5 -138t-81.5 -117t-129 -49zM192 -101q41 0 74 22.5t53 56.5t33.5 77t18.5 80.5t5 69.5q0 165 -108 165q-51 0 -89 -33t-57.5 -84t-28.5 -99t-9 -90
q0 -165 108 -165z" />
    <glyph glyph-name="uni2081" unicode="&#x2081;" horiz-adv-x="350" 
d="M205 -100h-239l2 7q58 4 78.5 14.5t28.5 40.5l87 324q4 16 4 21q0 20 -27 20q-19 0 -58 -13v6l156 59h5l-113 -418q-3 -12 -3 -19q0 -18 17.5 -25t63.5 -10z" />
    <glyph glyph-name="uni2082" unicode="&#x2082;" horiz-adv-x="423" 
d="M276 -100h-318l1 6l95 64q141 95 193.5 153t52.5 128q0 101 -98 101q-46 0 -83 -31.5t-43 -86.5h-10q7 62 47 103.5t116 41.5q59 0 98.5 -27.5t39.5 -82.5q0 -57 -49 -112.5t-176 -140.5l-98 -65h184q39 0 63 13t45 42h4z" />
    <glyph glyph-name="uni2083" unicode="&#x2083;" horiz-adv-x="416" 
d="M112 -111q-50 0 -86.5 20t-50.5 58l9 3q24 -62 105 -62q66 0 100 38.5t34 90.5q0 56 -29 80.5t-75 24.5h-18l3 8h14q83 0 120.5 36.5t37.5 89.5q0 86 -96 86q-51 0 -81 -25.5t-39 -65.5l-7 2q9 47 47 76.5t103 29.5q56 0 96 -23.5t40 -75.5q0 -56 -47.5 -94t-135.5 -40
v-2q32 0 58 -7.5t48.5 -34t22.5 -70.5q0 -53 -43 -98t-130 -45z" />
    <glyph glyph-name="uni2084" unicode="&#x2084;" horiz-adv-x="439" 
d="M270 -100h-192l1 5q48 2 68 13t27 41l24 91h-213l2 8l328 311h24l-82 -299h93l-6 -20h-91l-24 -89q-8 -31 1 -42.5t41 -13.5zM269 314l-253 -244h187z" />
    <glyph glyph-name="uni2085" unicode="&#x2085;" horiz-adv-x="415" 
d="M102 -111q-112 0 -133 79l9 3q8 -33 36.5 -50.5t71.5 -17.5q71 0 106.5 41.5t35.5 107.5q0 60 -28 88t-72 28q-35 0 -73 -22l-4 4l113 219h177q48 0 63 21h5l-43 -71h-215l-86 -161q36 20 81 20q59 0 100.5 -28.5t41.5 -95.5q0 -23 -10.5 -49.5t-31.5 -53.5t-58.5 -44.5
t-85.5 -17.5z" />
    <glyph glyph-name="uni2086" unicode="&#x2086;" horiz-adv-x="447" 
d="M301 368q-55 0 -99.5 -24t-72.5 -65t-44.5 -89.5t-21.5 -102.5q43 100 140 100q56 0 96 -32.5t40 -94.5q0 -67 -44.5 -118.5t-127.5 -51.5q-71 0 -113.5 44t-42.5 128q0 42 10.5 85.5t33.5 85.5t55.5 74.5t80.5 52.5t105 20q58 0 88 -16l-7 -9q-20 13 -76 13zM185 171
q-44 0 -76 -29.5t-48 -76.5v-17q0 -149 105 -149q34 0 58.5 14t36 38t16.5 47t5 48q0 62 -26.5 93.5t-70.5 31.5z" />
    <glyph glyph-name="uni2087" unicode="&#x2087;" horiz-adv-x="414" 
d="M122 -100h-70q27 138 98.5 235.5t191.5 183.5h-207q-46 0 -71 -34h-5l50 84h305l-2 -7q-129 -83 -204 -206t-86 -256z" />
    <glyph glyph-name="uni2088" unicode="&#x2088;" horiz-adv-x="465" 
d="M397 271q0 -93 -155 -120l32 -25q69 -52 69 -109q0 -49 -42 -88.5t-137 -39.5q-42 0 -77 8.5t-62.5 36t-27.5 71.5q0 102 169 133l-21 16q-60 46 -60 107q0 51 41.5 85t116.5 34q63 0 108.5 -26t45.5 -83zM186 194l50 -39q106 22 106 120q0 49 -29 72t-72 23
q-49 0 -76 -27t-27 -65q0 -47 48 -84zM288 -1q0 28 -13 46.5t-41 40.5l-61 47q-119 -26 -119 -129q0 -51 29.5 -78.5t84.5 -27.5q59 0 89.5 29t30.5 72z" />
    <glyph glyph-name="uni2089" unicode="&#x2089;" horiz-adv-x="448" 
d="M219 379q72 0 114.5 -44t42.5 -128q0 -43 -10.5 -85.5t-35 -85t-60 -75t-90 -52.5t-119.5 -20q-60 0 -88 16l7 9q18 -13 76 -13q65 0 116 24.5t82 66t48.5 90t21.5 102.5q-43 -102 -141 -102q-56 0 -95.5 32.5t-39.5 94.5q0 67 44.5 118.5t126.5 51.5zM202 98q45 0 77 30
t47 78v15q0 149 -106 149q-34 0 -58 -14t-35.5 -38t-16.5 -47t-5 -48q0 -62 26 -93.5t71 -31.5z" />
    <glyph glyph-name="uni208A" unicode="&#x208a;" horiz-adv-x="487" 
d="M213 114h139v-12h-138l1 -133h-13l-1 133h-139v12h138l-1 133h13z" />
    <glyph glyph-name="uni208B" unicode="&#x208b;" horiz-adv-x="487" 
d="M352 102h-291v12h291v-12z" />
    <glyph glyph-name="uni208C" unicode="&#x208c;" horiz-adv-x="518" 
d="M367 157h-291v12h291v-12zM368 46h-291v12h291v-12z" />
    <glyph glyph-name="uni208D" unicode="&#x208d;" horiz-adv-x="247" 
d="M134 -201l-3 -2q-43 32 -72 103.5t-29 158.5q0 122 66 217.5t201 150.5l2 -2q-227 -135 -227 -389q0 -164 62 -237z" />
    <glyph glyph-name="uni208E" unicode="&#x208e;" horiz-adv-x="246" 
d="M41 425l3 2q43 -32 72 -103.5t29 -158.5q0 -122 -66 -217.5t-201 -150.5l-2 2q227 135 227 389q0 164 -62 237z" />
    <glyph glyph-name="Euro" unicode="&#x20ac;" horiz-adv-x="585" 
d="M431 685q110 0 181 -45l-60 -219h-7q20 121 -14.5 180.5t-127.5 59.5q-80 0 -150.5 -67t-98.5 -182h297l-5 -15h-295q-8 -40 -11 -76h286l-4 -15h-282q-1 -9 -1 -26q0 -107 48 -173.5t132 -66.5q34 0 66.5 11.5t71.5 51t64 103.5l8 -1q-82 -219 -257 -219
q-93 0 -145.5 64t-52.5 160q0 42 7 96h-44l4 15h43q9 45 19 76h-42l5 15h42q43 122 129.5 197.5t193.5 75.5z" />
    <glyph glyph-name="uni20B9" unicode="&#x20b9;" horiz-adv-x="499" 
d="M569 670l-4 -15h-259q113 -33 113 -135v-10h108l-4 -15h-106q-11 -73 -83 -121t-191 -48v-4q120 0 149 -109l27 -99q13 -50 34.5 -76t56.5 -30l-2 -8h-131q-1 3 -32 113l-26 92q-20 72 -41 94t-84 22h-32l4 14h25q238 0 255 160h-238l4 15h235v13q0 75 -32.5 103.5
t-126.5 28.5h-38l4 15h415z" />
    <glyph glyph-name="uni20BA" unicode="&#x20ba;" horiz-adv-x="519" 
d="M315 238l2 7h182l-2 -7q-30 -2 -41 -7.5t-11 -25.5q0 -93 -59 -149t-155 -56h-264l2 8q48 2 67 15t30 54l49 185l-80 -34l5 16l79 33l18 70l-79 -34l4 16l80 34l58 220q13 41 1 59t-59 20l3 8h218l-3 -8q-49 -2 -67.5 -16t-31.5 -58l-52 -197l209 88l-5 -16l-208 -88
l-18 -69l209 88l-5 -16l-208 -88l-74 -280h78q62 0 102 12t60.5 37.5t27.5 56.5t7 78q0 26 -12 34.5t-57 9.5z" />
    <glyph glyph-name="uni20BD" unicode="&#x20bd;" horiz-adv-x="533" 
d="M281 300h-84l-21 -81h210l-4 -15h-210l-31 -120q-11 -43 7.5 -58t86.5 -17l-2 -9h-267l2 9q53 2 73 17.5t34 67.5l29 110h-77l4 15h77l98 367q11 41 -1 57.5t-63 18.5l3 8h160q54 0 94.5 -5.5t83 -21t66 -49.5t23.5 -85q0 -90 -75.5 -149.5t-215.5 -59.5zM322 656h-30
l-91 -342h66q64 0 110.5 16t71 44.5t35.5 61t11 70.5q0 48 -14.5 79.5t-41.5 46t-54 19.5t-63 5z" />
    <glyph glyph-name="uni20BF" unicode="&#x20bf;" horiz-adv-x="572" 
d="M566 529q0 -76 -62.5 -128t-177.5 -60l-1 -1q191 -7 191 -148q0 -83 -66.5 -137.5t-194.5 -54.5h-5l-26 -100h-20l26 100h-70l-26 -100h-20l26 100h-173l2 8q56 3 74 17t30 58l132 504q11 41 -0.5 57t-62.5 19l3 7h172l21 80h20l-21 -80h7q32 0 63 -3l21 83h20l-22 -85
q140 -22 140 -136zM206 347h67q68 0 115 14.5t69.5 41t31.5 54t9 61.5q0 81 -37.5 110t-118.5 29h-54zM448 192q0 82 -47 112.5t-137 30.5h-61l-86 -322h139q96 0 144 50.5t48 128.5z" />
    <glyph glyph-name="uni2113" unicode="&#x2113;" horiz-adv-x="461" 
d="M516 629q0 -187 -346 -368q-17 -73 -17 -130q0 -106 76 -106q74 0 157 127l4 -2q-49 -87 -96 -125.5t-101 -38.5q-101 0 -101 126q0 51 13 116q-4 -2 -74 -34l-2 10q31 12 78 34q25 111 81 219.5t126.5 178.5t129.5 70q34 0 53 -20t19 -57zM418 689q-37 0 -86.5 -63.5
t-92.5 -159.5t-66 -192q127 76 206 174t79 185q0 56 -40 56z" />
    <glyph glyph-name="uni2116" unicode="&#x2116;" horiz-adv-x="1035" 
d="M782 700l-3 -8q-49 -2 -75.5 -27t-42.5 -84l-157 -591h-4l-262 622l-126 -482q-17 -70 -3 -94.5t68 -27.5l-2 -8h-208l2 8q50 2 77 28.5t45 93.5l135 509q-24 51 -76 53l3 8h133l236 -562l117 443q16 62 0.5 85.5t-69.5 25.5l3 8h209zM870 506q62 0 106 -33.5t44 -105.5
q0 -87 -61 -160.5t-161 -73.5q-62 0 -106 33.5t-44 105.5q0 87 61 160.5t161 73.5zM801 155q40 0 72 21.5t50 55t27.5 70.5t9.5 73q0 108 -91 108q-54 0 -92 -38t-52.5 -85.5t-14.5 -95.5q0 -109 91 -109zM913 0h-326l7 25h326z" />
    <glyph glyph-name="trademark" unicode="&#x2122;" horiz-adv-x="779" 
d="M423 680h2l-33 -124h-4q12 68 0 87t-53 19h-24l-77 -291q-7 -29 0 -37t39 -10l-1 -4h-141l1 4q32 2 44.5 10.5t19.5 35.5l77 292h-24q-42 0 -64 -19t-45 -87h-4l33 124h3q6 -10 31 -10h183q24 0 37 10zM530 310h-2l-38 329l-80 -257q-10 -36 -2 -46t42 -12l-1 -4h-117
l1 4q27 2 41.5 13t24.5 44l74 232q10 35 6 43t-28 10l1 4h73l32 -303l195 303h72l-2 -4q-24 -2 -33 -10.5t-16 -41.5l-52 -240q-6 -28 -1 -38.5t27 -11.5l-1 -4h-116l1 4q23 2 33.5 12.5t17.5 38.5l61 266z" />
    <glyph glyph-name="uni2126" unicode="&#x2126;" horiz-adv-x="664" 
d="M237 0h-223l37 138h5q-11 -46 -6 -62.5t34 -16.5h152l21 80q-77 16 -126 69.5t-49 149.5q0 62 24 125t67.5 116.5t113 87t151.5 33.5q46 0 87.5 -11.5t77.5 -35.5t57 -67.5t21 -101.5q0 -61 -22 -123t-62.5 -116t-104.5 -90t-141 -42l-19 -74h155q29 0 42.5 16t27.5 63h5
l-37 -138h-226l40 150q120 13 193 113.5t73 245.5q0 195 -163 195q-64 0 -115.5 -26.5t-82 -65.5t-51 -88.5t-28 -92t-7.5 -78.5q0 -177 120 -201l-25 -93z" />
    <glyph glyph-name="estimated" unicode="&#x212e;" horiz-adv-x="689" 
d="M666 307h-505l-44 -161q-3 -12 -3 -24q0 -45 57.5 -77t139.5 -32q143 0 252 108l20 -17q-112 -116 -274 -116q-115 0 -188 59t-73 180q0 51 15 105.5t47.5 108t77.5 95.5t111.5 68t143.5 26q113 0 175 -60t62 -162q0 -51 -14 -101zM210 483l-42 -152h426l43 166
q-52 108 -194 108q-82 0 -149.5 -32t-83.5 -90z" />
    <glyph glyph-name="uni2153" unicode="&#x2153;" horiz-adv-x="697" 
d="M264 298h-198l2 6q47 3 64 12t24 36l74 276q3 10 3 18q0 18 -21 18q-15 0 -48 -12v5l131 52h5l-97 -358q-3 -11 -3 -17q0 -15 13.5 -21t51.5 -9zM654 682h22l-648 -722h-22zM453 -9q-90 0 -113 66l7 3q20 -52 85 -52q55 0 83.5 33t28.5 78q0 47 -23.5 68t-60.5 21h-14
l1 6h12q69 0 100 32t31 77q0 72 -78 72q-81 0 -99 -77l-6 1q9 41 40.5 66.5t85.5 25.5q46 0 78.5 -20t32.5 -65q0 -47 -39.5 -80.5t-112.5 -34.5v-2q19 0 35 -4t33 -13.5t27 -29.5t10 -48q0 -46 -36 -84.5t-108 -38.5z" />
    <glyph glyph-name="uni2154" unicode="&#x2154;" horiz-adv-x="758" 
d="M328 298h-268l1 4l80 57q116 82 159 131t43 109q0 85 -79 85q-38 0 -68 -27t-36 -73h-8q6 54 40 89.5t96 35.5q48 0 80.5 -23.5t32.5 -70.5q0 -49 -41 -97t-147 -120l-80 -55h157q56 0 89 47h3zM715 682h22l-648 -722h-22zM514 -9q-90 0 -113 66l7 3q20 -52 85 -52
q55 0 83.5 33t28.5 78q0 47 -23.5 68t-60.5 21h-14l1 6h12q69 0 100 32t31 77q0 72 -78 72q-81 0 -99 -77l-6 1q9 41 40.5 66.5t85.5 25.5q46 0 78.5 -20t32.5 -65q0 -47 -39.5 -80.5t-112.5 -34.5v-2q19 0 35 -4t33 -13.5t27 -29.5t10 -48q0 -46 -36 -84.5t-108 -38.5z" />
    <glyph glyph-name="oneeighth" unicode="&#x215b;" horiz-adv-x="737" 
d="M265 304l-1 -6h-198l2 6q47 3 64 12t24 36l74 276q3 10 3 18q0 18 -21 18q-15 0 -48 -12v5l131 52h5l-97 -358q-3 -11 -3 -17q0 -15 13.5 -21t51.5 -9zM6 -40l648 722h22l-648 -722h-22zM688 319q0 -81 -128 -103l-1 1l28 -23q56 -45 56 -92q0 -42 -35 -76.5t-115 -34.5
q-35 0 -63.5 7.5t-51 30.5t-22.5 60q0 89 140 115l-17 13q-48 37 -48 91q0 44 34 73.5t97 29.5q52 0 89 -22t37 -70zM514 253l42 -34q86 19 86 104q0 41 -23.5 60.5t-57.5 19.5q-40 0 -62.5 -23.5t-22.5 -55.5q0 -41 38 -71zM595 85q0 40 -43 74l-50 40q-97 -22 -97 -112
q0 -42 23.5 -65.5t67.5 -23.5q49 0 74 25t25 62z" />
    <glyph glyph-name="threeeighths" unicode="&#x215c;" horiz-adv-x="793" 
d="M188 289q-90 0 -113 66l7 3q20 -52 85 -52q55 0 83.5 33t28.5 78q0 47 -23.5 68t-60.5 21h-14l1 6h12q69 0 100 32t31 77q0 72 -78 72q-81 0 -99 -77l-6 1q9 41 40.5 66.5t85.5 25.5q46 0 78.5 -20t32.5 -65q0 -47 -39.5 -80.5t-112.5 -34.5v-2q19 0 35 -4t33 -13.5
t27 -29.5t10 -48q0 -46 -36 -84.5t-108 -38.5zM62 -40l648 722h22l-648 -722h-22zM744 319q0 -81 -128 -103l-1 1l28 -23q56 -45 56 -92q0 -42 -35 -76.5t-115 -34.5q-35 0 -63.5 7.5t-51 30.5t-22.5 60q0 89 140 115l-17 13q-48 37 -48 91q0 44 34 73.5t97 29.5
q52 0 89 -22t37 -70zM570 253l42 -34q86 19 86 104q0 41 -23.5 60.5t-57.5 19.5q-40 0 -62.5 -23.5t-22.5 -55.5q0 -41 38 -71zM651 85q0 40 -43 74l-50 40q-97 -22 -97 -112q0 -42 23.5 -65.5t67.5 -23.5q49 0 74 25t25 62z" />
    <glyph glyph-name="fiveeighths" unicode="&#x215d;" horiz-adv-x="790" 
d="M178 289q-93 0 -109 68l8 2q6 -28 29.5 -43t57.5 -15q58 0 87.5 36.5t29.5 93.5q0 50 -22 73t-58 23q-27 0 -59 -18l-4 3l96 188h146q39 0 52 18h4l-37 -62h-178l-71 -137q30 18 68 18q48 0 81.5 -25t33.5 -81q0 -46 -40.5 -94t-114.5 -48zM59 -40l648 722h22l-648 -722
h-22zM741 319q0 -81 -128 -103l-1 1l28 -23q56 -45 56 -92q0 -42 -35 -76.5t-115 -34.5q-35 0 -63.5 7.5t-51 30.5t-22.5 60q0 89 140 115l-17 13q-48 37 -48 91q0 44 34 73.5t97 29.5q52 0 89 -22t37 -70zM567 253l42 -34q86 19 86 104q0 41 -23.5 60.5t-57.5 19.5
q-40 0 -62.5 -23.5t-22.5 -55.5q0 -41 38 -71zM648 85q0 40 -43 74l-50 40q-97 -22 -97 -112q0 -42 23.5 -65.5t67.5 -23.5q49 0 74 25t25 62z" />
    <glyph glyph-name="seveneighths" unicode="&#x215e;" horiz-adv-x="790" 
d="M196 298h-60q24 117 83 200.5t159 157.5h-169q-39 0 -59 -29h-4l42 73h252l-2 -6q-108 -72 -170 -177t-72 -219zM59 -40l648 722h22l-648 -722h-22zM741 319q0 -81 -128 -103l-1 1l28 -23q56 -45 56 -92q0 -42 -35 -76.5t-115 -34.5q-35 0 -63.5 7.5t-51 30.5t-22.5 60
q0 89 140 115l-17 13q-48 37 -48 91q0 44 34 73.5t97 29.5q52 0 89 -22t37 -70zM567 253l42 -34q86 19 86 104q0 41 -23.5 60.5t-57.5 19.5q-40 0 -62.5 -23.5t-22.5 -55.5q0 -41 38 -71zM648 85q0 40 -43 74l-50 40q-97 -22 -97 -112q0 -42 23.5 -65.5t67.5 -23.5
q49 0 74 25t25 62z" />
    <glyph glyph-name="arrowleft" unicode="&#x2190;" horiz-adv-x="820" 
d="M174 320h621l-8 -28h-621l119 -159l-2 -10l-207 183l311 183l-2 -10z" />
    <glyph glyph-name="arrowup" unicode="&#x2191;" horiz-adv-x="466" 
d="M373 750l109 -259h-10l-111 166l-200 -697h-28l198 695l-205 -164h-10z" />
    <glyph glyph-name="arrowright" unicode="&#x2192;" horiz-adv-x="821" 
d="M777 306l-311 -183l2 10l211 159h-621l8 28h621l-119 159l2 10z" />
    <glyph glyph-name="arrowdown" unicode="&#x2193;" horiz-adv-x="466" 
d="M194 55l205 164h10l-257 -259l-109 259h10l111 -166l200 697h28z" />
    <glyph glyph-name="arrowboth" unicode="&#x2194;" horiz-adv-x="988" 
d="M954 306l-311 -183l2 10l211 159h-700l119 -159l-2 -10l-207 183l311 183l-2 -10l-211 -159h700l-119 159l2 10z" />
    <glyph glyph-name="arrowupdn" unicode="&#x2195;" horiz-adv-x="471" 
d="M487 491h-10l-112 166l-171 -602l205 164h10l-257 -259l-109 259h10l111 -166l173 603l-206 -165h-10l257 259z" />
    <glyph glyph-name="uni2196" unicode="&#x2196;" horiz-adv-x="788" 
d="M233 644l445 -624l-25 -20l-447 623l-60 -228l-10 -7l36 312l297 -53l-9 -8z" />
    <glyph glyph-name="uni2197" unicode="&#x2197;" horiz-adv-x="814" 
d="M563 639l-4 8l327 53l-142 -312l-6 7l70 228l-804 -623l-14 20l803 624z" />
    <glyph glyph-name="uni2198" unicode="&#x2198;" horiz-adv-x="789" 
d="M639 78l60 227l10 7l-36 -312l-297 53l10 8l227 -5l-446 624l26 20z" />
    <glyph glyph-name="uni2199" unicode="&#x2199;" horiz-adv-x="813" 
d="M880 680l-803 -624l229 5l5 -8l-327 -53l142 312l6 -7l-70 -228l804 623z" />
    <glyph glyph-name="partialdiff" unicode="&#x2202;" horiz-adv-x="515" 
d="M389 715q71 0 105.5 -48t34.5 -154q0 -121 -58.5 -245t-149.5 -203.5t-181 -79.5q-61 0 -92 35t-31 100q0 82 42.5 147t109.5 103t139.5 58t143.5 23q3 36 3 74q0 150 -125 150q-48 0 -94.5 -37t-61.5 -99l-3 2q19 80 81 127t137 47zM161 2q97 0 184 127.5t106 311.5
q-94 -4 -175.5 -41.5t-136.5 -113.5t-55 -176q0 -108 77 -108z" />
    <glyph glyph-name="emptyset" unicode="&#x2205;" 
d="M561 599l9 -11l-71 -65q52 -63 52 -153q0 -98 -62.5 -165.5t-165.5 -67.5t-168 70l-71 -66l-9 11l71 65q-51 65 -51 153q0 98 62.5 165.5t165.5 67.5t167 -69zM113 370q0 -82 45 -141l320 294q-59 66 -155 66t-153 -63.5t-57 -155.5zM533 370q0 82 -46 142l-320 -294
q59 -67 156 -67q96 0 153 63.5t57 155.5z" />
    <glyph glyph-name="uni2206" unicode="&#x2206;" horiz-adv-x="735" 
d="M657 0h-711l-1 3l530 702h5l180 -702zM428 620l-456 -605h610z" />
    <glyph glyph-name="product" unicode="&#x220f;" horiz-adv-x="696" 
d="M187 0h-223l2 8q50 2 69.5 18.5t33.5 70.5l143 531q9 33 -4.5 47.5t-57.5 16.5l3 8h635l-3 -8q-46 -2 -65.5 -13.5t-28.5 -44.5l-147 -550q-12 -45 -0.5 -59.5t58.5 -16.5l-2 -8h-223l2 8q50 2 69 18.5t34 70.5l158 588h-348l-161 -601q-12 -45 -0.5 -59.5t58.5 -16.5z
" />
    <glyph glyph-name="summation" unicode="&#x2211;" horiz-adv-x="659" 
d="M530 -14h5l-37 -138h-572l-1 5l414 412l-170 431l4 4h526l-58 -214h-5q11 69 6.5 114.5t-41 67.5t-116.5 22h-227l149 -379v-2l-406 -402h459q29 0 42.5 16t27.5 63z" />
    <glyph glyph-name="minus" unicode="&#x2212;" 
d="M507 301h-400v15h400v-15z" />
    <glyph glyph-name="radical" unicode="&#x221a;" horiz-adv-x="811" 
d="M235 -15h-6l-61 470h-107l4 15h121l57 -449l502 745h201l-4 -15h-189z" />
    <glyph glyph-name="infinity" unicode="&#x221e;" horiz-adv-x="612" 
d="M130 143q-43 0 -68.5 26t-25.5 67q0 61 47.5 105t111.5 44q43 0 69 -28t50 -79q52 52 93 79.5t84 27.5q44 0 69.5 -26t25.5 -67q0 -61 -47.5 -105t-112.5 -44q-43 0 -69 28t-50 79q-52 -52 -93 -79.5t-84 -27.5zM133 158q27 0 58.5 17.5t50.5 34t60 54.5
q-17 31 -23.5 41.5t-21.5 30.5t-31 27t-36 7q-48 0 -92 -35t-44 -97q0 -39 23.5 -59.5t55.5 -20.5zM431 158q48 0 92 35t44 97q0 39 -23.5 59.5t-55.5 20.5q-27 0 -58 -17.5t-51 -34.5t-59 -54q15 -29 22.5 -41t22 -31t30.5 -26.5t36 -7.5z" />
    <glyph glyph-name="integral" unicode="&#x222b;" horiz-adv-x="500" 
d="M-18 -213q-65 0 -99 32l81 90l4 -1q-28 -109 28 -109q31 0 65.5 46.5t79.5 158.5l200 494q48 120 107 168.5t116 48.5q64 0 99 -32l-81 -90l-5 1q14 52 7 80.5t-35 28.5q-31 0 -64.5 -46.5t-79.5 -158.5l-201 -494q-48 -120 -106.5 -168.5t-115.5 -48.5z" />
    <glyph glyph-name="approxequal" unicode="&#x2248;" 
d="M409 333q-61 0 -128.5 30.5t-111.5 30.5q-71 0 -116 -55l-5 1q50 82 160 82q44 0 111.5 -30.5t128.5 -30.5q72 0 117 55l5 -1q-50 -82 -161 -82zM399 173q-61 0 -128.5 30.5t-111.5 30.5q-71 0 -116 -55l-5 1q50 82 160 82q44 0 111.5 -30.5t128.5 -30.5q72 0 117 55
l5 -1q-50 -82 -161 -82z" />
    <glyph glyph-name="notequal" unicode="&#x2260;" 
d="M506 402v-15h-149l-71 -144h220v-15h-228l-82 -167h-17l82 167h-153v15h161l71 144h-232v15h239l72 146h17l-72 -146h142z" />
    <glyph glyph-name="lessequal" unicode="&#x2264;" 
d="M471 82v-18l-400 208v10l400 208v-18l-376 -195zM471 15v-15h-400v15h400z" />
    <glyph glyph-name="greaterequal" unicode="&#x2265;" 
d="M490 272l-400 -208v18l376 195l-376 195v18l400 -208v-10zM490 0h-400v15h400v-15z" />
    <glyph glyph-name="uni2460" unicode="&#x2460;" horiz-adv-x="808" 
d="M376 -40q-43 0 -84 9t-83 32t-73.5 57.5t-51 89t-19.5 123.5q0 63 15.5 127t49.5 126t82 109.5t119.5 77t156.5 29.5q43 0 84 -9t83 -32t73.5 -57.5t51 -89t19.5 -123.5q0 -63 -15.5 -127t-49.5 -126t-82 -109.5t-119.5 -77t-156.5 -29.5zM377 -28q99 0 180 43t129.5 111
t74 146.5t25.5 156.5q0 66 -19.5 119.5t-50 86t-71 54.5t-80 30.5t-78.5 8.5q-99 0 -180 -43t-129.5 -111t-74 -146.5t-25.5 -156.5q0 -66 19.5 -119.5t50 -86t71 -54.5t80 -30.5t78.5 -8.5zM487 171h-180l2 5q43 3 58 11.5t22 32.5l67 251q3 9 3 16q0 17 -19 17
q-13 0 -44 -11v4l119 48h5l-88 -326q-3 -9 -3 -15q0 -14 12.5 -19.5t46.5 -8.5z" />
    <glyph glyph-name="uni2461" unicode="&#x2461;" horiz-adv-x="808" 
d="M376 -40q-43 0 -84 9t-83 32t-73.5 57.5t-51 89t-19.5 123.5q0 63 15.5 127t49.5 126t82 109.5t119.5 77t156.5 29.5q43 0 84 -9t83 -32t73.5 -57.5t51 -89t19.5 -123.5q0 -63 -15.5 -127t-49.5 -126t-82 -109.5t-119.5 -77t-156.5 -29.5zM377 -28q99 0 180 43t129.5 111
t74 146.5t25.5 156.5q0 66 -19.5 119.5t-50 86t-71 54.5t-80 30.5t-78.5 8.5q-99 0 -180 -43t-129.5 -111t-74 -146.5t-25.5 -156.5q0 -66 19.5 -119.5t50 -86t71 -54.5t80 -30.5t78.5 -8.5zM501 177h-243v4l73 51q106 75 145 120t39 99q0 77 -72 77q-34 0 -61.5 -24.5
t-33.5 -66.5h-7q6 49 36.5 81.5t87.5 32.5q43 0 73 -22t30 -64q0 -44 -37 -87.5t-134 -109.5l-73 -50h143q30 0 47.5 10t33.5 33h2z" />
    <glyph glyph-name="uni2462" unicode="&#x2462;" horiz-adv-x="808" 
d="M376 -40q-43 0 -84 9t-83 32t-73.5 57.5t-51 89t-19.5 123.5q0 63 15.5 127t49.5 126t82 109.5t119.5 77t156.5 29.5q43 0 84 -9t83 -32t73.5 -57.5t51 -89t19.5 -123.5q0 -63 -15.5 -127t-49.5 -126t-82 -109.5t-119.5 -77t-156.5 -29.5zM377 -28q99 0 180 43t129.5 111
t74 146.5t25.5 156.5q0 66 -19.5 119.5t-50 86t-71 54.5t-80 30.5t-78.5 8.5q-99 0 -180 -43t-129.5 -111t-74 -146.5t-25.5 -156.5q0 -66 19.5 -119.5t50 -86t71 -54.5t80 -30.5t78.5 -8.5zM385 163q-81 0 -103 60l7 3q18 -48 77 -48q50 0 76 30t26 71q0 43 -21.5 62
t-55.5 19h-12v6h11q63 0 91 28.5t28 70.5q0 65 -70 65q-73 0 -90 -70l-6 1q8 38 37 61t78 23q41 0 71 -18.5t30 -59.5q0 -42 -36.5 -72.5t-102.5 -31.5v-2q38 0 67 -19t29 -67q0 -42 -33 -77t-98 -35z" />
    <glyph glyph-name="uni2463" unicode="&#x2463;" horiz-adv-x="808" 
d="M376 -40q-43 0 -84 9t-83 32t-73.5 57.5t-51 89t-19.5 123.5q0 63 15.5 127t49.5 126t82 109.5t119.5 77t156.5 29.5q43 0 84 -9t83 -32t73.5 -57.5t51 -89t19.5 -123.5q0 -63 -15.5 -127t-49.5 -126t-82 -109.5t-119.5 -77t-156.5 -29.5zM377 -28q99 0 180 43t129.5 111
t74 146.5t25.5 156.5q0 66 -19.5 119.5t-50 86t-71 54.5t-80 30.5t-78.5 8.5q-99 0 -180 -43t-129.5 -111t-74 -146.5t-25.5 -156.5q0 -66 19.5 -119.5t50 -86t71 -54.5t80 -30.5t78.5 -8.5zM484 171h-145l2 5q34 1 49 9.5t21 31.5l19 70h-159l2 8l248 241h19l-63 -232h68
l-4 -17h-69l-18 -69q-6 -24 0.5 -32.5t30.5 -9.5zM485 492l-190 -188h138z" />
    <glyph glyph-name="uni2464" unicode="&#x2464;" horiz-adv-x="808" 
d="M376 -40q-43 0 -84 9t-83 32t-73.5 57.5t-51 89t-19.5 123.5q0 63 15.5 127t49.5 126t82 109.5t119.5 77t156.5 29.5q43 0 84 -9t83 -32t73.5 -57.5t51 -89t19.5 -123.5q0 -63 -15.5 -127t-49.5 -126t-82 -109.5t-119.5 -77t-156.5 -29.5zM377 -28q99 0 180 43t129.5 111
t74 146.5t25.5 156.5q0 66 -19.5 119.5t-50 86t-71 54.5t-80 30.5t-78.5 8.5q-99 0 -180 -43t-129.5 -111t-74 -146.5t-25.5 -156.5q0 -66 19.5 -119.5t50 -86t71 -54.5t80 -30.5t78.5 -8.5zM365 162q-85 0 -99 62l7 1q11 -52 79 -52q53 0 79.5 32.5t26.5 85.5q0 87 -72 87
q-26 0 -54 -16l-4 3l88 170h132q36 0 48 17h3l-33 -57h-162l-65 -124q28 16 62 16q43 0 74 -22.5t31 -73.5q0 -42 -36.5 -85.5t-104.5 -43.5z" />
    <glyph glyph-name="uni2465" unicode="&#x2465;" horiz-adv-x="808" 
d="M488 740q43 0 84 -9t83 -32t73.5 -57.5t51 -89t19.5 -123.5q0 -63 -15.5 -127t-49.5 -126t-82 -109.5t-119.5 -77t-156.5 -29.5q-43 0 -84 9t-83 32t-73.5 57.5t-51 89t-19.5 123.5q0 63 15.5 127t49.5 126t82 109.5t119.5 77t156.5 29.5zM377 -28q99 0 180 43t129.5 111
t74 146.5t25.5 156.5q0 66 -19.5 119.5t-50 86t-71 54.5t-80 30.5t-78.5 8.5q-99 0 -180 -43t-129.5 -111t-74 -146.5t-25.5 -156.5q0 -66 19.5 -119.5t50 -86t71 -54.5t80 -30.5t78.5 -8.5zM279 301q0 42 13.5 84.5t39 80t69.5 61.5t99 24q46 0 67 -13l-6 -6q-18 10 -57 10
q-56 0 -97 -33t-61 -80.5t-25 -104.5q34 77 105 77q42 0 71 -25t29 -74q0 -51 -34 -91.5t-96 -40.5q-54 0 -85.5 33t-31.5 98zM410 387q-32 0 -55.5 -22t-35.5 -58v-18q0 -112 76 -112q48 0 67 35t19 80q0 47 -19 71t-52 24z" />
    <glyph glyph-name="uni2466" unicode="&#x2466;" horiz-adv-x="808" 
d="M376 -40q-43 0 -84 9t-83 32t-73.5 57.5t-51 89t-19.5 123.5q0 63 15.5 127t49.5 126t82 109.5t119.5 77t156.5 29.5q43 0 84 -9t83 -32t73.5 -57.5t51 -89t19.5 -123.5q0 -63 -15.5 -127t-49.5 -126t-82 -109.5t-119.5 -77t-156.5 -29.5zM377 -28q99 0 180 43t129.5 111
t74 146.5t25.5 156.5q0 66 -19.5 119.5t-50 86t-71 54.5t-80 30.5t-78.5 8.5q-99 0 -180 -43t-129.5 -111t-74 -146.5t-25.5 -156.5q0 -66 19.5 -119.5t50 -86t71 -54.5t80 -30.5t78.5 -8.5zM389 164h-54q21 106 75.5 182.5t144.5 142.5h-154q-36 0 -54 -26h-3l38 66h229
l-2 -5q-98 -66 -154.5 -161t-65.5 -199z" />
    <glyph glyph-name="uni2467" unicode="&#x2467;" horiz-adv-x="808" 
d="M488 740q43 0 84 -9t83 -32t73.5 -57.5t51 -89t19.5 -123.5q0 -63 -15.5 -127t-49.5 -126t-82 -109.5t-119.5 -77t-156.5 -29.5q-43 0 -84 9t-83 32t-73.5 57.5t-51 89t-19.5 123.5q0 63 15.5 127t49.5 126t82 109.5t119.5 77t156.5 29.5zM377 -28q99 0 180 43t129.5 111
t74 146.5t25.5 156.5q0 66 -19.5 119.5t-50 86t-71 54.5t-80 30.5t-78.5 8.5q-99 0 -180 -43t-129.5 -111t-74 -146.5t-25.5 -156.5q0 -66 19.5 -119.5t50 -86t71 -54.5t80 -30.5t78.5 -8.5zM467 545q47 0 81 -20t34 -64q0 -73 -117 -94l25 -20q51 -42 51 -83q0 -39 -32 -70
t-105 -31q-51 0 -87.5 20t-36.5 69q0 81 127 104l-15 12q-44 34 -44 83q0 40 31 67t88 27zM423 401l38 -31q79 18 79 95q0 37 -21.5 54.5t-52.5 17.5q-36 0 -56.5 -21t-20.5 -50q0 -37 34 -65zM497 248q0 36 -39 68l-45 36q-89 -21 -89 -102q0 -39 21.5 -60t61.5 -21
q45 0 67.5 22.5t22.5 56.5z" />
    <glyph glyph-name="uni2468" unicode="&#x2468;" horiz-adv-x="808" 
d="M488 740q43 0 84 -9t83 -32t73.5 -57.5t51 -89t19.5 -123.5q0 -63 -15.5 -127t-49.5 -126t-82 -109.5t-119.5 -77t-156.5 -29.5q-43 0 -84 9t-83 32t-73.5 57.5t-51 89t-19.5 123.5q0 63 15.5 127t49.5 126t82 109.5t119.5 77t156.5 29.5zM377 -28q99 0 180 43t129.5 111
t74 146.5t25.5 156.5q0 66 -19.5 119.5t-50 86t-71 54.5t-80 30.5t-78.5 8.5q-99 0 -180 -43t-129.5 -111t-74 -146.5t-25.5 -156.5q0 -66 19.5 -119.5t50 -86t71 -54.5t80 -30.5t78.5 -8.5zM464 545q54 0 85 -33.5t31 -97.5q0 -42 -14 -84.5t-41 -80.5t-75 -61.5
t-109 -23.5q-50 0 -66 13l5 6q13 -10 57 -10q94 0 144 64.5t59 157.5q-32 -81 -106 -81q-41 0 -70.5 25t-29.5 73q0 52 33.5 92.5t96.5 40.5zM449 327q33 0 57 23.5t35 60.5v15q0 111 -76 111q-48 0 -67.5 -35t-19.5 -80q0 -47 19 -71t52 -24z" />
    <glyph glyph-name="uni24EA" unicode="&#x24ea;" horiz-adv-x="808" 
d="M376 -40q-43 0 -84 9t-83 32t-73.5 57.5t-51 89t-19.5 123.5q0 63 15.5 127t49.5 126t82 109.5t119.5 77t156.5 29.5q43 0 84 -9t83 -32t73.5 -57.5t51 -89t19.5 -123.5q0 -63 -15.5 -127t-49.5 -126t-82 -109.5t-119.5 -77t-156.5 -29.5zM377 -28q99 0 180 43t129.5 111
t74 146.5t25.5 156.5q0 66 -19.5 119.5t-50 86t-71 54.5t-80 30.5t-78.5 8.5q-99 0 -180 -43t-129.5 -111t-74 -146.5t-25.5 -156.5q0 -66 19.5 -119.5t50 -86t71 -54.5t80 -30.5t78.5 -8.5zM404 163q-52 0 -87.5 34t-35.5 109q0 55 19.5 108t62 92t97.5 39q51 0 86.5 -34.5
t35.5 -108.5q0 -55 -19.5 -108.5t-61.5 -92t-97 -38.5zM401 171q38 0 66.5 26.5t43.5 66.5t22 78t7 70q0 124 -78 124q-38 0 -66.5 -26.5t-43 -66.5t-21.5 -77.5t-7 -69.5q0 -125 77 -125z" />
    <glyph glyph-name="uni24FF" unicode="&#x24ff;" horiz-adv-x="814" 
d="M379 -40q-55 0 -106.5 15.5t-100 49t-78 96.5t-29.5 149q0 63 15.5 127.5t50 126.5t83 109.5t120.5 77t157 29.5q55 0 106.5 -15.5t100 -49t78 -96.5t29.5 -149q0 -63 -15.5 -127.5t-50 -126.5t-83 -109.5t-120.5 -77t-157 -29.5zM407 163q55 0 97 38.5t61.5 92
t19.5 108.5q0 74 -35.5 108.5t-86.5 34.5q-55 0 -97.5 -39t-62 -92t-19.5 -108q0 -75 35.5 -109t87.5 -34zM404 171q-77 0 -77 125q0 32 7 69.5t21.5 77.5t43 66.5t66.5 26.5q78 0 78 -124q0 -32 -7 -70t-22 -78t-43.5 -66.5t-66.5 -26.5z" />
    <glyph glyph-name="lozenge" unicode="&#x25ca;" horiz-adv-x="593" 
d="M231 -16h-3l-164 371l1 3l354 357h3l163 -371l-1 -3zM272 46l258 260l-153 347l-258 -260z" />
    <glyph glyph-name="circle" unicode="&#x25cb;" horiz-adv-x="808" 
d="M376 -40q-43 0 -84 9t-83 32t-73.5 57.5t-51 89t-19.5 123.5q0 63 15.5 127t49.5 126t82 109.5t119.5 77t156.5 29.5q43 0 84 -9t83 -32t73.5 -57.5t51 -89t19.5 -123.5q0 -63 -15.5 -127t-49.5 -126t-82 -109.5t-119.5 -77t-156.5 -29.5zM377 -28q99 0 180 43t129.5 111
t74 146.5t25.5 156.5q0 66 -19.5 119.5t-50 86t-71 54.5t-80 30.5t-78.5 8.5q-99 0 -180 -43t-129.5 -111t-74 -146.5t-25.5 -156.5q0 -66 19.5 -119.5t50 -86t71 -54.5t80 -30.5t78.5 -8.5z" />
    <glyph glyph-name="uni25CF" unicode="&#x25cf;" horiz-adv-x="814" 
d="M379 -40q-55 0 -106.5 15.5t-100 49t-78 96.5t-29.5 149q0 63 15.5 127.5t50 126.5t83 109.5t120.5 77t157 29.5q55 0 106.5 -15.5t100 -49t78 -96.5t29.5 -149q0 -63 -15.5 -127.5t-50 -126.5t-83 -109.5t-120.5 -77t-157 -29.5z" />
    <glyph glyph-name="uni2776" unicode="&#x2776;" horiz-adv-x="814" 
d="M379 -40q-55 0 -106.5 15.5t-100 49t-78 96.5t-29.5 149q0 63 15.5 127.5t50 126.5t83 109.5t120.5 77t157 29.5q55 0 106.5 -15.5t100 -49t78 -96.5t29.5 -149q0 -63 -15.5 -127.5t-50 -126.5t-83 -109.5t-120.5 -77t-157 -29.5zM294 176l-2 -5h180l1 5q-34 3 -46.5 8.5
t-12.5 19.5q0 6 3 15l88 326h-5l-119 -48v-4q31 11 44 11q19 0 19 -17q0 -7 -3 -16l-67 -251q-7 -24 -22 -32.5t-58 -11.5z" />
    <glyph glyph-name="uni2777" unicode="&#x2777;" horiz-adv-x="814" 
d="M379 -40q-55 0 -106.5 15.5t-100 49t-78 96.5t-29.5 149q0 63 15.5 127.5t50 126.5t83 109.5t120.5 77t157 29.5q55 0 106.5 -15.5t100 -49t78 -96.5t29.5 -149q0 -63 -15.5 -127.5t-50 -126.5t-83 -109.5t-120.5 -77t-157 -29.5zM260 181v-4h243l49 84h-2
q-16 -23 -33.5 -33t-47.5 -10h-143l73 50q97 66 134 109.5t37 87.5q0 42 -30 64t-73 22q-57 0 -87.5 -32.5t-36.5 -81.5h7q6 42 33.5 66.5t61.5 24.5q72 0 72 -77q0 -54 -39 -99t-145 -120z" />
    <glyph glyph-name="uni2778" unicode="&#x2778;" horiz-adv-x="814" 
d="M379 -40q-55 0 -106.5 15.5t-100 49t-78 96.5t-29.5 149q0 63 15.5 127.5t50 126.5t83 109.5t120.5 77t157 29.5q55 0 106.5 -15.5t100 -49t78 -96.5t29.5 -149q0 -63 -15.5 -127.5t-50 -126.5t-83 -109.5t-120.5 -77t-157 -29.5zM386 163q65 0 98 35t33 77q0 48 -29 67
t-67 19v2q66 1 102.5 31.5t36.5 72.5q0 41 -30 59.5t-71 18.5q-49 0 -78 -23t-37 -61l6 -1q17 70 90 70q70 0 70 -65q0 -42 -28 -70.5t-91 -28.5h-11v-6h12q34 0 55.5 -19t21.5 -62q0 -41 -26 -71t-76 -30q-59 0 -77 48l-7 -3q22 -60 103 -60z" />
    <glyph glyph-name="uni2779" unicode="&#x2779;" horiz-adv-x="814" 
d="M379 -40q-55 0 -106.5 15.5t-100 49t-78 96.5t-29.5 149q0 63 15.5 127.5t50 126.5t83 109.5t120.5 77t157 29.5q55 0 106.5 -15.5t100 -49t78 -96.5t29.5 -149q0 -63 -15.5 -127.5t-50 -126.5t-83 -109.5t-120.5 -77t-157 -29.5zM335 176l-2 -5h145l1 5q-24 1 -30.5 9.5
t-0.5 32.5l18 69h69l4 17h-68l63 232h-19l-248 -241l-2 -8h159l-19 -70q-6 -23 -21 -31.5t-49 -9.5zM427 304h-138l190 188z" />
    <glyph glyph-name="uni277A" unicode="&#x277a;" horiz-adv-x="814" 
d="M379 -40q-55 0 -106.5 15.5t-100 49t-78 96.5t-29.5 149q0 63 15.5 127.5t50 126.5t83 109.5t120.5 77t157 29.5q55 0 106.5 -15.5t100 -49t78 -96.5t29.5 -149q0 -63 -15.5 -127.5t-50 -126.5t-83 -109.5t-120.5 -77t-157 -29.5zM369 162q68 0 104.5 43.5t36.5 85.5
q0 51 -31 73.5t-74 22.5q-34 0 -62 -16l65 124h162l33 57h-3q-12 -17 -48 -17h-132l-88 -170l4 -3q28 16 54 16q72 0 72 -87q0 -53 -26.5 -85.5t-79.5 -32.5q-68 0 -79 52l-7 -1q14 -62 99 -62z" />
    <glyph glyph-name="uni277B" unicode="&#x277b;" horiz-adv-x="814" 
d="M379 -40q-55 0 -106.5 15.5t-100 49t-78 96.5t-29.5 149q0 63 15.5 127.5t50 126.5t83 109.5t120.5 77t157 29.5q55 0 106.5 -15.5t100 -49t78 -96.5t29.5 -149q0 -63 -15.5 -127.5t-50 -126.5t-83 -109.5t-120.5 -77t-157 -29.5zM404 170q62 0 96 40.5t34 91.5
q0 49 -29 74t-71 25q-71 0 -105 -77q5 57 25 104.5t61 80.5t97 33q39 0 57 -10l6 6q-21 13 -67 13q-55 0 -99 -24t-69.5 -61.5t-39 -80t-13.5 -84.5q0 -65 31.5 -98t85.5 -33zM403 177q-42 0 -59 30t-17 100q12 36 35.5 58t55.5 22q33 0 52 -24t19 -71q0 -45 -19 -80
t-67 -35z" />
    <glyph glyph-name="uni277C" unicode="&#x277c;" horiz-adv-x="814" 
d="M379 -40q-55 0 -106.5 15.5t-100 49t-78 96.5t-29.5 149q0 63 15.5 127.5t50 126.5t83 109.5t120.5 77t157 29.5q55 0 106.5 -15.5t100 -49t78 -96.5t29.5 -149q0 -63 -15.5 -127.5t-50 -126.5t-83 -109.5t-120.5 -77t-157 -29.5zM318 164h54q9 104 65.5 199t154.5 161
l2 5h-229l-38 -66h3q18 26 54 26h154q-90 -66 -144.5 -142.5t-75.5 -182.5z" />
    <glyph glyph-name="uni277D" unicode="&#x277d;" horiz-adv-x="814" 
d="M379 -40q-55 0 -106.5 15.5t-100 49t-78 96.5t-29.5 149q0 63 15.5 127.5t50 126.5t83 109.5t120.5 77t157 29.5q55 0 106.5 -15.5t100 -49t78 -96.5t29.5 -149q0 -63 -15.5 -127.5t-50 -126.5t-83 -109.5t-120.5 -77t-157 -29.5zM407 163q73 0 105 31t32 70
q0 27 -15.5 46.5t-60.5 56.5q117 21 117 94q0 44 -34 64t-81 20q-57 0 -88 -27t-31 -67q0 -29 13.5 -49.5t45.5 -45.5q-127 -23 -127 -104q0 -49 36.5 -69t87.5 -20zM464 370l-38 31q-34 28 -34 65q0 29 20.5 50t56.5 21q31 0 52.5 -17.5t21.5 -54.5q0 -77 -79 -95zM410 169
q-40 0 -61.5 21t-21.5 60q0 81 89 102l45 -36q39 -32 39 -68q0 -34 -23 -56.5t-67 -22.5z" />
    <glyph glyph-name="uni277E" unicode="&#x277e;" horiz-adv-x="814" 
d="M379 -40q-55 0 -106.5 15.5t-100 49t-78 96.5t-29.5 149q0 63 15.5 127.5t50 126.5t83 109.5t120.5 77t157 29.5q55 0 106.5 -15.5t100 -49t78 -96.5t29.5 -149q0 -63 -15.5 -127.5t-50 -126.5t-83 -109.5t-120.5 -77t-157 -29.5zM349 164q61 0 109 23.5t75 61.5t41 80.5
t14 84.5q0 64 -31 97.5t-85 33.5q-63 0 -96.5 -40.5t-33.5 -92.5q0 -48 29.5 -73t70.5 -25q74 0 106 81q-9 -93 -59 -157.5t-144 -64.5q-44 0 -57 10l-5 -6q16 -13 66 -13zM457 327q-33 0 -52 24t-19 71q0 45 19.5 80t67.5 35q43 0 59.5 -30t16.5 -96q-11 -37 -35 -60.5
t-57 -23.5z" />
    <glyph glyph-name="uniF8FF" unicode="&#xf8ff;" horiz-adv-x="671" 
d="M309 558l163 -79q182 -89 182 -256q0 -132 -93 -215.5t-241 -83.5q-128 0 -208 58t-80 150q0 70 46 111t126 41q89 0 152.5 -50t63.5 -120q0 -45 -27.5 -72.5t-72.5 -27.5q-43 0 -70.5 27.5t-27.5 69.5q0 38 28 64.5t68 26.5q22 0 40 -6q-39 52 -114 52q-51 0 -81 -31.5
t-30 -86.5q0 -77 58 -127t147 -50q82 0 132.5 41t50.5 106q0 93 -129 156l-152 74q-153 75 -153 211q0 99 75.5 161t196.5 62q68 0 142.5 -17.5t121.5 -44.5l-72 -194h-5q-22 93 -93 156t-154 63q-43 0 -67 -18t-24 -49q0 -28 23.5 -52t77.5 -50z" />
    <glyph glyph-name="fi" unicode="&#xfb01;" horiz-adv-x="541" 
d="M373 718q59 0 112 -23.5t53 -58.5q0 -15 -10.5 -27.5t-30.5 -12.5q-22 0 -38 16t-25 35t-32 35t-59 16q-47 0 -79 -29.5t-43 -80.5l-21 -95h88l-4 -15h-88l-97 -435q-24 -107 -92 -182.5t-124 -75.5q-34 0 -55 23l21 60h13q37 -31 105 -31q28 20 53 129l115 512h-84l4 15
h83l2 7q26 115 90.5 166.5t142.5 51.5zM389 46q35 0 110 92l7 -6q-109 -144 -174 -144q-35 0 -35 38q0 13 4 25l102 363q8 29 -3.5 41t-43.5 7l-14 -2l2 10l144 35l-118 -423q-11 -36 19 -36z" />
    <glyph glyph-name="fl" unicode="&#xfb02;" horiz-adv-x="539" 
d="M382 43q34 0 109 92l7 -6q-49 -66 -95 -105t-77 -39q-36 0 -36 39q0 11 5 33l158 585q-50 54 -137 51q-77 -23 -98 -119l-19 -84h106l-4 -15h-105l-97 -432q-24 -107 -92 -182.5t-124 -75.5q-34 0 -55 23l21 60h13q37 -31 105 -31q28 20 53 129l114 509h-83l4 15h83l2 10
q14 62 43 107t66 68t71 33t68 10t74 -10.5t62 -24.5l-162 -604q-9 -36 20 -36z" />
    <glyph glyph-name="uniFEFF" unicode="&#xfeff;" horiz-adv-x="0" 
 />
    <glyph glyph-name="bar.case" horiz-adv-x="184" 
d="M218 760h20l-225 -854h-20z" />
    <glyph glyph-name="brokenbar.case" horiz-adv-x="184" 
d="M218 760h20l-95 -362h-20zM13 -94h-20l103 392h20z" />
    <glyph glyph-name="parenleft.case" horiz-adv-x="300" 
d="M194 -114l-4 -3q-54 45 -89.5 146t-35.5 221q0 371 363 533l3 -3q-98 -61 -164 -132.5t-98 -146t-44.5 -140.5t-12.5 -142q0 -227 82 -333z" />
    <glyph glyph-name="parenright.case" horiz-adv-x="299" 
d="M153 780l4 3q54 -45 89.5 -146t35.5 -221q0 -371 -363 -533l-3 3q98 61 164 132.5t98 146t44.5 140.5t12.5 142q0 227 -82 333z" />
    <glyph glyph-name="hyphen.case" horiz-adv-x="379" 
d="M356 333h-287l8 25h287z" />
    <glyph glyph-name="bracketleft.case" horiz-adv-x="233" 
d="M357 760l-1 -5q-47 -2 -66 -11t-26 -38l-201 -761q-1 -19 14 -25.5t56 -8.5l-1 -5h-139l225 854h139z" />
    <glyph glyph-name="bracketright.case" horiz-adv-x="233" 
d="M287 760l-225 -854h-139l1 5q47 2 66 11t26 38l201 761q1 19 -14 25.5t-56 8.5l1 5h139z" />
    <glyph glyph-name="braceleft.case" horiz-adv-x="274" 
d="M166 -102l-1 -5q-76 3 -103.5 52.5t-5.5 130.5l43 164q4 15 4.5 28t-3 23t-6.5 16t-10.5 13.5t-9.5 9t-9 6.5l1 6q13 7 21 12t23 17.5t26 32.5t18 46l37 140q22 81 75.5 130.5t131.5 52.5l-1 -5q-59 -8 -90.5 -48.5t-51.5 -114.5l-35 -133q-4 -15 -10 -28.5t-13 -23.5
t-13.5 -17.5t-15.5 -14.5t-13.5 -10t-13 -8t-10.5 -6l8 -7q8 -7 11 -10.5t9 -13t8 -19t1.5 -25t-5.5 -33.5l-51 -195q-21 -67 -10.5 -111t64.5 -52z" />
    <glyph glyph-name="braceright.case" horiz-adv-x="274" 
d="M155 768l1 5q76 -3 103.5 -52.5t5.5 -130.5l-43 -164q-4 -15 -4.5 -28t3 -23t6.5 -16t10.5 -13.5t9.5 -9t9 -6.5l-1 -6q-13 -7 -21 -12t-23 -17.5t-26 -32.5t-18 -46l-37 -140q-22 -81 -75.5 -130.5t-131.5 -52.5l1 5q59 8 90.5 48.5t51.5 114.5l35 133q4 15 10 28.5
t13 23.5t13.5 17.5t15.5 14.5t13.5 10t13 8t10.5 6l-8 7q-8 7 -11 10.5t-9 13t-8 19t-1.5 25t5.5 33.5l51 195q21 67 10.5 111t-64.5 52z" />
    <glyph glyph-name="endash.case" horiz-adv-x="566" 
d="M549 348h-475l3 15h475z" />
    </font>
</defs>
</svg>
