<?xml version="1.0" standalone="no"?>
<!DOCTYPE svg PUBLIC "-//W3C//DTD SVG 1.1//EN" "http://www.w3.org/Graphics/SVG/1.1/DTD/svg11.dtd" >
<svg xmlns="http://www.w3.org/2000/svg" xmlns:xlink="http://www.w3.org/1999/xlink" version="1.1">
<metadata>
Created by FontForge 20190801 at Thu Oct 15 19:30:10 2020
 By www-data
Copyright (c) 2017 by Grilli Type. All rights reserved.
</metadata>
<defs>
<font id="GTSuperTextBook" horiz-adv-x="580" >
  <font-face 
    font-family="GTSuperTextBook"
    font-weight="350"
    font-stretch="normal"
    units-per-em="1000"
    panose-1="0 0 4 0 0 0 0 0 0 0"
    ascent="763"
    descent="-237"
    x-height="490"
    cap-height="700"
    bbox="-446 -237 1208 920"
    underline-thickness="50"
    underline-position="-100"
    unicode-range="U+000D-FEFF"
  />
<missing-glyph horiz-adv-x="662" 
d="M297 558l163 -79q182 -89 182 -256q0 -132 -93 -215.5t-241 -83.5q-128 0 -208 58t-80 150q0 70 46 111t126 41q89 0 152.5 -50t63.5 -120q0 -45 -27.5 -72.5t-72.5 -27.5q-43 0 -70.5 27.5t-27.5 69.5q0 38 28 64.5t68 26.5q22 0 40 -6q-39 52 -114 52q-51 0 -81 -31.5
t-30 -86.5q0 -77 58 -127t147 -50q82 0 132.5 41t50.5 106q0 93 -129 156l-152 74q-153 75 -153 211q0 99 75.5 161t196.5 62q68 0 142.5 -17.5t121.5 -44.5l-72 -194h-5q-22 93 -93 156t-154 63q-43 0 -67 -18t-24 -49q0 -28 23.5 -52t77.5 -50z" />
    <glyph glyph-name="f_f" unicode="ff" horiz-adv-x="668" 
d="M597 766q65 0 116 -21v-122h-34q-20 92 -102 92q-93 0 -93 -125q0 -54 21 -100h130v-50h-131v-344q0 -41 21 -54t82 -17v-25h-271v25q49 4 66 17.5t17 53.5v344h-83v22l83 28v77q0 52 13 88q-45 60 -128 60q-58 0 -91 -35.5t-33 -97.5q0 -50 19 -92h102v-50h-103v-344
q0 -33 12.5 -48.5t43.5 -19.5l27 -3v-25h-251v25l27 3q31 3 43.5 18.5t12.5 49.5v344h-83v22l83 28v56q0 101 56.5 160.5t156.5 59.5q84 0 149 -42q45 42 122 42z" />
    <glyph glyph-name="f_f_i" unicode="ffi" horiz-adv-x="928" 
d="M607 728q-59 0 -90.5 -39.5t-31.5 -95.5q0 -54 20 -102h82v-50h-83v-344q0 -33 12.5 -48.5t43.5 -19.5l27 -3v-25h-251v25l27 3q31 3 43.5 18.5t12.5 49.5v344h-83v22l83 28v57q0 57 18 99q-44 68 -133 68q-58 0 -91 -35.5t-33 -97.5q0 -50 19 -92h102v-50h-103v-344
q0 -33 12.5 -48.5t43.5 -19.5l27 -3v-25h-251v25l27 3q31 3 43.5 18.5t12.5 49.5v344h-83v22l83 28v56q0 101 56.5 160.5t156.5 59.5q96 0 162 -49q59 50 156 50q83 0 133.5 -35t50.5 -78q0 -23 -14 -36.5t-37 -13.5q-24 0 -38.5 12t-30.5 46t-37.5 50t-63.5 16zM876 29
l27 -3v-25h-251v25l27 3q31 3 43.5 18.5t12.5 49.5v286q0 27 -12.5 37.5t-42.5 8.5l-31 -2v25l146 39h25v-394q0 -33 12.5 -48.5t43.5 -19.5z" />
    <glyph glyph-name="f_f_l" unicode="ffl" horiz-adv-x="918" 
d="M866 28l27 -3v-25h-251v25l27 3q31 3 43.5 18.5t12.5 49.5v578q-42 45 -108 45q-68 0 -99.5 -34.5t-31.5 -92.5q0 -60 19 -102h122v-50h-123v-344q0 -33 12.5 -48.5t43.5 -19.5l27 -3v-25h-251v25l27 3q31 3 43.5 18.5t12.5 49.5v344h-83v22l83 28v47q0 62 19 109
q-44 69 -134 69q-58 0 -91 -35.5t-33 -97.5q0 -50 19 -92h102v-50h-103v-344q0 -33 12.5 -48.5t43.5 -19.5l27 -3v-25h-251v25l27 3q31 3 43.5 18.5t12.5 49.5v344h-83v22l83 28v56q0 101 56.5 160.5t156.5 59.5q92 0 161 -50q55 50 156 50q92 0 167 -29v-641
q0 -33 12.5 -48.5t43.5 -19.5z" />
    <glyph glyph-name="f_i" unicode="fi" horiz-adv-x="622" 
d="M281 0h-251v25l27 3q31 3 43.5 18.5t12.5 49.5v344h-83v22l83 28v57q0 105 61 162t164 57q83 0 133.5 -35t50.5 -78q0 -23 -14 -36.5t-37 -13.5q-24 0 -38.5 12t-30.5 46t-37.5 50t-63.5 16q-59 0 -90.5 -39.5t-31.5 -95.5q0 -54 20 -102h82v-50h-83v-344
q0 -33 12.5 -48.5t43.5 -19.5l27 -3v-25zM597 0h-251v25l27 3q31 3 43.5 18.5t12.5 49.5v286q0 27 -12.5 37.5t-42.5 8.5l-31 -2v25l146 39h25v-394q0 -33 12.5 -48.5t43.5 -19.5l27 -3v-25z" />
    <glyph glyph-name="f_l" unicode="fl" horiz-adv-x="612" 
d="M560 28l27 -3v-25h-251v25l27 3q31 3 43.5 18.5t12.5 49.5v578q-42 45 -108 45q-68 0 -99.5 -34.5t-31.5 -92.5q0 -60 19 -102h122v-50h-123v-344q0 -33 12.5 -48.5t43.5 -19.5l27 -3v-25h-251v25l27 3q31 3 43.5 18.5t12.5 49.5v344h-83v22l83 28v47q0 104 54.5 166.5
t169.5 62.5q92 0 167 -29v-641q0 -33 12.5 -48.5t43.5 -19.5z" />
    <glyph glyph-name="f_b.liga" unicode="fb" horiz-adv-x="895" 
d="M594 -12q-97 0 -175 55v631q-35 45 -108 45q-68 0 -99.5 -34.5t-31.5 -92.5q0 -60 19 -102h122v-50h-123v-344q0 -34 16.5 -49.5t62.5 -19.5l24 -2v-25h-271v25l27 3q31 3 43.5 18.5t12.5 49.5v344h-83v22l83 28v47q0 104 54.5 166.5t169.5 62.5q92 0 167 -29v-260
q0 -50 -19 -103l6 -3q16 60 63 95.5t109 35.5q86 0 139 -61.5t53 -162.5q0 -128 -73 -209t-188 -81zM617 27q68 0 107.5 58.5t39.5 159.5q0 86 -36 133t-102 47q-89 0 -122 -68v-272q14 -25 46 -41.5t67 -16.5z" />
    <glyph glyph-name="f_f_b.liga" unicode="ffb" horiz-adv-x="1201" 
d="M969 502q86 0 139 -61.5t53 -162.5q0 -128 -73 -209t-188 -81q-97 0 -175 55v631q-35 45 -108 45q-68 0 -99.5 -34.5t-31.5 -92.5q0 -60 19 -102h122v-50h-123v-344q0 -34 16.5 -49.5t62.5 -19.5l24 -2v-25h-271v25l27 3q31 3 43.5 18.5t12.5 49.5v344h-83v22l83 28v47
q0 62 19 109q-44 69 -134 69q-58 0 -91 -35.5t-33 -97.5q0 -50 19 -92h102v-50h-103v-344q0 -33 12.5 -48.5t43.5 -19.5l27 -3v-25h-251v25l27 3q31 3 43.5 18.5t12.5 49.5v344h-83v22l83 28v56q0 101 56.5 160.5t156.5 59.5q95 0 162 -48q58 48 155 48q92 0 167 -29v-260
q0 -50 -19 -103l6 -3q16 60 63 95.5t109 35.5zM923 27q68 0 107.5 58.5t39.5 159.5q0 86 -36 133t-102 47q-89 0 -122 -68v-272q14 -25 46 -41.5t67 -16.5z" />
    <glyph glyph-name="f_f_h.liga" unicode="ffh" horiz-adv-x="1228" 
d="M1181 28l27 -3v-25h-234v25l6 1q35 7 47.5 19t12.5 39v229q0 62 -28.5 92t-78.5 30q-87 0 -123 -76v-263q0 -34 10.5 -49t44.5 -20l14 -2v-25h-237v25l27 3q31 3 43.5 18.5t12.5 49.5v578q-39 45 -108 45q-68 0 -99.5 -34.5t-31.5 -92.5q0 -60 19 -102h122v-50h-123v-344
q0 -33 12.5 -48.5t43.5 -19.5l27 -3v-25h-251v25l27 3q31 3 43.5 18.5t12.5 49.5v344h-83v22l83 28v47q0 62 19 109q-44 69 -134 69q-58 0 -91 -35.5t-33 -97.5q0 -50 19 -92h102v-50h-103v-344q0 -33 12.5 -48.5t43.5 -19.5l27 -3v-25h-251v25l27 3q31 3 43.5 18.5
t12.5 49.5v344h-83v22l83 28v56q0 101 56.5 160.5t156.5 59.5q95 0 162 -48q58 48 155 48q92 0 167 -29v-217q0 -90 -18 -147l5 -2q18 62 64 96.5t112 34.5q69 0 110.5 -42t41.5 -133v-231q0 -33 12.5 -48.5t43.5 -19.5z" />
    <glyph glyph-name="f_f_j.liga" unicode="ffj" horiz-adv-x="906" 
d="M336 25l27 3q31 3 43.5 18.5t12.5 49.5v344h-83v22l83 28v57q0 58 19 100q-44 68 -134 68q-58 0 -91 -35.5t-33 -97.5q0 -50 19 -92h102v-50h-103v-344q0 -33 12.5 -48.5t43.5 -19.5l27 -3v-25h-251v25l27 3q31 3 43.5 18.5t12.5 49.5v344h-83v22l83 28v56
q0 101 56.5 160.5t156.5 59.5q97 0 163 -49q60 49 155 49q83 0 133.5 -35t50.5 -78q0 -23 -13.5 -36.5t-36.5 -13.5q-25 0 -40 12t-30 46q-17 34 -39.5 50t-61.5 16q-60 0 -91 -39.5t-31 -95.5q0 -54 20 -102h82v-50h-83v-344q0 -34 16.5 -49.5t62.5 -19.5l24 -2v-25h-271
v25zM649 431v25l146 39h25v-564q0 -91 -40 -129t-99 -38q-30 0 -64.5 12t-53.5 28l17 29q36 -26 87 -26q32 0 50 20.5t18 56.5v503q0 27 -12.5 37.5t-42.5 8.5z" />
    <glyph glyph-name="f_f_k.liga" unicode="ffk" horiz-adv-x="1203" 
d="M810 737v-641q0 -34 10.5 -49t44.5 -20l14 -2v-25h-237v25l27 3q31 3 43.5 18.5t12.5 49.5v578q-42 45 -108 45q-68 0 -99.5 -34.5t-31.5 -92.5q0 -60 19 -102h122v-50h-123v-344q0 -33 12.5 -48.5t43.5 -19.5l27 -3v-25h-251v25l27 3q31 3 43.5 18.5t12.5 49.5v344h-83
v22l83 28v47q0 62 19 109q-44 69 -134 69q-58 0 -91 -35.5t-33 -97.5q0 -50 19 -92h102v-50h-103v-344q0 -33 12.5 -48.5t43.5 -19.5l27 -3v-25h-251v25l27 3q31 3 43.5 18.5t12.5 49.5v344h-83v22l83 28v56q0 101 56.5 160.5t156.5 59.5q92 0 161 -50q55 50 156 50
q92 0 167 -29zM918 289l171 -191q22 -24 32 -34t29.5 -22t42.5 -17v-25h-141l-227 257l141 118q26 22 35 34.5t9 25.5q0 30 -37 30h-8l1 25h197v-25q-50 -7 -121 -67l-124 -104v-5z" />
    <glyph glyph-name="f_h.liga" unicode="fh" horiz-adv-x="922" 
d="M281 0h-251v25l27 3q31 3 43.5 18.5t12.5 49.5v344h-83v22l83 28v47q0 104 54.5 166.5t169.5 62.5q92 0 167 -29v-217q0 -90 -18 -147l5 -2q18 62 64 96.5t112 34.5q69 0 110.5 -42t41.5 -133v-231q0 -33 12.5 -48.5t43.5 -19.5l27 -3v-25h-234v25l6 1q35 7 47.5 19
t12.5 39v229q0 62 -28.5 92t-78.5 30q-87 0 -123 -76v-263q0 -34 10.5 -49t44.5 -20l14 -2v-25h-237v25l27 3q31 3 43.5 18.5t12.5 49.5v578q-39 45 -108 45q-68 0 -99.5 -34.5t-31.5 -92.5q0 -60 19 -102h122v-50h-123v-344q0 -33 12.5 -48.5t43.5 -19.5l27 -3v-25z" />
    <glyph glyph-name="f_j.liga" unicode="fj" horiz-adv-x="600" 
d="M301 0h-271v25l27 3q31 3 43.5 18.5t12.5 49.5v344h-83v22l83 28v57q0 105 61 162t164 57q83 0 133.5 -35t50.5 -78q0 -23 -13.5 -36.5t-36.5 -13.5q-25 0 -40 12t-30 46q-17 34 -39.5 50t-61.5 16q-60 0 -91 -39.5t-31 -95.5q0 -54 20 -102h82v-50h-83v-344
q0 -34 16.5 -49.5t62.5 -19.5l24 -2v-25zM375 -236q-30 0 -64.5 12t-53.5 28l17 29q36 -26 87 -26q32 0 50 20.5t18 56.5v503q0 27 -12.5 37.5t-42.5 8.5l-31 -2v25l146 39h25v-564q0 -91 -40 -129t-99 -38z" />
    <glyph glyph-name="f_k.liga" unicode="fk" horiz-adv-x="897" 
d="M504 737v-641q0 -34 10.5 -49t44.5 -20l14 -2v-25h-237v25l27 3q31 3 43.5 18.5t12.5 49.5v578q-42 45 -108 45q-68 0 -99.5 -34.5t-31.5 -92.5q0 -60 19 -102h122v-50h-123v-344q0 -33 12.5 -48.5t43.5 -19.5l27 -3v-25h-251v25l27 3q31 3 43.5 18.5t12.5 49.5v344h-83
v22l83 28v47q0 104 54.5 166.5t169.5 62.5q92 0 167 -29zM612 289l171 -191q22 -24 32 -34t29.5 -22t42.5 -17v-25h-141l-227 257l141 118q26 22 35 34.5t9 25.5q0 30 -37 30h-8l1 25h197v-25q-50 -7 -121 -67l-124 -104v-5z" />
    <glyph glyph-name=".notdef" horiz-adv-x="662" 
d="M297 558l163 -79q182 -89 182 -256q0 -132 -93 -215.5t-241 -83.5q-128 0 -208 58t-80 150q0 70 46 111t126 41q89 0 152.5 -50t63.5 -120q0 -45 -27.5 -72.5t-72.5 -27.5q-43 0 -70.5 27.5t-27.5 69.5q0 38 28 64.5t68 26.5q22 0 40 -6q-39 52 -114 52q-51 0 -81 -31.5
t-30 -86.5q0 -77 58 -127t147 -50q82 0 132.5 41t50.5 106q0 93 -129 156l-152 74q-153 75 -153 211q0 99 75.5 161t196.5 62q68 0 142.5 -17.5t121.5 -44.5l-72 -194h-5q-22 93 -93 156t-154 63q-43 0 -67 -18t-24 -49q0 -28 23.5 -52t77.5 -50z" />
    <glyph glyph-name=".null" horiz-adv-x="0" 
 />
    <glyph glyph-name="nonmarkingreturn" horiz-adv-x="333" 
 />
    <glyph glyph-name="CR" unicode="&#xd;" horiz-adv-x="240" 
 />
    <glyph glyph-name="space" unicode=" " horiz-adv-x="240" 
 />
    <glyph glyph-name="exclam" unicode="!" horiz-adv-x="294" 
d="M164 230h-34l-47 441q0 5 -0.5 11t-1 9.5t-0.5 7.5q0 29 18.5 46.5t47.5 17.5t47.5 -17.5t18.5 -46.5l-2 -28zM147 -6q-30 0 -51 21t-21 51t21 51t51 21t51 -21t21 -51t-21 -51t-51 -21z" />
    <glyph glyph-name="quotedbl" unicode="&#x22;" horiz-adv-x="413" 
d="M132 499h-24l-34 106q-14 46 -14 64q0 29 16.5 46.5t43.5 17.5t43.5 -17.5t16.5 -46.5q0 -18 -14 -64zM305 499h-24l-34 106q-14 46 -14 64q0 29 16.5 46.5t43.5 17.5t43.5 -17.5t16.5 -46.5q0 -18 -14 -64z" />
    <glyph glyph-name="numbersign" unicode="#" 
d="M560 491v-39h-109l-39 -209h114v-39h-121l-38 -204h-49l38 204h-177l-38 -204h-49l38 204h-110v39h117l39 209h-116v39h123l39 209h49l-39 -209h177l39 209h49l-39 -209h102zM186 243h177l39 209h-177z" />
    <glyph glyph-name="dollar" unicode="$" horiz-adv-x="520" 
d="M475 183q0 -82 -52.5 -134.5t-141.5 -59.5v-89h-34v88q-114 3 -197 58v159h29q30 -155 168 -168v257l-63 28q-128 57 -128 177q0 77 52 126t139 56v69h34v-68q95 -3 168 -47v-145h-26q-30 128 -142 143v-246l67 -30q127 -57 127 -174zM232 409l15 -7v233q-53 -1 -85 -28
t-32 -70q0 -44 23.5 -73.5t78.5 -54.5zM281 279v-243q55 1 86 30t31 79q0 47 -21 73.5t-79 52.5z" />
    <glyph glyph-name="percent" unicode="%" horiz-adv-x="771" 
d="M197 -40h-55l429 722h53zM200 316q-72 0 -116 47.5t-44 125.5t44 125.5t116 47.5t116 -47.5t44 -125.5t-44 -125.5t-116 -47.5zM200 352q37 0 56.5 39t19.5 98t-19.5 98t-56.5 39t-56.5 -39t-19.5 -98t19.5 -98t56.5 -39zM571 -20q-72 0 -116 47.5t-44 125.5t44 125.5
t116 47.5t116 -47.5t44 -125.5t-44 -125.5t-116 -47.5zM571 16q37 0 56.5 39t19.5 98t-19.5 98t-56.5 39t-56.5 -39t-19.5 -98t19.5 -98t56.5 -39z" />
    <glyph glyph-name="ampersand" unicode="&#x26;" horiz-adv-x="771" 
d="M741 93l20 -13q-15 -38 -49.5 -67.5t-85.5 -29.5q-64 0 -112 55l-79 91q-25 -66 -75 -106t-117 -40q-86 0 -147 49.5t-61 141.5q0 152 167 223l-21 24q-70 80 -70 142q0 68 49.5 111t140.5 43q89 0 145 -21v-171h-22q-40 161 -137 161q-45 0 -69.5 -26t-24.5 -64
q0 -49 37 -92l316 -363q45 -51 70 -67.5t59 -16.5q41 0 66 36zM283 58q87 0 137 88l-202 232q-97 -39 -97 -146q0 -75 46.5 -124.5t115.5 -49.5z" />
    <glyph glyph-name="quotesingle" unicode="'" horiz-adv-x="240" 
d="M132 499h-24l-34 106q-14 46 -14 64q0 29 16.5 46.5t43.5 17.5t43.5 -17.5t16.5 -46.5q0 -18 -14 -64z" />
    <glyph glyph-name="parenleft" unicode="(" horiz-adv-x="351" 
d="M341 -114l-13 -23q-49 23 -96 59.5t-92 90t-72.5 129.5t-27.5 161t27.5 161t72.5 129.5t92 90t96 59.5l13 -23q-199 -146 -199 -417t199 -417z" />
    <glyph glyph-name="parenright" unicode=")" horiz-adv-x="351" 
d="M23 -137l-13 23q199 146 199 417t-199 417l13 23q49 -23 96 -59.5t92 -90t72.5 -129.5t27.5 -161t-27.5 -161t-72.5 -129.5t-92 -90t-96 -59.5z" />
    <glyph glyph-name="asterisk" unicode="*" horiz-adv-x="373" 
d="M311 637q9 -29 -25 -43q-9 -4 -36 -4l-53 3l44 -29q19 -13 28 -25q22 -27 -6 -49q-24 -18 -47 10q-10 11 -16 34l-13 51l-14 -51q-7 -24 -15 -34q-24 -28 -48 -10q-24 19 -6 49q6 9 28 25l44 29l-53 -3q-26 0 -36 4q-34 13 -25 43q4 14 17 19.5t28 0.5q15 -4 31 -19
l42 -33l-19 50q-8 18 -8 36q0 16 9 26t24 10q31 0 33 -36q1 -13 -7 -36l-20 -51l43 34q16 15 31 19q15 5 28 -0.5t17 -19.5z" />
    <glyph glyph-name="plus" unicode="+" 
d="M312 328h178v-43h-178v-178h-43v178h-179v43h179v178h43v-178z" />
    <glyph glyph-name="comma" unicode="," horiz-adv-x="294" 
d="M93 -151l-4 20q80 21 80 90q0 15 -7.5 24.5t-16.5 13.5t-26 8q-59 17 -59 67q0 29 19.5 47.5t50.5 18.5q41 0 67.5 -33t26.5 -87q0 -74 -39.5 -116.5t-91.5 -52.5z" />
    <glyph glyph-name="hyphen" unicode="-" horiz-adv-x="364" 
d="M40 338h284v-63h-284v63z" />
    <glyph glyph-name="period" unicode="." horiz-adv-x="264" 
d="M132 -6q-30 0 -51 21t-21 51t21 51t51 21t51 -21t21 -51t-21 -51t-51 -21z" />
    <glyph glyph-name="slash" unicode="/" horiz-adv-x="291" 
d="M281 737l-228 -804h-43l226 804h45z" />
    <glyph glyph-name="zero" unicode="0" horiz-adv-x="600" 
d="M300 -12q-112 0 -181 79.5t-69 197.5t69 197.5t181 79.5t181 -79.5t69 -197.5t-69 -197.5t-181 -79.5zM300 32q148 0 148 233t-148 233t-148 -233t148 -233z" />
    <glyph glyph-name="one" unicode="1" horiz-adv-x="431" 
d="M401 25v-25h-354v25q71 0 101.5 22t30.5 74v257q0 76 -61 76q-26 0 -68 -13l-10 24l202 77h27v-421q0 -53 31.5 -74.5t100.5 -21.5z" />
    <glyph glyph-name="two" unicode="2" horiz-adv-x="480" 
d="M428 0h-392l-6 25l147 113q88 68 124 115.5t36 112.5q0 59 -30 89t-81 30q-57 0 -95 -28.5t-62 -88.5l-29 9q20 82 74.5 123.5t136.5 41.5q80 0 132.5 -39.5t52.5 -109.5q0 -74 -51 -133.5t-142 -119.5l-67 -44v-7h279z" />
    <glyph glyph-name="three" unicode="3" horiz-adv-x="482" 
d="M30 -41l26 17q19 -39 61 -59.5t91 -20.5q64 0 101.5 36.5t37.5 99.5q0 67 -40 104.5t-114 37.5h-62v55h60q65 0 101.5 37t36.5 102q0 60 -32.5 94.5t-91.5 34.5q-48 0 -86 -25.5t-53 -72.5l-29 13q15 60 70 95t124 35q93 0 145 -42.5t52 -113.5q0 -77 -50.5 -127.5
t-126.5 -50.5h-14v-9h24q86 0 136 -44t50 -120q0 -81 -61 -134t-155 -53q-67 0 -123.5 29t-77.5 82z" />
    <glyph glyph-name="four" unicode="4" horiz-adv-x="521" 
d="M407 -140h-90v206h-307v25l325 439h70v-406h101v-58h-99v-206zM93 128v-4h227v312h-5z" />
    <glyph glyph-name="five" unicode="5" horiz-adv-x="492" 
d="M208 -152q-72 0 -122 32t-71 79l31 18q37 -80 136 -80q70 0 110 43.5t40 122.5q0 66 -31 112t-103 46q-71 0 -108 -44l-30 20l77 333h335l-27 -88h-276l-48 -201l4 -3q41 30 111 30q89 0 142 -57.5t53 -148.5q0 -96 -62 -155t-161 -59z" />
    <glyph glyph-name="six" unicode="6" horiz-adv-x="569" 
d="M327 413q88 0 142 -54.5t54 -143.5q0 -99 -65 -163t-165 -64q-115 0 -179 78t-64 217q0 175 99.5 287t255.5 112q85 0 124 -23l-16 -31q-42 16 -93 16q-127 0 -198.5 -86.5t-78.5 -249.5h8q51 105 176 105zM300 27q61 0 96 46t35 126q0 77 -37.5 120t-104.5 43
q-103 0 -146 -115q8 -220 157 -220z" />
    <glyph glyph-name="seven" unicode="7" horiz-adv-x="475" 
d="M470 505l-359 -645h-75l356 582h-367l27 88h401z" />
    <glyph glyph-name="eight" unicode="8" horiz-adv-x="534" 
d="M331 365l54 -30q114 -63 114 -165q0 -79 -64.5 -130.5t-164.5 -51.5q-108 0 -171.5 47t-63.5 124q0 119 167 184l-30 15q-112 58 -112 160q0 72 57.5 118t147.5 46t147.5 -43.5t57.5 -112.5q0 -100 -139 -161zM143 543q0 -75 84 -121l75 -41q85 45 85 144q0 58 -31.5 90
t-90.5 32q-57 0 -89.5 -27.5t-32.5 -76.5zM270 24q62 0 97 35t35 94q0 88 -99 138l-71 36q-55 -27 -78.5 -64t-23.5 -93q0 -146 140 -146z" />
    <glyph glyph-name="nine" unicode="9" horiz-adv-x="569" 
d="M276 542q115 0 179 -78t64 -217q0 -175 -99.5 -287t-255.5 -112q-85 0 -124 23l16 31q42 -16 93 -16q127 0 198.5 86.5t78.5 249.5h-8q-51 -105 -176 -105q-88 0 -142 54.5t-54 143.5q0 99 65 163t165 64zM280 168q103 0 146 115q-8 220 -157 220q-61 0 -96 -46t-35 -126
q0 -77 37.5 -120t104.5 -43z" />
    <glyph glyph-name="colon" unicode=":" horiz-adv-x="264" 
d="M132 358q-30 0 -51 21t-21 51t21 51t51 21t51 -21t21 -51t-21 -51t-51 -21zM132 -6q-30 0 -51 21t-21 51t21 51t51 21t51 -21t21 -51t-21 -51t-51 -21z" />
    <glyph glyph-name="semicolon" unicode=";" horiz-adv-x="294" 
d="M143 358q-30 0 -51 21t-21 51t21 51t51 21t51 -21t21 -51t-21 -51t-51 -21zM93 -151l-4 20q80 21 80 90q0 15 -7.5 24.5t-16.5 13.5t-26 8q-59 17 -59 67q0 29 19.5 47.5t50.5 18.5q41 0 67.5 -33t26.5 -87q0 -74 -39.5 -116.5t-91.5 -52.5z" />
    <glyph glyph-name="less" unicode="&#x3c;" 
d="M490 114v-50l-400 192v42l400 192v-50l-340 -161v-4z" />
    <glyph glyph-name="equal" unicode="=" 
d="M490 355h-400v43h400v-43zM490 215h-400v43h400v-43z" />
    <glyph glyph-name="greater" unicode="&#x3e;" 
d="M490 256l-400 -192v50l340 161v4l-340 161v50l400 -192v-42z" />
    <glyph glyph-name="question" unicode="?" horiz-adv-x="508" 
d="M255 230h-50v39q0 71 71 135q46 40 67.5 74t21.5 81q0 65 -35 103t-109 38q-64 0 -109 -39t-57 -123l-35 7q11 106 80.5 163.5t164.5 57.5q90 0 146.5 -49.5t56.5 -130.5q0 -65 -33.5 -109.5t-106.5 -101.5q-48 -33 -60.5 -56.5t-12.5 -65.5v-23zM233 -6q-30 0 -51 21
t-21 51t21 51t51 21t51 -21t21 -51t-21 -51t-51 -21z" />
    <glyph glyph-name="at" unicode="@" horiz-adv-x="859" 
d="M447 -90q-180 0 -288.5 117.5t-108.5 278.5q0 80 25.5 153t74 131t125.5 92.5t173 34.5q163 0 262 -101.5t99 -250.5q0 -114 -53 -191.5t-133 -77.5q-113 0 -118 81h-5q-10 -44 -43 -65t-74 -21q-47 0 -83 27.5t-36 76.5q0 121 181 146l57 8v32q0 50 -27.5 76.5
t-73.5 26.5q-83 0 -105 -83l-22 7q22 135 165 135q60 0 99 -39.5t39 -104.5v-210q0 -32 17.5 -48t42.5 -16q54 0 95 69.5t41 175.5q0 81 -37 151t-114 116t-179 46q-83 0 -151 -32t-112 -85.5t-67.5 -120.5t-23.5 -139q0 -70 24.5 -134t69.5 -114.5t115 -80.5t155 -30
q98 0 159 23t108 81l19 -15q-92 -126 -292 -126zM412 144q37 0 57.5 18.5t32.5 52.5v105l-57 -10q-57 -10 -79 -34t-22 -59q0 -34 19.5 -53.5t48.5 -19.5z" />
    <glyph glyph-name="A" unicode="A" horiz-adv-x="728" 
d="M404 721l222 -599q19 -52 41.5 -72.5t50.5 -24.5v-25h-269v26q62 2 78 20t-3 73l-51 140h-261l-48 -133q-19 -59 -4.5 -78.5t72.5 -21.5v-26h-222v25q42 4 62 26t42 81l205 554zM282 452l-57 -157h235l-57 158q-56 154 -57 188h-5q-1 -31 -59 -189z" />
    <glyph glyph-name="B" unicode="B" horiz-adv-x="676" 
d="M387 365h31q100 0 156.5 -50t56.5 -122q0 -81 -61.5 -137t-186.5 -56h-338v25q57 2 77 24.5t20 84.5v432q0 63 -20 85t-77 24v25h332q106 0 163.5 -46.5t57.5 -124.5q0 -64 -49.5 -109.5t-131.5 -48.5l-30 -1v-5zM346 665h-109v-281h120q66 0 103.5 37t37.5 103
q0 81 -38.5 111t-113.5 30zM304 35h77q75 0 112.5 41.5t37.5 115.5q0 72 -43 114.5t-119 42.5h-132v-248q0 -34 14.5 -50t52.5 -16z" />
    <glyph glyph-name="C" unicode="C" horiz-adv-x="687" 
d="M381 -17q-146 0 -238.5 100t-92.5 259q0 173 96.5 274t262.5 101q136 0 213 -45v-198h-31q-45 187 -215 187q-110 0 -171 -72t-61 -201q0 -140 74.5 -222.5t201.5 -82.5q140 0 204 121l28 -12q-28 -99 -99 -154t-172 -55z" />
    <glyph glyph-name="D" unicode="D" horiz-adv-x="766" 
d="M339 0h-294v25q57 2 77 24.5t20 84.5v432q0 63 -20 85t-77 24v25h287q182 0 280.5 -92.5t98.5 -257.5q0 -166 -94.5 -258t-277.5 -92zM304 43h46q125 0 190.5 80.5t65.5 226.5q0 307 -282 307h-87v-548q0 -34 14.5 -50t52.5 -16z" />
    <glyph glyph-name="E" unicode="E" horiz-adv-x="677" 
d="M597 220h30l-22 -220h-560v25q57 2 77 24.5t20 84.5v432q0 63 -20 85t-77 24v25h545l21 -200h-31q-23 92 -73 129t-153 37h-117v-279h75q68 0 93.5 25t33.5 95h26v-279h-26q-9 72 -34.5 97.5t-92.5 25.5h-75v-251q0 -34 14.5 -50t52.5 -16h64q105 0 153.5 40.5
t75.5 145.5z" />
    <glyph glyph-name="F" unicode="F" horiz-adv-x="630" 
d="M45 700h545l20 -199h-30q-20 89 -71 127.5t-153 38.5h-119v-292h63q68 0 94.5 26t33.5 93h26v-278h-26q-8 70 -34 96t-94 26h-63v-204q0 -66 24.5 -86.5t102.5 -22.5v-25h-319v25q57 2 77 24.5t20 84.5v432q0 63 -20 85t-77 24v25z" />
    <glyph glyph-name="G" unicode="G" horiz-adv-x="765" 
d="M432 320h308v-25q-36 0 -50 -17.5t-14 -61.5v-150q-113 -83 -256 -83q-156 0 -263 106t-107 261q0 163 108.5 265t278.5 102q139 0 225 -42v-172h-29q-18 80 -75.5 122.5t-147.5 42.5q-117 0 -183.5 -84t-66.5 -233q0 -145 69.5 -229.5t188.5 -84.5q53 0 99.5 21t63.5 53
v102q-1 41 -29.5 60t-94.5 21l-25 1v25z" />
    <glyph glyph-name="H" unicode="H" horiz-adv-x="832" 
d="M690 566v-432q0 -63 20 -84t77 -25v-25h-289v25q59 4 78 24.5t19 84.5v209h-358v-209q0 -64 19.5 -84.5t77.5 -24.5v-25h-289v25q58 4 77.5 25t19.5 84v432q0 63 -20 84t-77 25v25h289v-25q-59 -4 -78 -24.5t-19 -84.5v-182h358v182q0 64 -19.5 84.5t-77.5 24.5v25h289
v-25q-58 -4 -77.5 -25t-19.5 -84z" />
    <glyph glyph-name="I" unicode="I" horiz-adv-x="379" 
d="M237 566v-432q0 -63 20 -84t77 -25v-25h-289v25q58 4 77.5 26t19.5 83v432q0 63 -20 84t-77 25v25h289v-25q-61 -5 -79 -25t-18 -84z" />
    <glyph glyph-name="J" unicode="J" horiz-adv-x="337" 
d="M81 -170q-55 0 -94 31l14 30q25 -14 56 -14q40 0 59 28.5t19 67.5v593q0 62 -20 83.5t-77 25.5v25h289v-25q-61 -5 -79 -24.5t-18 -84.5v-571q0 -165 -149 -165z" />
    <glyph glyph-name="K" unicode="K" horiz-adv-x="765" 
d="M237 566v-432q0 -63 20 -84t77 -25v-25h-289v25q58 4 77.5 26t19.5 83v432q0 63 -20 84t-77 25v25h289v-25q-61 -5 -79 -25t-18 -84zM346 389l274 -302q29 -32 67.5 -47.5t67.5 -15.5v-24h-191l-309 354l226 229q44 45 44 64q0 15 -15.5 21.5t-59.5 6.5v25h265v-24
q-57 -3 -94.5 -23t-72.5 -57z" />
    <glyph glyph-name="L" unicode="L" horiz-adv-x="634" 
d="M574 240h25l-26 -240h-528v25q58 4 77.5 26t19.5 83v432q0 63 -20 84t-77 25v25h289v-25q-61 -5 -79 -25t-18 -84v-467q0 -34 14.5 -50t52.5 -16h61q83 0 127 44.5t82 162.5z" />
    <glyph glyph-name="M" unicode="M" horiz-adv-x="987" 
d="M474 -5h-19l-202 476q-35 83 -46 139h-4q0 -68 -3 -135l-17 -330q-3 -53 5 -76t28 -31t72 -13v-25h-258v24q65 7 84 27.5t23 93.5l26 439q3 51 -17 69t-77 23v24h197l187 -459q30 -75 36 -110h5q6 26 43 116l195 453h190v-24q-59 -5 -79.5 -24t-18.5 -69l25 -449
q3 -65 23 -84t85 -26v-24h-297v25q65 5 83 24.5t14 84.5l-21 346q-3 67 -2 120h-4q-9 -33 -44 -113z" />
    <glyph glyph-name="N" unicode="N" horiz-adv-x="797" 
d="M685 -5h-40l-415 541q-35 47 -46 81l-4 -1q7 -40 7 -103v-396q1 -53 20 -68.5t85 -23.5v-25h-247v25q58 4 77.5 26t19.5 83v510q-19 17 -36 22t-61 9v24h192l333 -438q45 -60 69 -112l5 2q-4 48 -4 114v306q0 61 -19 78.5t-86 25.5v25h247v-25q-61 -5 -79 -25t-18 -84
v-571z" />
    <glyph glyph-name="O" unicode="O" horiz-adv-x="838" 
d="M419 -17q-161 0 -265 103.5t-104 263.5t104 263.5t265 103.5t265 -103.5t104 -263.5t-104 -263.5t-265 -103.5zM419 32q116 0 185 86t69 232t-69 232t-185 86t-185 -86t-69 -232t69 -232t185 -86z" />
    <glyph glyph-name="P" unicode="P" horiz-adv-x="601" 
d="M364 0h-319v25q58 4 77.5 26t19.5 83v432q0 63 -20 84t-77 25v25h306q93 0 159 -46t66 -137q0 -50 -21 -88.5t-55 -60.5t-74 -33.5t-83 -11.5h-106v-189q0 -66 24 -85.5t103 -23.5v-25zM237 668v-311h91q148 0 148 161q0 150 -139 150h-100z" />
    <glyph glyph-name="Q" unicode="Q" horiz-adv-x="838" 
d="M755 -210q-128 0 -245 56.5t-283 176.5q-177 129 -177 327q0 160 104 263.5t265 103.5t265 -103.5t104 -263.5q0 -165 -105.5 -266t-281.5 -101v-5q49 -9 86 -31q86 -51 161 -74t181 -23q27 0 72.5 8t61.5 20l12 -17q-82 -71 -220 -71zM419 32q116 0 185 86t69 232
t-69 232t-185 86t-185 -86t-69 -232t69 -232t185 -86z" />
    <glyph glyph-name="R" unicode="R" horiz-adv-x="717" 
d="M334 0h-289v25q58 4 77.5 26t19.5 83v432q0 63 -20 84t-77 25v25h307q98 0 161 -40t63 -125q0 -84 -57 -128.5t-149 -46.5l-37 -1v-6l37 -1q64 -1 94.5 -29.5t72.5 -110.5l59 -115q38 -73 111 -73v-24h-165q-16 16 -51 88l-48 99q-41 86 -61 110q-35 43 -87 43h-58v-206
q0 -63 20 -84t77 -25v-25zM237 666v-292h77q90 0 125.5 43t35.5 117q0 68 -38.5 100t-118.5 32h-81z" />
    <glyph glyph-name="S" unicode="S" horiz-adv-x="569" 
d="M281 -17q-132 0 -231 65v193h32q35 -209 215 -209q142 0 142 125q0 48 -24.5 76t-87.5 56l-124 54q-143 61 -143 181q0 88 63.5 140.5t180.5 52.5q108 0 196 -45v-180h-29q-37 177 -190 177q-68 0 -103.5 -29t-35.5 -81q0 -39 25.5 -69t88.5 -56l127 -55q73 -32 107 -76
t34 -110q0 -93 -65 -151.5t-178 -58.5z" />
    <glyph glyph-name="T" unicode="T" horiz-adv-x="626" 
d="M581 720h25v-235h-30q-11 96 -39 135t-91 39h-85v-525q0 -66 24 -85.5t103 -23.5v-25h-349v25q79 4 103 24t24 85v525h-85q-64 0 -92.5 -40t-38.5 -134h-30v235h25q12 -20 49 -20h439q37 0 48 20z" />
    <glyph glyph-name="U" unicode="U" horiz-adv-x="758" 
d="M385 -17q-133 0 -205.5 73.5t-72.5 209.5v300q0 63 -20 84t-77 25v25h299v-25q-61 -5 -79 -24.5t-18 -84.5v-305q0 -105 49.5 -159.5t146.5 -54.5q190 0 190 223v296q0 63 -20 84t-77 25v25h247v-25q-61 -5 -79 -24.5t-18 -84.5v-304q0 -130 -71.5 -204.5t-194.5 -74.5z
" />
    <glyph glyph-name="V" unicode="V" horiz-adv-x="712" 
d="M378 -5h-40l-256 624q-12 29 -29.5 42t-47.5 15v24h273v-25q-50 -2 -67.5 -10.5t-17.5 -32.5q0 -18 12 -49l138 -357q31 -81 35 -120h5q5 44 36 120l142 357q11 27 11 48q0 26 -17 34t-67 10v25h219v-24q-36 -2 -55.5 -20t-40.5 -71z" />
    <glyph glyph-name="W" unicode="W" horiz-adv-x="1053" 
d="M366 -5h-44l-211 593q-17 48 -40.5 67t-60.5 21v24h280v-25q-49 -4 -65 -12.5t-16 -35.5q0 -20 10 -49l126 -386q13 -41 17 -87h5q2 42 18 90l116 353l-21 60q-14 43 -29.5 53.5t-58.5 14.5v24h271v-25q-50 -4 -67.5 -12.5t-17.5 -32.5q0 -18 8 -42l129 -386
q18 -54 20 -94h5q3 42 20 94l125 376q8 24 8 44q0 30 -18.5 39.5t-72.5 13.5v25h241v-24q-39 -5 -64 -23t-40 -61l-200 -597h-45l-146 434q-13 37 -13 86h-6q-4 -46 -18 -88z" />
    <glyph glyph-name="X" unicode="X" horiz-adv-x="722" 
d="M240 0h-225v24q37 3 60 18.5t55 56.5l186 243l-199 278q-21 30 -41 41t-60 15v24h285v-24q-76 0 -76 -34q0 -10 13 -28l107 -151q25 -38 28 -62h5q3 18 35 64l99 129q23 31 23 47q0 19 -17 26.5t-57 7.5v25h235v-24q-40 -4 -65.5 -20t-63.5 -64l-165 -210l199 -280
q29 -46 49 -60.5t57 -17.5v-24h-273v24q39 2 55.5 8.5t16.5 23.5t-17 42l-113 159q-25 38 -28 62h-5q-3 -18 -35 -64l-122 -158q-18 -24 -18 -39q0 -18 16.5 -25t55.5 -9v-24z" />
    <glyph glyph-name="Y" unicode="Y" horiz-adv-x="665" 
d="M450 675v25h210v-24q-25 -3 -43 -19.5t-42 -51.5l-189 -314v-157q0 -66 24 -85.5t103 -23.5v-25h-349v25q79 4 103 24t24 85v156l-178 288q-34 55 -55.5 73.5t-52.5 24.5v24h280v-25q-54 -2 -71 -9.5t-17 -29.5q0 -18 18 -47l120 -193q29 -44 34 -69h5q3 21 29 66
l117 196q16 27 16 47q0 35 -86 39z" />
    <glyph glyph-name="Z" unicode="Z" horiz-adv-x="644" 
d="M581 0h-529l-17 33l428 603q13 18 25 22l-2 5q-16 -6 -33 -6h-172q-101 0 -136.5 -32.5t-61.5 -143.5h-31l21 219h507l16 -32l-425 -601q-14 -19 -29 -25l2 -5q14 6 34 6h169q105 0 151 37t75 138h31z" />
    <glyph glyph-name="bracketleft" unicode="[" horiz-adv-x="276" 
d="M266 735h-15q-86 0 -86 -51v-732q0 -51 86 -51h15v-25h-186v884h186v-25z" />
    <glyph glyph-name="backslash" unicode="\" horiz-adv-x="291" 
d="M281 -67h-43l-228 804h45z" />
    <glyph glyph-name="bracketright" unicode="]" horiz-adv-x="276" 
d="M25 735h-15v25h186v-884h-186v25h15q86 0 86 51v732q0 51 -86 51z" />
    <glyph glyph-name="asciicircum" unicode="^" horiz-adv-x="348" 
d="M59 460h-44l152 245h14l152 -245h-44l-115 190z" />
    <glyph glyph-name="underscore" unicode="_" horiz-adv-x="456" 
d="M456 -17v-43h-456v43h456z" />
    <glyph glyph-name="grave" unicode="`" horiz-adv-x="600" 
d="M216 580h-26l-140 139v21h87z" />
    <glyph glyph-name="a" unicode="a" horiz-adv-x="518" 
d="M486 77l17 -10q-23 -77 -95 -77q-39 0 -62 24t-22 69h-6q-9 -38 -45 -66.5t-90 -28.5q-65 0 -101.5 32.5t-36.5 93.5q0 59 41.5 95.5t130.5 54.5l105 21v32q0 117 -111 117q-97 0 -128 -82l-27 8q14 61 59 101.5t127 40.5q75 0 120 -44t45 -133v-219q0 -53 40 -53
q25 0 39 24zM220 41q75 0 102 90v120l-55 -10q-127 -24 -127 -113q0 -40 20.5 -63.5t59.5 -23.5z" />
    <glyph glyph-name="b" unicode="b" horiz-adv-x="566" 
d="M334 502q86 0 139 -62t53 -162q0 -128 -73 -209t-188 -81q-97 0 -175 55v611q0 28 -9.5 39t-32.5 11q-16 0 -38 -3v22l140 37h25v-283q0 -50 -19 -103l6 -3q16 60 63 95.5t109 35.5zM288 27q68 0 107.5 58.5t39.5 159.5q0 86 -36 133t-102 47q-91 0 -122 -68v-272
q14 -25 46 -41.5t67 -16.5z" />
    <glyph glyph-name="c" unicode="c" horiz-adv-x="478" 
d="M263 -12q-100 0 -161.5 66.5t-61.5 178.5q0 114 63.5 191.5t176.5 77.5q82 0 146 -28v-141h-28q-16 60 -49.5 89t-90.5 29q-67 0 -104.5 -44t-37.5 -124q0 -92 50.5 -148.5t133.5 -56.5q86 0 125 66l23 -10q-16 -64 -62.5 -105t-122.5 -41z" />
    <glyph glyph-name="d" unicode="d" horiz-adv-x="572" 
d="M547 25v-25h-154v38q0 42 12 79l-5 3q-44 -132 -168 -132q-88 0 -142.5 66t-54.5 168q0 124 70.5 202t180.5 78q62 0 100 -26v178q0 26 -9.5 37t-33.5 11q-18 0 -61 -8v22l164 44h25v-684q0 -26 16 -35.5t60 -15.5zM386 130v291q-30 42 -102 42t-114.5 -56t-42.5 -150
q0 -90 38.5 -141.5t106.5 -51.5q78 0 114 66z" />
    <glyph glyph-name="e" unicode="e" horiz-adv-x="489" 
d="M295 78q94 0 130 65l24 -12q-16 -61 -66 -102t-123 -41q-104 0 -162 68.5t-58 180.5q0 116 58.5 190.5t161.5 74.5q92 0 140.5 -58t48.5 -154h-334q4 -99 50.5 -155.5t129.5 -56.5zM241 462q-56 0 -88.5 -37t-36.5 -101h226q0 63 -24.5 100.5t-76.5 37.5z" />
    <glyph glyph-name="f" unicode="f" horiz-adv-x="362" 
d="M291 766q65 0 116 -21v-122h-34q-20 92 -102 92q-93 0 -93 -125q0 -54 21 -100h130v-50h-131v-344q0 -41 21 -54t82 -17v-25h-271v25q49 4 66 17.5t17 53.5v344h-83v22l83 28v77q0 96 47 147.5t131 51.5z" />
    <glyph glyph-name="g" unicode="g" horiz-adv-x="550" 
d="M515 440h-40q-43 0 -91 19l-3 -6q77 -23 77 -120q0 -75 -56 -121.5t-143 -46.5q-40 0 -71 10q-31 -3 -45 -17t-14 -33q0 -44 73 -49l163 -10q73 -5 111.5 -32t38.5 -86q0 -74 -66 -129.5t-203 -55.5q-97 0 -154 33.5t-57 85.5q0 39 23.5 65.5t81.5 42.5v6q-35 10 -56 35
t-21 59q0 29 20.5 55t60.5 40v7q-84 47 -84 141q0 75 56 122t143 47q43 0 79 -12h177v-50zM259 200q49 0 79 33t30 100q0 66 -29.5 100t-79.5 34q-49 0 -79 -33.5t-30 -100.5t30 -100t79 -33zM337 -17l-161 8q-59 -23 -59 -80q0 -47 47.5 -74t133.5 -27q74 0 116 25t42 68
q0 75 -119 80z" />
    <glyph glyph-name="h" unicode="h" horiz-adv-x="611" 
d="M262 0h-237v25q52 5 67.5 18t15.5 53v558q0 30 -9 40t-36 10q-14 0 -35 -3v22l140 37h25v-240q0 -90 -18 -147l5 -2q18 62 64 96.5t112 34.5q69 0 110.5 -42t41.5 -133v-231q0 -41 15.5 -53t67.5 -18v-25h-234v25q39 8 52.5 19.5t13.5 39.5v229q0 62 -28.5 92t-78.5 30
q-87 0 -123 -76v-263q0 -39 13.5 -52t55.5 -19v-25z" />
    <glyph glyph-name="i" unicode="i" horiz-adv-x="309" 
d="M152 565q-28 0 -47 19t-19 47t19 47t47 19t47 -19t19 -47t-19 -47t-47 -19zM284 25v-25h-251v25q51 4 67 17t16 54v286q0 26 -10.5 36.5t-36.5 10.5q-15 0 -39 -3v25l146 39h25v-394q0 -41 16 -53.5t67 -17.5z" />
    <glyph glyph-name="j" unicode="j" horiz-adv-x="292" 
d="M148 565q-28 0 -47 19t-19 47t19 47t47 19t47 -19t19 -47t-19 -47t-47 -19zM68 -237q-50 0 -81 19l7 29q28 -10 49 -10q69 0 69 83v498q0 25 -10.5 36t-35.5 11q-14 0 -40 -3v25l146 39h25v-589q0 -74 -36 -106t-93 -32z" />
    <glyph glyph-name="k" unicode="k" horiz-adv-x="586" 
d="M262 0h-237v25q52 6 67.5 18.5t15.5 52.5v558q0 29 -9 39.5t-34 10.5q-16 0 -37 -3v22l140 37h25v-664q0 -39 13.5 -52t55.5 -19v-25zM576 0h-141l-227 257l144 118q47 39 47 63q0 16 -12 21.5t-39 5.5v25h198v-25q-50 -7 -121 -67l-124 -104v-5l171 -191
q20 -22 31.5 -33t31 -23t41.5 -17v-25z" />
    <glyph glyph-name="l" unicode="l" horiz-adv-x="301" 
d="M276 25v-25h-251v25q52 5 67.5 18t15.5 53v558q0 29 -8.5 39.5t-32.5 10.5q-12 0 -39 -3v22l140 37h25v-664q0 -41 15.5 -53t67.5 -18z" />
    <glyph glyph-name="m" unicode="m" horiz-adv-x="891" 
d="M871 25v-25h-234v25q38 6 52 18.5t14 40.5v230q0 121 -98 121q-83 0 -109 -77v-262q0 -39 13.5 -52.5t55.5 -18.5v-25h-220v25q38 6 52 18.5t14 40.5v230q0 121 -97 121q-76 0 -109 -74v-276q0 -29 15 -42.5t53 -17.5v-25h-236v25q52 4 67.5 17t15.5 54v286
q0 26 -10.5 36t-39.5 10q-10 0 -40 -2v25l141 39h23v-55q0 -25 -7 -63l4 -1q17 60 60.5 95.5t101.5 35.5q54 0 89.5 -26.5t47.5 -76.5h6q39 103 151 103q66 0 103.5 -40.5t37.5 -113.5v-252q0 -40 15.5 -53.5t67.5 -17.5z" />
    <glyph glyph-name="n" unicode="n" horiz-adv-x="622" 
d="M602 25v-25h-234v25q39 6 52.5 18.5t13.5 40.5v227q0 124 -106 124q-91 0 -124 -75v-264q0 -40 13.5 -53t55.5 -18v-25h-237v25q51 4 67 17t16 54v300q0 33 -46 33q-10 0 -43 -3v25l141 39h23v-55q0 -23 -8 -62l5 -1q20 62 65.5 96t111.5 34q69 0 110 -42t41 -133v-231
q0 -41 16 -53.5t67 -17.5z" />
    <glyph glyph-name="o" unicode="o" horiz-adv-x="570" 
d="M285 -12q-108 0 -176.5 73.5t-68.5 183.5t68.5 183.5t176.5 73.5t176.5 -73.5t68.5 -183.5t-68.5 -183.5t-176.5 -73.5zM285 32q143 0 143 213t-143 213t-143 -213t143 -213z" />
    <glyph glyph-name="p" unicode="p" horiz-adv-x="581" 
d="M293 -225h-271v25q52 5 67.5 18t15.5 53v511q0 25 -10.5 35.5t-34.5 10.5q-13 0 -45 -2v25l141 39h23v-56q0 -18 -7 -60l4 -1q19 60 65.5 94.5t105.5 34.5q88 0 141 -62.5t53 -165.5q0 -125 -68 -205.5t-174 -80.5q-60 0 -109 30v-147q0 -40 20.5 -53t82.5 -18v-25z
M301 27q67 0 107.5 57.5t40.5 153.5q0 90 -35.5 138.5t-102.5 48.5q-41 0 -73 -17t-48 -48v-281q48 -52 111 -52z" />
    <glyph glyph-name="q" unicode="q" horiz-adv-x="564" 
d="M554 -225h-271v25q63 5 83 18t20 53v140q0 44 19 106l-6 3q-17 -60 -62 -96t-104 -36q-89 0 -143.5 63t-54.5 165q0 130 71 208t188 78q103 0 177 -50v-581q0 -41 15.5 -53t67.5 -18v-25zM261 66q91 0 125 65v277q-11 23 -41.5 38.5t-65.5 15.5q-71 0 -111.5 -56.5
t-40.5 -155.5q0 -85 36 -134.5t98 -49.5z" />
    <glyph glyph-name="r" unicode="r" horiz-adv-x="388" 
d="M342 502q20 0 31 -4v-100h-16q-16 9 -42 9q-47 0 -78.5 -28t-31.5 -88v-195q0 -40 20.5 -53t82.5 -18v-25h-271v25q52 5 67.5 18t15.5 53v286q0 25 -10.5 35.5t-36.5 10.5q-11 0 -43 -2v25l141 39h23v-73q0 -66 -2 -110h6l8 52q11 72 50.5 107.5t85.5 35.5z" />
    <glyph glyph-name="s" unicode="s" horiz-adv-x="432" 
d="M206 -12q-99 0 -161 52v120h33q14 -65 52.5 -97t91.5 -32q46 0 72 22.5t26 59.5q0 58 -70 81l-87 28q-115 36 -115 136q0 65 50.5 104.5t129.5 39.5q74 0 142 -30v-110h-34q-9 42 -41 71t-83 29q-40 0 -65 -19.5t-25 -50.5q0 -59 65 -82l101 -35q104 -36 104 -134
q0 -70 -51 -111.5t-135 -41.5z" />
    <glyph glyph-name="t" unicode="t" horiz-adv-x="350" 
d="M205 -12q-111 0 -111 120v332h-89v25q99 25 148 141h26v-116h136v-50h-136v-295q0 -49 22 -71t54 -22q33 0 68 27l17 -21q-59 -70 -135 -70z" />
    <glyph glyph-name="u" unicode="u" horiz-adv-x="584" 
d="M559 25v-25h-154v36q0 47 11 80l-6 1q-17 -60 -63 -94.5t-100 -34.5q-68 0 -110 41.5t-42 118.5v246q0 30 -15.5 37.5t-64.5 7.5v26l145 25h20v-319q0 -115 105 -115q36 0 68 20.5t45 53.5v264q0 30 -15.5 37.5t-64.5 7.5v26l145 25h20v-414q0 -26 16 -35.5t60 -15.5z
" />
    <glyph glyph-name="v" unicode="v" horiz-adv-x="536" 
d="M285 -5h-25l-194 422q-14 30 -25 39t-36 9v25h241v-25q-43 0 -61.5 -8t-18.5 -28q0 -15 9 -37l94 -214q14 -37 17 -82h5q3 32 17 63l108 233q10 23 10 38q0 20 -20.5 27.5t-65.5 7.5v25h191v-25q-35 0 -55 -48z" />
    <glyph glyph-name="w" unicode="w" horiz-adv-x="828" 
d="M422 339h-5q-4 -25 -19 -62l-118 -282h-26l-183 422q-14 30 -26 39t-40 9v25h222v-25q-32 0 -46 -8.5t-14 -27.5q0 -11 10 -37l87 -208q16 -37 16 -84h5q3 27 16 62l92 212l-19 43q-14 31 -25.5 39.5t-39.5 8.5v25h237v-25q-44 0 -59.5 -7.5t-15.5 -28.5q0 -12 8 -36
l87 -213q16 -39 16 -84h5q3 28 16 62l97 232q9 22 9 37q0 23 -16.5 30.5t-64.5 7.5v25h195v-25q-26 0 -41 -10.5t-25 -36.5l-174 -423h-26l-122 282q-13 29 -13 62z" />
    <glyph glyph-name="x" unicode="x" horiz-adv-x="547" 
d="M215 0h-200v25q33 0 56 15.5t60 61.5l100 128l-122 172q-27 38 -45 50.5t-44 12.5v25h232v-25q-29 0 -40.5 -7t-11.5 -24q0 -14 15 -35l53 -73q17 -22 19 -38h5q2 12 21 38l51 66q20 27 20 42q0 31 -53 31v25h195v-25q-34 0 -56 -15t-60 -62l-98 -122l127 -178
q26 -36 46 -49.5t47 -13.5v-25h-238v25q31 0 42.5 6t11.5 23q0 15 -14 33l-56 79q-16 20 -19 37h-5q-3 -13 -21 -37l-52 -67q-18 -22 -18 -43q0 -31 52 -31v-25z" />
    <glyph glyph-name="y" unicode="y" horiz-adv-x="536" 
d="M77 -237q-40 0 -72 13v101h22q33 -21 82 -21q41 0 76 20.5t55 58.5l14 27l-189 446q-15 38 -26 47.5t-34 9.5v25h241v-25q-81 0 -81 -47q0 -12 9 -34l96 -235q18 -43 18 -86l5 -1q4 27 18 65l96 246q9 25 9 39q0 24 -21 38.5t-59 14.5v25h195v-25q-36 0 -60 -57
l-206 -496q-36 -86 -82.5 -117.5t-105.5 -31.5z" />
    <glyph glyph-name="z" unicode="z" horiz-adv-x="477" 
d="M432 0h-392l-10 23l275 396q17 24 40 31l-2 5q-20 -5 -40 -5h-116q-53 0 -78.5 -27.5t-37.5 -99.5h-26v167h385l11 -22l-268 -395q-14 -21 -40 -33l1 -5q20 5 35 5h111q60 0 94 33.5t50 107.5h23z" />
    <glyph glyph-name="braceleft" unicode="{" horiz-adv-x="316" 
d="M301 -101v-23q-94 3 -148 52t-54 131v144q0 61 -59 96v20q59 35 59 108v150q0 82 54 131t148 52v-23q-63 -7 -90.5 -45t-27.5 -118v-132q0 -35 -13.5 -59.5t-47.5 -48.5q34 -24 47.5 -48.5t13.5 -59.5v-164q0 -78 27.5 -116.5t90.5 -46.5z" />
    <glyph glyph-name="bar" unicode="|" horiz-adv-x="200" 
d="M80 760h40v-884h-40v884z" />
    <glyph glyph-name="braceright" unicode="}" horiz-adv-x="316" 
d="M15 -124v23q63 8 90.5 46.5t27.5 116.5v164q0 35 13.5 59.5t47.5 48.5q-34 24 -47.5 48.5t-13.5 59.5v132q0 80 -27.5 118t-90.5 45v23q94 -3 148 -52t54 -131v-150q0 -73 59 -108v-20q-59 -35 -59 -96v-144q0 -82 -54 -131t-148 -52z" />
    <glyph glyph-name="asciitilde" unicode="~" horiz-adv-x="452" 
d="M282 287q-35 0 -72.5 16t-62.5 16q-58 0 -87 -32l-20 11q39 90 130 90q36 0 73 -16t62 -16q56 0 87 32l20 -11q-37 -90 -130 -90z" />
    <glyph glyph-name="uni00A0" unicode="&#xa0;" horiz-adv-x="240" 
 />
    <glyph glyph-name="exclamdown" unicode="&#xa1;" horiz-adv-x="294" 
d="M147 532q30 0 51 -21t21 -51t-21 -51t-51 -21t-51 21t-21 51t21 51t51 21zM83 -145l47 441h34l47 -441q0 -5 0.5 -11t1 -9.5t0.5 -7.5q0 -29 -18.5 -46.5t-47.5 -17.5t-47.5 17.5t-18.5 46.5q0 4 0.5 7.5t1 9.5t0.5 11z" />
    <glyph glyph-name="cent" unicode="&#xa2;" horiz-adv-x="497" 
d="M443 155l24 -11q-16 -69 -62.5 -110t-112.5 -46v-88h-32v87q-101 5 -160.5 77t-59.5 188q0 117 60 195t160 92v91h32v-88h10q76 0 142 -33v-136h-30q-28 104 -122 113v-401q7 -1 20 -1q89 0 131 71zM122 301q0 -80 37.5 -136.5t100.5 -73.5v395q-64 -5 -101 -55t-37 -130
z" />
    <glyph glyph-name="sterling" unicode="&#xa3;" horiz-adv-x="520" 
d="M444 158h26q0 -46 -9.5 -79.5t-22 -50.5t-31.5 -26.5t-32 -11.5t-29 -2q-29 0 -81.5 15t-80.5 15q-51 0 -75.5 -5t-53.5 -25l-25 25q65 65 88 110t23 91q0 54 -21 99h-74v35h57q-28 56 -28 117q0 102 59 159.5t149 57.5q92 0 167 -49v-148h-26q-21 154 -155 154
q-53 0 -91 -31.5t-38 -101.5q0 -24 7 -48.5t14 -38t21.5 -38t19.5 -33.5h172v-35h-155q8 -24 8 -47q0 -111 -90 -180l4 -4q29 20 71 20q26 0 69.5 -19t74.5 -19q17 0 29.5 2.5t27.5 11t23 29t8 51.5z" />
    <glyph glyph-name="currency" unicode="&#xa4;" horiz-adv-x="592" 
d="M165 197l-63 -63l-22 22l64 64q-46 54 -46 130t46 130l-64 64l22 22l63 -63q56 48 131 48t131 -48l63 63l22 -22l-64 -64q46 -54 46 -130t-46 -130l64 -64l-22 -22l-63 63q-56 -48 -131 -48t-131 48zM296 177q72 0 120 50.5t48 122.5t-48 122.5t-120 50.5t-120 -50.5
t-48 -122.5t48 -122.5t120 -50.5z" />
    <glyph glyph-name="yen" unicode="&#xa5;" horiz-adv-x="592" 
d="M470 0h-337v24q77 4 100 23.5t23 81.5v65h-157v30h157v62h-157v30h139l-113 219q-33 64 -56.5 86t-63.5 26v23h265v-24q-43 -2 -57.5 -10.5t-14.5 -31.5q0 -10 15 -41l118 -237h3l113 237q13 26 13 41q0 39 -70 42v24h197v-23q-55 -6 -87 -68l-134 -263h139v-30h-157v-62
h157v-30h-157v-65q0 -63 23.5 -82.5t98.5 -22.5v-24z" />
    <glyph glyph-name="brokenbar" unicode="&#xa6;" horiz-adv-x="200" 
d="M80 760h40v-392h-40v392zM120 -124h-40v392h40v-392z" />
    <glyph glyph-name="section" unicode="&#xa7;" horiz-adv-x="518" 
d="M381 92q67 -52 67 -138q0 -84 -54.5 -137.5t-149.5 -53.5q-111 0 -194 60v172h27q16 -102 65.5 -146.5t114.5 -44.5q56 0 92.5 29.5t36.5 85.5q0 45 -24 69.5t-79 49.5l-107 49q-120 55 -120 165q0 105 103 143q-78 54 -78 145q0 79 54 128t149 49q92 0 165 -46v-148h-24
q-18 82 -55 118t-99 36q-60 0 -92.5 -28.5t-32.5 -75.5q0 -72 100 -117l109 -50q118 -54 118 -164q0 -108 -92 -150zM221 171l109 -50q3 -1 7.5 -3.5t8 -4t6.5 -3.5q50 25 50 97q0 42 -20.5 67t-73.5 49l-107 49l-13 6q-63 -20 -63 -90q0 -37 21.5 -65t74.5 -52z" />
    <glyph glyph-name="dieresis" unicode="&#xa8;" horiz-adv-x="600" 
d="M106 582q-23 0 -39.5 16t-16.5 40t16.5 40t39.5 16t39.5 -16t16.5 -40t-16.5 -40t-39.5 -16zM296 582q-23 0 -39.5 16t-16.5 40t16.5 40t39.5 16t39.5 -16t16.5 -40t-16.5 -40t-39.5 -16z" />
    <glyph glyph-name="copyright" unicode="&#xa9;" horiz-adv-x="880" 
d="M440 -40q-173 0 -281.5 108t-108.5 282t108.5 282t281.5 108t281.5 -108t108.5 -282t-108.5 -282t-281.5 -108zM440 -9q155 0 255 99t100 260t-100 260t-255 99q-154 0 -254.5 -99t-100.5 -260t100.5 -260t254.5 -99zM444 152q-80 0 -131.5 56t-51.5 145q0 96 55 152.5
t146 56.5q74 0 119 -25v-116h-21q-22 103 -114 103q-58 0 -90.5 -37t-32.5 -105q0 -75 41 -120.5t106 -45.5q74 0 108 63l19 -7q-16 -57 -56 -88.5t-97 -31.5z" />
    <glyph glyph-name="ordfeminine" unicode="&#xaa;" horiz-adv-x="436" 
d="M388 386l14 -9q-17 -56 -75 -56q-63 0 -66 64h-4q-8 -27 -34.5 -46t-65.5 -19q-47 0 -74 23t-27 66q0 82 129 107l74 14v21q0 79 -79 79q-69 0 -94 -57l-21 8q10 44 44.5 72.5t95.5 28.5q60 0 93.5 -32.5t33.5 -97.5v-147q0 -35 28 -35q17 0 28 16zM192 362q49 0 67 54
v89l-38 -7q-86 -16 -86 -76q0 -28 15 -44t42 -16z" />
    <glyph glyph-name="guillemotleft" unicode="&#xab;" horiz-adv-x="582" 
d="M70 284l217 197v-30l-125 -183l125 -183v-30l-217 197v32zM285 284l217 197v-30l-125 -183l125 -183v-30l-217 197v32z" />
    <glyph glyph-name="logicalnot" unicode="&#xac;" 
d="M90 363h399v-221h-43v178h-356v43z" />
    <glyph glyph-name="uni00AD" unicode="&#xad;" horiz-adv-x="364" 
d="M40 338h284v-63h-284v63z" />
    <glyph glyph-name="registered" unicode="&#xae;" horiz-adv-x="556" 
d="M278 668q103 0 165.5 -67.5t62.5 -165.5t-62.5 -165.5t-165.5 -67.5t-165.5 67.5t-62.5 165.5t62.5 165.5t165.5 67.5zM278 231q89 0 142.5 59t53.5 145t-53.5 145t-142.5 59t-142.5 -59t-53.5 -145t53.5 -145t142.5 -59zM355 387l20 -42q12 -26 28 -28v-12h-49
q-7 11 -19 37l-16 35q-11 24 -15.5 32.5t-14.5 16.5t-23 8h-22v-74q0 -42 31 -42h5v-13h-107v13h6q17 0 23.5 9.5t6.5 32.5v160q0 21 -6 31.5t-24 10.5h-6v13h114q36 0 59.5 -15.5t23.5 -48.5q0 -32 -19.5 -48t-49.5 -18l-21 -1v-3h13q19 0 33 -11.5t29 -42.5zM244 559v-107
h29q59 0 59 59q0 48 -57 48h-31z" />
    <glyph glyph-name="macron" unicode="&#xaf;" horiz-adv-x="600" 
d="M301 618h-251v38h251v-38z" />
    <glyph glyph-name="degree" unicode="&#xb0;" horiz-adv-x="376" 
d="M188 489q-54 0 -91 34.5t-37 87.5t37 87.5t91 34.5t91 -34.5t37 -87.5t-37 -87.5t-91 -34.5zM188 528q35 0 57.5 21.5t22.5 61.5t-22.5 61.5t-57.5 21.5t-57.5 -21.5t-22.5 -61.5t22.5 -61.5t57.5 -21.5z" />
    <glyph glyph-name="plusminus" unicode="&#xb1;" 
d="M312 506v-178h178v-43h-178v-178h-43v178h-179v43h179v178h43zM490 0h-400v43h400v-43z" />
    <glyph glyph-name="uni00B2" unicode="&#xb2;" horiz-adv-x="445" 
d="M357 328h-301l-5 17l98 90q72 66 102.5 117.5t30.5 102.5q0 45 -23.5 74t-69.5 29q-88 0 -107 -101l-23 4q6 69 51.5 106.5t112.5 37.5q64 0 102 -31t38 -86q0 -61 -42.5 -115.5t-125.5 -124.5l-53 -45v-5h164q28 0 43 10t27 42h21z" />
    <glyph glyph-name="uni00B3" unicode="&#xb3;" horiz-adv-x="420" 
d="M51 395l20 13q45 -51 107 -51q47 0 75.5 26t28.5 71t-32 71t-86 26h-37v33h30q50 0 79.5 26.5t29.5 71.5q0 40 -22 63t-63 23q-64 0 -100 -67l-23 11q41 93 152 93q64 0 101 -30t37 -79q0 -51 -38.5 -85.5t-97.5 -36.5l-21 -1v-6h27q67 0 107 -31t40 -84
q0 -57 -45.5 -94.5t-117.5 -37.5q-100 0 -151 75z" />
    <glyph glyph-name="acute" unicode="&#xb4;" horiz-adv-x="600" 
d="M216 719l-140 -139h-26l79 160h87v-21z" />
    <glyph glyph-name="uni00B5" unicode="&#xb5;" horiz-adv-x="584" 
d="M234 -150h-139v544q0 24 -11.5 34.5t-38.5 10.5h-30v26l145 25h20v-319q0 -115 105 -115q36 0 68 20.5t45 53.5v264q0 24 -11.5 34.5t-38.5 10.5h-30v26l145 25h20v-414q0 -23 13 -34t48 -15l15 -2v-25h-154v36q0 47 11 80l-6 1q-17 -60 -63 -94.5t-100 -34.5
q-79 0 -120 53v-37q0 -68 21 -98.5t81 -30.5h5v-25z" />
    <glyph glyph-name="paragraph" unicode="&#xb6;" horiz-adv-x="568" 
d="M259 700h299v-25l-25 -2q-40 -3 -56 -26.5t-16 -80.5v-696h-37v797h-128v-797h-37v470q-102 0 -168 47.5t-66 132.5t66 132.5t168 47.5z" />
    <glyph glyph-name="periodcentered" unicode="&#xb7;" horiz-adv-x="264" 
d="M132 292q-30 0 -51 21t-21 51t21 51t51 21t51 -21t21 -51t-21 -51t-51 -21z" />
    <glyph glyph-name="cedilla" unicode="&#xb8;" horiz-adv-x="600" 
d="M227 -148q0 -38 -25.5 -63.5t-65.5 -25.5q-33 0 -56 17.5t-30 46.5l14 4q16 -36 54 -36q25 0 41.5 16t16.5 43q0 23 -12 38t-33 15q-23 0 -41 -18l-12 8l61 107h25l-49 -80q12 9 34 9q34 0 56 -22.5t22 -58.5z" />
    <glyph glyph-name="uni00B9" unicode="&#xb9;" horiz-adv-x="386" 
d="M318 349h16l1 -21h-271l-1 21h16q45 0 63 13t19 40v294q0 56 -77 36l-18 -5l-7 20l156 58h23v-403q0 -53 80 -53z" />
    <glyph glyph-name="ordmasculine" unicode="&#xba;" horiz-adv-x="477" 
d="M238 320q-79 0 -130.5 51t-51.5 130t51.5 130t130.5 51q80 0 131.5 -51t51.5 -130t-51.5 -130t-131.5 -51zM238 352q98 0 98 149t-98 149q-97 0 -97 -149t97 -149z" />
    <glyph glyph-name="guillemotright" unicode="&#xbb;" horiz-adv-x="582" 
d="M80 451v30l217 -197v-32l-217 -197v30l125 183zM295 451v30l217 -197v-32l-217 -197v30l125 183z" />
    <glyph glyph-name="onequarter" unicode="&#xbc;" horiz-adv-x="805" 
d="M57 317h14q66 0 66 45v249q0 49 -62 32l-15 -4l-7 17l131 51h20v-345q0 -45 67 -45h13v-19h-227v19zM136 -40l429 722h53l-427 -722h-55zM766 160v-38h-61v-61q0 -20 7.5 -30t26.5 -11l14 -1v-19h-190v19l14 1q38 3 49.5 16.5t11.5 49.5v36h-179v18l194 265h51v-245h62z
M505 163v-3h135v185h-3z" />
    <glyph glyph-name="onehalf" unicode="&#xbd;" horiz-adv-x="800" 
d="M57 317h14q66 0 66 45v249q0 49 -62 32l-15 -4l-7 17l131 51h20v-345q0 -45 67 -45h13v-19h-227v19zM136 -40l429 722h53l-427 -722h-55zM737 106h19l-33 -106h-248l-5 16l80 76q108 103 108 187q0 38 -19 63t-56 25q-70 0 -87 -84l-20 4q6 59 43.5 90.5t92.5 31.5
q53 0 85 -27t32 -74q0 -53 -35 -99t-103 -106l-42 -37v-4h130q23 0 35.5 8.5t22.5 35.5z" />
    <glyph glyph-name="threequarters" unicode="&#xbe;" horiz-adv-x="831" 
d="M307 405q0 -49 -37.5 -81.5t-97.5 -32.5q-84 0 -125 65l16 11q39 -43 87 -43q39 0 62 22.5t23 61.5q0 38 -25.5 59.5t-69.5 21.5h-30v29h24q40 0 64 22.5t24 60.5q0 34 -18 53t-51 19q-52 0 -81 -56l-19 9q32 81 125 81q53 0 84.5 -26t31.5 -68q0 -43 -31.5 -72.5
t-79.5 -31.5l-18 -1v-5h24q54 0 86 -27t32 -71zM162 -40l429 722h53l-427 -722h-55zM792 160v-38h-61v-61q0 -20 7.5 -30t26.5 -11l14 -1v-19h-190v19l14 1q38 3 49.5 16.5t11.5 49.5v36h-179v18l194 265h51v-245h62zM531 163v-3h135v185h-3z" />
    <glyph glyph-name="questiondown" unicode="&#xbf;" horiz-adv-x="436" 
d="M265 535q30 0 51 -21t21 -51t-21 -51t-51 -21t-51 21t-21 51t21 51t51 21zM243 299h50v-39q0 -73 -71 -135q-46 -40 -67.5 -74t-21.5 -81q0 -65 35 -103t109 -38q59 0 101 29.5t53 92.5l35 -7q-10 -87 -76 -134t-157 -47q-90 0 -146.5 49.5t-56.5 130.5q0 67 35 114.5
t105 96.5q48 33 60.5 56.5t12.5 65.5v23z" />
    <glyph glyph-name="Agrave" unicode="&#xc0;" horiz-adv-x="728" 
d="M297 890l88 -140h-46l-129 115v25h87zM404 721l222 -599q19 -52 41.5 -72.5t50.5 -24.5v-25h-269v26q62 2 78 20t-3 73l-51 140h-261l-48 -133q-19 -59 -4.5 -78.5t72.5 -21.5v-26h-222v25q42 4 62 26t42 81l205 554zM282 452l-57 -157h235l-57 158q-56 154 -57 188h-5
q-1 -31 -59 -189z" />
    <glyph glyph-name="Aacute" unicode="&#xc1;" horiz-adv-x="728" 
d="M514 890v-25l-129 -114h-46l88 139h87zM404 721l222 -599q19 -52 41.5 -72.5t50.5 -24.5v-25h-269v26q62 2 78 20t-3 73l-51 140h-261l-48 -133q-19 -59 -4.5 -78.5t72.5 -21.5v-26h-222v25q42 4 62 26t42 81l205 554zM282 452l-57 -157h235l-57 158q-56 154 -57 188h-5
q-1 -31 -59 -189z" />
    <glyph glyph-name="Acircumflex" unicode="&#xc2;" horiz-adv-x="728" 
d="M486 751l-124 75l-124 -75h-44l145 139h46l145 -139h-44zM404 721l222 -599q19 -52 41.5 -72.5t50.5 -24.5v-25h-269v26q62 2 78 20t-3 73l-51 140h-261l-48 -133q-19 -59 -4.5 -78.5t72.5 -21.5v-26h-222v25q42 4 62 26t42 81l205 554zM282 452l-57 -157h235l-57 158
q-56 154 -57 188h-5q-1 -31 -59 -189z" />
    <glyph glyph-name="Atilde" unicode="&#xc3;" horiz-adv-x="728" 
d="M301 803q-42 0 -65 -39h-24q3 56 33 81t69 25q30 0 63 -20t57 -20q42 0 65 39h24q-3 -56 -33 -81t-69 -25q-29 0 -63 20t-57 20zM404 721l222 -599q19 -52 41.5 -72.5t50.5 -24.5v-25h-269v26q62 2 78 20t-3 73l-51 140h-261l-48 -133q-19 -59 -4.5 -78.5t72.5 -21.5v-26
h-222v25q42 4 62 26t42 81l205 554zM282 452l-57 -157h235l-57 158q-56 154 -57 188h-5q-1 -31 -59 -189z" />
    <glyph glyph-name="Adieresis" unicode="&#xc4;" horiz-adv-x="728" 
d="M257 768q-23 0 -39.5 16t-16.5 40t16.5 40t39.5 16t39.5 -16t16.5 -40t-16.5 -40t-39.5 -16zM467 768q-23 0 -39.5 16t-16.5 40t16.5 40t39.5 16t39.5 -16t16.5 -40t-16.5 -40t-39.5 -16zM404 721l222 -599q19 -52 41.5 -72.5t50.5 -24.5v-25h-269v26q62 2 78 20t-3 73
l-51 140h-261l-48 -133q-19 -59 -4.5 -78.5t72.5 -21.5v-26h-222v25q42 4 62 26t42 81l205 554zM282 452l-57 -157h235l-57 158q-56 154 -57 188h-5q-1 -31 -59 -189z" />
    <glyph glyph-name="Aring" unicode="&#xc5;" horiz-adv-x="728" 
d="M364 724q-41 0 -69.5 27.5t-28.5 70.5t28.5 70.5t69.5 27.5t69.5 -27.5t28.5 -70.5t-28.5 -70.5t-69.5 -27.5zM364 888q-29 0 -47.5 -17.5t-18.5 -48.5t18.5 -48.5t47.5 -17.5t47.5 17.5t18.5 48.5t-18.5 48.5t-47.5 17.5zM404 721l222 -599q19 -52 41.5 -72.5
t50.5 -24.5v-25h-269v26q62 2 78 20t-3 73l-51 140h-261l-48 -133q-19 -59 -4.5 -78.5t72.5 -21.5v-26h-222v25q42 4 62 26t42 81l205 554zM282 452l-57 -157h235l-57 158q-56 154 -57 188h-5q-1 -31 -59 -189z" />
    <glyph glyph-name="AE" unicode="&#xc6;" horiz-adv-x="993" 
d="M234 0h-229v25q49 4 70.5 24t56.5 83l267 479q12 23 12 37q0 16 -21.5 21.5t-89.5 5.5v25h617l20 -200h-30q-26 95 -72 130.5t-146 35.5h-71v-279h30q66 0 89.5 24t33.5 96h30v-279h-30q-10 73 -34 98t-89 25h-30v-251q0 -34 14.5 -50t52.5 -16h15q96 0 139 38.5
t74 147.5h30l-22 -220h-495v25q58 4 77.5 26t19.5 83v216h-220l-121 -223q-27 -53 -15 -73.5t67 -27.5v-26zM475 666l-152 -279h200v279h-48z" />
    <glyph glyph-name="Ccedilla" unicode="&#xc7;" horiz-adv-x="687" 
d="M624 204l28 -12q-27 -96 -95 -150.5t-164 -58.5l-36 -59q12 9 34 9q34 0 56 -22.5t22 -58.5q0 -38 -25.5 -63.5t-65.5 -25.5q-33 0 -56 17.5t-30 46.5l14 4q16 -36 54 -36q25 0 41.5 16t16.5 43q0 23 -12 38t-33 15q-23 0 -41 -18l-12 8l49 86q-141 5 -230 104t-89 255
q0 173 96.5 274t262.5 101q136 0 213 -45v-198h-31q-45 187 -215 187q-110 0 -171 -72t-61 -201q0 -140 74.5 -222.5t201.5 -82.5q140 0 204 121z" />
    <glyph glyph-name="Egrave" unicode="&#xc8;" horiz-adv-x="677" 
d="M400 750h-46l-129 115v25h87zM597 220h30l-22 -220h-560v25q57 2 77 24.5t20 84.5v432q0 63 -20 85t-77 24v25h545l21 -200h-31q-23 92 -73 129t-153 37h-117v-279h75q68 0 93.5 25t33.5 95h26v-279h-26q-9 72 -34.5 97.5t-92.5 25.5h-75v-251q0 -34 14.5 -50t52.5 -16
h64q105 0 153.5 40.5t75.5 145.5z" />
    <glyph glyph-name="Eacute" unicode="&#xc9;" horiz-adv-x="677" 
d="M529 865l-129 -114h-46l88 139h87v-25zM597 220h30l-22 -220h-560v25q57 2 77 24.5t20 84.5v432q0 63 -20 85t-77 24v25h545l21 -200h-31q-23 92 -73 129t-153 37h-117v-279h75q68 0 93.5 25t33.5 95h26v-279h-26q-9 72 -34.5 97.5t-92.5 25.5h-75v-251q0 -34 14.5 -50
t52.5 -16h64q105 0 153.5 40.5t75.5 145.5z" />
    <glyph glyph-name="Ecircumflex" unicode="&#xca;" horiz-adv-x="677" 
d="M354 890h46l145 -139h-44l-124 75l-124 -75h-44zM597 220h30l-22 -220h-560v25q57 2 77 24.5t20 84.5v432q0 63 -20 85t-77 24v25h545l21 -200h-31q-23 92 -73 129t-153 37h-117v-279h75q68 0 93.5 25t33.5 95h26v-279h-26q-9 72 -34.5 97.5t-92.5 25.5h-75v-251
q0 -34 14.5 -50t52.5 -16h64q105 0 153.5 40.5t75.5 145.5z" />
    <glyph glyph-name="Edieresis" unicode="&#xcb;" horiz-adv-x="677" 
d="M272 768q-23 0 -39.5 16t-16.5 40t16.5 40t39.5 16t39.5 -16t16.5 -40t-16.5 -40t-39.5 -16zM482 768q-23 0 -39.5 16t-16.5 40t16.5 40t39.5 16t39.5 -16t16.5 -40t-16.5 -40t-39.5 -16zM597 220h30l-22 -220h-560v25q57 2 77 24.5t20 84.5v432q0 63 -20 85t-77 24v25
h545l21 -200h-31q-23 92 -73 129t-153 37h-117v-279h75q68 0 93.5 25t33.5 95h26v-279h-26q-9 72 -34.5 97.5t-92.5 25.5h-75v-251q0 -34 14.5 -50t52.5 -16h64q105 0 153.5 40.5t75.5 145.5z" />
    <glyph glyph-name="Igrave" unicode="&#xcc;" horiz-adv-x="379" 
d="M213 750h-46l-129 115v25h87zM237 566v-432q0 -63 20 -84t77 -25v-25h-289v25q58 4 77.5 26t19.5 83v432q0 63 -20 84t-77 25v25h289v-25q-61 -5 -79 -25t-18 -84z" />
    <glyph glyph-name="Iacute" unicode="&#xcd;" horiz-adv-x="379" 
d="M342 865l-129 -114h-46l88 139h87v-25zM237 566v-432q0 -63 20 -84t77 -25v-25h-289v25q58 4 77.5 26t19.5 83v432q0 63 -20 84t-77 25v25h289v-25q-61 -5 -79 -25t-18 -84z" />
    <glyph glyph-name="Icircumflex" unicode="&#xce;" horiz-adv-x="379" 
d="M167 890h46l145 -139h-44l-124 75l-124 -75h-44zM237 566v-432q0 -63 20 -84t77 -25v-25h-289v25q58 4 77.5 26t19.5 83v432q0 63 -20 84t-77 25v25h289v-25q-61 -5 -79 -25t-18 -84z" />
    <glyph glyph-name="Idieresis" unicode="&#xcf;" horiz-adv-x="379" 
d="M85 768q-23 0 -39.5 16t-16.5 40t16.5 40t39.5 16t39.5 -16t16.5 -40t-16.5 -40t-39.5 -16zM295 768q-23 0 -39.5 16t-16.5 40t16.5 40t39.5 16t39.5 -16t16.5 -40t-16.5 -40t-39.5 -16zM237 566v-432q0 -63 20 -84t77 -25v-25h-289v25q58 4 77.5 26t19.5 83v432
q0 63 -20 84t-77 25v25h289v-25q-61 -5 -79 -25t-18 -84z" />
    <glyph glyph-name="Eth" unicode="&#xd0;" horiz-adv-x="766" 
d="M45 700h287q182 0 280.5 -92.5t98.5 -257.5q0 -166 -94.5 -258t-277.5 -92h-294v25q57 2 77 24.5t20 84.5v209h-84v29h84v194q0 63 -20 85t-77 24v25zM304 43h46q125 0 190.5 80.5t65.5 226.5q0 307 -282 307h-87v-285h184v-29h-184v-234q0 -34 14.5 -50t52.5 -16z" />
    <glyph glyph-name="Ntilde" unicode="&#xd1;" horiz-adv-x="797" 
d="M470 763q-30 0 -63 20t-57 20q-42 0 -65 -39h-24q3 56 33 81t69 25q29 0 63 -20t57 -20q42 0 65 39h24q-3 -56 -33 -81t-69 -25zM685 -5h-40l-415 541q-35 47 -46 81l-4 -1q7 -40 7 -103v-396q1 -53 20 -68.5t85 -23.5v-25h-247v25q58 4 77.5 26t19.5 83v510
q-19 17 -36 22t-61 9v24h192l333 -438q45 -60 69 -112l5 2q-4 48 -4 114v306q0 61 -19 78.5t-86 25.5v25h247v-25q-61 -5 -79 -25t-18 -84v-571z" />
    <glyph glyph-name="Ograve" unicode="&#xd2;" horiz-adv-x="838" 
d="M442 750h-46l-129 115v25h87zM419 -17q-161 0 -265 103.5t-104 263.5t104 263.5t265 103.5t265 -103.5t104 -263.5t-104 -263.5t-265 -103.5zM419 32q116 0 185 86t69 232t-69 232t-185 86t-185 -86t-69 -232t69 -232t185 -86z" />
    <glyph glyph-name="Oacute" unicode="&#xd3;" horiz-adv-x="838" 
d="M571 865l-129 -114h-46l88 139h87v-25zM419 -17q-161 0 -265 103.5t-104 263.5t104 263.5t265 103.5t265 -103.5t104 -263.5t-104 -263.5t-265 -103.5zM419 32q116 0 185 86t69 232t-69 232t-185 86t-185 -86t-69 -232t69 -232t185 -86z" />
    <glyph glyph-name="Ocircumflex" unicode="&#xd4;" horiz-adv-x="838" 
d="M396 890h46l145 -139h-44l-124 75l-124 -75h-44zM419 -17q-161 0 -265 103.5t-104 263.5t104 263.5t265 103.5t265 -103.5t104 -263.5t-104 -263.5t-265 -103.5zM419 32q116 0 185 86t69 232t-69 232t-185 86t-185 -86t-69 -232t69 -232t185 -86z" />
    <glyph glyph-name="Otilde" unicode="&#xd5;" horiz-adv-x="838" 
d="M478 763q-30 0 -63 20t-57 20q-42 0 -65 -39h-24q3 56 33 81t69 25q30 0 63.5 -20t56.5 -20q42 0 65 39h24q-3 -56 -33 -81t-69 -25zM419 -17q-161 0 -265 103.5t-104 263.5t104 263.5t265 103.5t265 -103.5t104 -263.5t-104 -263.5t-265 -103.5zM419 32q116 0 185 86
t69 232t-69 232t-185 86t-185 -86t-69 -232t69 -232t185 -86z" />
    <glyph glyph-name="Odieresis" unicode="&#xd6;" horiz-adv-x="838" 
d="M314 768q-23 0 -39.5 16t-16.5 40t16.5 40t39.5 16t39.5 -16t16.5 -40t-16.5 -40t-39.5 -16zM524 768q-23 0 -39.5 16t-16.5 40t16.5 40t39.5 16t39.5 -16t16.5 -40t-16.5 -40t-39.5 -16zM419 -17q-161 0 -265 103.5t-104 263.5t104 263.5t265 103.5t265 -103.5
t104 -263.5t-104 -263.5t-265 -103.5zM419 32q116 0 185 86t69 232t-69 232t-185 86t-185 -86t-69 -232t69 -232t185 -86z" />
    <glyph glyph-name="multiply" unicode="&#xd7;" 
d="M444 491l30 -30l-154 -154l154 -155l-30 -30l-154 155l-155 -155l-30 30l155 155l-155 154l30 30l155 -154z" />
    <glyph glyph-name="Oslash" unicode="&#xd8;" horiz-adv-x="838" 
d="M706 737l-60 -91q67 -50 104.5 -126.5t37.5 -169.5q0 -160 -104 -263.5t-265 -103.5q-101 0 -181 43l-41 -62h-54l56 85q-70 50 -109.5 128t-39.5 173q0 160 104 263.5t265 103.5q104 0 189 -47l44 67h54zM165 350q0 -152 75 -239l332 504q-64 53 -153 53
q-116 0 -185 -86t-69 -232zM419 32q116 0 185 86t69 232t-69 232l-331 -503q63 -47 146 -47z" />
    <glyph glyph-name="Ugrave" unicode="&#xd9;" horiz-adv-x="758" 
d="M428 750h-46l-129 115v25h87zM385 -17q-133 0 -205.5 73.5t-72.5 209.5v300q0 63 -20 84t-77 25v25h299v-25q-61 -5 -79 -24.5t-18 -84.5v-305q0 -105 49.5 -159.5t146.5 -54.5q190 0 190 223v296q0 63 -20 84t-77 25v25h247v-25q-61 -5 -79 -24.5t-18 -84.5v-304
q0 -130 -71.5 -204.5t-194.5 -74.5z" />
    <glyph glyph-name="Uacute" unicode="&#xda;" horiz-adv-x="758" 
d="M557 865l-129 -114h-46l88 139h87v-25zM385 -17q-133 0 -205.5 73.5t-72.5 209.5v300q0 63 -20 84t-77 25v25h299v-25q-61 -5 -79 -24.5t-18 -84.5v-305q0 -105 49.5 -159.5t146.5 -54.5q190 0 190 223v296q0 63 -20 84t-77 25v25h247v-25q-61 -5 -79 -24.5t-18 -84.5
v-304q0 -130 -71.5 -204.5t-194.5 -74.5z" />
    <glyph glyph-name="Ucircumflex" unicode="&#xdb;" horiz-adv-x="758" 
d="M382 890h46l145 -139h-44l-124 75l-124 -75h-44zM385 -17q-133 0 -205.5 73.5t-72.5 209.5v300q0 63 -20 84t-77 25v25h299v-25q-61 -5 -79 -24.5t-18 -84.5v-305q0 -105 49.5 -159.5t146.5 -54.5q190 0 190 223v296q0 63 -20 84t-77 25v25h247v-25q-61 -5 -79 -24.5
t-18 -84.5v-304q0 -130 -71.5 -204.5t-194.5 -74.5z" />
    <glyph glyph-name="Udieresis" unicode="&#xdc;" horiz-adv-x="758" 
d="M300 768q-23 0 -39.5 16t-16.5 40t16.5 40t39.5 16t39.5 -16t16.5 -40t-16.5 -40t-39.5 -16zM510 768q-23 0 -39.5 16t-16.5 40t16.5 40t39.5 16t39.5 -16t16.5 -40t-16.5 -40t-39.5 -16zM385 -17q-133 0 -205.5 73.5t-72.5 209.5v300q0 63 -20 84t-77 25v25h299v-25
q-61 -5 -79 -24.5t-18 -84.5v-305q0 -105 49.5 -159.5t146.5 -54.5q190 0 190 223v296q0 63 -20 84t-77 25v25h247v-25q-61 -5 -79 -24.5t-18 -84.5v-304q0 -130 -71.5 -204.5t-194.5 -74.5z" />
    <glyph glyph-name="Yacute" unicode="&#xdd;" horiz-adv-x="665" 
d="M520 865l-129 -114h-46l88 139h87v-25zM450 675v25h210v-24q-25 -3 -43 -19.5t-42 -51.5l-189 -314v-157q0 -66 24 -85.5t103 -23.5v-25h-349v25q79 4 103 24t24 85v156l-178 288q-34 55 -55.5 73.5t-52.5 24.5v24h280v-25q-54 -2 -71 -9.5t-17 -29.5q0 -18 18 -47
l120 -193q29 -44 34 -69h5q3 21 29 66l117 196q16 27 16 47q0 35 -86 39z" />
    <glyph glyph-name="Thorn" unicode="&#xde;" 
d="M334 0h-289v25q58 4 77.5 26t19.5 83v432q0 63 -20 84t-77 25v25h289v-25q-61 -5 -79 -25t-18 -84v-9h93q93 0 159 -46t66 -137q0 -50 -21 -88.5t-55 -60.5t-74 -33.5t-83 -11.5h-85v-46q0 -63 20 -84t77 -25v-25zM237 525v-311h70q148 0 148 161q0 150 -139 150h-79z
" />
    <glyph glyph-name="germandbls" unicode="&#xdf;" horiz-adv-x="587" 
d="M322 390h3q115 0 168.5 -55t53.5 -139q0 -90 -52 -151.5t-147 -61.5q-51 0 -88 20l7 23q36 -11 56 -11q55 0 94.5 52t39.5 125q0 182 -171 182h-27v36h22q38 0 66.5 11.5t44 28.5t24.5 42.5t11.5 46.5t2.5 47q0 144 -123 144q-114 0 -114 -154v-576h-168v25q52 5 67.5 18
t15.5 53v411q0 61 13.5 108t34.5 75t50 45.5t57 24t58 6.5q98 0 148.5 -52.5t50.5 -135.5q0 -67 -50.5 -124.5t-144.5 -57.5h-3v-6z" />
    <glyph glyph-name="agrave" unicode="&#xe0;" horiz-adv-x="518" 
d="M175 740l79 -160h-26l-140 139v21h87zM486 77l17 -10q-23 -77 -95 -77q-39 0 -62 24t-22 69h-6q-9 -38 -45 -66.5t-90 -28.5q-65 0 -101.5 32.5t-36.5 93.5q0 59 41.5 95.5t130.5 54.5l105 21v32q0 117 -111 117q-97 0 -128 -82l-27 8q14 61 59 101.5t127 40.5
q75 0 120 -44t45 -133v-219q0 -53 40 -53q25 0 39 24zM220 41q75 0 102 90v120l-55 -10q-127 -24 -127 -113q0 -40 20.5 -63.5t59.5 -23.5z" />
    <glyph glyph-name="aacute" unicode="&#xe1;" horiz-adv-x="518" 
d="M394 740v-21l-140 -139h-26l79 160h87zM486 77l17 -10q-23 -77 -95 -77q-39 0 -62 24t-22 69h-6q-9 -38 -45 -66.5t-90 -28.5q-65 0 -101.5 32.5t-36.5 93.5q0 59 41.5 95.5t130.5 54.5l105 21v32q0 117 -111 117q-97 0 -128 -82l-27 8q14 61 59 101.5t127 40.5
q75 0 120 -44t45 -133v-219q0 -53 40 -53q25 0 39 24zM220 41q75 0 102 90v120l-55 -10q-127 -24 -127 -113q0 -40 20.5 -63.5t59.5 -23.5z" />
    <glyph glyph-name="acircumflex" unicode="&#xe2;" horiz-adv-x="518" 
d="M333 580l-92 90l-92 -90h-26l105 160h26l105 -160h-26zM486 77l17 -10q-23 -77 -95 -77q-39 0 -62 24t-22 69h-6q-9 -38 -45 -66.5t-90 -28.5q-65 0 -101.5 32.5t-36.5 93.5q0 59 41.5 95.5t130.5 54.5l105 21v32q0 117 -111 117q-97 0 -128 -82l-27 8q14 61 59 101.5
t127 40.5q75 0 120 -44t45 -133v-219q0 -53 40 -53q25 0 39 24zM220 41q75 0 102 90v120l-55 -10q-127 -24 -127 -113q0 -40 20.5 -63.5t59.5 -23.5z" />
    <glyph glyph-name="atilde" unicode="&#xe3;" horiz-adv-x="518" 
d="M174 631q-36 0 -55 -37h-14q3 51 30 73.5t62 22.5q27 0 57.5 -19t52.5 -19q36 0 55 37h14q-3 -51 -30 -73.5t-62 -22.5q-27 0 -57.5 19t-52.5 19zM486 77l17 -10q-23 -77 -95 -77q-39 0 -62 24t-22 69h-6q-9 -38 -45 -66.5t-90 -28.5q-65 0 -101.5 32.5t-36.5 93.5
q0 59 41.5 95.5t130.5 54.5l105 21v32q0 117 -111 117q-97 0 -128 -82l-27 8q14 61 59 101.5t127 40.5q75 0 120 -44t45 -133v-219q0 -53 40 -53q25 0 39 24zM220 41q75 0 102 90v120l-55 -10q-127 -24 -127 -113q0 -40 20.5 -63.5t59.5 -23.5z" />
    <glyph glyph-name="adieresis" unicode="&#xe4;" horiz-adv-x="518" 
d="M146 582q-23 0 -39.5 16t-16.5 40t16.5 40t39.5 16t39.5 -16t16.5 -40t-16.5 -40t-39.5 -16zM336 582q-23 0 -39.5 16t-16.5 40t16.5 40t39.5 16t39.5 -16t16.5 -40t-16.5 -40t-39.5 -16zM486 77l17 -10q-23 -77 -95 -77q-39 0 -62 24t-22 69h-6q-9 -38 -45 -66.5
t-90 -28.5q-65 0 -101.5 32.5t-36.5 93.5q0 59 41.5 95.5t130.5 54.5l105 21v32q0 117 -111 117q-97 0 -128 -82l-27 8q14 61 59 101.5t127 40.5q75 0 120 -44t45 -133v-219q0 -53 40 -53q25 0 39 24zM220 41q75 0 102 90v120l-55 -10q-127 -24 -127 -113q0 -40 20.5 -63.5
t59.5 -23.5z" />
    <glyph glyph-name="aring" unicode="&#xe5;" horiz-adv-x="518" 
d="M241 554q-41 0 -69.5 27.5t-28.5 70.5t28.5 70.5t69.5 27.5t69.5 -27.5t28.5 -70.5t-28.5 -70.5t-69.5 -27.5zM241 713q-25 0 -41.5 -16.5t-16.5 -44.5t16.5 -44.5t41.5 -16.5t41.5 16.5t16.5 44.5t-16.5 44.5t-41.5 16.5zM486 77l17 -10q-23 -77 -95 -77q-39 0 -62 24
t-22 69h-6q-9 -38 -45 -66.5t-90 -28.5q-65 0 -101.5 32.5t-36.5 93.5q0 59 41.5 95.5t130.5 54.5l105 21v32q0 117 -111 117q-97 0 -128 -82l-27 8q14 61 59 101.5t127 40.5q75 0 120 -44t45 -133v-219q0 -53 40 -53q25 0 39 24zM220 41q75 0 102 90v120l-55 -10
q-127 -24 -127 -113q0 -40 20.5 -63.5t59.5 -23.5z" />
    <glyph glyph-name="ae" unicode="&#xe6;" horiz-adv-x="729" 
d="M553 78q80 0 110 65l24 -12q-15 -61 -59.5 -102t-109.5 -41q-118 0 -166 111q-15 -44 -55.5 -77.5t-105.5 -33.5q-63 0 -104.5 35.5t-41.5 100.5q0 70 62 122t183 55l20 1q-13 72 -36 102t-75 30q-86 0 -117 -82l-27 8q14 61 58 101.5t124 40.5q101 0 144 -75
q51 75 139 75q169 0 169 -234h-292q8 -89 48 -139.5t108 -50.5zM497 462q-47 0 -74 -43t-27 -117h186q0 76 -18 118t-67 42zM226 41q78 0 115 91q-5 16 -11 50l-14 84h-11q-85 0 -125 -35t-40 -93q0 -40 22.5 -68.5t63.5 -28.5z" />
    <glyph glyph-name="ccedilla" unicode="&#xe7;" horiz-adv-x="478" 
d="M263 -12h-5l-39 -64q12 9 34 9q34 0 56 -22.5t22 -58.5q0 -38 -25.5 -63.5t-65.5 -25.5q-33 0 -56 17.5t-30 46.5l14 4q16 -36 54 -36q25 0 41.5 16t16.5 43q0 23 -12 38t-33 15q-23 0 -41 -18l-12 8l53 92q-89 10 -142 75t-53 169q0 114 63.5 191.5t176.5 77.5
q82 0 146 -28v-141h-28q-16 60 -49.5 89t-90.5 29q-67 0 -104.5 -44t-37.5 -124q0 -92 50.5 -148.5t133.5 -56.5q86 0 125 66l23 -10q-16 -64 -62.5 -105t-122.5 -41z" />
    <glyph glyph-name="egrave" unicode="&#xe8;" horiz-adv-x="489" 
d="M194 740l79 -160h-26l-140 139v21h87zM295 78q94 0 130 65l24 -12q-16 -61 -66 -102t-123 -41q-104 0 -162 68.5t-58 180.5q0 116 58.5 190.5t161.5 74.5q92 0 140.5 -58t48.5 -154h-334q4 -99 50.5 -155.5t129.5 -56.5zM241 462q-56 0 -88.5 -37t-36.5 -101h226
q0 63 -24.5 100.5t-76.5 37.5z" />
    <glyph glyph-name="eacute" unicode="&#xe9;" horiz-adv-x="489" 
d="M413 740v-21l-140 -139h-26l79 160h87zM295 78q94 0 130 65l24 -12q-16 -61 -66 -102t-123 -41q-104 0 -162 68.5t-58 180.5q0 116 58.5 190.5t161.5 74.5q92 0 140.5 -58t48.5 -154h-334q4 -99 50.5 -155.5t129.5 -56.5zM241 462q-56 0 -88.5 -37t-36.5 -101h226
q0 63 -24.5 100.5t-76.5 37.5z" />
    <glyph glyph-name="ecircumflex" unicode="&#xea;" horiz-adv-x="489" 
d="M352 580l-92 90l-92 -90h-26l105 160h26l105 -160h-26zM295 78q94 0 130 65l24 -12q-16 -61 -66 -102t-123 -41q-104 0 -162 68.5t-58 180.5q0 116 58.5 190.5t161.5 74.5q92 0 140.5 -58t48.5 -154h-334q4 -99 50.5 -155.5t129.5 -56.5zM241 462q-56 0 -88.5 -37
t-36.5 -101h226q0 63 -24.5 100.5t-76.5 37.5z" />
    <glyph glyph-name="edieresis" unicode="&#xeb;" horiz-adv-x="489" 
d="M165 582q-23 0 -39.5 16t-16.5 40t16.5 40t39.5 16t39.5 -16t16.5 -40t-16.5 -40t-39.5 -16zM355 582q-23 0 -39.5 16t-16.5 40t16.5 40t39.5 16t39.5 -16t16.5 -40t-16.5 -40t-39.5 -16zM295 78q94 0 130 65l24 -12q-16 -61 -66 -102t-123 -41q-104 0 -162 68.5
t-58 180.5q0 116 58.5 190.5t161.5 74.5q92 0 140.5 -58t48.5 -154h-334q4 -99 50.5 -155.5t129.5 -56.5zM241 462q-56 0 -88.5 -37t-36.5 -101h226q0 63 -24.5 100.5t-76.5 37.5z" />
    <glyph glyph-name="igrave" unicode="&#xec;" horiz-adv-x="309" 
d="M165 580h-26l-140 139v21h87zM284 25v-25h-251v25q51 4 67 17t16 54v286q0 26 -10.5 36.5t-36.5 10.5q-15 0 -39 -3v25l146 39h25v-394q0 -41 16 -53.5t67 -17.5z" />
    <glyph glyph-name="iacute" unicode="&#xed;" horiz-adv-x="309" 
d="M305 719l-140 -139h-26l79 160h87v-21zM284 25v-25h-251v25q51 4 67 17t16 54v286q0 26 -10.5 36.5t-36.5 10.5q-15 0 -39 -3v25l146 39h25v-394q0 -41 16 -53.5t67 -17.5z" />
    <glyph glyph-name="icircumflex" unicode="&#xee;" horiz-adv-x="309" 
d="M60 580h-26l105 160h26l105 -160h-26l-92 90zM284 25v-25h-251v25q51 4 67 17t16 54v286q0 26 -10.5 36.5t-36.5 10.5q-15 0 -39 -3v25l146 39h25v-394q0 -41 16 -53.5t67 -17.5z" />
    <glyph glyph-name="idieresis" unicode="&#xef;" horiz-adv-x="309" 
d="M57 582q-23 0 -39.5 16t-16.5 40t16.5 40t39.5 16t39.5 -16t16.5 -40t-16.5 -40t-39.5 -16zM247 582q-23 0 -39.5 16t-16.5 40t16.5 40t39.5 16t39.5 -16t16.5 -40t-16.5 -40t-39.5 -16zM284 25v-25h-251v25q51 4 67 17t16 54v286q0 26 -10.5 36.5t-36.5 10.5
q-15 0 -39 -3v25l146 39h25v-394q0 -41 16 -53.5t67 -17.5z" />
    <glyph glyph-name="eth" unicode="&#xf0;" horiz-adv-x="558" 
d="M437 704l-109 -60q185 -140 185 -375q0 -54 -15 -103t-43.5 -89.5t-75.5 -64.5t-106 -24q-100 0 -166.5 73t-66.5 183q0 105 57.5 181.5t160.5 76.5q78 0 119 -57h10q-36 94 -114 169l-147 -81v38l121 66q-75 63 -171 99l10 24q123 -36 212 -95l139 76v-37zM273 21
q145 0 145 260q0 61 -15 117q-18 27 -52.5 43.5t-69.5 16.5q-72 0 -110.5 -56t-38.5 -163q0 -101 40 -159.5t101 -58.5z" />
    <glyph glyph-name="ntilde" unicode="&#xf1;" horiz-adv-x="622" 
d="M353 593q-27 0 -57.5 19t-52.5 19q-36 0 -55 -37h-14q3 51 30 73.5t62 22.5q27 0 57.5 -19t52.5 -19q36 0 55 37h14q-3 -51 -30 -73.5t-62 -22.5zM602 25v-25h-234v25q39 6 52.5 18.5t13.5 40.5v227q0 124 -106 124q-91 0 -124 -75v-264q0 -40 13.5 -53t55.5 -18v-25
h-237v25q51 4 67 17t16 54v300q0 33 -46 33q-10 0 -43 -3v25l141 39h23v-55q0 -23 -8 -62l5 -1q20 62 65.5 96t111.5 34q69 0 110 -42t41 -133v-231q0 -41 16 -53.5t67 -17.5z" />
    <glyph glyph-name="ograve" unicode="&#xf2;" horiz-adv-x="570" 
d="M297 580h-26l-140 139v21h87zM285 -12q-108 0 -176.5 73.5t-68.5 183.5t68.5 183.5t176.5 73.5t176.5 -73.5t68.5 -183.5t-68.5 -183.5t-176.5 -73.5zM285 32q143 0 143 213t-143 213t-143 -213t143 -213z" />
    <glyph glyph-name="oacute" unicode="&#xf3;" horiz-adv-x="570" 
d="M437 719l-140 -139h-26l79 160h87v-21zM285 -12q-108 0 -176.5 73.5t-68.5 183.5t68.5 183.5t176.5 73.5t176.5 -73.5t68.5 -183.5t-68.5 -183.5t-176.5 -73.5zM285 32q143 0 143 213t-143 213t-143 -213t143 -213z" />
    <glyph glyph-name="ocircumflex" unicode="&#xf4;" horiz-adv-x="570" 
d="M192 580h-26l105 160h26l105 -160h-26l-92 90zM285 -12q-108 0 -176.5 73.5t-68.5 183.5t68.5 183.5t176.5 73.5t176.5 -73.5t68.5 -183.5t-68.5 -183.5t-176.5 -73.5zM285 32q143 0 143 213t-143 213t-143 -213t143 -213z" />
    <glyph glyph-name="otilde" unicode="&#xf5;" horiz-adv-x="570" 
d="M327 593q-27 0 -57.5 19t-52.5 19q-36 0 -55 -37h-14q3 51 30 73.5t62 22.5q27 0 57.5 -19t52.5 -19q36 0 55 37h14q-3 -51 -30 -73.5t-62 -22.5zM285 -12q-108 0 -176.5 73.5t-68.5 183.5t68.5 183.5t176.5 73.5t176.5 -73.5t68.5 -183.5t-68.5 -183.5t-176.5 -73.5z
M285 32q143 0 143 213t-143 213t-143 -213t143 -213z" />
    <glyph glyph-name="odieresis" unicode="&#xf6;" horiz-adv-x="570" 
d="M189 582q-23 0 -39.5 16t-16.5 40t16.5 40t39.5 16t39.5 -16t16.5 -40t-16.5 -40t-39.5 -16zM379 582q-23 0 -39.5 16t-16.5 40t16.5 40t39.5 16t39.5 -16t16.5 -40t-16.5 -40t-39.5 -16zM285 -12q-108 0 -176.5 73.5t-68.5 183.5t68.5 183.5t176.5 73.5t176.5 -73.5
t68.5 -183.5t-68.5 -183.5t-176.5 -73.5zM285 32q143 0 143 213t-143 213t-143 -213t143 -213z" />
    <glyph glyph-name="divide" unicode="&#xf7;" 
d="M290 403q-22 0 -39 16.5t-17 39.5t17 39.5t39 16.5t39 -16.5t17 -39.5t-17 -39.5t-39 -16.5zM489 285h-399v43h399v-43zM290 98q-22 0 -39 17t-17 39t17 39t39 17t39 -17t17 -39t-17 -39t-39 -17z" />
    <glyph glyph-name="oslash" unicode="&#xf8;" horiz-adv-x="570" 
d="M499 514l-52 -71q83 -75 83 -198q0 -110 -68.5 -183.5t-176.5 -73.5q-79 0 -140 42l-33 -46h-40l48 66q-80 75 -80 195q0 110 68.5 183.5t176.5 73.5q77 0 136 -39l37 51h41zM142 245q0 -82 22 -134l221 303q-35 44 -100 44q-143 0 -143 -213zM285 32q143 0 143 213
q0 88 -24 139l-222 -304q35 -48 103 -48z" />
    <glyph glyph-name="ugrave" unicode="&#xf9;" horiz-adv-x="584" 
d="M280 580h-26l-140 139v21h87zM559 25v-25h-154v36q0 47 11 80l-6 1q-17 -60 -63 -94.5t-100 -34.5q-68 0 -110 41.5t-42 118.5v246q0 30 -15.5 37.5t-64.5 7.5v26l145 25h20v-319q0 -115 105 -115q36 0 68 20.5t45 53.5v264q0 30 -15.5 37.5t-64.5 7.5v26l145 25h20v-414
q0 -26 16 -35.5t60 -15.5z" />
    <glyph glyph-name="uacute" unicode="&#xfa;" horiz-adv-x="584" 
d="M420 719l-140 -139h-26l79 160h87v-21zM559 25v-25h-154v36q0 47 11 80l-6 1q-17 -60 -63 -94.5t-100 -34.5q-68 0 -110 41.5t-42 118.5v246q0 30 -15.5 37.5t-64.5 7.5v26l145 25h20v-319q0 -115 105 -115q36 0 68 20.5t45 53.5v264q0 30 -15.5 37.5t-64.5 7.5v26
l145 25h20v-414q0 -26 16 -35.5t60 -15.5z" />
    <glyph glyph-name="ucircumflex" unicode="&#xfb;" horiz-adv-x="584" 
d="M175 580h-26l105 160h26l105 -160h-26l-92 90zM559 25v-25h-154v36q0 47 11 80l-6 1q-17 -60 -63 -94.5t-100 -34.5q-68 0 -110 41.5t-42 118.5v246q0 30 -15.5 37.5t-64.5 7.5v26l145 25h20v-319q0 -115 105 -115q36 0 68 20.5t45 53.5v264q0 30 -15.5 37.5t-64.5 7.5
v26l145 25h20v-414q0 -26 16 -35.5t60 -15.5z" />
    <glyph glyph-name="udieresis" unicode="&#xfc;" horiz-adv-x="584" 
d="M172 582q-23 0 -39.5 16t-16.5 40t16.5 40t39.5 16t39.5 -16t16.5 -40t-16.5 -40t-39.5 -16zM362 582q-23 0 -39.5 16t-16.5 40t16.5 40t39.5 16t39.5 -16t16.5 -40t-16.5 -40t-39.5 -16zM559 25v-25h-154v36q0 47 11 80l-6 1q-17 -60 -63 -94.5t-100 -34.5
q-68 0 -110 41.5t-42 118.5v246q0 30 -15.5 37.5t-64.5 7.5v26l145 25h20v-319q0 -115 105 -115q36 0 68 20.5t45 53.5v264q0 30 -15.5 37.5t-64.5 7.5v26l145 25h20v-414q0 -26 16 -35.5t60 -15.5z" />
    <glyph glyph-name="yacute" unicode="&#xfd;" horiz-adv-x="536" 
d="M444 719l-140 -139h-26l79 160h87v-21zM77 -237q-40 0 -72 13v101h22q33 -21 82 -21q41 0 76 20.5t55 58.5l14 27l-189 446q-15 38 -26 47.5t-34 9.5v25h241v-25q-81 0 -81 -47q0 -12 9 -34l96 -235q18 -43 18 -86l5 -1q4 27 18 65l96 246q9 25 9 39q0 24 -21 38.5
t-59 14.5v25h195v-25q-36 0 -60 -57l-206 -496q-36 -86 -82.5 -117.5t-105.5 -31.5z" />
    <glyph glyph-name="thorn" unicode="&#xfe;" horiz-adv-x="579" 
d="M296 -225h-271v25q52 5 67.5 18t15.5 53v783q0 29 -9.5 39.5t-34.5 10.5q-15 0 -36 -3v22l140 37h25v-296q0 -42 -17 -90l4 -1q20 61 66 95t104 34q87 0 140.5 -61.5t53.5 -166.5q0 -136 -72.5 -211t-169.5 -75q-59 0 -109 30v-147q0 -40 20.5 -53t82.5 -18v-25zM302 31
q66 0 108 55t42 151q0 89 -33 143.5t-105 54.5q-42 0 -74 -20.5t-47 -54.5v-281q45 -48 109 -48z" />
    <glyph glyph-name="ydieresis" unicode="&#xff;" horiz-adv-x="536" 
d="M196 582q-23 0 -39.5 16t-16.5 40t16.5 40t39.5 16t39.5 -16t16.5 -40t-16.5 -40t-39.5 -16zM386 582q-23 0 -39.5 16t-16.5 40t16.5 40t39.5 16t39.5 -16t16.5 -40t-16.5 -40t-39.5 -16zM77 -237q-40 0 -72 13v101h22q33 -21 82 -21q41 0 76 20.5t55 58.5l14 27
l-189 446q-15 38 -26 47.5t-34 9.5v25h241v-25q-81 0 -81 -47q0 -12 9 -34l96 -235q18 -43 18 -86l5 -1q4 27 18 65l96 246q9 25 9 39q0 24 -21 38.5t-59 14.5v25h195v-25q-36 0 -60 -57l-206 -496q-36 -86 -82.5 -117.5t-105.5 -31.5z" />
    <glyph glyph-name="Amacron" unicode="&#x100;" horiz-adv-x="728" 
d="M201 841h321v-53h-321v53zM404 721l222 -599q19 -52 41.5 -72.5t50.5 -24.5v-25h-269v26q62 2 78 20t-3 73l-51 140h-261l-48 -133q-19 -59 -4.5 -78.5t72.5 -21.5v-26h-222v25q42 4 62 26t42 81l205 554zM282 452l-57 -157h235l-57 158q-56 154 -57 188h-5
q-1 -31 -59 -189z" />
    <glyph glyph-name="amacron" unicode="&#x101;" horiz-adv-x="518" 
d="M115 656h251v-38h-251v38zM486 77l17 -10q-23 -77 -95 -77q-39 0 -62 24t-22 69h-6q-9 -38 -45 -66.5t-90 -28.5q-65 0 -101.5 32.5t-36.5 93.5q0 59 41.5 95.5t130.5 54.5l105 21v32q0 117 -111 117q-97 0 -128 -82l-27 8q14 61 59 101.5t127 40.5q75 0 120 -44t45 -133
v-219q0 -53 40 -53q25 0 39 24zM220 41q75 0 102 90v120l-55 -10q-127 -24 -127 -113q0 -40 20.5 -63.5t59.5 -23.5z" />
    <glyph glyph-name="Abreve" unicode="&#x102;" horiz-adv-x="728" 
d="M362 761q-58 0 -94 37t-36 112h22q3 -47 32.5 -70t75.5 -23t75.5 23t32.5 70h22q0 -75 -36 -112t-94 -37zM404 721l222 -599q19 -52 41.5 -72.5t50.5 -24.5v-25h-269v26q62 2 78 20t-3 73l-51 140h-261l-48 -133q-19 -59 -4.5 -78.5t72.5 -21.5v-26h-222v25q42 4 62 26
t42 81l205 554zM282 452l-57 -157h235l-57 158q-56 154 -57 188h-5q-1 -31 -59 -189z" />
    <glyph glyph-name="abreve" unicode="&#x103;" horiz-adv-x="518" 
d="M241 572q-49 0 -79.5 39.5t-30.5 118.5h22q2 -51 26.5 -76.5t61.5 -25.5t61.5 25.5t26.5 76.5h22q0 -79 -30.5 -118.5t-79.5 -39.5zM486 77l17 -10q-23 -77 -95 -77q-39 0 -62 24t-22 69h-6q-9 -38 -45 -66.5t-90 -28.5q-65 0 -101.5 32.5t-36.5 93.5q0 59 41.5 95.5
t130.5 54.5l105 21v32q0 117 -111 117q-97 0 -128 -82l-27 8q14 61 59 101.5t127 40.5q75 0 120 -44t45 -133v-219q0 -53 40 -53q25 0 39 24zM220 41q75 0 102 90v120l-55 -10q-127 -24 -127 -113q0 -40 20.5 -63.5t59.5 -23.5z" />
    <glyph glyph-name="Aogonek" unicode="&#x104;" horiz-adv-x="728" 
d="M718 0h-269q-45 -15 -72 -49t-27 -70q0 -28 15 -44.5t42 -16.5q43 0 60 42l19 -10q-11 -40 -38 -64.5t-62 -24.5q-42 0 -67.5 26.5t-25.5 75.5q0 55 45.5 103t110.5 56v2q62 2 78 20t-3 73l-51 140h-261l-48 -133q-19 -59 -4.5 -78.5t72.5 -21.5v-26h-222v25q42 4 62 26
t42 81l205 554l85 35l222 -599q19 -52 41.5 -72.5t50.5 -24.5v-25zM282 452l-57 -157h235l-57 158q-56 154 -57 188h-5q-1 -31 -59 -189z" />
    <glyph glyph-name="aogonek" unicode="&#x105;" horiz-adv-x="518" 
d="M399 -10q-35 -18 -55.5 -48t-20.5 -61q0 -28 15 -44.5t42 -16.5q43 0 60 42l19 -10q-11 -40 -38 -64.5t-62 -24.5q-42 0 -67.5 26.5t-25.5 75.5q0 40 25.5 78.5t66.5 60.5q-35 23 -34 79h-6q-9 -38 -45 -66.5t-90 -28.5q-65 0 -101.5 32.5t-36.5 93.5q0 59 41.5 95.5
t130.5 54.5l105 21v32q0 117 -111 117q-97 0 -128 -82l-27 8q14 61 59 101.5t127 40.5q75 0 120 -44t45 -133v-219q0 -53 40 -53q25 0 39 24l17 -10q-23 -77 -95 -77h-9zM220 41q75 0 102 90v120l-55 -10q-127 -24 -127 -113q0 -40 20.5 -63.5t59.5 -23.5z" />
    <glyph glyph-name="Cacute" unicode="&#x106;" horiz-adv-x="687" 
d="M556 865l-129 -114h-46l88 139h87v-25zM381 -17q-146 0 -238.5 100t-92.5 259q0 173 96.5 274t262.5 101q136 0 213 -45v-198h-31q-45 187 -215 187q-110 0 -171 -72t-61 -201q0 -140 74.5 -222.5t201.5 -82.5q140 0 204 121l28 -12q-28 -99 -99 -154t-172 -55z" />
    <glyph glyph-name="cacute" unicode="&#x107;" horiz-adv-x="478" 
d="M430 719l-140 -139h-26l79 160h87v-21zM263 -12q-100 0 -161.5 66.5t-61.5 178.5q0 114 63.5 191.5t176.5 77.5q82 0 146 -28v-141h-28q-16 60 -49.5 89t-90.5 29q-67 0 -104.5 -44t-37.5 -124q0 -92 50.5 -148.5t133.5 -56.5q86 0 125 66l23 -10q-16 -64 -62.5 -105
t-122.5 -41z" />
    <glyph glyph-name="Ccircumflex" unicode="&#x108;" horiz-adv-x="687" 
d="M381 890h46l145 -139h-44l-124 75l-124 -75h-44zM381 -17q-146 0 -238.5 100t-92.5 259q0 173 96.5 274t262.5 101q136 0 213 -45v-198h-31q-45 187 -215 187q-110 0 -171 -72t-61 -201q0 -140 74.5 -222.5t201.5 -82.5q140 0 204 121l28 -12q-28 -99 -99 -154t-172 -55z
" />
    <glyph glyph-name="ccircumflex" unicode="&#x109;" horiz-adv-x="478" 
d="M185 580h-26l105 160h26l105 -160h-26l-92 90zM263 -12q-100 0 -161.5 66.5t-61.5 178.5q0 114 63.5 191.5t176.5 77.5q82 0 146 -28v-141h-28q-16 60 -49.5 89t-90.5 29q-67 0 -104.5 -44t-37.5 -124q0 -92 50.5 -148.5t133.5 -56.5q86 0 125 66l23 -10
q-16 -64 -62.5 -105t-122.5 -41z" />
    <glyph glyph-name="Cdotaccent" unicode="&#x10a;" horiz-adv-x="687" 
d="M404 768q-25 0 -43 18t-18 43t18 43t43 18t43 -18t18 -43t-18 -43t-43 -18zM381 -17q-146 0 -238.5 100t-92.5 259q0 173 96.5 274t262.5 101q136 0 213 -45v-198h-31q-45 187 -215 187q-110 0 -171 -72t-61 -201q0 -140 74.5 -222.5t201.5 -82.5q140 0 204 121l28 -12
q-28 -99 -99 -154t-172 -55z" />
    <glyph glyph-name="cdotaccent" unicode="&#x10b;" horiz-adv-x="478" 
d="M277 565q-28 0 -47 19t-19 47t19 47t47 19t47 -19t19 -47t-19 -47t-47 -19zM263 -12q-100 0 -161.5 66.5t-61.5 178.5q0 114 63.5 191.5t176.5 77.5q82 0 146 -28v-141h-28q-16 60 -49.5 89t-90.5 29q-67 0 -104.5 -44t-37.5 -124q0 -92 50.5 -148.5t133.5 -56.5
q86 0 125 66l23 -10q-16 -64 -62.5 -105t-122.5 -41z" />
    <glyph glyph-name="Ccaron" unicode="&#x10c;" horiz-adv-x="687" 
d="M572 890l-145 -139h-46l-145 139h44l124 -75l124 75h44zM381 -17q-146 0 -238.5 100t-92.5 259q0 173 96.5 274t262.5 101q136 0 213 -45v-198h-31q-45 187 -215 187q-110 0 -171 -72t-61 -201q0 -140 74.5 -222.5t201.5 -82.5q140 0 204 121l28 -12q-28 -99 -99 -154
t-172 -55z" />
    <glyph glyph-name="ccaron" unicode="&#x10d;" horiz-adv-x="478" 
d="M290 580h-26l-105 160h26l92 -90l92 90h26zM263 -12q-100 0 -161.5 66.5t-61.5 178.5q0 114 63.5 191.5t176.5 77.5q82 0 146 -28v-141h-28q-16 60 -49.5 89t-90.5 29q-67 0 -104.5 -44t-37.5 -124q0 -92 50.5 -148.5t133.5 -56.5q86 0 125 66l23 -10q-16 -64 -62.5 -105
t-122.5 -41z" />
    <glyph glyph-name="Dcaron" unicode="&#x10e;" horiz-adv-x="766" 
d="M532 890l-145 -139h-46l-145 139h44l124 -75l124 75h44zM339 0h-294v25q57 2 77 24.5t20 84.5v432q0 63 -20 85t-77 24v25h287q182 0 280.5 -92.5t98.5 -257.5q0 -166 -94.5 -258t-277.5 -92zM304 43h46q125 0 190.5 80.5t65.5 226.5q0 307 -282 307h-87v-548
q0 -34 14.5 -50t52.5 -16z" />
    <glyph glyph-name="dcaron" unicode="&#x10f;" horiz-adv-x="572" 
d="M559 564h-24q39 59 39 88q0 21 -25 42t-25 40q0 23 14.5 37t36.5 14q23 0 36.5 -17t13.5 -45q0 -59 -66 -159zM547 25v-25h-154v38q0 42 12 79l-5 3q-44 -132 -168 -132q-88 0 -142.5 66t-54.5 168q0 124 70.5 202t180.5 78q62 0 100 -26v178q0 26 -9.5 37t-33.5 11
q-18 0 -61 -8v22l164 44h25v-684q0 -26 16 -35.5t60 -15.5zM386 130v291q-30 42 -102 42t-114.5 -56t-42.5 -150q0 -90 38.5 -141.5t106.5 -51.5q78 0 114 66z" />
    <glyph glyph-name="Dcroat" unicode="&#x110;" horiz-adv-x="766" 
d="M45 700h287q182 0 280.5 -92.5t98.5 -257.5q0 -166 -94.5 -258t-277.5 -92h-294v25q57 2 77 24.5t20 84.5v209h-84v29h84v194q0 63 -20 85t-77 24v25zM304 43h46q125 0 190.5 80.5t65.5 226.5q0 307 -282 307h-87v-285h184v-29h-184v-234q0 -34 14.5 -50t52.5 -16z" />
    <glyph glyph-name="dcroat" unicode="&#x111;" horiz-adv-x="572" 
d="M471 597v-521q0 -26 16 -35.5t60 -15.5v-25h-154v38q0 42 12 79l-5 3q-44 -132 -168 -132q-88 0 -142.5 66t-54.5 168q0 124 70.5 202t180.5 78q62 0 100 -26v121h-211v29h211v28q0 26 -9.5 37t-33.5 11q-18 0 -61 -8v22l164 44h25v-134h67v-29h-67zM386 130v291
q-30 42 -102 42t-114.5 -56t-42.5 -150q0 -90 38.5 -141.5t106.5 -51.5q78 0 114 66z" />
    <glyph glyph-name="Emacron" unicode="&#x112;" horiz-adv-x="677" 
d="M216 841v-53h321v53h-321zM597 220h30l-22 -220h-560v25q57 2 77 24.5t20 84.5v432q0 63 -20 85t-77 24v25h545l21 -200h-31q-23 92 -73 129t-153 37h-117v-279h75q68 0 93.5 25t33.5 95h26v-279h-26q-9 72 -34.5 97.5t-92.5 25.5h-75v-251q0 -34 14.5 -50t52.5 -16h64
q105 0 153.5 40.5t75.5 145.5z" />
    <glyph glyph-name="emacron" unicode="&#x113;" horiz-adv-x="489" 
d="M134 656h251v-38h-251v38zM295 78q94 0 130 65l24 -12q-16 -61 -66 -102t-123 -41q-104 0 -162 68.5t-58 180.5q0 116 58.5 190.5t161.5 74.5q92 0 140.5 -58t48.5 -154h-334q4 -99 50.5 -155.5t129.5 -56.5zM241 462q-56 0 -88.5 -37t-36.5 -101h226q0 63 -24.5 100.5
t-76.5 37.5z" />
    <glyph glyph-name="Ebreve" unicode="&#x114;" horiz-adv-x="677" 
d="M485 910h22q0 -75 -36 -112t-94 -37t-94 37t-36 112h22q3 -47 32.5 -70t75.5 -23t75.5 23t32.5 70zM597 220h30l-22 -220h-560v25q57 2 77 24.5t20 84.5v432q0 63 -20 85t-77 24v25h545l21 -200h-31q-23 92 -73 129t-153 37h-117v-279h75q68 0 93.5 25t33.5 95h26v-279
h-26q-9 72 -34.5 97.5t-92.5 25.5h-75v-251q0 -34 14.5 -50t52.5 -16h64q105 0 153.5 40.5t75.5 145.5z" />
    <glyph glyph-name="ebreve" unicode="&#x115;" horiz-adv-x="489" 
d="M260 572q-49 0 -79.5 39.5t-30.5 118.5h22q2 -51 26.5 -76.5t61.5 -25.5t61.5 25.5t26.5 76.5h22q0 -79 -30.5 -118.5t-79.5 -39.5zM295 78q94 0 130 65l24 -12q-16 -61 -66 -102t-123 -41q-104 0 -162 68.5t-58 180.5q0 116 58.5 190.5t161.5 74.5q92 0 140.5 -58
t48.5 -154h-334q4 -99 50.5 -155.5t129.5 -56.5zM241 462q-56 0 -88.5 -37t-36.5 -101h226q0 63 -24.5 100.5t-76.5 37.5z" />
    <glyph glyph-name="Edotaccent" unicode="&#x116;" horiz-adv-x="677" 
d="M377 768q-25 0 -43 18t-18 43t18 43t43 18t43 -18t18 -43t-18 -43t-43 -18zM597 220h30l-22 -220h-560v25q57 2 77 24.5t20 84.5v432q0 63 -20 85t-77 24v25h545l21 -200h-31q-23 92 -73 129t-153 37h-117v-279h75q68 0 93.5 25t33.5 95h26v-279h-26q-9 72 -34.5 97.5
t-92.5 25.5h-75v-251q0 -34 14.5 -50t52.5 -16h64q105 0 153.5 40.5t75.5 145.5z" />
    <glyph glyph-name="edotaccent" unicode="&#x117;" horiz-adv-x="489" 
d="M260 565q-28 0 -47 19t-19 47t19 47t47 19t47 -19t19 -47t-19 -47t-47 -19zM295 78q94 0 130 65l24 -12q-16 -61 -66 -102t-123 -41q-104 0 -162 68.5t-58 180.5q0 116 58.5 190.5t161.5 74.5q92 0 140.5 -58t48.5 -154h-334q4 -99 50.5 -155.5t129.5 -56.5zM241 462
q-56 0 -88.5 -37t-36.5 -101h226q0 63 -24.5 100.5t-76.5 37.5z" />
    <glyph glyph-name="Eogonek" unicode="&#x118;" horiz-adv-x="677" 
d="M605 0h-81q-45 -15 -72 -49t-27 -70q0 -28 15 -44.5t42 -16.5q43 0 60 42l19 -10q-11 -40 -38 -64.5t-62 -24.5q-42 0 -67.5 26.5t-25.5 75.5q0 38 23.5 75t62.5 60h-409v25q57 2 77 24.5t20 84.5v432q0 63 -20 85t-77 24v25h545l21 -200h-31q-23 92 -73 129t-153 37
h-117v-279h75q68 0 93.5 25t33.5 95h26v-279h-26q-9 72 -34.5 97.5t-92.5 25.5h-75v-251q0 -34 14.5 -50t52.5 -16h64q105 0 153.5 40.5t75.5 145.5h30z" />
    <glyph glyph-name="eogonek" unicode="&#x119;" horiz-adv-x="489" 
d="M295 78q94 0 130 65l24 -12q-13 -47 -45.5 -83t-81.5 -51q-42 -16 -66.5 -48.5t-24.5 -67.5q0 -28 15 -44.5t42 -16.5q43 0 60 42l19 -10q-11 -40 -38 -64.5t-62 -24.5q-42 0 -67.5 26.5t-25.5 75.5q0 71 69 124q-96 6 -149.5 73.5t-53.5 174.5q0 116 58.5 190.5
t161.5 74.5q92 0 140.5 -58t48.5 -154h-334q4 -99 50.5 -155.5t129.5 -56.5zM241 462q-56 0 -88.5 -37t-36.5 -101h226q0 63 -24.5 100.5t-76.5 37.5z" />
    <glyph glyph-name="Ecaron" unicode="&#x11a;" horiz-adv-x="677" 
d="M545 890l-145 -139h-46l-145 139h44l124 -75l124 75h44zM597 220h30l-22 -220h-560v25q57 2 77 24.5t20 84.5v432q0 63 -20 85t-77 24v25h545l21 -200h-31q-23 92 -73 129t-153 37h-117v-279h75q68 0 93.5 25t33.5 95h26v-279h-26q-9 72 -34.5 97.5t-92.5 25.5h-75v-251
q0 -34 14.5 -50t52.5 -16h64q105 0 153.5 40.5t75.5 145.5z" />
    <glyph glyph-name="ecaron" unicode="&#x11b;" horiz-adv-x="489" 
d="M378 740l-105 -160h-26l-105 160h26l92 -90l92 90h26zM295 78q94 0 130 65l24 -12q-16 -61 -66 -102t-123 -41q-104 0 -162 68.5t-58 180.5q0 116 58.5 190.5t161.5 74.5q92 0 140.5 -58t48.5 -154h-334q4 -99 50.5 -155.5t129.5 -56.5zM241 462q-56 0 -88.5 -37
t-36.5 -101h226q0 63 -24.5 100.5t-76.5 37.5z" />
    <glyph glyph-name="Gcircumflex" unicode="&#x11c;" horiz-adv-x="765" 
d="M409 890h46l145 -139h-44l-124 75l-124 -75h-44zM432 320h308v-25q-36 0 -50 -17.5t-14 -61.5v-150q-113 -83 -256 -83q-156 0 -263 106t-107 261q0 163 108.5 265t278.5 102q139 0 225 -42v-172h-29q-18 80 -75.5 122.5t-147.5 42.5q-117 0 -183.5 -84t-66.5 -233
q0 -145 69.5 -229.5t188.5 -84.5q53 0 99.5 21t63.5 53v102q-1 41 -29.5 60t-94.5 21l-25 1v25z" />
    <glyph glyph-name="gcircumflex" unicode="&#x11d;" horiz-adv-x="550" 
d="M351 580l-92 90l-92 -90h-26l105 160h26l105 -160h-26zM515 440h-40q-43 0 -91 19l-3 -6q77 -23 77 -120q0 -75 -56 -121.5t-143 -46.5q-40 0 -71 10q-31 -3 -45 -17t-14 -33q0 -44 73 -49l163 -10q73 -5 111.5 -32t38.5 -86q0 -74 -66 -129.5t-203 -55.5
q-97 0 -154 33.5t-57 85.5q0 39 23.5 65.5t81.5 42.5v6q-35 10 -56 35t-21 59q0 29 20.5 55t60.5 40v7q-84 47 -84 141q0 75 56 122t143 47q43 0 79 -12h177v-50zM259 200q49 0 79 33t30 100q0 66 -29.5 100t-79.5 34q-49 0 -79 -33.5t-30 -100.5t30 -100t79 -33zM337 -17
l-161 8q-59 -23 -59 -80q0 -47 47.5 -74t133.5 -27q74 0 116 25t42 68q0 75 -119 80z" />
    <glyph glyph-name="Gbreve" unicode="&#x11e;" horiz-adv-x="765" 
d="M540 910h22q0 -75 -36 -112t-94 -37t-94 37t-36 112h22q3 -47 32.5 -70t75.5 -23t75.5 23t32.5 70zM432 320h308v-25q-36 0 -50 -17.5t-14 -61.5v-150q-113 -83 -256 -83q-156 0 -263 106t-107 261q0 163 108.5 265t278.5 102q139 0 225 -42v-172h-29q-18 80 -75.5 122.5
t-147.5 42.5q-117 0 -183.5 -84t-66.5 -233q0 -145 69.5 -229.5t188.5 -84.5q53 0 99.5 21t63.5 53v102q-1 41 -29.5 60t-94.5 21l-25 1v25z" />
    <glyph glyph-name="gbreve" unicode="&#x11f;" horiz-adv-x="550" 
d="M259 572q-49 0 -79.5 39.5t-30.5 118.5h22q2 -51 26.5 -76.5t61.5 -25.5t61.5 25.5t26.5 76.5h22q0 -79 -30.5 -118.5t-79.5 -39.5zM515 440h-40q-43 0 -91 19l-3 -6q77 -23 77 -120q0 -75 -56 -121.5t-143 -46.5q-40 0 -71 10q-31 -3 -45 -17t-14 -33q0 -44 73 -49
l163 -10q73 -5 111.5 -32t38.5 -86q0 -74 -66 -129.5t-203 -55.5q-97 0 -154 33.5t-57 85.5q0 39 23.5 65.5t81.5 42.5v6q-35 10 -56 35t-21 59q0 29 20.5 55t60.5 40v7q-84 47 -84 141q0 75 56 122t143 47q43 0 79 -12h177v-50zM259 200q49 0 79 33t30 100q0 66 -29.5 100
t-79.5 34q-49 0 -79 -33.5t-30 -100.5t30 -100t79 -33zM337 -17l-161 8q-59 -23 -59 -80q0 -47 47.5 -74t133.5 -27q74 0 116 25t42 68q0 75 -119 80z" />
    <glyph glyph-name="Gdotaccent" unicode="&#x120;" horiz-adv-x="765" 
d="M432 768q-25 0 -43 18t-18 43t18 43t43 18t43 -18t18 -43t-18 -43t-43 -18zM432 320h308v-25q-36 0 -50 -17.5t-14 -61.5v-150q-113 -83 -256 -83q-156 0 -263 106t-107 261q0 163 108.5 265t278.5 102q139 0 225 -42v-172h-29q-18 80 -75.5 122.5t-147.5 42.5
q-117 0 -183.5 -84t-66.5 -233q0 -145 69.5 -229.5t188.5 -84.5q53 0 99.5 21t63.5 53v102q-1 41 -29.5 60t-94.5 21l-25 1v25z" />
    <glyph glyph-name="gdotaccent" unicode="&#x121;" horiz-adv-x="550" 
d="M259 565q-28 0 -47 19t-19 47t19 47t47 19t47 -19t19 -47t-19 -47t-47 -19zM515 440h-40q-43 0 -91 19l-3 -6q77 -23 77 -120q0 -75 -56 -121.5t-143 -46.5q-40 0 -71 10q-31 -3 -45 -17t-14 -33q0 -44 73 -49l163 -10q73 -5 111.5 -32t38.5 -86q0 -74 -66 -129.5
t-203 -55.5q-97 0 -154 33.5t-57 85.5q0 39 23.5 65.5t81.5 42.5v6q-35 10 -56 35t-21 59q0 29 20.5 55t60.5 40v7q-84 47 -84 141q0 75 56 122t143 47q43 0 79 -12h177v-50zM259 200q49 0 79 33t30 100q0 66 -29.5 100t-79.5 34q-49 0 -79 -33.5t-30 -100.5t30 -100t79 -33
zM337 -17l-161 8q-59 -23 -59 -80q0 -47 47.5 -74t133.5 -27q74 0 116 25t42 68q0 75 -119 80z" />
    <glyph glyph-name="uni0122" unicode="&#x122;" horiz-adv-x="765" 
d="M432 320h308v-25q-36 0 -50 -17.5t-14 -61.5v-150q-113 -83 -256 -83q-156 0 -263 106t-107 261q0 163 108.5 265t278.5 102q139 0 225 -42v-172h-29q-18 80 -75.5 122.5t-147.5 42.5q-117 0 -183.5 -84t-66.5 -233q0 -145 69.5 -229.5t188.5 -84.5q53 0 99.5 21t63.5 53
v102q-1 41 -29.5 60t-94.5 21l-25 1v25zM353 -230l-2 17q58 9 58 41q0 11 -6.5 16.5t-23.5 12.5q-33 13 -33 47q0 20 13.5 33t35.5 13q26 0 42 -20t16 -51q0 -43 -28 -73t-72 -36z" />
    <glyph glyph-name="uni0123" unicode="&#x123;" horiz-adv-x="550" 
d="M257 552q-27 0 -44.5 21t-17.5 54q0 44 27.5 73t72.5 32l3 -23q-51 -6 -51 -30q0 -18 35 -32q30 -13 30 -47q0 -21 -15.5 -34.5t-39.5 -13.5zM515 440h-40q-43 0 -91 19l-3 -6q77 -23 77 -120q0 -75 -56 -121.5t-143 -46.5q-40 0 -71 10q-31 -3 -45 -17t-14 -33
q0 -44 73 -49l163 -10q73 -5 111.5 -32t38.5 -86q0 -74 -66 -129.5t-203 -55.5q-97 0 -154 33.5t-57 85.5q0 39 23.5 65.5t81.5 42.5v6q-35 10 -56 35t-21 59q0 29 20.5 55t60.5 40v7q-84 47 -84 141q0 75 56 122t143 47q43 0 79 -12h177v-50zM259 200q49 0 79 33t30 100
q0 66 -29.5 100t-79.5 34q-49 0 -79 -33.5t-30 -100.5t30 -100t79 -33zM337 -17l-161 8q-59 -23 -59 -80q0 -47 47.5 -74t133.5 -27q74 0 116 25t42 68q0 75 -119 80z" />
    <glyph glyph-name="Hcircumflex" unicode="&#x124;" horiz-adv-x="832" 
d="M392 890h46l145 -139h-44l-124 75l-124 -75h-44zM690 566v-432q0 -63 20 -84t77 -25v-25h-289v25q59 4 78 24.5t19 84.5v209h-358v-209q0 -64 19.5 -84.5t77.5 -24.5v-25h-289v25q58 4 77.5 25t19.5 84v432q0 63 -20 84t-77 25v25h289v-25q-59 -4 -78 -24.5t-19 -84.5
v-182h358v182q0 64 -19.5 84.5t-77.5 24.5v25h289v-25q-58 -4 -77.5 -25t-19.5 -84z" />
    <glyph glyph-name="hcircumflex" unicode="&#x125;" horiz-adv-x="611" 
d="M104 920h46l145 -139h-44l-124 75l-124 -75h-44zM262 0h-237v25q52 5 67.5 18t15.5 53v558q0 30 -9 40t-36 10q-14 0 -35 -3v22l140 37h25v-240q0 -90 -18 -147l5 -2q18 62 64 96.5t112 34.5q69 0 110.5 -42t41.5 -133v-231q0 -41 15.5 -53t67.5 -18v-25h-234v25
q39 8 52.5 19.5t13.5 39.5v229q0 62 -28.5 92t-78.5 30q-87 0 -123 -76v-263q0 -39 13.5 -52t55.5 -19v-25z" />
    <glyph glyph-name="Hbar" unicode="&#x126;" horiz-adv-x="832" 
d="M787 700v-25q-58 -4 -77.5 -25t-19.5 -84v-42h73v-29h-73v-361q0 -63 20 -84t77 -25v-25h-289v25q59 4 78 24.5t19 84.5v209h-358v-209q0 -64 19.5 -84.5t77.5 -24.5v-25h-289v25q58 4 77.5 25t19.5 84v361h-76v29h76v42q0 63 -20 84t-77 25v25h289v-25q-59 -4 -78 -24.5
t-19 -84.5v-42h358v42q0 64 -19.5 84.5t-77.5 24.5v25h289zM237 384h358v111h-358v-111z" />
    <glyph glyph-name="hbar" unicode="&#x127;" horiz-adv-x="611" 
d="M508 327v-231q0 -41 15.5 -53t67.5 -18v-25h-234v25q39 8 52.5 19.5t13.5 39.5v229q0 62 -28.5 92t-78.5 30q-87 0 -123 -76v-263q0 -39 13.5 -52t55.5 -19v-25h-237v25q52 5 67.5 18t15.5 53v501h-76v29h76v28q0 30 -9 40t-36 10q-14 0 -35 -3v22l140 37h25v-134h202
v-29h-202v-77q0 -90 -18 -147l5 -2q18 62 64 96.5t112 34.5q69 0 110.5 -42t41.5 -133z" />
    <glyph glyph-name="Itilde" unicode="&#x128;" horiz-adv-x="379" 
d="M249 763q-29 0 -63 20t-57 20q-42 0 -65 -39h-24q3 56 33 81t69 25q30 0 63 -20t57 -20q42 0 65 39h24q-3 -56 -33 -81t-69 -25zM237 566v-432q0 -63 20 -84t77 -25v-25h-289v25q58 4 77.5 26t19.5 83v432q0 63 -20 84t-77 25v25h289v-25q-61 -5 -79 -25t-18 -84z" />
    <glyph glyph-name="itilde" unicode="&#x129;" horiz-adv-x="309" 
d="M195 593q-27 0 -57.5 19t-52.5 19q-36 0 -55 -37h-14q3 51 30 73.5t62 22.5q27 0 57.5 -19t52.5 -19q36 0 55 37h14q-3 -51 -30 -73.5t-62 -22.5zM284 25v-25h-251v25q51 4 67 17t16 54v286q0 26 -10.5 36.5t-36.5 10.5q-15 0 -39 -3v25l146 39h25v-394q0 -41 16 -53.5
t67 -17.5z" />
    <glyph glyph-name="Imacron" unicode="&#x12a;" horiz-adv-x="379" 
d="M29 841v-53h321v53h-321zM237 566v-432q0 -63 20 -84t77 -25v-25h-289v25q58 4 77.5 26t19.5 83v432q0 63 -20 84t-77 25v25h289v-25q-61 -5 -79 -25t-18 -84z" />
    <glyph glyph-name="imacron" unicode="&#x12b;" horiz-adv-x="309" 
d="M277 618h-251v38h251v-38zM284 25v-25h-251v25q51 4 67 17t16 54v286q0 26 -10.5 36.5t-36.5 10.5q-15 0 -39 -3v25l146 39h25v-394q0 -41 16 -53.5t67 -17.5z" />
    <glyph glyph-name="Ibreve" unicode="&#x12c;" horiz-adv-x="379" 
d="M298 910h22q0 -75 -36 -112t-94 -37t-94 37t-36 112h22q3 -47 32.5 -70t75.5 -23t75.5 23t32.5 70zM237 566v-432q0 -63 20 -84t77 -25v-25h-289v25q58 4 77.5 26t19.5 83v432q0 63 -20 84t-77 25v25h289v-25q-61 -5 -79 -25t-18 -84z" />
    <glyph glyph-name="ibreve" unicode="&#x12d;" horiz-adv-x="309" 
d="M240 730h22q0 -79 -30.5 -118.5t-79.5 -39.5t-79.5 39.5t-30.5 118.5h22q2 -51 26.5 -76.5t61.5 -25.5t61.5 25.5t26.5 76.5zM284 25v-25h-251v25q51 4 67 17t16 54v286q0 26 -10.5 36.5t-36.5 10.5q-15 0 -39 -3v25l146 39h25v-394q0 -41 16 -53.5t67 -17.5z" />
    <glyph glyph-name="Iogonek" unicode="&#x12e;" horiz-adv-x="379" 
d="M334 700v-25q-61 -5 -79 -25t-18 -84v-432q0 -63 20 -84t77 -25v-25h-77q-45 -15 -72 -49t-27 -70q0 -28 15 -44.5t42 -16.5q43 0 60 42l19 -10q-11 -40 -38 -64.5t-62 -24.5q-42 0 -67.5 26.5t-25.5 75.5q0 38 23.5 75t62.5 60h-142v25q58 4 77.5 26t19.5 83v432
q0 63 -20 84t-77 25v25h289z" />
    <glyph glyph-name="iogonek" unicode="&#x12f;" horiz-adv-x="309" 
d="M152 565q-28 0 -47 19t-19 47t19 47t47 19t47 -19t19 -47t-19 -47t-47 -19zM284 0h-73q-45 -15 -72 -49t-27 -70q0 -28 15 -44.5t42 -16.5q43 0 60 42l19 -10q-11 -40 -38 -64.5t-62 -24.5q-42 0 -67.5 26.5t-25.5 75.5q0 38 23.5 75t62.5 60h-108v25q51 4 67 17t16 54
v286q0 26 -10.5 36.5t-36.5 10.5q-15 0 -39 -3v25l146 39h25v-394q0 -41 16 -53.5t67 -17.5v-25z" />
    <glyph glyph-name="Idotaccent" unicode="&#x130;" horiz-adv-x="379" 
d="M190 768q-25 0 -43 18t-18 43t18 43t43 18t43 -18t18 -43t-18 -43t-43 -18zM237 566v-432q0 -63 20 -84t77 -25v-25h-289v25q58 4 77.5 26t19.5 83v432q0 63 -20 84t-77 25v25h289v-25q-61 -5 -79 -25t-18 -84z" />
    <glyph glyph-name="dotlessi" unicode="&#x131;" horiz-adv-x="309" 
d="M284 25v-25h-251v25q51 4 67 17t16 54v286q0 26 -10.5 36.5t-36.5 10.5q-15 0 -39 -3v25l146 39h25v-394q0 -41 16 -53.5t67 -17.5z" />
    <glyph glyph-name="IJ" unicode="&#x132;" horiz-adv-x="716" 
d="M237 566v-432q0 -63 20 -84t77 -25v-25h-289v25q58 4 77.5 26t19.5 83v432q0 63 -20 84t-77 25v25h289v-25q-61 -5 -79 -25t-18 -84zM460 -170q-55 0 -94 31l14 30q25 -14 56 -14q40 0 59 28.5t19 67.5v593q0 62 -20 83.5t-77 25.5v25h289v-25q-61 -5 -79 -24.5
t-18 -84.5v-571q0 -165 -149 -165z" />
    <glyph glyph-name="ij" unicode="&#x133;" horiz-adv-x="601" 
d="M152 565q-28 0 -47 19t-19 47t19 47t47 19t47 -19t19 -47t-19 -47t-47 -19zM457 565q-28 0 -47 19t-19 47t19 47t47 19t47 -19t19 -47t-19 -47t-47 -19zM284 25v-25h-251v25q51 4 67 17t16 54v286q0 26 -10.5 36.5t-36.5 10.5q-15 0 -39 -3v25l146 39h25v-394
q0 -41 16 -53.5t67 -17.5zM377 -237q-50 0 -81 19l7 29q28 -10 49 -10q69 0 69 83v498q0 25 -10.5 36t-35.5 11q-15 0 -40 -3v25l146 39h25v-589q0 -74 -36 -106t-93 -32z" />
    <glyph glyph-name="Jcircumflex" unicode="&#x134;" horiz-adv-x="337" 
d="M163 890h46l145 -139h-44l-124 75l-124 -75h-44zM81 -170q-55 0 -94 31l14 30q25 -14 56 -14q40 0 59 28.5t19 67.5v593q0 62 -20 83.5t-77 25.5v25h289v-25q-61 -5 -79 -24.5t-18 -84.5v-571q0 -165 -149 -165z" />
    <glyph glyph-name="jcircumflex" unicode="&#x135;" horiz-adv-x="292" 
d="M56 580h-26l105 160h26l105 -160h-26l-92 90zM68 -237q-50 0 -81 19l7 29q28 -10 49 -10q69 0 69 83v498q0 25 -10.5 36t-35.5 11q-14 0 -40 -3v25l146 39h25v-589q0 -74 -36 -106t-93 -32z" />
    <glyph glyph-name="uni0136" unicode="&#x136;" horiz-adv-x="765" 
d="M237 566v-432q0 -63 20 -84t77 -25v-25h-289v25q58 4 77.5 26t19.5 83v432q0 63 -20 84t-77 25v25h289v-25q-61 -5 -79 -25t-18 -84zM346 389l274 -302q29 -32 67.5 -47.5t67.5 -15.5v-24h-191l-309 354l226 229q44 45 44 64q0 15 -15.5 21.5t-59.5 6.5v25h265v-24
q-57 -3 -94.5 -23t-72.5 -57zM357 -230l-2 17q58 9 58 41q0 11 -6.5 16.5t-23.5 12.5q-33 13 -33 47q0 20 13.5 33t35.5 13q26 0 42 -20t16 -51q0 -43 -28 -73t-72 -36z" />
    <glyph glyph-name="uni0137" unicode="&#x137;" horiz-adv-x="586" 
d="M262 0h-237v25q52 6 67.5 18.5t15.5 52.5v558q0 29 -9 39.5t-34 10.5q-16 0 -37 -3v22l140 37h25v-664q0 -39 13.5 -52t55.5 -19v-25zM576 0h-141l-227 257l144 118q47 39 47 63q0 16 -12 21.5t-39 5.5v25h198v-25q-50 -7 -121 -67l-124 -104v-5l171 -191
q20 -22 31.5 -33t31 -23t41.5 -17v-25zM253 -230l-2 17q58 9 58 41q0 11 -6.5 16.5t-23.5 12.5q-33 13 -33 47q0 20 13.5 33t35.5 13q26 0 42 -20t16 -51q0 -43 -28 -73t-72 -36z" />
    <glyph glyph-name="kgreenlandic" unicode="&#x138;" horiz-adv-x="591" 
d="M198 490v-394q0 -39 13.5 -52t55.5 -19v-25h-237v25q52 5 67.5 18t15.5 53v288q0 29 -9 39.5t-33 10.5q-17 0 -38 -3v22l140 37h25zM306 289l171 -191q20 -22 31.5 -33t31 -23t41.5 -17v-25h-141l-227 257l141 118q26 22 35 34.5t9 25.5q0 18 -10.5 24t-34.5 6v25h198
v-25q-50 -7 -121 -67l-124 -104v-5z" />
    <glyph glyph-name="Lacute" unicode="&#x139;" horiz-adv-x="634" 
d="M342 865l-129 -114h-46l88 139h87v-25zM574 240h25l-26 -240h-528v25q58 4 77.5 26t19.5 83v432q0 63 -20 84t-77 25v25h289v-25q-61 -5 -79 -25t-18 -84v-467q0 -34 14.5 -50t52.5 -16h61q83 0 127 44.5t82 162.5z" />
    <glyph glyph-name="lacute" unicode="&#x13a;" horiz-adv-x="301" 
d="M299 895l-129 -114h-46l88 139h87v-25zM276 25v-25h-251v25q52 5 67.5 18t15.5 53v558q0 29 -8.5 39.5t-32.5 10.5q-12 0 -39 -3v22l140 37h25v-664q0 -41 15.5 -53t67.5 -18z" />
    <glyph glyph-name="uni013B" unicode="&#x13b;" horiz-adv-x="634" 
d="M574 240h25l-26 -240h-528v25q58 4 77.5 26t19.5 83v432q0 63 -20 84t-77 25v25h289v-25q-61 -5 -79 -25t-18 -84v-467q0 -34 14.5 -50t52.5 -16h61q83 0 127 44.5t82 162.5zM277 -230l-2 17q58 9 58 41q0 11 -6.5 16.5t-23.5 12.5q-33 13 -33 47q0 20 13.5 33t35.5 13
q26 0 42 -20t16 -51q0 -43 -28 -73t-72 -36z" />
    <glyph glyph-name="uni013C" unicode="&#x13c;" horiz-adv-x="301" 
d="M276 25v-25h-251v25q52 5 67.5 18t15.5 53v558q0 29 -8.5 39.5t-32.5 10.5q-12 0 -39 -3v22l140 37h25v-664q0 -41 15.5 -53t67.5 -18zM107 -230l-2 17q58 9 58 41q0 11 -6.5 16.5t-23.5 12.5q-33 13 -33 47q0 20 13.5 33t35.5 13q26 0 42 -20t16 -51q0 -43 -28 -73
t-72 -36z" />
    <glyph glyph-name="Lcaron" unicode="&#x13d;" horiz-adv-x="634" 
d="M462 564h-24q39 59 39 88q0 21 -25 42t-25 40q0 23 14.5 37t36.5 14q23 0 36.5 -17t13.5 -45q0 -59 -66 -159zM574 240h25l-26 -240h-528v25q58 4 77.5 26t19.5 83v432q0 63 -20 84t-77 25v25h289v-25q-61 -5 -79 -25t-18 -84v-467q0 -34 14.5 -50t52.5 -16h61
q83 0 127 44.5t82 162.5z" />
    <glyph glyph-name="lcaron" unicode="&#x13e;" horiz-adv-x="301" 
d="M267 564h-24q39 59 39 88q0 21 -25 42t-25 40q0 23 14.5 37t36.5 14q23 0 36.5 -17t13.5 -45q0 -59 -66 -159zM276 25v-25h-251v25q52 5 67.5 18t15.5 53v558q0 29 -8.5 39.5t-32.5 10.5q-12 0 -39 -3v22l140 37h25v-664q0 -41 15.5 -53t67.5 -18z" />
    <glyph glyph-name="Ldot" unicode="&#x13f;" horiz-adv-x="634" 
d="M574 240h25l-26 -240h-528v25q58 4 77.5 26t19.5 83v432q0 63 -20 84t-77 25v25h289v-25q-61 -5 -79 -25t-18 -84v-467q0 -34 14.5 -50t52.5 -16h61q83 0 127 44.5t82 162.5zM430 292q-30 0 -51 21t-21 51t21 51t51 21t51 -21t21 -51t-21 -51t-51 -21z" />
    <glyph glyph-name="ldot" unicode="&#x140;" horiz-adv-x="325" 
d="M276 25v-25h-251v25q52 5 67.5 18t15.5 53v558q0 29 -8.5 39.5t-32.5 10.5q-12 0 -39 -3v22l140 37h25v-664q0 -41 15.5 -53t67.5 -18zM313 319q-30 0 -51 21t-21 51t21 51t51 21t51 -21t21 -51t-21 -51t-51 -21z" />
    <glyph glyph-name="Lslash" unicode="&#x141;" horiz-adv-x="634" 
d="M574 240h25l-26 -240h-528v25q58 4 77.5 26t19.5 83v158l-90 -47v35l90 47v239q0 63 -20 84t-77 25v25h289v-25q-61 -5 -79 -25t-18 -84v-190l220 115v-35l-220 -115v-242q0 -34 14.5 -50t52.5 -16h61q83 0 127 44.5t82 162.5z" />
    <glyph glyph-name="lslash" unicode="&#x142;" horiz-adv-x="301" 
d="M193 396v-300q0 -41 15.5 -53t67.5 -18v-25h-251v25q52 5 67.5 18t15.5 53v247l-80 -49v33l80 49v278q0 29 -8.5 39.5t-32.5 10.5q-12 0 -39 -3v22l140 37h25v-331l81 50v-33z" />
    <glyph glyph-name="Nacute" unicode="&#x143;" horiz-adv-x="797" 
d="M563 865l-129 -114h-46l88 139h87v-25zM685 -5h-40l-415 541q-35 47 -46 81l-4 -1q7 -40 7 -103v-396q1 -53 20 -68.5t85 -23.5v-25h-247v25q58 4 77.5 26t19.5 83v510q-19 17 -36 22t-61 9v24h192l333 -438q45 -60 69 -112l5 2q-4 48 -4 114v306q0 61 -19 78.5t-86 25.5
v25h247v-25q-61 -5 -79 -25t-18 -84v-571z" />
    <glyph glyph-name="nacute" unicode="&#x144;" horiz-adv-x="622" 
d="M463 719l-140 -139h-26l79 160h87v-21zM602 25v-25h-234v25q39 6 52.5 18.5t13.5 40.5v227q0 124 -106 124q-91 0 -124 -75v-264q0 -40 13.5 -53t55.5 -18v-25h-237v25q51 4 67 17t16 54v300q0 33 -46 33q-10 0 -43 -3v25l141 39h23v-55q0 -23 -8 -62l5 -1q20 62 65.5 96
t111.5 34q69 0 110 -42t41 -133v-231q0 -41 16 -53.5t67 -17.5z" />
    <glyph glyph-name="uni0145" unicode="&#x145;" horiz-adv-x="797" 
d="M685 -5h-40l-415 541q-35 47 -46 81l-4 -1q7 -40 7 -103v-396q1 -53 20 -68.5t85 -23.5v-25h-247v25q58 4 77.5 26t19.5 83v510q-19 17 -36 22t-61 9v24h192l333 -438q45 -60 69 -112l5 2q-4 48 -4 114v306q0 61 -19 78.5t-86 25.5v25h247v-25q-61 -5 -79 -25t-18 -84
v-571zM380 -230l-2 17q58 9 58 41q0 11 -6.5 16.5t-23.5 12.5q-33 13 -33 47q0 20 13.5 33t35.5 13q26 0 42 -20t16 -51q0 -43 -28 -73t-72 -36z" />
    <glyph glyph-name="uni0146" unicode="&#x146;" horiz-adv-x="622" 
d="M602 25v-25h-234v25q39 6 52.5 18.5t13.5 40.5v227q0 124 -106 124q-91 0 -124 -75v-264q0 -40 13.5 -53t55.5 -18v-25h-237v25q51 4 67 17t16 54v300q0 33 -46 33q-10 0 -43 -3v25l141 39h23v-55q0 -23 -8 -62l5 -1q20 62 65.5 96t111.5 34q69 0 110 -42t41 -133v-231
q0 -41 16 -53.5t67 -17.5zM270 -230l-2 17q58 9 58 41q0 11 -6.5 16.5t-23.5 12.5q-33 13 -33 47q0 20 13.5 33t35.5 13q26 0 42 -20t16 -51q0 -43 -28 -73t-72 -36z" />
    <glyph glyph-name="Ncaron" unicode="&#x147;" horiz-adv-x="797" 
d="M579 890l-145 -139h-46l-145 139h44l124 -75l124 75h44zM685 -5h-40l-415 541q-35 47 -46 81l-4 -1q7 -40 7 -103v-396q1 -53 20 -68.5t85 -23.5v-25h-247v25q58 4 77.5 26t19.5 83v510q-19 17 -36 22t-61 9v24h192l333 -438q45 -60 69 -112l5 2q-4 48 -4 114v306
q0 61 -19 78.5t-86 25.5v25h247v-25q-61 -5 -79 -25t-18 -84v-571z" />
    <glyph glyph-name="ncaron" unicode="&#x148;" horiz-adv-x="622" 
d="M323 580h-26l-105 160h26l92 -90l92 90h26zM602 25v-25h-234v25q39 6 52.5 18.5t13.5 40.5v227q0 124 -106 124q-91 0 -124 -75v-264q0 -40 13.5 -53t55.5 -18v-25h-237v25q51 4 67 17t16 54v300q0 33 -46 33q-10 0 -43 -3v25l141 39h23v-55q0 -23 -8 -62l5 -1
q20 62 65.5 96t111.5 34q69 0 110 -42t41 -133v-231q0 -41 16 -53.5t67 -17.5z" />
    <glyph glyph-name="napostrophe" unicode="&#x149;" horiz-adv-x="881" 
d="M81 459l-3 24q81 15 81 68q0 13 -7.5 21.5t-16 11.5t-23.5 5q-21 3 -36.5 19.5t-15.5 44.5q0 26 18 43t46 17q36 0 60.5 -30t24.5 -80q0 -65 -36.5 -101t-91.5 -43zM861 25v-25h-234v25q39 6 52.5 18.5t13.5 40.5v227q0 124 -106 124q-91 0 -124 -75v-264q0 -40 13.5 -53
t55.5 -18v-25h-237v25q51 4 67 17t16 54v300q0 33 -46 33q-10 0 -43 -3v25l141 39h23v-55q0 -23 -8 -62l5 -1q20 62 65.5 96t111.5 34q69 0 110 -42t41 -133v-231q0 -41 16 -53.5t67 -17.5z" />
    <glyph glyph-name="Eng" unicode="&#x14a;" horiz-adv-x="797" 
d="M535 675v25h247v-25q-61 -5 -79 -25t-18 -84v-655q0 -78 -34.5 -112.5t-82.5 -34.5q-57 0 -99 40l17 22q27 -23 63 -23q22 0 36.5 15t14.5 44v190l-413 539v-474q1 -53 20 -68.5t85 -23.5v-25h-247v25q58 4 77.5 26t19.5 83v510q-19 17 -36 22t-61 9v24h192l398 -525h5
v397q0 61 -19 78.5t-86 25.5z" />
    <glyph glyph-name="eng" unicode="&#x14b;" horiz-adv-x="539" 
d="M402 -236q-57 0 -99 40l17 22q27 -23 63 -23q22 0 36.5 15t14.5 44v449q0 124 -106 124q-91 0 -124 -75v-264q0 -39 13.5 -52t55.5 -19v-25h-237v25q52 5 67.5 18t15.5 53v295q0 21 -12 29t-37 9q-18 0 -40 -3v25l141 39h23v-55q0 -29 -8 -62l5 -1q20 62 65.5 96
t111.5 34q69 0 110 -42t41 -133v-416q0 -78 -34.5 -112.5t-82.5 -34.5z" />
    <glyph glyph-name="Omacron" unicode="&#x14c;" horiz-adv-x="838" 
d="M258 841v-53h321v53h-321zM419 -17q-161 0 -265 103.5t-104 263.5t104 263.5t265 103.5t265 -103.5t104 -263.5t-104 -263.5t-265 -103.5zM419 32q116 0 185 86t69 232t-69 232t-185 86t-185 -86t-69 -232t69 -232t185 -86z" />
    <glyph glyph-name="omacron" unicode="&#x14d;" horiz-adv-x="570" 
d="M409 618h-251v38h251v-38zM285 -12q-108 0 -176.5 73.5t-68.5 183.5t68.5 183.5t176.5 73.5t176.5 -73.5t68.5 -183.5t-68.5 -183.5t-176.5 -73.5zM285 32q143 0 143 213t-143 213t-143 -213t143 -213z" />
    <glyph glyph-name="Obreve" unicode="&#x14e;" horiz-adv-x="838" 
d="M527 910h22q0 -75 -36 -112t-94 -37t-94 37t-36 112h22q3 -47 32.5 -70t75.5 -23t75.5 23t32.5 70zM419 -17q-161 0 -265 103.5t-104 263.5t104 263.5t265 103.5t265 -103.5t104 -263.5t-104 -263.5t-265 -103.5zM419 32q116 0 185 86t69 232t-69 232t-185 86t-185 -86
t-69 -232t69 -232t185 -86z" />
    <glyph glyph-name="obreve" unicode="&#x14f;" horiz-adv-x="570" 
d="M372 730h22q0 -79 -30.5 -118.5t-79.5 -39.5t-79.5 39.5t-30.5 118.5h22q2 -51 26.5 -76.5t61.5 -25.5t61.5 25.5t26.5 76.5zM285 -12q-108 0 -176.5 73.5t-68.5 183.5t68.5 183.5t176.5 73.5t176.5 -73.5t68.5 -183.5t-68.5 -183.5t-176.5 -73.5zM285 32q143 0 143 213
t-143 213t-143 -213t143 -213z" />
    <glyph glyph-name="Ohungarumlaut" unicode="&#x150;" horiz-adv-x="838" 
d="M315 751l66 139h87v-21l-125 -118h-28zM495 751l66 139h87v-21l-125 -118h-28zM419 -17q-161 0 -265 103.5t-104 263.5t104 263.5t265 103.5t265 -103.5t104 -263.5t-104 -263.5t-265 -103.5zM419 32q116 0 185 86t69 232t-69 232t-185 86t-185 -86t-69 -232t69 -232
t185 -86z" />
    <glyph glyph-name="ohungarumlaut" unicode="&#x151;" horiz-adv-x="570" 
d="M229 580h-26l76 160h77v-21zM365 580h-26l76 160h77v-21zM285 -12q-108 0 -176.5 73.5t-68.5 183.5t68.5 183.5t176.5 73.5t176.5 -73.5t68.5 -183.5t-68.5 -183.5t-176.5 -73.5zM285 32q143 0 143 213t-143 213t-143 -213t143 -213z" />
    <glyph glyph-name="OE" unicode="&#x152;" horiz-adv-x="957" 
d="M874 0h-458q-163 0 -264.5 100.5t-101.5 249.5t101.5 249.5t264.5 100.5h443l32 -200h-30l-8 29q-20 71 -66.5 104t-134.5 33h-93v-279h52q56 0 83.5 21t35.5 67l5 32h25v-279h-25l-5 32q-8 48 -35 69.5t-84 21.5h-52v-252q0 -65 51 -65h55q91 0 136 37t69 121l8 28h29z
M414 34h50v632h-50q-127 0 -193 -91.5t-66 -224.5q0 -85 26.5 -154.5t86.5 -115.5t146 -46z" />
    <glyph glyph-name="oe" unicode="&#x153;" horiz-adv-x="892" 
d="M698 78q94 0 130 65l24 -12q-16 -61 -66 -102t-123 -41q-129 0 -187 104q-30 -48 -81.5 -76t-114.5 -28q-105 0 -172.5 73.5t-67.5 183.5t67.5 183.5t172.5 73.5q65 0 117.5 -29t81.5 -79q59 108 184 108q92 0 140.5 -58t48.5 -154h-334q4 -99 50.5 -155.5t129.5 -56.5z
M644 462q-56 0 -88.5 -37t-36.5 -101h226q0 63 -24.5 100.5t-76.5 37.5zM280 32q138 0 138 213t-138 213t-138 -213t138 -213z" />
    <glyph glyph-name="Racute" unicode="&#x154;" horiz-adv-x="717" 
d="M515 865l-129 -114h-46l88 139h87v-25zM334 0h-289v25q58 4 77.5 26t19.5 83v432q0 63 -20 84t-77 25v25h307q98 0 161 -40t63 -125q0 -84 -57 -128.5t-149 -46.5l-37 -1v-6l37 -1q64 -1 94.5 -29.5t72.5 -110.5l59 -115q38 -73 111 -73v-24h-165q-16 16 -51 88l-48 99
q-41 86 -61 110q-35 43 -87 43h-58v-206q0 -63 20 -84t77 -25v-25zM237 666v-292h77q90 0 125.5 43t35.5 117q0 68 -38.5 100t-118.5 32h-81z" />
    <glyph glyph-name="racute" unicode="&#x155;" horiz-adv-x="388" 
d="M386 719l-140 -139h-26l79 160h87v-21zM342 502q20 0 31 -4v-100h-16q-16 9 -42 9q-47 0 -78.5 -28t-31.5 -88v-195q0 -40 20.5 -53t82.5 -18v-25h-271v25q52 5 67.5 18t15.5 53v286q0 25 -10.5 35.5t-36.5 10.5q-11 0 -43 -2v25l141 39h23v-73q0 -66 -2 -110h6l8 52
q11 72 50.5 107.5t85.5 35.5z" />
    <glyph glyph-name="uni0156" unicode="&#x156;" horiz-adv-x="717" 
d="M334 0h-289v25q58 4 77.5 26t19.5 83v432q0 63 -20 84t-77 25v25h307q98 0 161 -40t63 -125q0 -84 -57 -128.5t-149 -46.5l-37 -1v-6l37 -1q64 -1 94.5 -29.5t72.5 -110.5l59 -115q38 -73 111 -73v-24h-165q-16 16 -51 88l-48 99q-41 86 -61 110q-35 43 -87 43h-58v-206
q0 -63 20 -84t77 -25v-25zM237 666v-292h77q90 0 125.5 43t35.5 117q0 68 -38.5 100t-118.5 32h-81zM323 -230l-2 17q58 9 58 41q0 11 -6.5 16.5t-23.5 12.5q-33 13 -33 47q0 20 13.5 33t35.5 13q26 0 42 -20t16 -51q0 -43 -28 -73t-72 -36z" />
    <glyph glyph-name="uni0157" unicode="&#x157;" horiz-adv-x="388" 
d="M342 502q20 0 31 -4v-100h-16q-16 9 -42 9q-47 0 -78.5 -28t-31.5 -88v-195q0 -40 20.5 -53t82.5 -18v-25h-271v25q52 5 67.5 18t15.5 53v286q0 25 -10.5 35.5t-36.5 10.5q-11 0 -43 -2v25l141 39h23v-73q0 -66 -2 -110h6l8 52q11 72 50.5 107.5t85.5 35.5zM120 -230
l-2 17q58 9 58 41q0 11 -6.5 16.5t-23.5 12.5q-33 13 -33 47q0 20 13.5 33t35.5 13q26 0 42 -20t16 -51q0 -43 -28 -73t-72 -36z" />
    <glyph glyph-name="Rcaron" unicode="&#x158;" horiz-adv-x="717" 
d="M531 890l-145 -139h-46l-145 139h44l124 -75l124 75h44zM334 0h-289v25q58 4 77.5 26t19.5 83v432q0 63 -20 84t-77 25v25h307q98 0 161 -40t63 -125q0 -84 -57 -128.5t-149 -46.5l-37 -1v-6l37 -1q64 -1 94.5 -29.5t72.5 -110.5l59 -115q38 -73 111 -73v-24h-165
q-16 16 -51 88l-48 99q-41 86 -61 110q-35 43 -87 43h-58v-206q0 -63 20 -84t77 -25v-25zM237 666v-292h77q90 0 125.5 43t35.5 117q0 68 -38.5 100t-118.5 32h-81z" />
    <glyph glyph-name="rcaron" unicode="&#x159;" horiz-adv-x="388" 
d="M246 580h-26l-105 160h26l92 -90l92 90h26zM342 502q20 0 31 -4v-100h-16q-16 9 -42 9q-47 0 -78.5 -28t-31.5 -88v-195q0 -40 20.5 -53t82.5 -18v-25h-271v25q52 5 67.5 18t15.5 53v286q0 25 -10.5 35.5t-36.5 10.5q-11 0 -43 -2v25l141 39h23v-73q0 -66 -2 -110h6l8 52
q11 72 50.5 107.5t85.5 35.5z" />
    <glyph glyph-name="Sacute" unicode="&#x15a;" horiz-adv-x="569" 
d="M458 865l-129 -114h-46l88 139h87v-25zM281 -17q-132 0 -231 65v193h32q35 -209 215 -209q142 0 142 125q0 48 -24.5 76t-87.5 56l-124 54q-143 61 -143 181q0 88 63.5 140.5t180.5 52.5q108 0 196 -45v-180h-29q-37 177 -190 177q-68 0 -103.5 -29t-35.5 -81
q0 -39 25.5 -69t88.5 -56l127 -55q73 -32 107 -76t34 -110q0 -93 -65 -151.5t-178 -58.5z" />
    <glyph glyph-name="sacute" unicode="&#x15b;" horiz-adv-x="432" 
d="M383 719l-140 -139h-26l79 160h87v-21zM206 -12q-99 0 -161 52v120h33q14 -65 52.5 -97t91.5 -32q46 0 72 22.5t26 59.5q0 58 -70 81l-87 28q-115 36 -115 136q0 65 50.5 104.5t129.5 39.5q74 0 142 -30v-110h-34q-9 42 -41 71t-83 29q-40 0 -65 -19.5t-25 -50.5
q0 -59 65 -82l101 -35q104 -36 104 -134q0 -70 -51 -111.5t-135 -41.5z" />
    <glyph glyph-name="Scircumflex" unicode="&#x15c;" horiz-adv-x="569" 
d="M283 890h46l145 -139h-44l-124 75l-124 -75h-44zM281 -17q-132 0 -231 65v193h32q35 -209 215 -209q142 0 142 125q0 48 -24.5 76t-87.5 56l-124 54q-143 61 -143 181q0 88 63.5 140.5t180.5 52.5q108 0 196 -45v-180h-29q-37 177 -190 177q-68 0 -103.5 -29t-35.5 -81
q0 -39 25.5 -69t88.5 -56l127 -55q73 -32 107 -76t34 -110q0 -93 -65 -151.5t-178 -58.5z" />
    <glyph glyph-name="scircumflex" unicode="&#x15d;" horiz-adv-x="432" 
d="M138 580h-26l105 160h26l105 -160h-26l-92 90zM206 -12q-99 0 -161 52v120h33q14 -65 52.5 -97t91.5 -32q46 0 72 22.5t26 59.5q0 58 -70 81l-87 28q-115 36 -115 136q0 65 50.5 104.5t129.5 39.5q74 0 142 -30v-110h-34q-9 42 -41 71t-83 29q-40 0 -65 -19.5t-25 -50.5
q0 -59 65 -82l101 -35q104 -36 104 -134q0 -70 -51 -111.5t-135 -41.5z" />
    <glyph glyph-name="Scedilla" unicode="&#x15e;" horiz-adv-x="569" 
d="M524 193q0 -92 -64 -150.5t-176 -59.5l-36 -59q12 9 34 9q34 0 56 -22.5t22 -58.5q0 -38 -25.5 -63.5t-65.5 -25.5q-33 0 -56 17.5t-30 46.5l14 4q16 -36 54 -36q25 0 41.5 16t16.5 43q0 23 -12 38t-33 15q-23 0 -41 -18l-12 8l49 87q-120 5 -210 64v193h32
q35 -209 215 -209q142 0 142 125q0 48 -24.5 76t-87.5 56l-124 54q-143 61 -143 181q0 88 63.5 140.5t180.5 52.5q108 0 196 -45v-180h-29q-37 177 -190 177q-68 0 -103.5 -29t-35.5 -81q0 -39 25.5 -69t88.5 -56l127 -55q73 -32 107 -76t34 -110z" />
    <glyph glyph-name="scedilla" unicode="&#x15f;" horiz-adv-x="432" 
d="M392 141q0 -65 -44.5 -106t-119.5 -46l-40 -65q12 9 34 9q34 0 56 -22.5t22 -58.5q0 -38 -25.5 -63.5t-65.5 -25.5q-33 0 -56 17.5t-30 46.5l14 4q16 -36 54 -36q25 0 41.5 16t16.5 43q0 23 -12 38t-33 15q-23 0 -41 -18l-12 8l52 91q-98 2 -158 52v120h33
q14 -65 52.5 -97t91.5 -32q46 0 72 22.5t26 59.5q0 58 -70 81l-87 28q-115 36 -115 136q0 65 50.5 104.5t129.5 39.5q74 0 142 -30v-110h-34q-9 42 -41 71t-83 29q-40 0 -65 -19.5t-25 -50.5q0 -59 65 -82l101 -35q104 -36 104 -134z" />
    <glyph glyph-name="Scaron" unicode="&#x160;" horiz-adv-x="569" 
d="M474 890l-145 -139h-46l-145 139h44l124 -75l124 75h44zM281 -17q-132 0 -231 65v193h32q35 -209 215 -209q142 0 142 125q0 48 -24.5 76t-87.5 56l-124 54q-143 61 -143 181q0 88 63.5 140.5t180.5 52.5q108 0 196 -45v-180h-29q-37 177 -190 177q-68 0 -103.5 -29
t-35.5 -81q0 -39 25.5 -69t88.5 -56l127 -55q73 -32 107 -76t34 -110q0 -93 -65 -151.5t-178 -58.5z" />
    <glyph glyph-name="scaron" unicode="&#x161;" horiz-adv-x="432" 
d="M243 580h-26l-105 160h26l92 -90l92 90h26zM206 -12q-99 0 -161 52v120h33q14 -65 52.5 -97t91.5 -32q46 0 72 22.5t26 59.5q0 58 -70 81l-87 28q-115 36 -115 136q0 65 50.5 104.5t129.5 39.5q74 0 142 -30v-110h-34q-9 42 -41 71t-83 29q-40 0 -65 -19.5t-25 -50.5
q0 -59 65 -82l101 -35q104 -36 104 -134q0 -70 -51 -111.5t-135 -41.5z" />
    <glyph glyph-name="uni0162" unicode="&#x162;" horiz-adv-x="626" 
d="M581 720h25v-235h-30q-11 96 -39 135t-91 39h-85v-525q0 -66 24 -85.5t103 -23.5v-25h-164l-47 -76q12 9 34 9q34 0 56 -22.5t22 -58.5q0 -38 -25.5 -63.5t-65.5 -25.5q-33 0 -56 17.5t-30 46.5l14 4q16 -36 54 -36q25 0 41.5 16t16.5 43q0 23 -12 38t-33 15
q-23 0 -41 -18l-12 8l59 103h-160v25q79 4 103 24t24 85v525h-85q-64 0 -92.5 -40t-38.5 -134h-30v235h25q12 -20 49 -20h439q37 0 48 20z" />
    <glyph glyph-name="uni0163" unicode="&#x163;" horiz-adv-x="350" 
d="M205 -12h-2l-39 -64q12 9 34 9q34 0 56 -22.5t22 -58.5q0 -38 -25.5 -63.5t-65.5 -25.5q-33 0 -56 17.5t-30 46.5l14 4q16 -36 54 -36q25 0 41.5 16t16.5 43q0 23 -12 38t-33 15q-23 0 -41 -18l-12 8l53 93q-86 13 -86 118v332h-89v25q99 25 148 141h26v-116h136v-50
h-136v-295q0 -49 22 -71t54 -22q33 0 68 27l17 -21q-59 -70 -135 -70z" />
    <glyph glyph-name="Tcaron" unicode="&#x164;" horiz-adv-x="626" 
d="M482 890l-145 -139h-46l-145 139h44l124 -75l124 75h44zM581 720h25v-235h-30q-11 96 -39 135t-91 39h-85v-525q0 -66 24 -85.5t103 -23.5v-25h-349v25q79 4 103 24t24 85v525h-85q-64 0 -92.5 -40t-38.5 -134h-30v235h25q12 -20 49 -20h439q37 0 48 20z" />
    <glyph glyph-name="tcaron" unicode="&#x165;" horiz-adv-x="350" 
d="M257 564h-24q39 59 39 88q0 21 -25 42t-25 40q0 23 14.5 37t36.5 14q23 0 36.5 -17t13.5 -45q0 -59 -66 -159zM205 -12q-111 0 -111 120v332h-89v25q99 25 148 141h26v-116h136v-50h-136v-295q0 -49 22 -71t54 -22q33 0 68 27l17 -21q-59 -70 -135 -70z" />
    <glyph glyph-name="Tbar" unicode="&#x166;" horiz-adv-x="626" 
d="M581 720h25v-235h-30q-11 96 -39 135t-91 39h-85v-295h135v-29h-135v-201q0 -66 24 -85.5t103 -23.5v-25h-349v25q79 4 103 24t24 85v201h-133v29h133v295h-85q-64 0 -92.5 -40t-38.5 -134h-30v235h25q12 -20 49 -20h439q37 0 48 20z" />
    <glyph glyph-name="tbar" unicode="&#x167;" horiz-adv-x="350" 
d="M323 79l17 -21q-59 -70 -135 -70q-111 0 -111 120v190h-77v28h77v114h-89v25q99 25 148 141h26v-116h136v-50h-136v-114h122v-28h-122v-153q0 -49 22 -71t54 -22q33 0 68 27z" />
    <glyph glyph-name="Utilde" unicode="&#x168;" horiz-adv-x="758" 
d="M464 763q-30 0 -63 20t-57 20q-42 0 -65 -39h-24q3 56 33 81t69 25q29 0 63 -20t57 -20q42 0 65 39h24q-3 -56 -33 -81t-69 -25zM385 -17q-133 0 -205.5 73.5t-72.5 209.5v300q0 63 -20 84t-77 25v25h299v-25q-61 -5 -79 -24.5t-18 -84.5v-305q0 -105 49.5 -159.5
t146.5 -54.5q190 0 190 223v296q0 63 -20 84t-77 25v25h247v-25q-61 -5 -79 -24.5t-18 -84.5v-304q0 -130 -71.5 -204.5t-194.5 -74.5z" />
    <glyph glyph-name="utilde" unicode="&#x169;" horiz-adv-x="584" 
d="M310 593q-27 0 -57.5 19t-52.5 19q-36 0 -55 -37h-14q3 51 30 73.5t62 22.5q27 0 57.5 -19t52.5 -19q36 0 55 37h14q-3 -51 -30 -73.5t-62 -22.5zM559 25v-25h-154v36q0 47 11 80l-6 1q-17 -60 -63 -94.5t-100 -34.5q-68 0 -110 41.5t-42 118.5v246q0 30 -15.5 37.5
t-64.5 7.5v26l145 25h20v-319q0 -115 105 -115q36 0 68 20.5t45 53.5v264q0 30 -15.5 37.5t-64.5 7.5v26l145 25h20v-414q0 -26 16 -35.5t60 -15.5z" />
    <glyph glyph-name="Umacron" unicode="&#x16a;" horiz-adv-x="758" 
d="M244 841v-53h321v53h-321zM385 -17q-133 0 -205.5 73.5t-72.5 209.5v300q0 63 -20 84t-77 25v25h299v-25q-61 -5 -79 -24.5t-18 -84.5v-305q0 -105 49.5 -159.5t146.5 -54.5q190 0 190 223v296q0 63 -20 84t-77 25v25h247v-25q-61 -5 -79 -24.5t-18 -84.5v-304
q0 -130 -71.5 -204.5t-194.5 -74.5z" />
    <glyph glyph-name="umacron" unicode="&#x16b;" horiz-adv-x="584" 
d="M392 618h-251v38h251v-38zM559 25v-25h-154v36q0 47 11 80l-6 1q-17 -60 -63 -94.5t-100 -34.5q-68 0 -110 41.5t-42 118.5v246q0 30 -15.5 37.5t-64.5 7.5v26l145 25h20v-319q0 -115 105 -115q36 0 68 20.5t45 53.5v264q0 30 -15.5 37.5t-64.5 7.5v26l145 25h20v-414
q0 -26 16 -35.5t60 -15.5z" />
    <glyph glyph-name="Ubreve" unicode="&#x16c;" horiz-adv-x="758" 
d="M513 910h22q0 -75 -36 -112t-94 -37t-94 37t-36 112h22q3 -47 32.5 -70t75.5 -23t75.5 23t32.5 70zM385 -17q-133 0 -205.5 73.5t-72.5 209.5v300q0 63 -20 84t-77 25v25h299v-25q-61 -5 -79 -24.5t-18 -84.5v-305q0 -105 49.5 -159.5t146.5 -54.5q190 0 190 223v296
q0 63 -20 84t-77 25v25h247v-25q-61 -5 -79 -24.5t-18 -84.5v-304q0 -130 -71.5 -204.5t-194.5 -74.5z" />
    <glyph glyph-name="ubreve" unicode="&#x16d;" horiz-adv-x="584" 
d="M355 730h22q0 -79 -30.5 -118.5t-79.5 -39.5t-79.5 39.5t-30.5 118.5h22q2 -51 26.5 -76.5t61.5 -25.5t61.5 25.5t26.5 76.5zM559 25v-25h-154v36q0 47 11 80l-6 1q-17 -60 -63 -94.5t-100 -34.5q-68 0 -110 41.5t-42 118.5v246q0 30 -15.5 37.5t-64.5 7.5v26l145 25h20
v-319q0 -115 105 -115q36 0 68 20.5t45 53.5v264q0 30 -15.5 37.5t-64.5 7.5v26l145 25h20v-414q0 -26 16 -35.5t60 -15.5z" />
    <glyph glyph-name="Uring" unicode="&#x16e;" horiz-adv-x="758" 
d="M407 724q-41 0 -69.5 27.5t-28.5 70.5t28.5 70.5t69.5 27.5t69.5 -27.5t28.5 -70.5t-28.5 -70.5t-69.5 -27.5zM407 756q29 0 47.5 17.5t18.5 48.5t-18.5 48.5t-47.5 17.5t-47.5 -17.5t-18.5 -48.5t18.5 -48.5t47.5 -17.5zM385 -17q-133 0 -205.5 73.5t-72.5 209.5v300
q0 63 -20 84t-77 25v25h299v-25q-61 -5 -79 -24.5t-18 -84.5v-305q0 -105 49.5 -159.5t146.5 -54.5q190 0 190 223v296q0 63 -20 84t-77 25v25h247v-25q-61 -5 -79 -24.5t-18 -84.5v-304q0 -130 -71.5 -204.5t-194.5 -74.5z" />
    <glyph glyph-name="uring" unicode="&#x16f;" horiz-adv-x="584" 
d="M267 554q-41 0 -69.5 27.5t-28.5 70.5t28.5 70.5t69.5 27.5t69.5 -27.5t28.5 -70.5t-28.5 -70.5t-69.5 -27.5zM267 591q25 0 41.5 16.5t16.5 44.5t-16.5 44.5t-41.5 16.5t-41.5 -16.5t-16.5 -44.5t16.5 -44.5t41.5 -16.5zM559 25v-25h-154v36q0 47 11 80l-6 1
q-17 -60 -63 -94.5t-100 -34.5q-68 0 -110 41.5t-42 118.5v246q0 30 -15.5 37.5t-64.5 7.5v26l145 25h20v-319q0 -115 105 -115q36 0 68 20.5t45 53.5v264q0 30 -15.5 37.5t-64.5 7.5v26l145 25h20v-414q0 -26 16 -35.5t60 -15.5z" />
    <glyph glyph-name="Uhungarumlaut" unicode="&#x170;" horiz-adv-x="758" 
d="M301 751l66 139h87v-21l-125 -118h-28zM481 751l66 139h87v-21l-125 -118h-28zM385 -17q-133 0 -205.5 73.5t-72.5 209.5v300q0 63 -20 84t-77 25v25h299v-25q-61 -5 -79 -24.5t-18 -84.5v-305q0 -105 49.5 -159.5t146.5 -54.5q190 0 190 223v296q0 63 -20 84t-77 25v25
h247v-25q-61 -5 -79 -24.5t-18 -84.5v-304q0 -130 -71.5 -204.5t-194.5 -74.5z" />
    <glyph glyph-name="uhungarumlaut" unicode="&#x171;" horiz-adv-x="584" 
d="M212 580h-26l76 160h77v-21zM348 580h-26l76 160h77v-21zM559 25v-25h-154v36q0 47 11 80l-6 1q-17 -60 -63 -94.5t-100 -34.5q-68 0 -110 41.5t-42 118.5v246q0 30 -15.5 37.5t-64.5 7.5v26l145 25h20v-319q0 -115 105 -115q36 0 68 20.5t45 53.5v264q0 30 -15.5 37.5
t-64.5 7.5v26l145 25h20v-414q0 -26 16 -35.5t60 -15.5z" />
    <glyph glyph-name="Uogonek" unicode="&#x172;" horiz-adv-x="758" 
d="M501 675v25h247v-25q-61 -5 -79 -24.5t-18 -84.5v-304q0 -98 -41.5 -165.5t-117.5 -95.5v-1q-45 -15 -72 -49t-27 -70q0 -28 15 -44.5t42 -16.5q43 0 60 42l19 -10q-11 -40 -38 -64.5t-62 -24.5q-42 0 -67.5 26.5t-25.5 75.5q0 67 62 118h-13q-133 0 -205.5 73.5
t-72.5 209.5v300q0 63 -20 84t-77 25v25h299v-25q-61 -5 -79 -24.5t-18 -84.5v-305q0 -105 49.5 -159.5t146.5 -54.5q190 0 190 223v296q0 63 -20 84t-77 25z" />
    <glyph glyph-name="uogonek" unicode="&#x173;" horiz-adv-x="584" 
d="M559 0h-130q-45 -15 -72 -49t-27 -70q0 -28 15 -44.5t42 -16.5q43 0 60 42l19 -10q-11 -40 -38 -64.5t-62 -24.5q-42 0 -67.5 26.5t-25.5 75.5t37.5 94t94.5 60v17q0 47 11 80l-6 1q-17 -60 -63 -94.5t-100 -34.5q-68 0 -110 41.5t-42 118.5v246q0 30 -15.5 37.5
t-64.5 7.5v26l145 25h20v-319q0 -115 105 -115q36 0 68 20.5t45 53.5v264q0 30 -15.5 37.5t-64.5 7.5v26l145 25h20v-414q0 -26 16 -35.5t60 -15.5v-25z" />
    <glyph glyph-name="Wcircumflex" unicode="&#x174;" horiz-adv-x="1053" 
d="M502 890h46l145 -139h-44l-124 75l-124 -75h-44zM366 -5h-44l-211 593q-17 48 -40.5 67t-60.5 21v24h280v-25q-49 -4 -65 -12.5t-16 -35.5q0 -20 10 -49l126 -386q13 -41 17 -87h5q2 42 18 90l116 353l-21 60q-14 43 -29.5 53.5t-58.5 14.5v24h271v-25
q-50 -4 -67.5 -12.5t-17.5 -32.5q0 -18 8 -42l129 -386q18 -54 20 -94h5q3 42 20 94l125 376q8 24 8 44q0 30 -18.5 39.5t-72.5 13.5v25h241v-24q-39 -5 -64 -23t-40 -61l-200 -597h-45l-146 434q-13 37 -13 86h-6q-4 -46 -18 -88z" />
    <glyph glyph-name="wcircumflex" unicode="&#x175;" horiz-adv-x="828" 
d="M325 580h-26l105 160h26l105 -160h-26l-92 90zM422 339h-5q-4 -25 -19 -62l-118 -282h-26l-183 422q-14 30 -26 39t-40 9v25h222v-25q-32 0 -46 -8.5t-14 -27.5q0 -11 10 -37l87 -208q16 -37 16 -84h5q3 27 16 62l92 212l-19 43q-14 31 -25.5 39.5t-39.5 8.5v25h237v-25
q-44 0 -59.5 -7.5t-15.5 -28.5q0 -12 8 -36l87 -213q16 -39 16 -84h5q3 28 16 62l97 232q9 22 9 37q0 23 -16.5 30.5t-64.5 7.5v25h195v-25q-26 0 -41 -10.5t-25 -36.5l-174 -423h-26l-122 282q-13 29 -13 62z" />
    <glyph glyph-name="Ycircumflex" unicode="&#x176;" horiz-adv-x="665" 
d="M345 890h46l145 -139h-44l-124 75l-124 -75h-44zM450 675v25h210v-24q-25 -3 -43 -19.5t-42 -51.5l-189 -314v-157q0 -66 24 -85.5t103 -23.5v-25h-349v25q79 4 103 24t24 85v156l-178 288q-34 55 -55.5 73.5t-52.5 24.5v24h280v-25q-54 -2 -71 -9.5t-17 -29.5
q0 -18 18 -47l120 -193q29 -44 34 -69h5q3 21 29 66l117 196q16 27 16 47q0 35 -86 39z" />
    <glyph glyph-name="ycircumflex" unicode="&#x177;" horiz-adv-x="536" 
d="M199 580h-26l105 160h26l105 -160h-26l-92 90zM77 -237q-40 0 -72 13v101h22q33 -21 82 -21q41 0 76 20.5t55 58.5l14 27l-189 446q-15 38 -26 47.5t-34 9.5v25h241v-25q-81 0 -81 -47q0 -12 9 -34l96 -235q18 -43 18 -86l5 -1q4 27 18 65l96 246q9 25 9 39
q0 24 -21 38.5t-59 14.5v25h195v-25q-36 0 -60 -57l-206 -496q-36 -86 -82.5 -117.5t-105.5 -31.5z" />
    <glyph glyph-name="Ydieresis" unicode="&#x178;" horiz-adv-x="665" 
d="M263 768q-23 0 -39.5 16t-16.5 40t16.5 40t39.5 16t39.5 -16t16.5 -40t-16.5 -40t-39.5 -16zM473 768q-23 0 -39.5 16t-16.5 40t16.5 40t39.5 16t39.5 -16t16.5 -40t-16.5 -40t-39.5 -16zM450 675v25h210v-24q-25 -3 -43 -19.5t-42 -51.5l-189 -314v-157q0 -66 24 -85.5
t103 -23.5v-25h-349v25q79 4 103 24t24 85v156l-178 288q-34 55 -55.5 73.5t-52.5 24.5v24h280v-25q-54 -2 -71 -9.5t-17 -29.5q0 -18 18 -47l120 -193q29 -44 34 -69h5q3 21 29 66l117 196q16 27 16 47q0 35 -86 39z" />
    <glyph glyph-name="Zacute" unicode="&#x179;" horiz-adv-x="644" 
d="M499 865l-129 -114h-46l88 139h87v-25zM581 0h-529l-17 33l428 603q13 18 25 22l-2 5q-16 -6 -33 -6h-172q-101 0 -136.5 -32.5t-61.5 -143.5h-31l21 219h507l16 -32l-425 -601q-14 -19 -29 -25l2 -5q14 6 34 6h169q105 0 151 37t75 138h31z" />
    <glyph glyph-name="zacute" unicode="&#x17a;" horiz-adv-x="477" 
d="M397 719l-140 -139h-26l79 160h87v-21zM432 0h-392l-10 23l275 396q17 24 40 31l-2 5q-20 -5 -40 -5h-116q-53 0 -78.5 -27.5t-37.5 -99.5h-26v167h385l11 -22l-268 -395q-14 -21 -40 -33l1 -5q20 5 35 5h111q60 0 94 33.5t50 107.5h23z" />
    <glyph glyph-name="Zdotaccent" unicode="&#x17b;" horiz-adv-x="644" 
d="M347 768q-25 0 -43 18t-18 43t18 43t43 18t43 -18t18 -43t-18 -43t-43 -18zM581 0h-529l-17 33l428 603q13 18 25 22l-2 5q-16 -6 -33 -6h-172q-101 0 -136.5 -32.5t-61.5 -143.5h-31l21 219h507l16 -32l-425 -601q-14 -19 -29 -25l2 -5q14 6 34 6h169q105 0 151 37
t75 138h31z" />
    <glyph glyph-name="zdotaccent" unicode="&#x17c;" horiz-adv-x="477" 
d="M244 565q-28 0 -47 19t-19 47t19 47t47 19t47 -19t19 -47t-19 -47t-47 -19zM432 0h-392l-10 23l275 396q17 24 40 31l-2 5q-20 -5 -40 -5h-116q-53 0 -78.5 -27.5t-37.5 -99.5h-26v167h385l11 -22l-268 -395q-14 -21 -40 -33l1 -5q20 5 35 5h111q60 0 94 33.5t50 107.5
h23z" />
    <glyph glyph-name="Zcaron" unicode="&#x17d;" horiz-adv-x="644" 
d="M515 890l-145 -139h-46l-145 139h44l124 -75l124 75h44zM581 0h-529l-17 33l428 603q13 18 25 22l-2 5q-16 -6 -33 -6h-172q-101 0 -136.5 -32.5t-61.5 -143.5h-31l21 219h507l16 -32l-425 -601q-14 -19 -29 -25l2 -5q14 6 34 6h169q105 0 151 37t75 138h31z" />
    <glyph glyph-name="zcaron" unicode="&#x17e;" horiz-adv-x="477" 
d="M257 580h-26l-105 160h26l92 -90l92 90h26zM432 0h-392l-10 23l275 396q17 24 40 31l-2 5q-20 -5 -40 -5h-116q-53 0 -78.5 -27.5t-37.5 -99.5h-26v167h385l11 -22l-268 -395q-14 -21 -40 -33l1 -5q20 5 35 5h111q60 0 94 33.5t50 107.5h23z" />
    <glyph glyph-name="uni018F" unicode="&#x18f;" horiz-adv-x="730" 
d="M340 717q161 0 250.5 -100t89.5 -267q0 -162 -83 -264.5t-236 -102.5q-145 0 -228 93t-83 232h519q1 14 1 43q0 150 -60 233.5t-170 83.5q-85 0 -135.5 -50.5t-77.5 -143.5h-29v166q41 37 107.5 57t134.5 20zM361 37q87 0 139 61.5t66 173.5h-396q-1 -106 49 -170.5
t142 -64.5z" />
    <glyph glyph-name="florin" unicode="&#x192;" horiz-adv-x="523" 
d="M489 682q47 0 75 -27l-40 -70h-13q-29 43 -119 43q-48 -25 -70 -127l-21 -95h125l-10 -35h-123l-78 -350q-23 -106 -99.5 -182t-140.5 -76q-47 0 -75 27l30 70h13q27 -21 51 -29.5t64 -8.5q29 20 53 122l97 427h-103l10 35h101l8 35q23 100 107.5 170.5t157.5 70.5z" />
    <glyph glyph-name="uni019D" unicode="&#x19d;" horiz-adv-x="797" 
d="M58 -237q-50 0 -81 19l7 29q28 -10 59 -10q47 0 73 22.5t26 77.5v743q-19 17 -36 22t-61 9v24h192l333 -438q45 -60 69 -112l5 2q-4 48 -4 114v306q0 61 -19 78.5t-86 25.5v25h247v-25q-61 -5 -79 -25t-18 -84v-571h-40l-415 541q-35 47 -46 81l-4 -1q7 -40 7 -103v-612
q0 -74 -36 -106t-93 -32z" />
    <glyph glyph-name="Gcaron" unicode="&#x1e6;" horiz-adv-x="765" 
d="M600 890l-145 -139h-46l-145 139h44l124 -75l124 75h44zM432 320h308v-25q-36 0 -50 -17.5t-14 -61.5v-150q-113 -83 -256 -83q-156 0 -263 106t-107 261q0 163 108.5 265t278.5 102q139 0 225 -42v-172h-29q-18 80 -75.5 122.5t-147.5 42.5q-117 0 -183.5 -84
t-66.5 -233q0 -145 69.5 -229.5t188.5 -84.5q53 0 99.5 21t63.5 53v102q-1 41 -29.5 60t-94.5 21l-25 1v25z" />
    <glyph glyph-name="gcaron" unicode="&#x1e7;" horiz-adv-x="550" 
d="M377 740l-105 -160h-26l-105 160h26l92 -90l92 90h26zM515 440h-40q-43 0 -91 19l-3 -6q77 -23 77 -120q0 -75 -56 -121.5t-143 -46.5q-40 0 -71 10q-31 -3 -45 -17t-14 -33q0 -44 73 -49l163 -10q73 -5 111.5 -32t38.5 -86q0 -74 -66 -129.5t-203 -55.5q-97 0 -154 33.5
t-57 85.5q0 39 23.5 65.5t81.5 42.5v6q-35 10 -56 35t-21 59q0 29 20.5 55t60.5 40v7q-84 47 -84 141q0 75 56 122t143 47q43 0 79 -12h177v-50zM259 200q49 0 79 33t30 100q0 66 -29.5 100t-79.5 34q-49 0 -79 -33.5t-30 -100.5t30 -100t79 -33zM337 -17l-161 8
q-59 -23 -59 -80q0 -47 47.5 -74t133.5 -27q74 0 116 25t42 68q0 75 -119 80z" />
    <glyph glyph-name="uni01EA" unicode="&#x1ea;" horiz-adv-x="838" 
d="M534 -1q-44 -16 -70 -49t-26 -69q0 -28 15 -44.5t42 -16.5q43 0 60 42l19 -10q-11 -40 -38 -64.5t-62 -24.5q-42 0 -67.5 26.5t-25.5 75.5q0 67 63 119q-9 -1 -25 -1q-161 0 -265 103.5t-104 263.5t104 263.5t265 103.5t265 -103.5t104 -263.5q0 -129 -69 -223.5
t-185 -127.5zM165 350q0 -146 69 -232t185 -86t185 86t69 232t-69 232t-185 86t-185 -86t-69 -232z" />
    <glyph glyph-name="uni01EB" unicode="&#x1eb;" horiz-adv-x="570" 
d="M358 -2q-43 -16 -68.5 -49t-25.5 -68q0 -28 15 -44.5t42 -16.5q43 0 60 42l19 -10q-11 -40 -38 -64.5t-62 -24.5q-42 0 -67.5 26.5t-25.5 75.5q0 33 18.5 66.5t49.5 56.5q-103 4 -169 77t-66 180q0 110 68.5 183.5t176.5 73.5t176.5 -73.5t68.5 -183.5
q0 -89 -46.5 -156.5t-125.5 -90.5zM142 245q0 -213 143 -213t143 213t-143 213t-143 -213z" />
    <glyph glyph-name="AEacute" unicode="&#x1fc;" horiz-adv-x="993" 
d="M802 865l-129 -114h-46l88 139h87v-25zM234 0h-229v25q49 4 70.5 24t56.5 83l267 479q12 23 12 37q0 16 -21.5 21.5t-89.5 5.5v25h617l20 -200h-30q-26 95 -72 130.5t-146 35.5h-71v-279h30q66 0 89.5 24t33.5 96h30v-279h-30q-10 73 -34 98t-89 25h-30v-251
q0 -34 14.5 -50t52.5 -16h15q96 0 139 38.5t74 147.5h30l-22 -220h-495v25q58 4 77.5 26t19.5 83v216h-220l-121 -223q-27 -53 -15 -73.5t67 -27.5v-26zM475 666l-152 -279h200v279h-48z" />
    <glyph glyph-name="aeacute" unicode="&#x1fd;" horiz-adv-x="729" 
d="M525 740v-21l-140 -139h-26l79 160h87zM553 78q80 0 110 65l24 -12q-15 -61 -59.5 -102t-109.5 -41q-118 0 -166 111q-15 -44 -55.5 -77.5t-105.5 -33.5q-63 0 -104.5 35.5t-41.5 100.5q0 70 62 122t183 55l20 1q-13 72 -36 102t-75 30q-86 0 -117 -82l-27 8
q14 61 58 101.5t124 40.5q101 0 144 -75q51 75 139 75q169 0 169 -234h-292q8 -89 48 -139.5t108 -50.5zM497 462q-47 0 -74 -43t-27 -117h186q0 76 -18 118t-67 42zM226 41q78 0 115 91q-5 16 -11 50l-14 84h-11q-85 0 -125 -35t-40 -93q0 -40 22.5 -68.5t63.5 -28.5z" />
    <glyph glyph-name="Oslashacute" unicode="&#x1fe;" horiz-adv-x="838" 
d="M571 890v-25l-129 -114h-46l88 139h87zM706 737l-60 -91q67 -50 104.5 -126.5t37.5 -169.5q0 -160 -104 -263.5t-265 -103.5q-101 0 -181 43l-41 -62h-54l56 85q-70 50 -109.5 128t-39.5 173q0 160 104 263.5t265 103.5q104 0 189 -47l44 67h54zM165 350q0 -152 75 -239
l332 504q-64 53 -153 53q-116 0 -185 -86t-69 -232zM419 32q116 0 185 86t69 232t-69 232l-331 -503q63 -47 146 -47z" />
    <glyph glyph-name="oslashacute" unicode="&#x1ff;" horiz-adv-x="570" 
d="M437 740v-21l-140 -139h-26l79 160h87zM499 514l-52 -71q83 -75 83 -198q0 -110 -68.5 -183.5t-176.5 -73.5q-79 0 -140 42l-33 -46h-40l48 66q-80 75 -80 195q0 110 68.5 183.5t176.5 73.5q77 0 136 -39l37 51h41zM142 245q0 -82 22 -134l221 303q-35 44 -100 44
q-143 0 -143 -213zM285 32q143 0 143 213q0 88 -24 139l-222 -304q35 -48 103 -48z" />
    <glyph glyph-name="uni0218" unicode="&#x218;" horiz-adv-x="569" 
d="M281 -17q-132 0 -231 65v193h32q35 -209 215 -209q142 0 142 125q0 48 -24.5 76t-87.5 56l-124 54q-143 61 -143 181q0 88 63.5 140.5t180.5 52.5q108 0 196 -45v-180h-29q-37 177 -190 177q-68 0 -103.5 -29t-35.5 -81q0 -39 25.5 -69t88.5 -56l127 -55q73 -32 107 -76
t34 -110q0 -93 -65 -151.5t-178 -58.5zM245 -230l-2 17q58 9 58 41q0 11 -6.5 16.5t-23.5 12.5q-33 13 -33 47q0 20 13.5 33t35.5 13q26 0 42 -20t16 -51q0 -43 -28 -73t-72 -36z" />
    <glyph glyph-name="uni0219" unicode="&#x219;" horiz-adv-x="432" 
d="M206 -12q-99 0 -161 52v120h33q14 -65 52.5 -97t91.5 -32q46 0 72 22.5t26 59.5q0 58 -70 81l-87 28q-115 36 -115 136q0 65 50.5 104.5t129.5 39.5q74 0 142 -30v-110h-34q-9 42 -41 71t-83 29q-40 0 -65 -19.5t-25 -50.5q0 -59 65 -82l101 -35q104 -36 104 -134
q0 -70 -51 -111.5t-135 -41.5zM185 -230l-2 17q58 9 58 41q0 11 -6.5 16.5t-23.5 12.5q-33 13 -33 47q0 20 13.5 33t35.5 13q26 0 42 -20t16 -51q0 -43 -28 -73t-72 -36z" />
    <glyph glyph-name="uni021A" unicode="&#x21a;" horiz-adv-x="626" 
d="M581 720h25v-235h-30q-11 96 -39 135t-91 39h-85v-525q0 -66 24 -85.5t103 -23.5v-25h-349v25q79 4 103 24t24 85v525h-85q-64 0 -92.5 -40t-38.5 -134h-30v235h25q12 -20 49 -20h439q37 0 48 20zM274 -230l-2 17q58 9 58 41q0 11 -6.5 16.5t-23.5 12.5q-33 13 -33 47
q0 20 13.5 33t35.5 13q26 0 42 -20t16 -51q0 -43 -28 -73t-72 -36z" />
    <glyph glyph-name="uni021B" unicode="&#x21b;" horiz-adv-x="350" 
d="M205 -12q-111 0 -111 120v332h-89v25q99 25 148 141h26v-116h136v-50h-136v-295q0 -49 22 -71t54 -22q33 0 68 27l17 -21q-59 -70 -135 -70zM161 -230l-2 17q58 9 58 41q0 11 -6.5 16.5t-23.5 12.5q-33 13 -33 47q0 20 13.5 33t35.5 13q26 0 42 -20t16 -51q0 -43 -28 -73
t-72 -36z" />
    <glyph glyph-name="uni0232" unicode="&#x232;" horiz-adv-x="665" 
d="M207 841v-53h321v53h-321zM450 675v25h210v-24q-25 -3 -43 -19.5t-42 -51.5l-189 -314v-157q0 -66 24 -85.5t103 -23.5v-25h-349v25q79 4 103 24t24 85v156l-178 288q-34 55 -55.5 73.5t-52.5 24.5v24h280v-25q-54 -2 -71 -9.5t-17 -29.5q0 -18 18 -47l120 -193
q29 -44 34 -69h5q3 21 29 66l117 196q16 27 16 47q0 35 -86 39z" />
    <glyph glyph-name="uni0233" unicode="&#x233;" horiz-adv-x="536" 
d="M416 618h-251v38h251v-38zM77 -237q-40 0 -72 13v101h22q33 -21 82 -21q41 0 76 20.5t55 58.5l14 27l-189 446q-15 38 -26 47.5t-34 9.5v25h241v-25q-81 0 -81 -47q0 -12 9 -34l96 -235q18 -43 18 -86l5 -1q4 27 18 65l96 246q9 25 9 39q0 24 -21 38.5t-59 14.5v25h195
v-25q-36 0 -60 -57l-206 -496q-36 -86 -82.5 -117.5t-105.5 -31.5z" />
    <glyph glyph-name="uni0237" unicode="&#x237;" horiz-adv-x="292" 
d="M68 -237q-50 0 -81 19l7 29q28 -10 49 -10q69 0 69 83v498q0 25 -10.5 36t-35.5 11q-14 0 -40 -3v25l146 39h25v-589q0 -74 -36 -106t-93 -32z" />
    <glyph glyph-name="uni0259" unicode="&#x259;" horiz-adv-x="489" 
d="M229 502q104 0 162 -68.5t58 -180.5q0 -116 -58.5 -190.5t-161.5 -74.5q-92 0 -140.5 58t-48.5 154h334q-4 99 -50.5 155.5t-129.5 56.5q-94 0 -130 -65l-24 12q16 61 66 102t123 41zM248 28q56 0 88.5 37t36.5 101h-226q0 -63 24.5 -100.5t76.5 -37.5z" />
    <glyph glyph-name="uni0272" unicode="&#x272;" horiz-adv-x="622" 
d="M75 -237q-50 0 -81 19l7 29q28 -10 49 -10q69 0 69 83v512q0 33 -46 33q-10 0 -43 -3v25l141 39h23v-55q0 -23 -8 -62l5 -1q20 62 65.5 96t111.5 34q69 0 110 -42t41 -133v-231q0 -41 16 -53.5t67 -17.5v-25h-234v25q39 6 52.5 18.5t13.5 40.5v227q0 124 -106 124
q-91 0 -124 -75v-459q0 -74 -36 -106t-93 -32z" />
    <glyph glyph-name="uni02BC" unicode="&#x2bc;" horiz-adv-x="279" 
d="M81 459l-3 24q81 15 81 68q0 13 -7.5 21.5t-16 11.5t-23.5 5q-21 3 -36.5 19.5t-15.5 44.5q0 26 18 43t46 17q36 0 60.5 -30t24.5 -80q0 -65 -36.5 -101t-91.5 -43z" />
    <glyph glyph-name="circumflex" unicode="&#x2c6;" horiz-adv-x="600" 
d="M76 580h-26l105 160h26l105 -160h-26l-92 90z" />
    <glyph glyph-name="caron" unicode="&#x2c7;" horiz-adv-x="600" 
d="M181 580h-26l-105 160h26l92 -90l92 90h26z" />
    <glyph glyph-name="breve" unicode="&#x2d8;" horiz-adv-x="600" 
d="M248 730h22q0 -79 -30.5 -118.5t-79.5 -39.5t-79.5 39.5t-30.5 118.5h22q2 -51 26.5 -76.5t61.5 -25.5t61.5 25.5t26.5 76.5z" />
    <glyph glyph-name="dotaccent" unicode="&#x2d9;" horiz-adv-x="600" 
d="M116 565q-28 0 -47 19t-19 47t19 47t47 19t47 -19t19 -47t-19 -47t-47 -19z" />
    <glyph glyph-name="ring" unicode="&#x2da;" horiz-adv-x="600" 
d="M148 554q-41 0 -69.5 27.5t-28.5 70.5t28.5 70.5t69.5 27.5t69.5 -27.5t28.5 -70.5t-28.5 -70.5t-69.5 -27.5zM148 591q25 0 41.5 16.5t16.5 44.5t-16.5 44.5t-41.5 16.5t-41.5 -16.5t-16.5 -44.5t16.5 -44.5t41.5 -16.5z" />
    <glyph glyph-name="ogonek" unicode="&#x2db;" horiz-adv-x="600" 
d="M143 -237q-42 0 -67.5 26.5t-25.5 75.5q0 55 45.5 103t110.5 56v-24q-45 -15 -72 -49t-27 -70q0 -28 15 -44.5t42 -16.5q43 0 60 42l19 -10q-11 -40 -38 -64.5t-62 -24.5z" />
    <glyph glyph-name="tilde" unicode="&#x2dc;" horiz-adv-x="600" 
d="M229 593q-27 0 -57.5 19t-52.5 19q-36 0 -55 -37h-14q3 51 30 73.5t62 22.5q27 0 57.5 -19t52.5 -19q36 0 55 37h14q-3 -51 -30 -73.5t-62 -22.5z" />
    <glyph glyph-name="hungarumlaut" unicode="&#x2dd;" horiz-adv-x="600" 
d="M76 580h-26l76 160h77v-21zM212 580h-26l76 160h77v-21z" />
    <glyph glyph-name="gravecomb" unicode="&#x300;" horiz-adv-x="0" 
d="M-50 580h-26l-140 139v21h87z" />
    <glyph glyph-name="acutecomb" unicode="&#x301;" horiz-adv-x="0" 
d="M-50 719l-140 -139h-26l79 160h87v-21z" />
    <glyph glyph-name="uni0302" unicode="&#x302;" horiz-adv-x="0" 
d="M-260 580h-26l105 160h26l105 -160h-26l-92 90z" />
    <glyph glyph-name="tildecomb" unicode="&#x303;" horiz-adv-x="0" 
d="M-142 593q-27 0 -57.5 19t-52.5 19q-36 0 -55 -37h-14q3 51 30 73.5t62 22.5q27 0 57.5 -19t52.5 -19q36 0 55 37h14q-3 -51 -30 -73.5t-62 -22.5z" />
    <glyph glyph-name="uni0304" unicode="&#x304;" horiz-adv-x="0" 
d="M-50 618h-251v38h251v-38z" />
    <glyph glyph-name="uni0306" unicode="&#x306;" horiz-adv-x="0" 
d="M-72 730h22q0 -79 -30.5 -118.5t-79.5 -39.5t-79.5 39.5t-30.5 118.5h22q2 -51 26.5 -76.5t61.5 -25.5t61.5 25.5t26.5 76.5z" />
    <glyph glyph-name="uni0307" unicode="&#x307;" horiz-adv-x="0" 
d="M-116 565q-28 0 -47 19t-19 47t19 47t47 19t47 -19t19 -47t-19 -47t-47 -19z" />
    <glyph glyph-name="uni0308" unicode="&#x308;" horiz-adv-x="0" 
d="M-296 582q-23 0 -39.5 16t-16.5 40t16.5 40t39.5 16t39.5 -16t16.5 -40t-16.5 -40t-39.5 -16zM-106 582q-23 0 -39.5 16t-16.5 40t16.5 40t39.5 16t39.5 -16t16.5 -40t-16.5 -40t-39.5 -16z" />
    <glyph glyph-name="uni030A" unicode="&#x30a;" horiz-adv-x="0" 
d="M-148 554q-41 0 -69.5 27.5t-28.5 70.5t28.5 70.5t69.5 27.5t69.5 -27.5t28.5 -70.5t-28.5 -70.5t-69.5 -27.5zM-148 591q25 0 41.5 16.5t16.5 44.5t-16.5 44.5t-41.5 16.5t-41.5 -16.5t-16.5 -44.5t16.5 -44.5t41.5 -16.5z" />
    <glyph glyph-name="uni030B" unicode="&#x30b;" horiz-adv-x="0" 
d="M-313 580h-26l76 160h77v-21zM-177 580h-26l76 160h77v-21z" />
    <glyph glyph-name="uni030C" unicode="&#x30c;" horiz-adv-x="0" 
d="M-155 580h-26l-105 160h26l92 -90l92 90h26z" />
    <glyph glyph-name="uni0312" unicode="&#x312;" horiz-adv-x="0" 
d="M-67 732l3 -23q-51 -6 -51 -30q0 -18 35 -32q30 -13 30 -47q0 -21 -15.5 -34.5t-39.5 -13.5q-27 0 -44.5 21t-17.5 54q0 44 27.5 73t72.5 32z" />
    <glyph glyph-name="dotbelowcomb" unicode="&#x323;" horiz-adv-x="0" 
d="M-111 -172q-25 0 -43 18t-18 43t18 43t43 18t43 -18t18 -43t-18 -43t-43 -18z" />
    <glyph glyph-name="uni0326" unicode="&#x326;" horiz-adv-x="0" 
d="M-150 -230l-2 17q58 9 58 41q0 11 -6.5 16.5t-23.5 12.5q-33 13 -33 47q0 20 13.5 33t35.5 13q26 0 42 -20t16 -51q0 -43 -28 -73t-72 -36z" />
    <glyph glyph-name="uni0327" unicode="&#x327;" horiz-adv-x="0" 
d="M-50 -148q0 -38 -25.5 -63.5t-65.5 -25.5q-33 0 -56 17.5t-30 46.5l14 4q16 -36 54 -36q25 0 41.5 16t16.5 43q0 23 -12 38t-33 15q-23 0 -41 -18l-12 8l61 107h25l-49 -80q12 9 34 9q34 0 56 -22.5t22 -58.5z" />
    <glyph glyph-name="uni0328" unicode="&#x328;" horiz-adv-x="0" 
d="M-150 -237q-42 0 -67.5 26.5t-25.5 75.5q0 55 45.5 103t110.5 56v-24q-45 -15 -72 -49t-27 -70q0 -28 15 -44.5t42 -16.5q43 0 60 42l19 -10q-11 -40 -38 -64.5t-62 -24.5z" />
    <glyph glyph-name="uni0394" unicode="&#x394;" horiz-adv-x="735" 
d="M723 0h-711l-2 3l342 702h5l368 -702zM328 620l-294 -605h610z" />
    <glyph glyph-name="uni03A9" unicode="&#x3a9;" horiz-adv-x="712" 
d="M324 0h-235v166h25q0 -49 23.5 -68t85.5 -19h64v65q-112 30 -174.5 99t-62.5 177q0 131 89 214t217 83t217 -83t89 -214q0 -108 -62.5 -177t-174.5 -99v-65h64q62 0 85.5 19t23.5 68h25v-166h-235v173q79 21 124 91t45 156q0 42 -6.5 78.5t-21.5 70.5t-37.5 58t-57 38
t-78.5 14t-78.5 -14t-57 -38t-37.5 -58t-21.5 -70.5t-6.5 -78.5q0 -86 45 -156t124 -91v-173z" />
    <glyph glyph-name="uni03BC" unicode="&#x3bc;" horiz-adv-x="584" 
d="M234 -150h-139v544q0 24 -11.5 34.5t-38.5 10.5h-30v26l145 25h20v-319q0 -115 105 -115q36 0 68 20.5t45 53.5v264q0 24 -11.5 34.5t-38.5 10.5h-30v26l145 25h20v-414q0 -23 13 -34t48 -15l15 -2v-25h-154v36q0 47 11 80l-6 1q-17 -60 -63 -94.5t-100 -34.5
q-79 0 -120 53v-37q0 -68 21 -98.5t81 -30.5h5v-25z" />
    <glyph glyph-name="pi" unicode="&#x3c0;" horiz-adv-x="619" 
d="M498 -12q-35 0 -60.5 20.5t-25.5 69.5v377h-176v-455h-85v455h-45q-30 0 -40.5 -17.5t-10.5 -58.5h-25v111h569v-35h-102v-370q0 -21 11 -30t24 -9q26 0 41 25l13 -8q-9 -36 -33.5 -55.5t-54.5 -19.5z" />
    <glyph glyph-name="uni0E3F" unicode="&#xe3f;" horiz-adv-x="617" 
d="M354 349h27q90 0 140.5 -47.5t50.5 -116.5q0 -78 -55 -131.5t-167 -53.5h-5v-100h-34v100h-265l-1 24l14 1q43 3 58.5 26.5t15.5 77.5v412q0 54 -15.5 77.5t-58.5 26.5l-14 1l1 24h265v80h34v-80q94 0 145.5 -44.5t51.5 -119.5q0 -61 -44 -104.5t-118 -46.5l-28 -1z
M311 636h-92v-268h92v268zM452 502q0 68 -27.5 98t-79.5 35v-266q51 6 79 40.5t28 92.5zM279 34h32v300h-92v-237q0 -32 13 -47.5t47 -15.5zM345 34h2q67 0 100.5 39.5t33.5 110.5q0 67 -36 107t-100 43v-300z" />
    <glyph glyph-name="Wgrave" unicode="&#x1e80;" horiz-adv-x="1053" 
d="M548 750h-46l-129 115v25h87zM366 -5h-44l-211 593q-17 48 -40.5 67t-60.5 21v24h280v-25q-49 -4 -65 -12.5t-16 -35.5q0 -20 10 -49l126 -386q13 -41 17 -87h5q2 42 18 90l116 353l-21 60q-14 43 -29.5 53.5t-58.5 14.5v24h271v-25q-50 -4 -67.5 -12.5t-17.5 -32.5
q0 -18 8 -42l129 -386q18 -54 20 -94h5q3 42 20 94l125 376q8 24 8 44q0 30 -18.5 39.5t-72.5 13.5v25h241v-24q-39 -5 -64 -23t-40 -61l-200 -597h-45l-146 434q-13 37 -13 86h-6q-4 -46 -18 -88z" />
    <glyph glyph-name="wgrave" unicode="&#x1e81;" horiz-adv-x="828" 
d="M430 580h-26l-140 139v21h87zM422 339h-5q-4 -25 -19 -62l-118 -282h-26l-183 422q-14 30 -26 39t-40 9v25h222v-25q-32 0 -46 -8.5t-14 -27.5q0 -11 10 -37l87 -208q16 -37 16 -84h5q3 27 16 62l92 212l-19 43q-14 31 -25.5 39.5t-39.5 8.5v25h237v-25q-44 0 -59.5 -7.5
t-15.5 -28.5q0 -12 8 -36l87 -213q16 -39 16 -84h5q3 28 16 62l97 232q9 22 9 37q0 23 -16.5 30.5t-64.5 7.5v25h195v-25q-26 0 -41 -10.5t-25 -36.5l-174 -423h-26l-122 282q-13 29 -13 62z" />
    <glyph glyph-name="Wacute" unicode="&#x1e82;" horiz-adv-x="1053" 
d="M677 865l-129 -114h-46l88 139h87v-25zM366 -5h-44l-211 593q-17 48 -40.5 67t-60.5 21v24h280v-25q-49 -4 -65 -12.5t-16 -35.5q0 -20 10 -49l126 -386q13 -41 17 -87h5q2 42 18 90l116 353l-21 60q-14 43 -29.5 53.5t-58.5 14.5v24h271v-25q-50 -4 -67.5 -12.5
t-17.5 -32.5q0 -18 8 -42l129 -386q18 -54 20 -94h5q3 42 20 94l125 376q8 24 8 44q0 30 -18.5 39.5t-72.5 13.5v25h241v-24q-39 -5 -64 -23t-40 -61l-200 -597h-45l-146 434q-13 37 -13 86h-6q-4 -46 -18 -88z" />
    <glyph glyph-name="wacute" unicode="&#x1e83;" horiz-adv-x="828" 
d="M570 719l-140 -139h-26l79 160h87v-21zM422 339h-5q-4 -25 -19 -62l-118 -282h-26l-183 422q-14 30 -26 39t-40 9v25h222v-25q-32 0 -46 -8.5t-14 -27.5q0 -11 10 -37l87 -208q16 -37 16 -84h5q3 27 16 62l92 212l-19 43q-14 31 -25.5 39.5t-39.5 8.5v25h237v-25
q-44 0 -59.5 -7.5t-15.5 -28.5q0 -12 8 -36l87 -213q16 -39 16 -84h5q3 28 16 62l97 232q9 22 9 37q0 23 -16.5 30.5t-64.5 7.5v25h195v-25q-26 0 -41 -10.5t-25 -36.5l-174 -423h-26l-122 282q-13 29 -13 62z" />
    <glyph glyph-name="Wdieresis" unicode="&#x1e84;" horiz-adv-x="1053" 
d="M420 768q-23 0 -39.5 16t-16.5 40t16.5 40t39.5 16t39.5 -16t16.5 -40t-16.5 -40t-39.5 -16zM630 768q-23 0 -39.5 16t-16.5 40t16.5 40t39.5 16t39.5 -16t16.5 -40t-16.5 -40t-39.5 -16zM366 -5h-44l-211 593q-17 48 -40.5 67t-60.5 21v24h280v-25q-49 -4 -65 -12.5
t-16 -35.5q0 -20 10 -49l126 -386q13 -41 17 -87h5q2 42 18 90l116 353l-21 60q-14 43 -29.5 53.5t-58.5 14.5v24h271v-25q-50 -4 -67.5 -12.5t-17.5 -32.5q0 -18 8 -42l129 -386q18 -54 20 -94h5q3 42 20 94l125 376q8 24 8 44q0 30 -18.5 39.5t-72.5 13.5v25h241v-24
q-39 -5 -64 -23t-40 -61l-200 -597h-45l-146 434q-13 37 -13 86h-6q-4 -46 -18 -88z" />
    <glyph glyph-name="wdieresis" unicode="&#x1e85;" horiz-adv-x="828" 
d="M322 582q-23 0 -39.5 16t-16.5 40t16.5 40t39.5 16t39.5 -16t16.5 -40t-16.5 -40t-39.5 -16zM512 582q-23 0 -39.5 16t-16.5 40t16.5 40t39.5 16t39.5 -16t16.5 -40t-16.5 -40t-39.5 -16zM422 339h-5q-4 -25 -19 -62l-118 -282h-26l-183 422q-14 30 -26 39t-40 9v25h222
v-25q-32 0 -46 -8.5t-14 -27.5q0 -11 10 -37l87 -208q16 -37 16 -84h5q3 27 16 62l92 212l-19 43q-14 31 -25.5 39.5t-39.5 8.5v25h237v-25q-44 0 -59.5 -7.5t-15.5 -28.5q0 -12 8 -36l87 -213q16 -39 16 -84h5q3 28 16 62l97 232q9 22 9 37q0 23 -16.5 30.5t-64.5 7.5v25
h195v-25q-26 0 -41 -10.5t-25 -36.5l-174 -423h-26l-122 282q-13 29 -13 62z" />
    <glyph glyph-name="uni1E9E" unicode="&#x1e9e;" horiz-adv-x="711" 
d="M428 380v-5q115 0 176.5 -49.5t61.5 -141.5t-59 -146.5t-158 -54.5q-83 0 -155 40v170h25q9 -77 49 -127.5t92 -50.5q48 0 77 45t29 120q0 85 -46 124.5t-146 39.5v33l163 157q-37 134 -165 134q-170 0 -170 -225v-443h-192v25q58 4 77.5 25t19.5 81v297q0 141 68.5 215
t199.5 74q94 0 160.5 -38.5t96.5 -109.5z" />
    <glyph glyph-name="uni1EA0" unicode="&#x1ea0;" horiz-adv-x="728" 
d="M404 721l222 -599q19 -52 41.5 -72.5t50.5 -24.5v-25h-269v26q62 2 78 20t-3 73l-51 140h-261l-48 -133q-19 -59 -4.5 -78.5t72.5 -21.5v-26h-222v25q42 4 62 26t42 81l205 554zM282 452l-57 -157h235l-57 158q-56 154 -57 188h-5q-1 -31 -59 -189zM352 -50q25 0 43 -18
t18 -43t-18 -43t-43 -18t-43 18t-18 43t18 43t43 18z" />
    <glyph glyph-name="uni1EA1" unicode="&#x1ea1;" horiz-adv-x="518" 
d="M486 77l17 -10q-23 -77 -95 -77q-39 0 -62 24t-22 69h-6q-9 -38 -45 -66.5t-90 -28.5q-65 0 -101.5 32.5t-36.5 93.5q0 59 41.5 95.5t130.5 54.5l105 21v32q0 117 -111 117q-97 0 -128 -82l-27 8q14 61 59 101.5t127 40.5q75 0 120 -44t45 -133v-219q0 -53 40 -53
q25 0 39 24zM220 41q75 0 102 90v120l-55 -10q-127 -24 -127 -113q0 -40 20.5 -63.5t59.5 -23.5zM259 -50q25 0 43 -18t18 -43t-18 -43t-43 -18t-43 18t-18 43t18 43t43 18z" />
    <glyph glyph-name="uni1EB8" unicode="&#x1eb8;" horiz-adv-x="677" 
d="M597 220h30l-22 -220h-560v25q57 2 77 24.5t20 84.5v432q0 63 -20 85t-77 24v25h545l21 -200h-31q-23 92 -73 129t-153 37h-117v-279h75q68 0 93.5 25t33.5 95h26v-279h-26q-9 72 -34.5 97.5t-92.5 25.5h-75v-251q0 -34 14.5 -50t52.5 -16h64q105 0 153.5 40.5
t75.5 145.5zM340 -172q-25 0 -43 18t-18 43t18 43t43 18t43 -18t18 -43t-18 -43t-43 -18z" />
    <glyph glyph-name="uni1EB9" unicode="&#x1eb9;" horiz-adv-x="489" 
d="M295 78q94 0 130 65l24 -12q-16 -61 -66 -102t-123 -41q-104 0 -162 68.5t-58 180.5q0 116 58.5 190.5t161.5 74.5q92 0 140.5 -58t48.5 -154h-334q4 -99 50.5 -155.5t129.5 -56.5zM241 462q-56 0 -88.5 -37t-36.5 -101h226q0 63 -24.5 100.5t-76.5 37.5zM261 -50
q25 0 43 -18t18 -43t-18 -43t-43 -18t-43 18t-18 43t18 43t43 18z" />
    <glyph glyph-name="uni1EBC" unicode="&#x1ebc;" horiz-adv-x="677" 
d="M436 763q-30 0 -63 20t-57 20q-42 0 -65 -39h-24q3 56 33 81t69 25q29 0 63 -20t57 -20q42 0 65 39h24q-3 -56 -33 -81t-69 -25zM597 220h30l-22 -220h-560v25q57 2 77 24.5t20 84.5v432q0 63 -20 85t-77 24v25h545l21 -200h-31q-23 92 -73 129t-153 37h-117v-279h75
q68 0 93.5 25t33.5 95h26v-279h-26q-9 72 -34.5 97.5t-92.5 25.5h-75v-251q0 -34 14.5 -50t52.5 -16h64q105 0 153.5 40.5t75.5 145.5z" />
    <glyph glyph-name="uni1EBD" unicode="&#x1ebd;" horiz-adv-x="489" 
d="M193 631q-36 0 -55 -37h-14q3 51 30 73.5t62 22.5q27 0 57.5 -19t52.5 -19q36 0 55 37h14q-3 -51 -30 -73.5t-62 -22.5q-27 0 -57.5 19t-52.5 19zM295 78q94 0 130 65l24 -12q-16 -61 -66 -102t-123 -41q-104 0 -162 68.5t-58 180.5q0 116 58.5 190.5t161.5 74.5
q92 0 140.5 -58t48.5 -154h-334q4 -99 50.5 -155.5t129.5 -56.5zM241 462q-56 0 -88.5 -37t-36.5 -101h226q0 63 -24.5 100.5t-76.5 37.5z" />
    <glyph glyph-name="uni1ECA" unicode="&#x1eca;" horiz-adv-x="379" 
d="M237 566v-432q0 -63 20 -84t77 -25v-25h-289v25q58 4 77.5 26t19.5 83v432q0 63 -20 84t-77 25v25h289v-25q-61 -5 -79 -25t-18 -84zM190 -172q-25 0 -43 18t-18 43t18 43t43 18t43 -18t18 -43t-18 -43t-43 -18z" />
    <glyph glyph-name="uni1ECB" unicode="&#x1ecb;" horiz-adv-x="309" 
d="M152 565q-28 0 -47 19t-19 47t19 47t47 19t47 -19t19 -47t-19 -47t-47 -19zM284 25v-25h-251v25q51 4 67 17t16 54v286q0 26 -10.5 36.5t-36.5 10.5q-15 0 -39 -3v25l146 39h25v-394q0 -41 16 -53.5t67 -17.5zM159 -172q-25 0 -43 18t-18 43t18 43t43 18t43 -18t18 -43
t-18 -43t-43 -18z" />
    <glyph glyph-name="uni1ECC" unicode="&#x1ecc;" horiz-adv-x="838" 
d="M419 -17q-161 0 -265 103.5t-104 263.5t104 263.5t265 103.5t265 -103.5t104 -263.5t-104 -263.5t-265 -103.5zM419 32q116 0 185 86t69 232t-69 232t-185 86t-185 -86t-69 -232t69 -232t185 -86zM419 -172q-25 0 -43 18t-18 43t18 43t43 18t43 -18t18 -43t-18 -43
t-43 -18z" />
    <glyph glyph-name="uni1ECD" unicode="&#x1ecd;" horiz-adv-x="570" 
d="M285 -12q-108 0 -176.5 73.5t-68.5 183.5t68.5 183.5t176.5 73.5t176.5 -73.5t68.5 -183.5t-68.5 -183.5t-176.5 -73.5zM285 32q143 0 143 213t-143 213t-143 -213t143 -213zM285 -172q-25 0 -43 18t-18 43t18 43t43 18t43 -18t18 -43t-18 -43t-43 -18z" />
    <glyph glyph-name="uni1EE4" unicode="&#x1ee4;" horiz-adv-x="758" 
d="M385 -17q-133 0 -205.5 73.5t-72.5 209.5v300q0 63 -20 84t-77 25v25h299v-25q-61 -5 -79 -24.5t-18 -84.5v-305q0 -105 49.5 -159.5t146.5 -54.5q190 0 190 223v296q0 63 -20 84t-77 25v25h247v-25q-61 -5 -79 -24.5t-18 -84.5v-304q0 -130 -71.5 -204.5t-194.5 -74.5z
M379 -172q-25 0 -43 18t-18 43t18 43t43 18t43 -18t18 -43t-18 -43t-43 -18z" />
    <glyph glyph-name="uni1EE5" unicode="&#x1ee5;" horiz-adv-x="584" 
d="M559 25v-25h-154v36q0 47 11 80l-6 1q-17 -60 -63 -94.5t-100 -34.5q-68 0 -110 41.5t-42 118.5v246q0 30 -15.5 37.5t-64.5 7.5v26l145 25h20v-319q0 -115 105 -115q36 0 68 20.5t45 53.5v264q0 30 -15.5 37.5t-64.5 7.5v26l145 25h20v-414q0 -26 16 -35.5t60 -15.5z
M292 -172q-25 0 -43 18t-18 43t18 43t43 18t43 -18t18 -43t-18 -43t-43 -18z" />
    <glyph glyph-name="Ygrave" unicode="&#x1ef2;" horiz-adv-x="665" 
d="M391 750h-46l-129 115v25h87zM450 675v25h210v-24q-25 -3 -43 -19.5t-42 -51.5l-189 -314v-157q0 -66 24 -85.5t103 -23.5v-25h-349v25q79 4 103 24t24 85v156l-178 288q-34 55 -55.5 73.5t-52.5 24.5v24h280v-25q-54 -2 -71 -9.5t-17 -29.5q0 -18 18 -47l120 -193
q29 -44 34 -69h5q3 21 29 66l117 196q16 27 16 47q0 35 -86 39z" />
    <glyph glyph-name="ygrave" unicode="&#x1ef3;" horiz-adv-x="536" 
d="M304 580h-26l-140 139v21h87zM77 -237q-40 0 -72 13v101h22q33 -21 82 -21q41 0 76 20.5t55 58.5l14 27l-189 446q-15 38 -26 47.5t-34 9.5v25h241v-25q-81 0 -81 -47q0 -12 9 -34l96 -235q18 -43 18 -86l5 -1q4 27 18 65l96 246q9 25 9 39q0 24 -21 38.5t-59 14.5v25
h195v-25q-36 0 -60 -57l-206 -496q-36 -86 -82.5 -117.5t-105.5 -31.5z" />
    <glyph glyph-name="uni1EF8" unicode="&#x1ef8;" horiz-adv-x="665" 
d="M427 763q-29 0 -63 20t-57 20q-42 0 -65 -39h-24q3 56 33 81t69 25q30 0 63 -20t57 -20q42 0 65 39h24q-3 -56 -33 -81t-69 -25zM450 675v25h210v-24q-25 -3 -43 -19.5t-42 -51.5l-189 -314v-157q0 -66 24 -85.5t103 -23.5v-25h-349v25q79 4 103 24t24 85v156l-178 288
q-34 55 -55.5 73.5t-52.5 24.5v24h280v-25q-54 -2 -71 -9.5t-17 -29.5q0 -18 18 -47l120 -193q29 -44 34 -69h5q3 21 29 66l117 196q16 27 16 47q0 35 -86 39z" />
    <glyph glyph-name="uni1EF9" unicode="&#x1ef9;" horiz-adv-x="536" 
d="M334 593q-27 0 -57.5 19t-52.5 19q-36 0 -55 -37h-14q3 51 30 73.5t62 22.5q27 0 57.5 -19t52.5 -19q36 0 55 37h14q-3 -51 -30 -73.5t-62 -22.5zM77 -237q-40 0 -72 13v101h22q33 -21 82 -21q41 0 76 20.5t55 58.5l14 27l-189 446q-15 38 -26 47.5t-34 9.5v25h241v-25
q-81 0 -81 -47q0 -12 9 -34l96 -235q18 -43 18 -86l5 -1q4 27 18 65l96 246q9 25 9 39q0 24 -21 38.5t-59 14.5v25h195v-25q-36 0 -60 -57l-206 -496q-36 -86 -82.5 -117.5t-105.5 -31.5z" />
    <glyph glyph-name="uni2002" unicode="&#x2002;" horiz-adv-x="500" 
 />
    <glyph glyph-name="uni2003" unicode="&#x2003;" horiz-adv-x="1000" 
 />
    <glyph glyph-name="uni2004" unicode="&#x2004;" horiz-adv-x="333" 
 />
    <glyph glyph-name="uni2005" unicode="&#x2005;" horiz-adv-x="250" 
 />
    <glyph glyph-name="uni2007" unicode="&#x2007;" 
 />
    <glyph glyph-name="uni2008" unicode="&#x2008;" horiz-adv-x="264" 
 />
    <glyph glyph-name="uni2009" unicode="&#x2009;" horiz-adv-x="125" 
 />
    <glyph glyph-name="uni200A" unicode="&#x200a;" horiz-adv-x="42" 
 />
    <glyph glyph-name="uni200B" unicode="&#x200b;" horiz-adv-x="0" 
 />
    <glyph glyph-name="endash" unicode="&#x2013;" horiz-adv-x="542" 
d="M40 328h462v-43h-462v43z" />
    <glyph glyph-name="emdash" unicode="&#x2014;" horiz-adv-x="837" 
d="M40 328h757v-43h-757v43z" />
    <glyph glyph-name="quoteleft" unicode="&#x2018;" horiz-adv-x="272" 
d="M192 737l3 -23q-42 -7 -59.5 -25.5t-17.5 -39.5q0 -28 44 -36q20 -3 35 -18.5t15 -42.5q0 -24 -17 -40.5t-44 -16.5q-35 0 -58 28.5t-23 76.5q0 61 34.5 95.5t87.5 41.5z" />
    <glyph glyph-name="quoteright" unicode="&#x2019;" horiz-adv-x="279" 
d="M81 459l-3 24q81 15 81 68q0 13 -7.5 21.5t-16 11.5t-23.5 5q-21 3 -36.5 19.5t-15.5 44.5q0 26 18 43t46 17q36 0 60.5 -30t24.5 -80q0 -65 -36.5 -101t-91.5 -43z" />
    <glyph glyph-name="quotesinglbase" unicode="&#x201a;" horiz-adv-x="279" 
d="M81 -121l-3 24q81 15 81 68q0 13 -7.5 21.5t-16 11.5t-23.5 5q-21 3 -36.5 19.5t-15.5 44.5q0 26 18 43t46 17q36 0 60.5 -30t24.5 -80q0 -65 -36.5 -101t-91.5 -43z" />
    <glyph glyph-name="quotedblleft" unicode="&#x201c;" horiz-adv-x="452" 
d="M192 737l3 -23q-42 -7 -59.5 -25.5t-17.5 -39.5q0 -28 44 -36q20 -3 35 -18.5t15 -42.5q0 -24 -17 -40.5t-44 -16.5q-35 0 -58 28.5t-23 76.5q0 61 34.5 95.5t87.5 41.5zM372 737l3 -23q-42 -7 -59.5 -25.5t-17.5 -39.5q0 -28 44 -36q20 -3 35 -18.5t15 -42.5
q0 -24 -17 -40.5t-44 -16.5q-35 0 -58 28.5t-23 76.5q0 61 34.5 95.5t87.5 41.5z" />
    <glyph glyph-name="quotedblright" unicode="&#x201d;" horiz-adv-x="464" 
d="M81 459l-3 24q81 15 81 68q0 13 -7.5 21.5t-16 11.5t-23.5 5q-21 3 -36.5 19.5t-15.5 44.5q0 26 18 43t46 17q36 0 60.5 -30t24.5 -80q0 -65 -36.5 -101t-91.5 -43zM266 459l-3 24q81 15 81 68q0 13 -7.5 21.5t-16 11.5t-23.5 5q-21 3 -36.5 19.5t-15.5 44.5q0 26 18 43
t46 17q36 0 60.5 -30t24.5 -80q0 -65 -36.5 -101t-91.5 -43z" />
    <glyph glyph-name="quotedblbase" unicode="&#x201e;" horiz-adv-x="464" 
d="M91 -121l-3 24q81 15 81 68q0 13 -7.5 21.5t-16 11.5t-23.5 5q-21 3 -36.5 19.5t-15.5 44.5q0 26 18 43t46 17q36 0 60.5 -30t24.5 -80q0 -65 -36.5 -101t-91.5 -43zM276 -121l-3 24q81 15 81 68q0 13 -7.5 21.5t-16 11.5t-23.5 5q-21 3 -36.5 19.5t-15.5 44.5
q0 26 18 43t46 17q36 0 60.5 -30t24.5 -80q0 -65 -36.5 -101t-91.5 -43z" />
    <glyph glyph-name="dagger" unicode="&#x2020;" horiz-adv-x="497" 
d="M336 264v-30q-40 -33 -54 -94t-18 -225h-31q-4 164 -18 225t-54 94v30q34 7 49 30t15 68v27q0 38 -11.5 49.5t-50.5 11.5h-33q-38 0 -52 -17t-15 -64h-23v205h23q1 -47 15 -64t52 -17h33q41 0 51.5 9.5t10.5 46.5v16q0 46 -16 63t-63 19v23h205v-23q-47 -2 -63 -19
t-16 -63v-16q0 -37 10.5 -46.5t51.5 -9.5h33q38 0 52 17t15 64h23v-205h-23q-1 47 -15 64t-52 17h-33q-39 0 -50.5 -11.5t-11.5 -49.5v-27q0 -45 15 -68t49 -30z" />
    <glyph glyph-name="daggerdbl" unicode="&#x2021;" horiz-adv-x="497" 
d="M123 293v24q58 0 80 15.5t22 56.5q0 38 -11.5 49.5t-50.5 11.5h-33q-38 0 -52 -17t-15 -64h-23v205h23q1 -47 15 -64t52 -17h33q41 0 51.5 9.5t10.5 46.5v16q0 46 -16 63t-63 19v23h205v-23q-47 -2 -63 -19t-16 -63v-16q0 -37 10.5 -46.5t51.5 -9.5h33q38 0 52 17t15 64
h23v-205h-23q-1 47 -15 64t-52 17h-33q-39 0 -50.5 -11.5t-11.5 -49.5q0 -41 22 -56.5t80 -15.5v-24q-58 0 -80 -15.5t-22 -56.5q0 -38 11.5 -49.5t50.5 -11.5h33q38 0 52 17t15 64h23v-205h-23q-1 47 -15 64t-52 17h-33q-41 0 -51.5 -9.5t-10.5 -46.5v-16q0 -46 16 -63
t63 -19v-23h-205v23q47 2 63 19t16 63v16q0 37 -10.5 46.5t-51.5 9.5h-33q-38 0 -52 -17t-15 -64h-23v205h23q1 -47 15 -64t52 -17h33q39 0 50.5 11.5t11.5 49.5q0 41 -22 56.5t-80 15.5z" />
    <glyph glyph-name="bullet" unicode="&#x2022;" horiz-adv-x="600" 
d="M300 273q-34 0 -57.5 23.5t-23.5 57.5t23.5 57.5t57.5 23.5t57.5 -23.5t23.5 -57.5t-23.5 -57.5t-57.5 -23.5z" />
    <glyph glyph-name="ellipsis" unicode="&#x2026;" horiz-adv-x="689" 
d="M557 -4q-30 0 -51 21t-21 51t21 51t51 21t51 -21t21 -51t-21 -51t-51 -21zM132 -6q-30 0 -51 21t-21 51t21 51t51 21t51 -21t21 -51t-21 -51t-51 -21zM346 -6q-30 0 -51 21t-21 51t21 51t51 21t51 -21t21 -51t-21 -51t-51 -21z" />
    <glyph glyph-name="perthousand" unicode="&#x2030;" horiz-adv-x="1125" 
d="M197 -40h-55l429 722h53zM200 316q-72 0 -116 47.5t-44 125.5t44 125.5t116 47.5t116 -47.5t44 -125.5t-44 -125.5t-116 -47.5zM200 352q37 0 56.5 39t19.5 98t-19.5 98t-56.5 39t-56.5 -39t-19.5 -98t19.5 -98t56.5 -39zM571 -20q-72 0 -116 47.5t-44 125.5t44 125.5
t116 47.5t116 -47.5t44 -125.5t-44 -125.5t-116 -47.5zM925 -20q-72 0 -116 47.5t-44 125.5t44 125.5t116 47.5t116 -47.5t44 -125.5t-44 -125.5t-116 -47.5zM571 16q37 0 56.5 39t19.5 98t-19.5 98t-56.5 39t-56.5 -39t-19.5 -98t19.5 -98t56.5 -39zM925 16q37 0 56.5 39
t19.5 98t-19.5 98t-56.5 39t-56.5 -39t-19.5 -98t19.5 -98t56.5 -39z" />
    <glyph glyph-name="guilsinglleft" unicode="&#x2039;" horiz-adv-x="367" 
d="M70 284l217 197v-30l-125 -183l125 -183v-30l-217 197v32z" />
    <glyph glyph-name="guilsinglright" unicode="&#x203a;" horiz-adv-x="367" 
d="M80 451v30l217 -197v-32l-217 -197v30l125 183z" />
    <glyph glyph-name="fraction" unicode="&#x2044;" horiz-adv-x="92" 
d="M-140 -40h-55l429 722h53z" />
    <glyph glyph-name="uni2070" unicode="&#x2070;" horiz-adv-x="516" 
d="M258 319q-90 0 -141.5 64t-51.5 179t51.5 179t141.5 64t141.5 -64t51.5 -179t-51.5 -179t-141.5 -64zM258 351q37 0 61 17t34.5 51t13.5 65t3 78q0 37 -1.5 62.5t-8 56t-18 49.5t-33 31.5t-51.5 12.5q-25 0 -44 -8t-31 -24.5t-19.5 -34t-11 -44.5t-4.5 -48.5t-1 -52.5
q0 -37 1.5 -62.5t8 -56t17.5 -49t32.5 -31t51.5 -12.5z" />
    <glyph glyph-name="uni2074" unicode="&#x2074;" horiz-adv-x="448" 
d="M407 514v-43h-73v-73q0 -23 9 -34t32 -13l18 -2v-21h-228v21l17 1q46 3 60.5 19.5t14.5 57.5v44h-220v20l237 309h58v-286h75zM93 517v-3h166v218h-4z" />
    <glyph glyph-name="uni2075" unicode="&#x2075;" horiz-adv-x="434" 
d="M181 320q-102 0 -140 69l21 14q27 -50 93 -50q45 0 78 30.5t33 89.5q0 44 -24.5 75.5t-79.5 31.5q-35 0 -64 -17l-20 12l53 222h182q22 0 33 4t21 17h22l-31 -91h-221l-35 -139l4 -2q38 21 90 21q71 0 113 -36.5t42 -97.5q0 -68 -51.5 -110.5t-118.5 -42.5z" />
    <glyph glyph-name="uni2076" unicode="&#x2076;" horiz-adv-x="482" 
d="M277 619q64 0 103.5 -38.5t39.5 -100.5q0 -70 -48.5 -115t-124.5 -45q-85 0 -133 55t-48 152q0 122 74 200t189 78q65 0 92 -16l-12 -23q-30 11 -67 11q-91 0 -140.5 -58t-54.5 -169h5q37 69 125 69zM251 348q42 0 65.5 31.5t23.5 87.5q0 54 -25 83.5t-71 29.5
q-70 0 -98 -70q3 -162 105 -162z" />
    <glyph glyph-name="uni2077" unicode="&#x2077;" horiz-adv-x="437" 
d="M234 328h-97q42 284 189 396v3h-183q-29 0 -45.5 -11t-27.5 -42h-22l40 123h308l7 -18q-163 -145 -169 -451z" />
    <glyph glyph-name="uni2078" unicode="&#x2078;" horiz-adv-x="459" 
d="M282 587l38 -20q84 -45 84 -117q0 -57 -48 -93.5t-125 -36.5q-80 0 -128 32.5t-48 86.5q0 86 121 126l-21 11q-82 42 -82 112q0 52 43 84.5t113 32.5q68 0 111 -30t43 -78q0 -70 -101 -110zM143 711q0 -50 61 -82l58 -31q55 32 55 97q0 40 -23 62.5t-65 22.5
q-40 0 -63 -18.5t-23 -50.5zM231 346q45 0 70 23.5t25 62.5q0 57 -71 93l-56 29q-69 -37 -69 -108q0 -100 101 -100z" />
    <glyph glyph-name="uni2079" unicode="&#x2079;" horiz-adv-x="482" 
d="M235 805q85 0 133 -55t48 -152q0 -122 -74 -200t-189 -78q-65 0 -92 16l12 23q30 -11 67 -11q91 0 140.5 58t54.5 169h-5q-37 -69 -125 -69q-64 0 -103.5 38.5t-39.5 100.5q0 70 48.5 115t124.5 45zM238 545q70 0 98 70q-3 162 -105 162q-42 0 -65.5 -31.5t-23.5 -87.5
q0 -54 25 -83.5t71 -29.5z" />
    <glyph glyph-name="uni207A" unicode="&#x207a;" horiz-adv-x="483" 
d="M257 558h130v-30h-130v-125h-31v125h-130v30h130v124h31v-124z" />
    <glyph glyph-name="uni207B" unicode="&#x207b;" horiz-adv-x="483" 
d="M387 528h-291v30h291v-30z" />
    <glyph glyph-name="uni207C" unicode="&#x207c;" horiz-adv-x="483" 
d="M387 577h-291v30h291v-30zM387 479h-291v30h291v-30z" />
    <glyph glyph-name="uni207D" unicode="&#x207d;" horiz-adv-x="331" 
d="M289 249l-11 -18q-37 15 -72.5 41t-68 63.5t-52.5 91t-20 114.5t20 114t52.5 90.5t67.5 63.5t73 42l11 -18q-72 -49 -108.5 -125t-36.5 -167t36.5 -167t108.5 -125z" />
    <glyph glyph-name="uni207E" unicode="&#x207e;" horiz-adv-x="331" 
d="M53 231l-11 18q72 49 108.5 125t36.5 167t-36.5 167t-108.5 125l11 18q38 -16 73 -42t67.5 -63.5t52.5 -90.5t20 -114t-20 -114.5t-52.5 -91t-68 -63.5t-72.5 -41z" />
    <glyph glyph-name="uni2080" unicode="&#x2080;" horiz-adv-x="516" 
d="M258 -109q-90 0 -141.5 64t-51.5 179t51.5 179t141.5 64t141.5 -64t51.5 -179t-51.5 -179t-141.5 -64zM258 -77q37 0 61 17t34.5 51t13.5 65t3 78q0 37 -1.5 62.5t-8 56t-18 49.5t-33 31.5t-51.5 12.5q-25 0 -44 -8t-31 -24.5t-19.5 -34t-11 -44.5t-4.5 -48.5t-1 -52.5
q0 -37 1.5 -62.5t8 -56t17.5 -49t32.5 -31t51.5 -12.5z" />
    <glyph glyph-name="uni2081" unicode="&#x2081;" horiz-adv-x="386" 
d="M318 -79h16l1 -21h-271l-1 21h16q45 0 63 13t19 40v294q0 56 -77 36l-18 -5l-7 20l156 58h23v-403q0 -53 80 -53z" />
    <glyph glyph-name="uni2082" unicode="&#x2082;" horiz-adv-x="445" 
d="M357 -100h-301l-5 17l98 90q72 66 102.5 117.5t30.5 102.5q0 45 -23.5 74t-69.5 29q-88 0 -107 -101l-23 4q6 69 51.5 106.5t112.5 37.5q64 0 102 -31t38 -86q0 -61 -42.5 -115.5t-125.5 -124.5l-53 -45v-5h164q28 0 43 10t27 42h21z" />
    <glyph glyph-name="uni2083" unicode="&#x2083;" horiz-adv-x="420" 
d="M51 -33l20 13q45 -51 107 -51q47 0 75.5 26t28.5 71t-32 71t-86 26h-37v33h30q50 0 79.5 26.5t29.5 71.5q0 40 -22 63t-63 23q-64 0 -100 -67l-23 11q40 93 152 93q64 0 101 -30t37 -79q0 -51 -38.5 -85.5t-97.5 -36.5l-21 -1v-6h27q67 0 107 -31t40 -84
q0 -57 -45.5 -94.5t-117.5 -37.5q-100 0 -151 75z" />
    <glyph glyph-name="uni2084" unicode="&#x2084;" horiz-adv-x="448" 
d="M407 86v-43h-73v-73q0 -23 9 -34t32 -13l18 -2v-21h-228v21l17 1q46 3 60.5 19.5t14.5 57.5v44h-220v20l237 309h58v-286h75zM93 89v-3h166v218h-4z" />
    <glyph glyph-name="uni2085" unicode="&#x2085;" horiz-adv-x="434" 
d="M181 -108q-102 0 -140 69l21 14q27 -50 93 -50q45 0 78 30.5t33 89.5q0 44 -24.5 75.5t-79.5 31.5q-35 0 -64 -17l-20 12l53 222h182q22 0 33 4t21 17h22l-31 -91h-221l-35 -139l4 -2q38 21 90 21q71 0 113 -36.5t42 -97.5q0 -68 -51.5 -110.5t-118.5 -42.5z" />
    <glyph glyph-name="uni2086" unicode="&#x2086;" horiz-adv-x="482" 
d="M277 191q64 0 103.5 -38.5t39.5 -100.5q0 -70 -48.5 -115t-124.5 -45q-85 0 -133 55t-48 152q0 122 74 200t189 78q65 0 92 -16l-12 -23q-30 11 -67 11q-91 0 -140.5 -58t-54.5 -169h5q37 69 125 69zM251 -80q42 0 65.5 31.5t23.5 87.5q0 54 -25 83.5t-71 29.5
q-70 0 -98 -70q3 -162 105 -162z" />
    <glyph glyph-name="uni2087" unicode="&#x2087;" horiz-adv-x="437" 
d="M234 -100h-97q42 284 189 396v3h-183q-29 0 -45.5 -11t-27.5 -42h-22l40 123h308l7 -18q-163 -145 -169 -451z" />
    <glyph glyph-name="uni2088" unicode="&#x2088;" horiz-adv-x="459" 
d="M282 159l38 -20q84 -45 84 -117q0 -57 -48 -93.5t-125 -36.5q-80 0 -128 32.5t-48 86.5q0 86 121 126l-21 11q-82 42 -82 112q0 52 43 84.5t113 32.5q68 0 111 -30t43 -78q0 -70 -101 -110zM143 283q0 -50 61 -82l58 -31q55 32 55 97q0 40 -23 62.5t-65 22.5
q-40 0 -63 -18.5t-23 -50.5zM231 -82q45 0 70 23.5t25 62.5q0 57 -71 93l-56 29q-69 -37 -69 -108q0 -100 101 -100z" />
    <glyph glyph-name="uni2089" unicode="&#x2089;" horiz-adv-x="482" 
d="M235 377q85 0 133 -55t48 -152q0 -122 -74 -200t-189 -78q-65 0 -92 16l12 23q30 -11 67 -11q91 0 140.5 58t54.5 169h-5q-37 -69 -125 -69q-64 0 -103.5 38.5t-39.5 100.5q0 70 48.5 115t124.5 45zM238 117q70 0 98 70q-3 162 -105 162q-42 0 -65.5 -31.5t-23.5 -87.5
q0 -54 25 -83.5t71 -29.5z" />
    <glyph glyph-name="uni208A" unicode="&#x208a;" horiz-adv-x="483" 
d="M257 130h130v-30h-130v-125h-31v125h-130v30h130v124h31v-124z" />
    <glyph glyph-name="uni208B" unicode="&#x208b;" horiz-adv-x="483" 
d="M387 100h-291v30h291v-30z" />
    <glyph glyph-name="uni208C" unicode="&#x208c;" horiz-adv-x="483" 
d="M387 149h-291v30h291v-30zM387 51h-291v30h291v-30z" />
    <glyph glyph-name="uni208D" unicode="&#x208d;" horiz-adv-x="331" 
d="M289 -179l-11 -18q-37 15 -72.5 41t-68 63.5t-52.5 91t-20 114.5t20 114t52.5 90.5t67.5 63.5t73 42l11 -18q-72 -49 -108.5 -125t-36.5 -167t36.5 -167t108.5 -125z" />
    <glyph glyph-name="uni208E" unicode="&#x208e;" horiz-adv-x="331" 
d="M53 -197l-11 18q72 49 108.5 125t36.5 167t-36.5 167t-108.5 125l11 18q38 -16 73 -42t67.5 -63.5t52.5 -90.5t20 -114t-20 -114.5t-52.5 -91t-68 -63.5t-72.5 -41z" />
    <glyph glyph-name="Euro" unicode="&#x20ac;" horiz-adv-x="574" 
d="M512 164l27 -11q-19 -79 -71.5 -122t-129.5 -43q-108 0 -176.5 81.5t-77.5 219.5h-64v30h63v8q0 34 3 64h-66v30h70q20 122 90.5 191.5t175.5 69.5q106 0 162 -43v-148h-28q-31 145 -143 145q-75 0 -126 -58t-63 -157h268v-30h-270q-1 -9 -1 -26q0 -16 2 -46h269v-30
h-265q17 -99 74.5 -156.5t141.5 -57.5q97 0 135 89z" />
    <glyph glyph-name="uni20B9" unicode="&#x20b9;" horiz-adv-x="512" 
d="M321 180l50 -83q44 -73 121 -73v-24h-165q-22 22 -60 88l-52 91q-42 74 -70.5 102t-69.5 28h-35v34h54q152 0 167 130h-221v35h223q-1 65 -41.5 96t-123.5 31h-58v35h406v-35h-168q86 -45 86 -127h82v-35h-86q-14 -60 -72.5 -100.5t-137.5 -43.5l-35 -1v-6l35 -1
q58 -2 88.5 -29t82.5 -112z" />
    <glyph glyph-name="uni20BA" unicode="&#x20ba;" horiz-adv-x="596" 
d="M344 240v25h217v-25h-5q-42 0 -42 -74q0 -166 -187 -166h-282v25l15 1q48 3 65 27.5t17 80.5v116l-89 -42v29l89 42v70l-89 -42v29l89 42v158q0 56 -17 80.5t-65 27.5l-15 1v25h284v-25l-25 -2q-40 -3 -56 -26.5t-16 -80.5v-117l164 77v-29l-164 -77v-70l164 77v-29
l-164 -77v-261h49q87 0 122 33.5t35 102.5q0 74 -89 74h-5z" />
    <glyph glyph-name="uni20BD" unicode="&#x20bd;" horiz-adv-x="608" 
d="M354 309h-119v-78h199v-30h-199v-73q0 -55 19.5 -77.5t82.5 -25.5l23 -1l-1 -24h-314v24l15 1q46 3 63 26.5t17 76.5v73h-92v30h92v310q0 53 -17 77t-63 27l-15 1v24h317q91 0 156 -44t65 -131q0 -62 -36 -106t-86 -62t-107 -18zM348 639h-113v-297h104q146 0 146 154
q0 143 -137 143z" />
    <glyph glyph-name="uni20BF" unicode="&#x20bf;" horiz-adv-x="617" 
d="M572 185q0 -75 -51.5 -128t-155.5 -57v-100h-34v100h-70v-100h-34v100h-181l-1 24l14 1q43 3 58.5 26.5t15.5 77.5v412q0 54 -15.5 77.5t-58.5 26.5l-14 1l1 24h181v80h34v-80h70v80h34v-81q85 -5 131 -49t46 -114q0 -61 -44 -104.5t-118 -46.5l-28 -1l2 -5h27
q90 0 140.5 -47.5t50.5 -116.5zM316 636h-97v-268h106q60 0 93.5 35t33.5 99q0 77 -34.5 105.5t-101.5 28.5zM279 34h68q67 0 100.5 39.5t33.5 110.5q0 69 -38.5 109.5t-106.5 40.5h-117v-237q0 -32 13 -47.5t47 -15.5z" />
    <glyph glyph-name="uni2113" unicode="&#x2113;" horiz-adv-x="600" 
d="M421 161l26 -11q-30 -86 -72 -125t-104 -39q-126 0 -140 218q-5 -3 -55 -32l-16 32q33 14 69 35v24q0 188 59 315.5t145 127.5q50 0 79 -34t29 -93q0 -92 -58.5 -170.5t-184.5 -161.5q10 -192 109 -192q36 0 63 25t51 81zM197 294v-8q81 63 128 142t47 157q0 64 -50 64
q-55 0 -90 -101.5t-35 -253.5z" />
    <glyph glyph-name="uni2116" unicode="&#x2116;" horiz-adv-x="1149" 
d="M685 -5h-40l-415 541q-35 47 -46 81l-4 -1q7 -40 7 -103v-396q1 -53 20 -68.5t85 -23.5v-25h-247v25q58 4 77.5 26t19.5 83v510q-19 17 -36 22t-61 9v24h192l333 -438q45 -60 69 -112l5 2q-4 48 -4 114v306q0 61 -19 78.5t-86 25.5v25h247v-25q-61 -5 -79 -25t-18 -84
v-571zM926 142q-85 0 -134 52.5t-49 133.5t49 133.5t134 52.5t134 -52.5t49 -133.5t-49 -133.5t-134 -52.5zM926 184q93 0 93 144t-93 144t-93 -144t93 -144zM1089 0h-326v63h326v-63z" />
    <glyph glyph-name="trademark" unicode="&#x2122;" horiz-adv-x="839" 
d="M315 680h15v-120h-19l-2 18q-8 68 -64 68h-40v-254q0 -29 10 -42t43 -13h12v-17h-190v17h12q31 0 42 11.5t11 43.5v254h-39q-58 0 -66 -68l-2 -18h-18v120h15q6 -10 26 -10h229q19 0 25 10zM559 313h-15l-102 243q-16 38 -22 66h-2l-11 -231q-1 -30 6 -41t29 -13l15 -1
v-16h-130v18h11q23 0 31.5 10.5t10.5 43.5l13 216q3 45 -37 45h-10v17h113l87 -211q17 -42 22 -66h2q5 22 22 61l94 216h111v-18h-11q-41 0 -38 -44l12 -220q2 -29 11 -39.5t31 -10.5h11v-18h-158v18h12q21 0 29 11t6 39l-12 232h-2q-12 -36 -25 -66z" />
    <glyph glyph-name="uni2126" unicode="&#x2126;" horiz-adv-x="712" 
d="M324 0h-235v166h25q0 -49 23.5 -68t85.5 -19h64v65q-112 30 -174.5 99t-62.5 177q0 131 89 214t217 83t217 -83t89 -214q0 -108 -62.5 -177t-174.5 -99v-65h64q62 0 85.5 19t23.5 68h25v-166h-235v173q79 21 124 91t45 156q0 42 -6.5 78.5t-21.5 70.5t-37.5 58t-57 38
t-78.5 14t-78.5 -14t-57 -38t-37.5 -58t-21.5 -70.5t-6.5 -78.5q0 -86 45 -156t124 -91v-173z" />
    <glyph glyph-name="estimated" unicode="&#x212e;" horiz-adv-x="705" 
d="M354 13q151 0 226 104l17 -13q-40 -60 -104.5 -88t-138.5 -28q-136 0 -220 91t-84 228q0 138 85.5 230.5t218.5 92.5q137 0 218.5 -90t82.5 -236h-532v-173q79 -118 231 -118zM354 605q-153 0 -231 -122v-156h452v174q-77 104 -221 104z" />
    <glyph glyph-name="uni2153" unicode="&#x2153;" horiz-adv-x="780" 
d="M57 317h14q66 0 66 45v249q0 49 -62 32l-15 -4l-7 17l131 51h20v-345q0 -45 67 -45h13v-19h-227v19zM136 -40l429 722h53l-427 -722h-55zM588 205h24q54 0 86 -27t32 -71q0 -49 -37.5 -81.5t-97.5 -32.5q-84 0 -125 65l16 11q39 -43 87 -43q39 0 62 22.5t23 61.5
q0 38 -25.5 59.5t-69.5 21.5h-30v29h24q40 0 64 22.5t24 60.5q0 34 -18 53t-51 19q-52 0 -81 -56l-19 9q31 81 125 81q53 0 84.5 -26t31.5 -68q0 -43 -31.5 -72.5t-79.5 -31.5l-18 -1v-5z" />
    <glyph glyph-name="uni2154" unicode="&#x2154;" horiz-adv-x="826" 
d="M300 298h-248l-5 16l80 76q108 103 108 187q0 38 -19 63t-56 25q-70 0 -87 -84l-20 4q6 59 43.5 90.5t92.5 31.5q53 0 85 -27t32 -74q0 -53 -35 -99t-103 -106l-42 -37v-4h130q23 0 35.5 8.5t22.5 35.5h19zM237 -40h-55l429 722h53zM516 58l16 11q39 -43 87 -43
q39 0 62 22.5t23 61.5q0 38 -25.5 59.5t-69.5 21.5h-30v29h24q40 0 64 22.5t24 60.5q0 34 -18 53t-51 19q-52 0 -81 -56l-19 9q32 81 125 81q53 0 84.5 -26t31.5 -68q0 -43 -31.5 -72.5t-79.5 -31.5l-18 -1v-5h24q54 0 86 -27t32 -71q0 -49 -37.5 -81.5t-97.5 -32.5
q-84 0 -125 65z" />
    <glyph glyph-name="oneeighth" unicode="&#x215b;" horiz-adv-x="814" 
d="M57 317h14q66 0 66 45v249q0 49 -62 32l-15 -4l-7 17l131 51h20v-345q0 -45 67 -45h13v-19h-227v19zM136 -40l429 722h53l-427 -722h-55zM663 223l31 -17q70 -39 70 -101q0 -50 -40.5 -81t-104.5 -31q-67 0 -106.5 28t-39.5 75q0 73 98 106l-16 9q-68 37 -68 97
q0 44 36.5 72.5t94.5 28.5q56 0 92 -26t36 -67q0 -60 -83 -93zM549 329q0 -41 50 -70l48 -27q44 27 44 83q0 34 -19 53t-54 19q-33 0 -51 -15.5t-18 -42.5zM619 16q37 0 57.5 19.5t20.5 52.5q0 47 -59 79l-48 25q-54 -30 -54 -91q0 -85 83 -85z" />
    <glyph glyph-name="threeeighths" unicode="&#x215c;" horiz-adv-x="840" 
d="M307 405q0 -49 -37.5 -81.5t-97.5 -32.5q-84 0 -125 65l16 11q39 -43 87 -43q39 0 62 22.5t23 61.5q0 38 -25.5 59.5t-69.5 21.5h-30v29h24q40 0 64 22.5t24 60.5q0 34 -18 53t-51 19q-52 0 -81 -56l-19 9q32 81 125 81q53 0 84.5 -26t31.5 -68q0 -43 -31.5 -72.5
t-79.5 -31.5l-18 -1v-5h24q54 0 86 -27t32 -71zM162 -40l429 722h53l-427 -722h-55zM689 223l31 -17q70 -39 70 -101q0 -50 -40.5 -81t-104.5 -31q-67 0 -106.5 28t-39.5 75q0 73 98 106l-16 9q-68 37 -68 97q0 44 36.5 72.5t94.5 28.5q56 0 92 -26t36 -67q0 -60 -83 -93z
M575 329q0 -41 50 -70l48 -27q44 27 44 83q0 34 -19 53t-54 19q-33 0 -51 -15.5t-18 -42.5zM645 16q37 0 57.5 19.5t20.5 52.5q0 47 -59 79l-48 25q-54 -30 -54 -91q0 -85 83 -85z" />
    <glyph glyph-name="fiveeighths" unicode="&#x215d;" horiz-adv-x="852" 
d="M296 422q0 -59 -43 -95t-98 -36q-85 0 -116 59l18 12q21 -41 75 -41q37 0 63.5 25.5t26.5 75.5q0 38 -20 64.5t-64 26.5q-27 0 -52 -14l-17 10l45 191h148q20 0 28.5 3t17.5 15h19l-26 -80h-182l-29 -117l3 -2q34 18 74 18q59 0 94 -31.5t35 -83.5zM174 -40l429 722h53
l-427 -722h-55zM701 223l31 -17q70 -39 70 -101q0 -50 -40.5 -81t-104.5 -31q-67 0 -106.5 28t-39.5 75q0 73 98 106l-16 9q-68 37 -68 97q0 44 36.5 72.5t94.5 28.5q56 0 92 -26t36 -67q0 -60 -83 -93zM587 329q0 -41 50 -70l48 -27q44 27 44 83q0 34 -19 53t-54 19
q-33 0 -51 -15.5t-18 -42.5zM657 16q37 0 57.5 19.5t20.5 52.5q0 47 -59 79l-48 25q-54 -30 -54 -91q0 -85 83 -85z" />
    <glyph glyph-name="arrowleft" unicode="&#x2190;" horiz-adv-x="843" 
d="M192 334h611v-56h-611l114 -145v-40l-236 213l236 213v-40z" />
    <glyph glyph-name="arrowup" unicode="&#x2191;" horiz-adv-x="466" 
d="M233 750l213 -236h-40l-145 114v-668h-56v668l-145 -114h-40z" />
    <glyph glyph-name="arrowright" unicode="&#x2192;" horiz-adv-x="843" 
d="M773 306l-236 -213v40l114 145h-611v56h611l-114 145v40z" />
    <glyph glyph-name="arrowdown" unicode="&#x2193;" horiz-adv-x="466" 
d="M261 82l145 114h40l-213 -236l-213 236h40l145 -114v668h56v-668z" />
    <glyph glyph-name="arrowboth" unicode="&#x2194;" horiz-adv-x="933" 
d="M913 306l-236 -213v40l114 145h-649l114 -145v-40l-236 213l236 213v-40l-114 -145h649l-114 145v40z" />
    <glyph glyph-name="arrowupdn" unicode="&#x2195;" horiz-adv-x="466" 
d="M261 628v-546l145 114h40l-213 -236l-213 236h40l145 -114v546l-145 -114h-40l213 236l213 -236h-40z" />
    <glyph glyph-name="uni2196" unicode="&#x2196;" horiz-adv-x="740" 
d="M126 634l594 -595l-39 -39l-595 594l-22 -183l-28 -28l-16 317l317 -16l-28 -28z" />
    <glyph glyph-name="uni2197" unicode="&#x2197;" horiz-adv-x="740" 
d="M431 656l-28 28l317 16l-16 -317l-28 28l-22 183l-595 -594l-39 39l594 595z" />
    <glyph glyph-name="uni2198" unicode="&#x2198;" horiz-adv-x="740" 
d="M720 0l-317 16l28 28l183 22l-594 595l39 39l595 -594l22 183l28 28z" />
    <glyph glyph-name="uni2199" unicode="&#x2199;" horiz-adv-x="740" 
d="M720 661l-594 -595l183 -22l28 -28l-317 -16l16 317l28 -28l22 -183l595 594z" />
    <glyph glyph-name="partialdiff" unicode="&#x2202;" horiz-adv-x="549" 
d="M311 715q96 -2 147 -72.5t51 -207.5q0 -199 -85 -324.5t-206 -125.5q-86 0 -132 45t-46 116q0 79 39.5 141t99.5 95.5t118.5 50.5t108.5 18q-14 194 -133 194q-40 0 -77.5 -26.5t-61.5 -87.5l-24 10q50 171 201 174zM244 22q41 0 74 38t52 96.5t28.5 119.5t9.5 115v29
q-125 -2 -198.5 -68.5t-73.5 -190.5q0 -68 28 -103.5t80 -35.5z" />
    <glyph glyph-name="emptyset" unicode="&#x2205;" 
d="M522 609l21 -22l-72 -66q47 -63 47 -147q0 -98 -62.5 -165.5t-165.5 -67.5q-98 0 -162 64l-71 -65l-21 22l72 66q-46 61 -46 146q0 98 62.5 165.5t165.5 67.5q98 0 161 -63zM94 374q0 -71 37 -125l298 274q-55 55 -139 55q-89 0 -142.5 -59t-53.5 -145zM486 374
q0 73 -38 126l-298 -274q54 -56 140 -56q89 0 142.5 59t53.5 145z" />
    <glyph glyph-name="uni2206" unicode="&#x2206;" horiz-adv-x="735" 
d="M723 0h-711l-2 3l342 702h5l368 -702zM328 620l-294 -605h610z" />
    <glyph glyph-name="product" unicode="&#x220f;" horiz-adv-x="762" 
d="M717 675l-25 -2q-41 -4 -56.5 -27t-15.5 -80v-432q0 -56 17 -80.5t65 -27.5l15 -1v-25h-288v25l15 1q48 3 65 27.5t17 80.5v523h-289v-523q0 -56 17 -80.5t65 -27.5l15 -1v-25h-289v25l15 1q48 3 65 27.5t17 80.5v432q0 56 -17 80.5t-65 27.5l-15 1v25h672v-25z" />
    <glyph glyph-name="summation" unicode="&#x2211;" horiz-adv-x="670" 
d="M620 -150h-572l-3 5l303 390l-284 451l2 4h526v-192h-30q-24 85 -68 117t-140 32h-152l239 -375v-18l-268 -328h302q62 0 85.5 19t23.5 68h36v-173z" />
    <glyph glyph-name="minus" unicode="&#x2212;" 
d="M490 285h-400v43h400v-43z" />
    <glyph glyph-name="radical" unicode="&#x221a;" horiz-adv-x="813" 
d="M291 -15h-6l-183 450h-97v35h125l161 -407l304 703h213v-35h-189z" />
    <glyph glyph-name="infinity" unicode="&#x221e;" horiz-adv-x="648" 
d="M176 130q-58 0 -97 38.5t-39 95.5t39 95.5t97 38.5q38 0 72.5 -22.5t75.5 -72.5q41 50 75.5 72.5t72.5 22.5q58 0 97 -38.5t39 -95.5t-39 -95.5t-97 -38.5q-73 0 -148 95q-75 -95 -148 -95zM172 173q30 0 58.5 20t69.5 71q-41 51 -69.5 71t-58.5 20q-37 0 -61 -25.5
t-24 -65.5t24 -65.5t61 -25.5zM476 173q37 0 61 25.5t24 65.5t-24 65.5t-61 25.5q-30 0 -58.5 -20t-69.5 -71q41 -51 69.5 -71t58.5 -20z" />
    <glyph glyph-name="integral" unicode="&#x222b;" horiz-adv-x="500" 
d="M-14 -237q-86 0 -148 53l76 95l15 -5q0 -52 19 -84t50 -32q25 0 45 29t28 78l107 634q14 85 64 135.5t119 50.5q86 0 148 -53l-76 -95l-15 5q0 52 -19 84t-50 32q-25 0 -45 -29t-28 -78l-107 -634q-14 -85 -64 -135.5t-119 -50.5z" />
    <glyph glyph-name="approxequal" unicode="&#x2248;" 
d="M382 313q-49 0 -110 25.5t-96 25.5q-68 0 -97 -45l-5 1q27 87 134 87q35 0 96 -25.5t110 -25.5q68 0 97 45l5 -1q-27 -87 -134 -87zM372 184q-49 0 -110 25.5t-96 25.5q-68 0 -97 -45l-5 1q27 87 134 87q35 0 96 -25.5t110 -25.5q68 0 97 45l5 -1q-27 -87 -134 -87z" />
    <glyph glyph-name="notequal" unicode="&#x2260;" 
d="M490 398v-43h-162l-49 -97h211v-43h-232l-70 -139h-48l69 139h-119v43h141l48 97h-189v43h210l66 132h50l-66 -132h140z" />
    <glyph glyph-name="lessequal" unicode="&#x2264;" 
d="M490 114v-50l-400 192v42l400 192v-50l-340 -161v-4zM490 0h-400v43h400v-43z" />
    <glyph glyph-name="greaterequal" unicode="&#x2265;" 
d="M489 256l-400 -192v50l340 161v4l-340 161v50l400 -192v-42zM489 43v-43h-400v43h400z" />
    <glyph glyph-name="uni2460" unicode="&#x2460;" horiz-adv-x="880" 
d="M440 740q173 0 281.5 -108t108.5 -282t-108.5 -282t-281.5 -108t-281.5 108t-108.5 282t108.5 282t281.5 108zM440 -9q155 0 255 99t100 260t-100 260t-255 99q-154 0 -254.5 -99t-100.5 -260t100.5 -260t254.5 -99zM472 543v-314q0 -41 61 -41h12v-17h-206v17h13
q60 0 60 41v227q0 44 -57 29l-13 -4l-7 15l119 47h18z" />
    <glyph glyph-name="uni2461" unicode="&#x2461;" horiz-adv-x="880" 
d="M440 -40q-173 0 -281.5 108t-108.5 282t108.5 282t281.5 108t281.5 -108t108.5 -282t-108.5 -282t-281.5 -108zM440 -9q155 0 255 99t100 260t-100 260t-255 99q-154 0 -254.5 -99t-100.5 -260t100.5 -260t254.5 -99zM540 168h-226l-4 15l72 69q99 94 99 170
q0 35 -17.5 57.5t-51.5 22.5q-64 0 -79 -77l-18 4q5 54 39.5 82.5t84.5 28.5q48 0 77 -24.5t29 -67.5q0 -48 -31.5 -89.5t-93.5 -96.5l-38 -34v-4h118q20 0 32 8t20 32h18z" />
    <glyph glyph-name="uni2462" unicode="&#x2462;" horiz-adv-x="880" 
d="M440 -40q-173 0 -281.5 108t-108.5 282t108.5 282t281.5 108t281.5 -108t108.5 -282t-108.5 -282t-281.5 -108zM440 -9q155 0 255 99t100 260t-100 260t-255 99q-154 0 -254.5 -99t-100.5 -260t100.5 -260t254.5 -99zM322 224l14 10q35 -39 79 -39q36 0 57 20.5t21 55.5
q0 34 -23.5 54t-63.5 20h-27v26h22q37 0 58.5 20.5t21.5 54.5q0 31 -16.5 48.5t-46.5 17.5q-46 0 -74 -51l-17 8q29 74 114 74q48 0 76.5 -23.5t28.5 -62.5q0 -38 -28.5 -65t-72.5 -29l-16 -1v-5h22q49 0 78 -24t29 -65q0 -45 -34 -74t-89 -29q-76 0 -113 59z" />
    <glyph glyph-name="uni2463" unicode="&#x2463;" horiz-adv-x="880" 
d="M440 740q173 0 281.5 -108t108.5 -282t-108.5 -282t-281.5 -108t-281.5 108t-108.5 282t108.5 282t281.5 108zM440 -9q155 0 255 99t100 260t-100 260t-255 99q-154 0 -254.5 -99t-100.5 -260t100.5 -260t254.5 -99zM457 539h46v-223h57v-34h-56v-56q0 -34 31 -37l13 -1
v-17h-173v17l13 1q35 3 45 15.5t10 44.5v33h-162v16zM323 319v-3h122v169h-2z" />
    <glyph glyph-name="uni2464" unicode="&#x2464;" horiz-adv-x="880" 
d="M440 -40q-173 0 -281.5 108t-108.5 282t108.5 282t281.5 108t281.5 -108t108.5 -282t-108.5 -282t-281.5 -108zM440 -9q155 0 255 99t100 260t-100 260t-255 99q-154 0 -254.5 -99t-100.5 -260t100.5 -260t254.5 -99zM415 169q-77 0 -106 53l17 11q19 -37 68 -37
q33 0 57.5 23.5t24.5 68.5q0 35 -18 58.5t-59 23.5q-25 0 -47 -12l-15 9l41 173h134q30 0 42 17h17l-23 -73h-166l-26 -106l3 -2q30 16 67 16q54 0 85.5 -28.5t31.5 -75.5q0 -54 -39 -86.5t-89 -32.5z" />
    <glyph glyph-name="uni2465" unicode="&#x2465;" horiz-adv-x="880" 
d="M440 740q173 0 281.5 -108t108.5 -282t-108.5 -282t-281.5 -108t-281.5 108t-108.5 282t108.5 282t281.5 108zM440 -9q155 0 255 99t100 260t-100 260t-255 99q-154 0 -254.5 -99t-100.5 -260t100.5 -260t254.5 -99zM505 524q-135 0 -144 -174h4q26 52 92 52
q47 0 76.5 -29.5t29.5 -78.5q0 -55 -36.5 -90t-93.5 -35q-64 0 -100 43t-36 118q0 95 55.5 156t141.5 61q46 0 70 -13l-9 -18q-24 8 -50 8zM430 370q-51 0 -70 -52q1 -127 76 -127q31 0 47.5 24.5t16.5 67.5q0 87 -70 87z" />
    <glyph glyph-name="uni2466" unicode="&#x2466;" horiz-adv-x="880" 
d="M440 -40q-173 0 -281.5 108t-108.5 282t108.5 282t281.5 108t281.5 -108t108.5 -282t-108.5 -282t-281.5 -108zM440 -9q155 0 255 99t100 260t-100 260t-255 99q-154 0 -254.5 -99t-100.5 -260t100.5 -260t254.5 -99zM448 171h-77q29 215 142 306v3h-135
q-22 0 -34.5 -8.5t-20.5 -32.5h-17l30 97h232l6 -14q-120 -112 -126 -351z" />
    <glyph glyph-name="uni2467" unicode="&#x2467;" horiz-adv-x="880" 
d="M440 740q173 0 281.5 -108t108.5 -282t-108.5 -282t-281.5 -108t-281.5 108t-108.5 282t108.5 282t281.5 108zM440 -9q155 0 255 99t100 260t-100 260t-255 99q-154 0 -254.5 -99t-100.5 -260t100.5 -260t254.5 -99zM479 374l29 -16q64 -34 64 -92q0 -45 -36.5 -73
t-95.5 -28q-61 0 -97 25.5t-36 67.5q0 67 90 97l-15 8q-62 34 -62 88q0 41 33 66.5t86 25.5q51 0 84 -24t33 -61q0 -54 -77 -84zM377 470q0 -37 45 -64l43 -24q41 23 41 75q0 31 -17.5 48.5t-49.5 17.5q-30 0 -46 -14t-16 -39zM440 186q34 0 52.5 17.5t18.5 47.5
q0 44 -54 72l-42 23q-50 -28 -50 -83q0 -77 75 -77z" />
    <glyph glyph-name="uni2468" unicode="&#x2468;" horiz-adv-x="880" 
d="M440 740q173 0 281.5 -108t108.5 -282t-108.5 -282t-281.5 -108t-281.5 108t-108.5 282t108.5 282t281.5 108zM440 -9q155 0 255 99t100 260t-100 260t-255 99q-154 0 -254.5 -99t-100.5 -260t100.5 -260t254.5 -99zM455 540q64 0 100 -43t36 -118q0 -95 -55.5 -156
t-141.5 -61q-48 0 -70 12l9 19q23 -9 50 -9q136 0 144 175h-4q-26 -53 -92 -53q-47 0 -76.5 30t-29.5 78q0 55 36.5 90.5t93.5 35.5zM458 338q52 0 70 55q-3 124 -76 124q-31 0 -47.5 -24t-16.5 -68q0 -87 70 -87z" />
    <glyph glyph-name="uni24EA" unicode="&#x24ea;" horiz-adv-x="880" 
d="M440 -40q-173 0 -281.5 108t-108.5 282t108.5 282t281.5 108t281.5 -108t108.5 -282t-108.5 -282t-281.5 -108zM440 -9q155 0 255 99t100 260t-100 260t-255 99q-154 0 -254.5 -99t-100.5 -260t100.5 -260t254.5 -99zM439 164q-67 0 -106 50.5t-39 139.5t39 139t106 50
q68 0 107 -50t39 -139t-39 -139.5t-107 -50.5zM439 189q27 0 44.5 13t25 39.5t10 51t2.5 61.5t-2.5 61.5t-10 50.5t-25 39t-44.5 13q-26 0 -43.5 -13t-25 -39t-10 -51t-2.5 -61q0 -29 1.5 -49.5t6 -44t13 -38t24 -24t36.5 -9.5z" />
    <glyph glyph-name="uni24FF" unicode="&#x24ff;" horiz-adv-x="880" 
d="M440 -40q-173 0 -281.5 108t-108.5 282t108.5 282t281.5 108t281.5 -108t108.5 -282t-108.5 -282t-281.5 -108zM439 164q68 0 107 50.5t39 139.5t-39 139t-107 50q-67 0 -106 -50t-39 -139t39 -139.5t106 -50.5zM439 189q-21 0 -36.5 9.5t-24 24t-13 38t-6 44t-1.5 49.5
q0 36 2.5 61t10 51t25 39t43.5 13q27 0 44.5 -13t25 -39t10 -50.5t2.5 -61.5t-2.5 -61.5t-10 -51t-25 -39.5t-44.5 -13z" />
    <glyph glyph-name="lozenge" unicode="&#x25ca;" horiz-adv-x="534" 
d="M271 -16h-3l-263 371v3l258 357h3l263 -371v-3zM84 397l215 -303l150 207l-215 303z" />
    <glyph glyph-name="circle" unicode="&#x25cb;" horiz-adv-x="880" 
d="M440 -40q-173 0 -281.5 108t-108.5 282t108.5 282t281.5 108t281.5 -108t108.5 -282t-108.5 -282t-281.5 -108zM440 -9q155 0 255 99t100 260t-100 260t-255 99q-154 0 -254.5 -99t-100.5 -260t100.5 -260t254.5 -99z" />
    <glyph glyph-name="uni25CF" unicode="&#x25cf;" horiz-adv-x="880" 
d="M440 -40q-173 0 -281.5 108t-108.5 282t108.5 282t281.5 108t281.5 -108t108.5 -282t-108.5 -282t-281.5 -108z" />
    <glyph glyph-name="uni2776" unicode="&#x2776;" horiz-adv-x="880" 
d="M440 -40q-173 0 -281.5 108t-108.5 282t108.5 282t281.5 108t281.5 -108t108.5 -282t-108.5 -282t-281.5 -108zM316 188v-17h206v17h-12q-61 0 -61 41v314h-18l-119 -47l7 -15l13 4q57 15 57 -29v-227q0 -41 -60 -41h-13z" />
    <glyph glyph-name="uni2777" unicode="&#x2777;" horiz-adv-x="880" 
d="M440 -40q-173 0 -281.5 108t-108.5 282t108.5 282t281.5 108t281.5 -108t108.5 -282t-108.5 -282t-281.5 -108zM310 183l4 -15h226l30 96h-18q-8 -24 -20 -32t-32 -8h-118v4l38 34q62 55 93.5 96.5t31.5 89.5q0 43 -29 67.5t-77 24.5q-50 0 -84.5 -28.5t-39.5 -82.5
l18 -4q15 77 79 77q34 0 51.5 -22.5t17.5 -57.5q0 -76 -99 -170z" />
    <glyph glyph-name="uni2778" unicode="&#x2778;" horiz-adv-x="880" 
d="M440 -40q-173 0 -281.5 108t-108.5 282t108.5 282t281.5 108t281.5 -108t108.5 -282t-108.5 -282t-281.5 -108zM435 165q55 0 89 29t34 74q0 41 -29 65t-78 24h-22v5l16 1q44 2 72.5 29t28.5 65q0 39 -28.5 62.5t-76.5 23.5q-85 0 -114 -74l17 -8q28 51 74 51
q30 0 46.5 -17.5t16.5 -48.5q0 -34 -21.5 -54.5t-58.5 -20.5h-22v-26h27q40 0 63.5 -20t23.5 -54q0 -35 -21 -55.5t-57 -20.5q-44 0 -79 39l-14 -10q37 -59 113 -59z" />
    <glyph glyph-name="uni2779" unicode="&#x2779;" horiz-adv-x="880" 
d="M440 -40q-173 0 -281.5 108t-108.5 282t108.5 282t281.5 108t281.5 -108t108.5 -282t-108.5 -282t-281.5 -108zM362 188v-17h173v17l-13 1q-31 3 -31 37v56h56v34h-57v223h-46l-176 -241v-16h162v-33q0 -32 -10 -44.5t-45 -15.5zM432 316h-122v3l120 166h2v-169z" />
    <glyph glyph-name="uni277A" unicode="&#x277a;" horiz-adv-x="880" 
d="M440 -40q-173 0 -281.5 108t-108.5 282t108.5 282t281.5 108t281.5 -108t108.5 -282t-108.5 -282t-281.5 -108zM412 169q50 0 89 32.5t39 86.5q0 47 -31.5 75.5t-85.5 28.5q-37 0 -67 -16l-3 2l26 106h166l23 73h-17q-12 -17 -42 -17h-134l-41 -173l15 -9q23 12 47 12
q41 0 59 -23.5t18 -58.5q0 -45 -24.5 -68.5t-57.5 -23.5q-49 0 -68 37l-17 -11q29 -53 106 -53z" />
    <glyph glyph-name="uni277B" unicode="&#x277b;" horiz-adv-x="880" 
d="M440 -40q-173 0 -281.5 108t-108.5 282t108.5 282t281.5 108t281.5 -108t108.5 -282t-108.5 -282t-281.5 -108zM420 169q57 0 93.5 35t36.5 90q0 49 -29.5 78.5t-76.5 29.5q-66 0 -92 -52h-4q9 174 144 174q26 0 50 -8l9 18q-24 13 -70 13q-86 0 -141.5 -61t-55.5 -156
q0 -75 36 -118t100 -43zM423 191q-75 0 -76 127q19 52 70 52q70 0 70 -87q0 -43 -16.5 -67.5t-47.5 -24.5z" />
    <glyph glyph-name="uni277C" unicode="&#x277c;" horiz-adv-x="880" 
d="M440 -40q-173 0 -281.5 108t-108.5 282t108.5 282t281.5 108t281.5 -108t108.5 -282t-108.5 -282t-281.5 -108zM360 171h77q6 239 126 351l-6 14h-232l-30 -97h17q8 24 20.5 32.5t34.5 8.5h135v-3q-113 -91 -142 -306z" />
    <glyph glyph-name="uni277D" unicode="&#x277d;" horiz-adv-x="880" 
d="M440 -40q-173 0 -281.5 108t-108.5 282t108.5 282t281.5 108t281.5 -108t108.5 -282t-108.5 -282t-281.5 -108zM440 165q59 0 95.5 28t36.5 73q0 58 -64 92l-29 16q77 30 77 84q0 37 -33 61t-84 24q-53 0 -86 -25.5t-33 -66.5q0 -54 62 -88l15 -8q-90 -30 -90 -97
q0 -42 36 -67.5t97 -25.5zM465 382l-43 24q-45 27 -45 64q0 25 16 39t46 14q32 0 49.5 -17.5t17.5 -48.5q0 -52 -41 -75zM440 186q-75 0 -75 77q0 55 50 83l42 -23q54 -28 54 -72q0 -30 -18.5 -47.5t-52.5 -17.5z" />
    <glyph glyph-name="uni277E" unicode="&#x277e;" horiz-adv-x="880" 
d="M440 -40q-173 0 -281.5 108t-108.5 282t108.5 282t281.5 108t281.5 -108t108.5 -282t-108.5 -282t-281.5 -108zM392 161q86 0 141.5 61t55.5 156q0 75 -36 118t-100 43q-57 0 -93.5 -35t-36.5 -90q0 -49 29.5 -78.5t76.5 -29.5q66 0 92 52h4q-9 -174 -144 -174
q-26 0 -50 8l-9 -18q24 -13 70 -13zM456 338q-70 0 -70 87q0 43 16.5 67.5t47.5 24.5q75 0 76 -127q-19 -52 -70 -52z" />
    <glyph glyph-name="uniF8FF" unicode="&#xf8ff;" horiz-adv-x="662" 
d="M297 558l163 -79q182 -89 182 -256q0 -132 -93 -215.5t-241 -83.5q-128 0 -208 58t-80 150q0 70 46 111t126 41q89 0 152.5 -50t63.5 -120q0 -45 -27.5 -72.5t-72.5 -27.5q-43 0 -70.5 27.5t-27.5 69.5q0 38 28 64.5t68 26.5q22 0 40 -6q-39 52 -114 52q-51 0 -81 -31.5
t-30 -86.5q0 -77 58 -127t147 -50q82 0 132.5 41t50.5 106q0 93 -129 156l-152 74q-153 75 -153 211q0 99 75.5 161t196.5 62q68 0 142.5 -17.5t121.5 -44.5l-72 -194h-5q-22 93 -93 156t-154 63q-43 0 -67 -18t-24 -49q0 -28 23.5 -52t77.5 -50z" />
    <glyph glyph-name="fi" unicode="&#xfb01;" horiz-adv-x="622" 
d="M281 0h-251v25l27 3q31 3 43.5 18.5t12.5 49.5v344h-83v22l83 28v57q0 105 61 162t164 57q83 0 133.5 -35t50.5 -78q0 -23 -14 -36.5t-37 -13.5q-24 0 -38.5 12t-30.5 46t-37.5 50t-63.5 16q-59 0 -90.5 -39.5t-31.5 -95.5q0 -54 20 -102h82v-50h-83v-344
q0 -33 12.5 -48.5t43.5 -19.5l27 -3v-25zM597 0h-251v25l27 3q31 3 43.5 18.5t12.5 49.5v286q0 27 -12.5 37.5t-42.5 8.5l-31 -2v25l146 39h25v-394q0 -33 12.5 -48.5t43.5 -19.5l27 -3v-25z" />
    <glyph glyph-name="fl" unicode="&#xfb02;" horiz-adv-x="612" 
d="M560 28l27 -3v-25h-251v25l27 3q31 3 43.5 18.5t12.5 49.5v578q-42 45 -108 45q-68 0 -99.5 -34.5t-31.5 -92.5q0 -60 19 -102h122v-50h-123v-344q0 -33 12.5 -48.5t43.5 -19.5l27 -3v-25h-251v25l27 3q31 3 43.5 18.5t12.5 49.5v344h-83v22l83 28v47q0 104 54.5 166.5
t169.5 62.5q92 0 167 -29v-641q0 -33 12.5 -48.5t43.5 -19.5z" />
    <glyph glyph-name="uniFEFF" unicode="&#xfeff;" horiz-adv-x="0" 
 />
    <glyph glyph-name="bar.case" horiz-adv-x="200" 
d="M80 790h40v-884h-40v884z" />
    <glyph glyph-name="brokenbar.case" horiz-adv-x="200" 
d="M80 790h40v-392h-40v392zM120 -94h-40v392h40v-392z" />
    <glyph glyph-name="parenleft.case" horiz-adv-x="351" 
d="M341 -84l-13 -23q-49 23 -96 59.5t-92 90t-72.5 129.5t-27.5 161t27.5 161t72.5 129.5t92 90t96 59.5l13 -23q-199 -146 -199 -417t199 -417z" />
    <glyph glyph-name="parenright.case" horiz-adv-x="351" 
d="M23 -107l-13 23q199 146 199 417t-199 417l13 23q49 -23 96 -59.5t92 -90t72.5 -129.5t27.5 -161t-27.5 -161t-72.5 -129.5t-92 -90t-96 -59.5z" />
    <glyph glyph-name="hyphen.case" horiz-adv-x="364" 
d="M40 388h284v-63h-284v63z" />
    <glyph glyph-name="bracketleft.case" horiz-adv-x="276" 
d="M266 765h-15q-86 0 -86 -51v-732q0 -51 86 -51h15v-25h-186v884h186v-25z" />
    <glyph glyph-name="bracketright.case" horiz-adv-x="276" 
d="M25 765h-15v25h186v-884h-186v25h15q86 0 86 51v732q0 51 -86 51z" />
    <glyph glyph-name="braceleft.case" horiz-adv-x="316" 
d="M301 -71v-23q-94 3 -148 52t-54 131v144q0 61 -59 96v20q59 35 59 108v150q0 82 54 131t148 52v-23q-63 -7 -90.5 -45t-27.5 -118v-132q0 -35 -13.5 -59.5t-47.5 -48.5q34 -24 47.5 -48.5t13.5 -59.5v-164q0 -78 27.5 -116.5t90.5 -46.5z" />
    <glyph glyph-name="braceright.case" horiz-adv-x="316" 
d="M15 -94v23q63 8 90.5 46.5t27.5 116.5v164q0 35 13.5 59.5t47.5 48.5q-34 24 -47.5 48.5t-13.5 59.5v132q0 80 -27.5 118t-90.5 45v23q94 -3 148 -52t54 -131v-150q0 -73 59 -108v-20q-59 -35 -59 -96v-144q0 -82 -54 -131t-148 -52z" />
    <glyph glyph-name="endash.case" horiz-adv-x="542" 
d="M40 378h462v-43h-462v43z" />
    <glyph glyph-name="emdash.case" horiz-adv-x="837" 
d="M40 378h757v-43h-757v43z" />
    <glyph glyph-name="guilsinglleft.case" horiz-adv-x="367" 
d="M70 314l217 197v-30l-125 -183l125 -183v-30l-217 197v32z" />
    <glyph glyph-name="guilsinglright.case" horiz-adv-x="367" 
d="M80 481v30l217 -197v-32l-217 -197v30l125 183z" />
    <glyph glyph-name="exclamdown.case" horiz-adv-x="294" 
d="M147 752q30 0 51 -21t21 -51t-21 -51t-51 -21t-51 21t-21 51t21 51t51 21zM83 75l47 441h34l47 -441q0 -5 0.5 -11t1 -9.5t0.5 -7.5q0 -29 -18.5 -46.5t-47.5 -17.5t-47.5 17.5t-18.5 46.5z" />
    <glyph glyph-name="questiondown.case" horiz-adv-x="446" 
d="M265 755q30 0 51 -21t21 -51t-21 -51t-51 -21t-51 21t-21 51t21 51t51 21zM243 519h50v-39q0 -73 -71 -135q-46 -40 -67.5 -74t-21.5 -81q0 -65 35 -103t109 -38q59 0 101 29.5t53 92.5l35 -7q-10 -87 -76 -134t-157 -47q-90 0 -146.5 49.5t-56.5 130.5q0 67 35 114.5
t105 96.5q48 33 60.5 56.5t12.5 65.5v23z" />
    <glyph glyph-name="a.sc" horiz-adv-x="611" 
d="M344 546l176 -452q23 -63 74 -71v-23h-230v24l23 2q34 3 42.5 18t-5.5 53l-36 94h-209l-34 -90q-15 -37 -6.5 -55.5t42.5 -20.5l18 -1v-24h-182v23q33 4 49 19.5t33 58.5l164 416zM233 331l-42 -109h185l-42 110q-46 121 -48 148h-4q-2 -26 -49 -149z" />
    <glyph glyph-name="b.sc" horiz-adv-x="570" 
d="M327 276h28q77 0 125 -36t48 -94q0 -67 -54 -106.5t-146 -39.5h-283v23l11 1q38 3 52 21t14 63v314q0 46 -14.5 64t-51.5 18h-11v26h276q85 0 133 -34.5t48 -94.5q0 -52 -41.5 -85.5t-105.5 -33.5h-28v-6zM291 501h-79v-209h87q52 0 81.5 27.5t29.5 76.5q0 55 -28.5 80
t-90.5 25zM261 29h53q58 0 89 30.5t31 86.5q0 55 -33.5 86t-93.5 31h-95v-188q0 -46 49 -46z" />
    <glyph glyph-name="c.sc" horiz-adv-x="571" 
d="M314 -13q-117 0 -191 73.5t-74 188.5q0 135 78.5 214t211.5 79q112 0 172 -35v-152h-28q-34 139 -168 139q-84 0 -132 -54.5t-48 -151.5q0 -98 59 -157.5t156 -59.5q108 0 159 88l25 -11q-23 -77 -80.5 -119t-139.5 -42z" />
    <glyph glyph-name="d.sc" horiz-adv-x="642" 
d="M45 530h237q148 0 228 -69t80 -196q0 -128 -80 -196.5t-228 -68.5h-237v23l11 1q38 3 52 21t14 63v314q0 46 -14.5 64t-51.5 18h-11v26zM261 35h38q92 0 142 60t50 170t-50 170t-142 60h-87v-414q0 -46 49 -46z" />
    <glyph glyph-name="e.sc" horiz-adv-x="565" 
d="M483 144l8 25h27l-18 -169h-455v23l11 1q36 3 51 20t15 64v314q0 47 -14.5 64.5t-51.5 17.5h-11v26h444l15 -154h-28l-7 25q-14 51 -52 75t-112 24h-93v-206h56q41 0 63.5 14t29.5 54l4 22h24v-213h-24l-4 23q-7 36 -26.5 52.5t-66.5 16.5h-56v-187q0 -23 11 -34.5
t38 -11.5h48q75 0 114 24t60 90z" />
    <glyph glyph-name="f.sc" horiz-adv-x="533" 
d="M45 530h448l15 -156h-28l-7 23q-16 54 -54.5 79t-114.5 25h-92v-216h51q43 0 65.5 14.5t28.5 52.5l4 23h23v-213h-23l-4 23q-6 37 -27.5 53t-66.5 16h-51v-146q0 -45 15.5 -63t66.5 -21l18 -1v-23h-267v23l11 1q36 3 51 20t15 64v314q0 47 -14.5 64.5t-51.5 17.5h-11v26z
" />
    <glyph glyph-name="g.sc" horiz-adv-x="634" 
d="M349 -13q-132 0 -216 75t-84 200q0 127 86.5 203.5t223.5 76.5q115 0 186 -30v-137h-27q-31 128 -173 128q-92 0 -143.5 -61.5t-51.5 -179.5q0 -114 52.5 -173t145.5 -59q40 0 74 14t48 36v80q-1 33 -24.5 46t-71.5 15l-19 1v22h250v-22q-28 0 -39.5 -13.5t-11.5 -46.5
v-113q-88 -62 -205 -62z" />
    <glyph glyph-name="h.sc" horiz-adv-x="693" 
d="M648 505h-13q-35 -2 -49.5 -19t-14.5 -64v-314q0 -47 14.5 -64t49.5 -19h13v-25h-243v25h13q36 2 49.5 19.5t13.5 63.5v150h-269v-150q0 -46 13.5 -63.5t49.5 -19.5h13v-25h-243v25h13q35 2 49.5 19t14.5 64v314q0 47 -14.5 64t-49.5 19h-13v25h243v-25h-13
q-36 -2 -49.5 -19.5t-13.5 -63.5v-130h269v130q0 46 -13.5 63.5t-49.5 19.5h-13v25h243v-25z" />
    <glyph glyph-name="i.sc" horiz-adv-x="334" 
d="M289 505h-13q-35 -2 -49.5 -19t-14.5 -64v-314q0 -47 14.5 -64t49.5 -19h13v-25h-244v25h13q35 2 49.5 19t14.5 64v314q0 47 -14.5 64t-49.5 19h-13v25h244v-25z" />
    <glyph glyph-name="j.sc" horiz-adv-x="304" 
d="M42 530h245v-27h-18q-32 0 -46 -16.5t-14 -64.5v-407q0 -71 -37 -107.5t-100 -36.5q-59 0 -106 42l20 24q31 -25 62 -25q36 0 54 22t18 58v430q0 46 -15 64t-52 18h-11v26z" />
    <glyph glyph-name="k.sc" horiz-adv-x="641" 
d="M289 503h-18q-31 0 -45 -16.5t-14 -64.5v-314q0 -45 14.5 -63t51.5 -21l11 -1v-23h-244v23l11 1q36 3 51 20t15 64v314q0 47 -14.5 64.5t-51.5 17.5h-11v26h244v-27zM623 0h-163l-235 267l179 169q34 32 34 50q0 20 -30 20h-26v24h210v-23q-42 -2 -71.5 -17t-60.5 -45
l-149 -145l205 -227q45 -50 107 -50v-23z" />
    <glyph glyph-name="l.sc" horiz-adv-x="534" 
d="M467 166l7 21h25l-20 -187h-434v23l11 1q36 3 51 20t15 64v314q0 47 -14.5 64.5t-51.5 17.5h-11v26h247v-27h-18q-62 0 -62 -74v-355q0 -23 11 -34.5t38 -11.5h49q62 0 97 32t60 106z" />
    <glyph glyph-name="m.sc" horiz-adv-x="813" 
d="M389 -11h-21l-158 368q-25 60 -34 101h-3l-17 -350q-2 -47 9 -63.5t45 -19.5l24 -2v-23h-201v23l17 2q37 5 49.5 21t15.5 63l20 329q4 65 -56 68l-17 1v23h172l136 -325q26 -60 33 -97h4q6 29 34 92l146 330h167v-23l-17 -1q-63 -5 -59 -69l20 -334q2 -41 16 -57.5
t49 -20.5l17 -2v-23h-243v23l19 2q35 4 46 20t9 58l-19 351h-3q-19 -58 -37 -97z" />
    <glyph glyph-name="n.sc" horiz-adv-x="660" 
d="M439 506v24h199v-27l-23 -1q-30 -2 -42.5 -19t-12.5 -61v-427h-35l-364 440v-332q0 -43 12.5 -58.5t50.5 -19.5l20 -2v-23h-199v23l11 1q38 3 52 21t14 63v371q-24 22 -52 25l-24 2v23h162l310 -380h4v278q0 42 -13 57.5t-50 19.5z" />
    <glyph glyph-name="o.sc" horiz-adv-x="692" 
d="M346 -13q-129 0 -213 77.5t-84 200.5t84 200t213 77t213 -77t84 -200t-84 -200.5t-213 -77.5zM346 26q89 0 140.5 64.5t51.5 174.5q0 109 -51.5 173.5t-140.5 64.5q-90 0 -141 -64.5t-51 -173.5q0 -110 51.5 -174.5t140.5 -64.5z" />
    <glyph glyph-name="p.sc" horiz-adv-x="527" 
d="M302 239h-90v-131q0 -45 15.5 -63t66.5 -21l18 -1v-23h-267v23l11 1q36 3 51 20t15 64v314q0 47 -14.5 64.5t-51.5 17.5h-11v26h263q81 0 135.5 -35.5t54.5 -106.5q0 -73 -57 -111t-139 -38zM293 501h-81v-233h75q57 0 87.5 31t30.5 90q0 112 -112 112z" />
    <glyph glyph-name="q.sc" horiz-adv-x="692" 
d="M698 -210q-134 0 -257 63t-279 188q-113 89 -113 224q0 123 84 200t213 77t213 -77t84 -200q0 -124 -84.5 -201t-218.5 -77v-7q48 -8 90 -33q86 -51 159.5 -74t172.5 -23q34 0 81 5.5t63 14.5l12 -17q-81 -63 -220 -63zM346 26q89 0 140.5 64.5t51.5 174.5
q0 109 -51.5 173.5t-140.5 64.5q-90 0 -141 -64.5t-51 -173.5q0 -110 51.5 -174.5t140.5 -64.5z" />
    <glyph glyph-name="r.sc" horiz-adv-x="606" 
d="M456 164l45 -84q30 -55 87 -57v-23h-143q-16 17 -41 69l-38 79q-13 28 -21.5 42.5t-22.5 32.5t-31 25.5t-39 7.5h-40v-148q0 -45 14.5 -63t51.5 -21l11 -1v-23h-244v23l11 1q36 3 51 20t15 64v314q0 47 -14.5 64.5t-51.5 17.5h-11v26h257q83 0 134 -31t51 -95
q0 -62 -44.5 -96t-110.5 -36l-41 -1v-6h31q49 0 75 -19.5t59 -81.5zM212 500v-216h56q124 0 124 118q0 98 -119 98h-61z" />
    <glyph glyph-name="s.sc" horiz-adv-x="477" 
d="M232 -13q-102 0 -184 49v145h30q29 -155 169 -155q109 0 109 87q0 34 -17.5 54t-64.5 40l-106 45q-114 48 -114 139q0 70 54 110.5t147 40.5q85 0 159 -33v-135h-28q-31 130 -151 130q-50 0 -78 -20t-28 -57q0 -56 85 -91l107 -44q113 -45 113 -142q0 -74 -55.5 -118.5
t-146.5 -44.5z" />
    <glyph glyph-name="t.sc" horiz-adv-x="525" 
d="M478 545h22v-181h-27l-3 27q-11 103 -103 103h-59v-386q0 -45 15.5 -63t66.5 -21l18 -1v-23h-290v23l18 1q48 2 65 19t17 65v386h-59q-92 0 -103 -103l-3 -27h-28v181h23q8 -15 39 -15h352q30 0 39 15z" />
    <glyph glyph-name="u.sc" horiz-adv-x="624" 
d="M412 530h195v-27h-18q-32 0 -45.5 -17t-13.5 -64v-221q0 -100 -56 -157t-155 -57q-107 0 -166 56t-59 158v221q0 47 -14.5 64.5t-51.5 17.5h-11v26h251v-27h-18q-32 0 -46 -16.5t-14 -64.5v-222q0 -78 39 -118.5t113 -40.5q148 0 148 165v216q0 47 -15 64.5t-51 17.5h-12
v26z" />
    <glyph glyph-name="v.sc" horiz-adv-x="599" 
d="M321 -5h-36l-207 465q-11 24 -25 34.5t-39 12.5v23h233v-23l-28 -2q-40 -3 -40 -33q0 -15 10 -39l106 -253q25 -59 27 -89h4q3 28 28 88l107 253q9 21 9 39q0 31 -38 34l-29 2v23h182v-23q-29 -2 -45.5 -16t-33.5 -54z" />
    <glyph glyph-name="w.sc" horiz-adv-x="872" 
d="M310 -4h-39l-175 447q-12 31 -29.5 47t-49.5 17v23h234v-26h-19q-43 0 -43 -34q0 -16 8 -38l96 -269q11 -30 14 -69h4q3 35 16 70l86 243l-19 48q-12 29 -22 39.5t-30 11.5l-17 1v23h230v-26h-17q-51 0 -51 -34q0 -14 7 -32l97 -268q16 -47 17 -74h4q5 40 17 74l94 261
q7 20 7 36q0 37 -51 37h-21v26h197v-23q-32 -4 -52 -18.5t-33 -49.5l-159 -443h-40l-116 313q-12 33 -12 69h-5q-3 -36 -15 -70z" />
    <glyph glyph-name="x.sc" horiz-adv-x="601" 
d="M204 0h-182v23q29 1 48 14.5t45 44.5l146 172l-158 209q-12 15 -19 22t-22.5 13.5t-38.5 8.5v23h240v-23l-22 -1q-37 -2 -37 -25q0 -11 8 -22l80 -106q19 -26 23 -43h4q0 4 1.5 7t2.5 5.5t4 6.5t4.5 6.5t7 8.5t8.5 10l74 90q19 23 19 39q0 21 -33 22l-24 1v24h188v-23
q-31 -2 -51 -15.5t-49 -47.5l-132 -155l155 -207q26 -35 41.5 -46t43.5 -13v-23h-231v23l21 1q37 2 37 24q0 14 -16 35l-82 108q-20 27 -22 43h-4q-2 -11 -6.5 -18t-21.5 -27l-90 -108q-17 -21 -17 -33q0 -22 36 -24l21 -1v-23z" />
    <glyph glyph-name="y.sc" horiz-adv-x="558" 
d="M372 506v24h172v-23q-24 -2 -38.5 -15.5t-30.5 -38.5l-147 -233v-112q0 -45 15.5 -63t66.5 -21l18 -1v-23h-290v23l18 1q51 3 66.5 21t15.5 63v111l-140 218q-25 38 -41.5 52t-42.5 18v23h236v-24l-29 -2q-38 -3 -38 -30q0 -15 12 -33l90 -137q22 -31 26 -55h4
q5 20 24 52l87 140q11 19 11 33q0 27 -40 30z" />
    <glyph glyph-name="z.sc" horiz-adv-x="542" 
d="M482 0h-431l-14 27l334 448q14 17 25 20l-2 4q-16 -4 -29 -4h-127q-71 0 -103.5 -22.5t-50.5 -92.5l-5 -19h-28l17 169h413l14 -27l-332 -446q-15 -19 -27 -22l1 -4q13 4 31 4h122q78 0 117 26.5t58 86.5l7 23h29z" />
    <glyph glyph-name="aacute.sc" horiz-adv-x="611" 
d="M464 740v-20l-144 -109h-29l81 129h92zM344 546l176 -452q23 -63 74 -71v-23h-230v24l23 2q34 3 42.5 18t-5.5 53l-36 94h-209l-34 -90q-15 -37 -6.5 -55.5t42.5 -20.5l18 -1v-24h-182v23q33 4 49 19.5t33 58.5l164 416zM233 331l-42 -109h185l-42 110q-46 121 -48 148
h-4q-2 -26 -49 -149z" />
    <glyph glyph-name="abreve.sc" horiz-adv-x="611" 
d="M305 604q-50 0 -81.5 34t-31.5 102h25q2 -42 26.5 -63.5t61.5 -21.5t61.5 21.5t26.5 63.5h26q0 -68 -31.5 -102t-82.5 -34zM344 546l176 -452q23 -63 74 -71v-23h-230v24l23 2q34 3 42.5 18t-5.5 53l-36 94h-209l-34 -90q-15 -37 -6.5 -55.5t42.5 -20.5l18 -1v-24h-182
v23q33 4 49 19.5t33 58.5l164 416zM233 331l-42 -109h185l-42 110q-46 121 -48 148h-4q-2 -26 -49 -149z" />
    <glyph glyph-name="acircumflex.sc" horiz-adv-x="611" 
d="M397 611l-91 66l-91 -66h-31l107 129h30l107 -129h-31zM344 546l176 -452q23 -63 74 -71v-23h-230v24l23 2q34 3 42.5 18t-5.5 53l-36 94h-209l-34 -90q-15 -37 -6.5 -55.5t42.5 -20.5l18 -1v-24h-182v23q33 4 49 19.5t33 58.5l164 416zM233 331l-42 -109h185l-42 110
q-46 121 -48 148h-4q-2 -26 -49 -149z" />
    <glyph glyph-name="adieresis.sc" horiz-adv-x="611" 
d="M211 604q-24 0 -40 16t-16 40t16 40t40 16t40 -16t16 -40t-16 -40t-40 -16zM401 604q-24 0 -40 16t-16 40t16 40t40 16t40 -16t16 -40t-16 -40t-40 -16zM344 546l176 -452q23 -63 74 -71v-23h-230v24l23 2q34 3 42.5 18t-5.5 53l-36 94h-209l-34 -90q-15 -37 -6.5 -55.5
t42.5 -20.5l18 -1v-24h-182v23q33 4 49 19.5t33 58.5l164 416zM233 331l-42 -109h185l-42 110q-46 121 -48 148h-4q-2 -26 -49 -149z" />
    <glyph glyph-name="agrave.sc" horiz-adv-x="611" 
d="M240 740l81 -129h-30l-143 109v20h92zM344 546l176 -452q23 -63 74 -71v-23h-230v24l23 2q34 3 42.5 18t-5.5 53l-36 94h-209l-34 -90q-15 -37 -6.5 -55.5t42.5 -20.5l18 -1v-24h-182v23q33 4 49 19.5t33 58.5l164 416zM233 331l-42 -109h185l-42 110q-46 121 -48 148h-4
q-2 -26 -49 -149z" />
    <glyph glyph-name="amacron.sc" horiz-adv-x="611" 
d="M178 670h256v-37h-256v37zM344 546l176 -452q23 -63 74 -71v-23h-230v24l23 2q34 3 42.5 18t-5.5 53l-36 94h-209l-34 -90q-15 -37 -6.5 -55.5t42.5 -20.5l18 -1v-24h-182v23q33 4 49 19.5t33 58.5l164 416zM233 331l-42 -109h185l-42 110q-46 121 -48 148h-4
q-2 -26 -49 -149z" />
    <glyph glyph-name="aogonek.sc" horiz-adv-x="611" 
d="M594 0h-230q-45 -15 -72 -49t-27 -70q0 -28 15 -44.5t42 -16.5q43 0 60 42l19 -10q-11 -40 -38 -64.5t-62 -24.5q-42 0 -67.5 26.5t-25.5 75.5q0 55 45.5 103t110.5 56l23 2q34 3 42.5 18t-5.5 53l-36 94h-209l-34 -90q-15 -37 -6.5 -55.5t42.5 -20.5l18 -1v-24h-182v23
q33 4 49 19.5t33 58.5l164 416l81 29l176 -452q23 -63 74 -71v-23zM233 331l-42 -109h185l-42 110q-46 121 -48 148h-4q-2 -26 -49 -149z" />
    <glyph glyph-name="aring.sc" horiz-adv-x="611" 
d="M305 559q-41 0 -69.5 27t-28.5 68q0 42 28.5 69t69.5 27q42 0 70.5 -27t28.5 -69q0 -41 -28.5 -68t-70.5 -27zM305 716q-26 0 -43 -17t-17 -45t17 -45t43 -17t43 16.5t17 45.5t-17 45.5t-43 16.5zM344 546l176 -452q23 -63 74 -71v-23h-230v24l23 2q34 3 42.5 18t-5.5 53
l-36 94h-209l-34 -90q-15 -37 -6.5 -55.5t42.5 -20.5l18 -1v-24h-182v23q33 4 49 19.5t33 58.5l164 416zM233 331l-42 -109h185l-42 110q-46 121 -48 148h-4q-2 -26 -49 -149z" />
    <glyph glyph-name="atilde.sc" horiz-adv-x="611" 
d="M239 646q-36 0 -56 -34h-16q3 47 30.5 68t63.5 21q27 0 59 -17.5t53 -17.5q37 0 56 33h16q-3 -47 -30.5 -67.5t-63.5 -20.5q-27 0 -59 17.5t-53 17.5zM344 546l176 -452q23 -63 74 -71v-23h-230v24l23 2q34 3 42.5 18t-5.5 53l-36 94h-209l-34 -90q-15 -37 -6.5 -55.5
t42.5 -20.5l18 -1v-24h-182v23q33 4 49 19.5t33 58.5l164 416zM233 331l-42 -109h185l-42 110q-46 121 -48 148h-4q-2 -26 -49 -149z" />
    <glyph glyph-name="ae.sc" horiz-adv-x="819" 
d="M736 144l8 25h28l-19 -169h-406v23l11 1q39 4 52.5 22t13.5 62v155h-173l-94 -162q-20 -36 -12.5 -53t41.5 -22l13 -2v-24h-185v23q37 4 55 19t43 58l212 357q17 29 1 39t-55 10h-28v24h510l14 -153h-28l-7 24q-15 52 -51 75.5t-106 23.5h-63v-206h25q44 0 63.5 16
t26.5 52l4 22h28v-213h-28l-4 23q-7 38 -26.5 53.5t-63.5 15.5h-25v-187q0 -46 50 -46h17q71 0 104.5 25.5t53.5 88.5zM389 500l-120 -207h155v207h-35z" />
    <glyph glyph-name="aeacute.sc" horiz-adv-x="819" 
d="M660 740v-20l-144 -109h-29l81 129h92zM736 144l8 25h28l-19 -169h-406v23l11 1q39 4 52.5 22t13.5 62v155h-173l-94 -162q-20 -36 -12.5 -53t41.5 -22l13 -2v-24h-185v23q37 4 55 19t43 58l212 357q17 29 1 39t-55 10h-28v24h510l14 -153h-28l-7 24q-15 52 -51 75.5
t-106 23.5h-63v-206h25q44 0 63.5 16t26.5 52l4 22h28v-213h-28l-4 23q-7 38 -26.5 53.5t-63.5 15.5h-25v-187q0 -46 50 -46h17q71 0 104.5 25.5t53.5 88.5zM389 500l-120 -207h155v207h-35z" />
    <glyph glyph-name="cacute.sc" horiz-adv-x="571" 
d="M493 720l-144 -109h-29l81 129h92v-20zM314 -13q-117 0 -191 73.5t-74 188.5q0 135 78.5 214t211.5 79q112 0 172 -35v-152h-28q-34 139 -168 139q-84 0 -132 -54.5t-48 -151.5q0 -98 59 -157.5t156 -59.5q108 0 159 88l25 -11q-23 -77 -80.5 -119t-139.5 -42z" />
    <glyph glyph-name="ccaron.sc" horiz-adv-x="571" 
d="M350 611h-30l-107 129h31l91 -67l91 67h31zM314 -13q-117 0 -191 73.5t-74 188.5q0 135 78.5 214t211.5 79q112 0 172 -35v-152h-28q-34 139 -168 139q-84 0 -132 -54.5t-48 -151.5q0 -98 59 -157.5t156 -59.5q108 0 159 88l25 -11q-23 -77 -80.5 -119t-139.5 -42z" />
    <glyph glyph-name="ccedilla.sc" horiz-adv-x="571" 
d="M509 159l25 -11q-21 -73 -74 -114.5t-129 -46.5l-39 -63q12 9 34 9q34 0 56 -22.5t22 -58.5q0 -38 -25.5 -63.5t-65.5 -25.5q-33 0 -56 17.5t-30 46.5l14 4q16 -36 54 -36q25 0 41.5 16t16.5 43q0 23 -12 38t-33 15q-23 0 -41 -18l-12 8l51 90q-114 3 -185.5 76
t-71.5 186q0 135 78.5 214t211.5 79q112 0 172 -35v-152h-28q-34 139 -168 139q-84 0 -132 -54.5t-48 -151.5q0 -98 59 -157.5t156 -59.5q108 0 159 88z" />
    <glyph glyph-name="ccircumflex.sc" horiz-adv-x="571" 
d="M244 611h-31l107 129h30l107 -129h-31l-91 66zM314 -13q-117 0 -191 73.5t-74 188.5q0 135 78.5 214t211.5 79q112 0 172 -35v-152h-28q-34 139 -168 139q-84 0 -132 -54.5t-48 -151.5q0 -98 59 -157.5t156 -59.5q108 0 159 88l25 -11q-23 -77 -80.5 -119t-139.5 -42z
" />
    <glyph glyph-name="cdotaccent.sc" horiz-adv-x="571" 
d="M335 599q-28 0 -48 19.5t-20 47.5t20 48t48 20t48 -20t20 -48t-20 -47.5t-48 -19.5zM314 -13q-117 0 -191 73.5t-74 188.5q0 135 78.5 214t211.5 79q112 0 172 -35v-152h-28q-34 139 -168 139q-84 0 -132 -54.5t-48 -151.5q0 -98 59 -157.5t156 -59.5q108 0 159 88
l25 -11q-23 -77 -80.5 -119t-139.5 -42z" />
    <glyph glyph-name="eth.sc" horiz-adv-x="642" 
d="M45 530h237q148 0 228 -69t80 -196q0 -128 -80 -196.5t-228 -68.5h-237v23l11 1q38 3 52 21t14 63v132h-80v29h80v153q0 46 -14.5 64t-51.5 18h-11v26zM261 35h38q92 0 142 60t50 170t-50 170t-142 60h-87v-226h157v-29h-157v-159q0 -46 49 -46z" />
    <glyph glyph-name="dcaron.sc" horiz-adv-x="642" 
d="M326 611h-30l-107 129h31l91 -67l91 67h31zM45 530h237q148 0 228 -69t80 -196q0 -128 -80 -196.5t-228 -68.5h-237v23l11 1q38 3 52 21t14 63v314q0 46 -14.5 64t-51.5 18h-11v26zM261 35h38q92 0 142 60t50 170t-50 170t-142 60h-87v-414q0 -46 49 -46z" />
    <glyph glyph-name="dcroat.sc" horiz-adv-x="642" 
d="M45 530h237q148 0 228 -69t80 -196q0 -128 -80 -196.5t-228 -68.5h-237v23l11 1q38 3 52 21t14 63v132h-80v29h80v153q0 46 -14.5 64t-51.5 18h-11v26zM261 35h38q92 0 142 60t50 170t-50 170t-142 60h-87v-226h157v-29h-157v-159q0 -46 49 -46z" />
    <glyph glyph-name="eacute.sc" horiz-adv-x="565" 
d="M441 740v-20l-144 -109h-29l81 129h92zM483 144l8 25h27l-18 -169h-455v23l11 1q36 3 51 20t15 64v314q0 47 -14.5 64.5t-51.5 17.5h-11v26h444l15 -154h-28l-7 25q-14 51 -52 75t-112 24h-93v-206h56q41 0 63.5 14t29.5 54l4 22h24v-213h-24l-4 23q-7 36 -26.5 52.5
t-66.5 16.5h-56v-187q0 -23 11 -34.5t38 -11.5h48q75 0 114 24t60 90z" />
    <glyph glyph-name="ebreve.sc" horiz-adv-x="565" 
d="M282 604q-50 0 -81.5 34t-31.5 102h25q2 -42 26.5 -63.5t61.5 -21.5t61.5 21.5t26.5 63.5h26q0 -68 -31.5 -102t-82.5 -34zM483 144l8 25h27l-18 -169h-455v23l11 1q36 3 51 20t15 64v314q0 47 -14.5 64.5t-51.5 17.5h-11v26h444l15 -154h-28l-7 25q-14 51 -52 75
t-112 24h-93v-206h56q41 0 63.5 14t29.5 54l4 22h24v-213h-24l-4 23q-7 36 -26.5 52.5t-66.5 16.5h-56v-187q0 -23 11 -34.5t38 -11.5h48q75 0 114 24t60 90z" />
    <glyph glyph-name="ecaron.sc" horiz-adv-x="565" 
d="M405 740l-107 -129h-30l-107 129h31l91 -67l91 67h31zM483 144l8 25h27l-18 -169h-455v23l11 1q36 3 51 20t15 64v314q0 47 -14.5 64.5t-51.5 17.5h-11v26h444l15 -154h-28l-7 25q-14 51 -52 75t-112 24h-93v-206h56q41 0 63.5 14t29.5 54l4 22h24v-213h-24l-4 23
q-7 36 -26.5 52.5t-66.5 16.5h-56v-187q0 -23 11 -34.5t38 -11.5h48q75 0 114 24t60 90z" />
    <glyph glyph-name="ecircumflex.sc" horiz-adv-x="565" 
d="M374 611l-91 66l-91 -66h-31l107 129h30l107 -129h-31zM483 144l8 25h27l-18 -169h-455v23l11 1q36 3 51 20t15 64v314q0 47 -14.5 64.5t-51.5 17.5h-11v26h444l15 -154h-28l-7 25q-14 51 -52 75t-112 24h-93v-206h56q41 0 63.5 14t29.5 54l4 22h24v-213h-24l-4 23
q-7 36 -26.5 52.5t-66.5 16.5h-56v-187q0 -23 11 -34.5t38 -11.5h48q75 0 114 24t60 90z" />
    </font>
</defs>
</svg>
